<svg xmlns="http://www.w3.org/2000/svg" width="2269" height="2278" fill="none"><g filter="url(#a)"><path fill="#006386" d="M1677.6 8.3c-6 3.7-7.6 7.8-11 28.2-4.7 27.7-16 82.3-21.7 104.1-9.9 38-19.6 62.5-30.5 76.8-8.1 10.7-14.8 14.7-22.7 13.7-7.9-.8-10.9-3.6-18.5-16.8-15.7-26.7-34.4-40.2-60.3-43.2a90 90 0 0 0-57 12.8c-18 10.2-37.2 33.3-46.4 56.2-5.8 14.6-9.4 44-7.3 59.2 3.2 21.6 12.7 43.2 24.7 55.1a75 75 0 0 0 47.9 24.7c15.4 1.8 24.4.4 43.6-7.2 10.1-3.8 14.7-4.9 19-4.4 20 2.5 21.7 29.6 5.3 75.8-10.2 28.3-31 74.7-53.9 119.5a502 502 0 0 0-13.2 27.3c-1.9 5.2 0 12.2 4.3 16 4.4 3.7 31.8 17.5 49.2 24.8 8.6 3.6 21 9 27.6 12 31.6 15 83 36 100 41.2 41.4 12.5 76.8 3.1 88.4-23.1 8-18.7 7.9-27.4-.7-51.4-6.4-17.5-6.3-17.7-5-28.9 1.2-9.6 2-12.2 6.2-18.4 9.6-15 29.9-26 51-27.6a81 81 0 0 1 37 5.2 74 74 0 0 1 47 46.9c3.2 9 3.2 10.5 1.6 23.5-2.4 20.1-6.1 25-29 39-13.2 7.8-19.9 13.7-24.8 22a51 51 0 0 0 4.7 59.3c8.3 10.7 29 24.6 47.8 32 39.5 15.5 113.2 33.4 162.3 39.4 28.7 3.5 31.1 2.6 40-16 4.7-10.1 24.2-59.7 28.9-73.6 2.1-6.6 14.4-42 21-60.6a8375 8375 0 0 0 43.6-132.4l14.5-45.9a3158 3158 0 0 1 43-127.6 552 552 0 0 0 19.9-57.2c13.5-52.2-3.8-90.8-53-118.2-22.7-12.7-53-23-138.3-47.2-99.9-28.2-127.2-36.8-270.4-84.8-103-34.5-106.2-35.3-114.8-30.2m68.3 48c196 65 202 67 323.5 100.7 61.4 17.1 85.5 25.4 110.5 37.9 24.3 12.2 40.3 27.6 46.1 44.5 2.7 8 2.8 9.3.8 24.2-2.2 17.2-5.6 27.8-22 70.7a3447 3447 0 0 0-50.7 151.5c-31.4 100.6-71.6 217.7-91.5 266.2l-8 19.8-11.3-1c-12.5-1-56.7-9.7-80-15.7-60-15.3-91.2-28-103.6-42.2-6.7-7.8-8.6-13.2-6.6-20.3 1.8-6.8 5-10.5 13-14.8 29.4-15.4 41.3-30.7 46.3-59.2 6.6-37.9-9.9-73.2-45-96.2A99 99 0 0 0 1818 504c-42-5.2-77.9 9.7-97 40.2-15.2 24-16.9 44.3-6.3 74 6.4 18 6.5 25.2.5 32.1-6.7 7.5-12.3 8.6-33.4 5.9-26.8-3.5-41-8.7-116.9-43.5-54.2-25-52.1-23.9-51.6-26.9a407 407 0 0 1 13-27.5c23-45.5 43.5-94.2 51.5-121.6 5.5-18.7 8.3-39.4 7-52a55 55 0 0 0-23.6-41c-7.5-5-9.4-5.6-20.2-6.9a54 54 0 0 0-35 6.2c-15.4 7.1-25.6 7.7-38.6 2.4-8.7-3.5-15.2-9-21.8-18.4a66 66 0 0 1-11.9-31.7c-2.2-15 1.3-37 8-50.3 14-28.1 38.3-44.5 63.5-43.1 19.5 1 28.5 7.3 41 29.1 12.7 22 24.2 30.1 44.8 31.7 9.7.8 12.6.4 20-2.5a65 65 0 0 0 28.5-23c20.3-26 35.5-74.2 53.3-169.3 4.6-25 5.2-26.9 7-26.6.5 0 21.3 6.9 46.1 15"/><path fill="#006386" d="M1256.6 259.2a23392 23392 0 0 0-209.8-2c-18.8 0-57.6-.3-86-.6l-167.5-1.5c-63.6-.5-137.7-1.3-164.7-1.8-55.4-1-97.5-1.2-166.1-1.2-81.2 0-161.7-.2-193.9-.6-57-.5-61.8-.7-83.9-1.6l-30-1.5c-13.3-.5-38 2.8-50.4 6.7-41.2 12.7-64.6 42.3-76 95.9-5 23.5-6.1 70.4-3.7 156.3C28.4 641.6 29 688 27.8 765c-1.2 75.6-2 162.2-2 214.5 0 18.2-.4 63.5-.8 100.9-.5 37.3-1 76.9-1 88l-.7 52.4-.7 66.6c-.5 80.9-4.9 290.2-8.5 414.2-2.8 92-4.3 179-4 238.5 0 40.8.3 58.2 2.1 116.8.8 27 .6 46.3-.7 76.6-3.2 76.3 40 118.5 131.4 128 657.4-.7 1096.5-2.6 1672 2 43 .4 75.4-4 101.5-15.7 22.1-10 39.6-29.5 51.2-57.4 6.5-16 12.6-48.6 14-75 1-20.3.9-74.3-.2-100.2-3.4-86.6-4.5-177-3.6-298.7l.5-85.5 2.1-176.7 1.4-161.4c2.4-258 2.8-359 1.4-362.6a16 16 0 0 0-11.3-9.8c-2.3-.4-12.5 1-22.6 2.8-19.4 3.8-80.1 11.6-104.4 13.7-37.3 3.2-52.4 3.1-78-.5-22.9-3.1-24.8-3.6-30.8-7.3a45 45 0 0 1-10.1-9.3c-3.6-5-3.8-5.7-2.5-14.3s1.4-9.2 10.3-18.9a152 152 0 0 0 14.3-18.3c15.6-24.3 14.8-56.5-1.8-85.4-10.5-18.1-25.9-31.4-49.4-42.2a83 83 0 0 0-29.2-7.8c-20-2.8-34-2.2-52.3 2.6-32.5 8.5-60.1 31.6-71.5 60-4.2 10.4-7 29.5-5.8 40 1.8 16.6 5.7 25.3 19.5 43.2 13.7 17.8 16.3 22.9 15.2 30.4-2.8 19.8-29.4 27.2-86.9 24-32.2-1.6-76.3-6-110.5-10.8-27.5-3.9-30-4.4-30.2-6.7 0-1.2 2.2-19.9 5-41.3 7-51.5 10.9-96.5 10.7-129.8-.1-52.1-13.3-82-41.3-93.5a50 50 0 0 0-30.7-2c-11.5 2.6-17.6 6.4-34.1 21.5-34.6 31.4-88.3.8-95.6-54.5a89 89 0 0 1 14.2-63.6c12-17.6 26.3-26.9 44.5-28.9 15.5-1.7 28.2 3.6 43.5 18.2a58 58 0 0 0 24.5 16c27.6 10 56-4.4 68.2-34.3 4.7-11.7 10.5-57.1 9.9-78.7q-2-63.9-16.8-151.9c-4.8-28.1-5.9-29.8-19.8-31.6-5.3-.7-37.2-1.6-70.8-2m62.8 58c13 86 16.1 153.7 8.3 182.6-4 14.8-7 20.3-13.1 25-10.4 7.8-18.1 6-33.5-7.4-19-16.9-28.6-22-47.4-24.7a84 84 0 0 0-65.8 18.6c-23.9 18.7-40.7 53.7-41.4 86.5-.7 32.3 7.4 57.1 26.2 80.6 23.7 29.5 60.6 42.7 92.1 33a77 77 0 0 0 33.6-19.5c13.6-12 18.7-14 28.3-11.8 5.8 1.4 7.1 2.4 10.7 7.7a74 74 0 0 1 9.8 28.5c3.8 24.9 1 82.4-7.5 151.4-4.7 37.8-5.8 44.7-7.4 45a985 985 0 0 1-48.4-4.7c-126.7-14-168.6-12.4-195.4 7.2a48 48 0 0 0-20 38.3c-.9 16.8 4.8 29.6 24 52.8 9 11 12.5 20.8 11.7 32.6-1.7 25.8-22.2 49.1-51.7 59.1-42.2 14.1-93-8.8-104.9-47.4a36 36 0 0 1-1.4-20.7c1.8-12.9 4-16.9 18.4-33.7 14.2-16.9 19.4-30.5 17.4-46.9a56 56 0 0 0-25.4-40.6c-30.4-19.9-98.5-22.2-209.5-7a317 317 0 0 1-27 3.1c-.7-1-7.1-52-10-80.3-6.1-59.5-6.6-87.8-2-113 5-26.8 13.6-38.7 27.7-38.2 7.5.3 10.2 2 23.9 14.5a77 77 0 0 0 49.3 22c21.3 1.6 38.8-4 58.7-18.8A74 74 0 0 0 870 668a117 117 0 0 0 21.8-66.5c0-41.4-17.4-78.5-46.2-98a83 83 0 0 0-43.4-15.7c-23.8-2-38.1 2.7-60.7 20.3-8.4 6.5-17 12.5-19 13.2-8.3 3-18.3-1.5-23.3-10.2-10.4-18.5-13.3-52.7-8.9-104.5 2.1-24.6 15.6-119.2 17.1-120.2.5-.2 22.5-.2 49.2 0 39 .6 139.5 1.6 190.9 2l132.5 1.2c16.6.2 41.4.5 55.1.5s44 .4 67.3.6c49.7.7 65.8.9 88.7.6 26.7-.3 23.9-3 28.3 26m-653.3 28a798 798 0 0 0-9 81.8c-2 56.6 3.3 86.1 19.5 106.3a48 48 0 0 0 44.8 20.1c13.6-1.2 24.2-6.3 37.6-18.4 12.2-11 19.7-15.4 29.2-16.7 28.3-4.2 56.5 17.1 68.1 51.5a102 102 0 0 1-1 59.9 88 88 0 0 1-25.9 35.1 51 51 0 0 1-38.2 13.2c-13.5-1.1-19.5-4.1-34-17-16.1-14.3-20-16.4-35.4-18.7-11.5-1.7-13.3-1.6-22 1.2a59 59 0 0 0-36.5 37.2c-13 34.3-12.9 88.2.4 191.6 2.5 19.5 4 35.9 3.3 36.3-2 1.5-61.7 9.2-93.4 12.1-67.4 6.1-110.3 2.4-125-11.2q-8.7-8-7.2-18.3c.9-7.3 3-11 11.6-20a76 76 0 0 0 24-52.4 69 69 0 0 0-.7-23.4c-5.9-27.7-28.3-54.3-57.3-68.9a125 125 0 0 0-59.3-11.2c-36.8 2.4-67.7 19-86.6 46.6a82 82 0 0 0-15.6 43c-2.2 26 4.8 44.7 25 66.8 10.2 11.1 12 23 5 33q-12.4 17.6-87.8 14c-28.7-1.5-133.1-14.5-138.1-17.4-2.8-1.6-3.2-3-3.2-8.4 1.8-101.1 2-242 0-303.3C54.6 448 54.3 422.3 56.9 381c1.4-18.8 2-23.4 5.6-35.7 10-33 25-51.4 48.9-59 18.4-6.1 34.1-7 79-4.7 12.6.7 27.8 1.4 34.2 1.5 27 .6 75.5 1 86 .7 6.4-.2 42.5-.2 80.2-.1a14899 14899 0 0 1 281.1 2.1c2.7.3 2.6 1-5.7 59.4m1023.1 426.1c16.7 8 31 24.5 36.4 41.7a43 43 0 0 1 1.9 19.5c-1.2 12.9-3.8 18-16.7 33-15.1 17.4-17 21-19.1 36.3-1.8 12.2-1.7 13.9 1.1 22.5a56 56 0 0 0 23.6 29.6c21.4 14 51.7 18.7 102.8 15.7 38.8-2.2 86.3-7.2 118.9-12.4a67 67 0 0 1 14.2-1.4c.5.9.6 3.5 0 46-.4 15.5-.6 45.5-.7 66.6 0 21.2-.3 55.3-.7 76-1.2 90.5-2 183.3-2.4 269-.1 36-1.5 143.7-1.8 154l-.4 7.3-33.2-5.1c-50.2-8-108.8-12.6-142-11.5-42 1.2-67.8 10.8-80.5 29.7a53.5 53.5 0 0 0 3.9 65c18.7 23 22.3 29.8 22.9 43 1 25-21.5 52.6-50.4 62-15.5 5-27 6.3-41 4.3-36.4-5.3-65.1-31.7-68-62.4-1.2-14.7 3.6-26 18.4-42.4 12.5-13.7 15.3-19.2 17.5-34.8 1.7-12.4 1.7-14.7-.7-22.2-9-30-35-45-81.6-47.5-35.5-1.7-69.8.3-136 8.3-20 2.3-37.7 4.1-39.5 4-3.1-.3-3.5-1.3-5.6-16.2-8.7-63.7-13.7-121.7-12.7-151.1 1.4-40.2 13-65 30.3-65.5 6.8 0 9.6 1.5 21.9 12.5 16.7 15.2 25.2 19.6 43.7 23 17.9 3.3 28 2.5 42.2-2.7a108 108 0 0 0 63.3-66.2 165 165 0 0 0 6.4-50.2c-3.7-39.5-24.3-73.7-54.8-91.3-12.2-7-29.7-11-45-10.7a79 79 0 0 0-53.3 23c-16.3 14.8-27.5 16.2-37.4 4.9-8.3-9.3-13-27.7-14-53-1-29 .4-45.6 8.5-107.5 6.9-53.4 8.3-61.9 10.3-63.3 1.8-1.5 10.6-.7 53 4.6 56.7 7 84.1 9.5 112.8 9.6 52.3.3 80.2-9.6 93-33a64 64 0 0 0 4.9-35 75 75 0 0 0-19.2-34.9 52 52 0 0 1-12.7-19.7c-11.5-34 17.8-71.7 61.6-79.4a107 107 0 0 1 56 8.3M408 756.5c27.8 14.5 43.2 41.8 37.3 66.5a53 53 0 0 1-15.7 26.6 152 152 0 0 0-11.9 14.2c-4.5 6.3-5 7.8-7 22-2 14.5-2 15.5.9 23.6 5.7 15.9 18.9 28.4 38.4 36.6 6.4 2.7 13.5 4.1 30 6.5a237 237 0 0 0 50 2 1040 1040 0 0 0 122.4-11l21.3-2.8 1 5c4.2 20 12.4 107.5 13.2 140.8 1.3 46.5-5.1 73.7-19.7 83.2-9.8 6.5-17.8 4.4-31.8-8.4a115 115 0 0 0-32-20.8c-4-1.5-12.4-3-19.7-3.6-23.6-2-42.2 4.2-63.3 21a105 105 0 0 0-31 40c-4.8 10.4-5.6 13.3-8.4 32.5-2.7 19.2-2.7 22.3-1 33.3 6.2 38.7 27.6 70.4 58.7 86.9a64 64 0 0 0 26.5 7.4c16 2.4 17.9 2.4 27 0a100 100 0 0 0 41-22.2c14.6-13.3 23.8-15.6 32.4-8.6 14.7 12.2 19.3 38.4 17.1 96a1571 1571 0 0 1-15.7 127.3l-1.6 7-41.2-5.9a1009 1009 0 0 0-122.6-10.6c-44.1.1-64.6 5.2-82.8 20.1-10.7 8.9-15 17.3-17.4 33-2.8 18.4 0 26.1 17.6 49.5 14 18.6 16.4 23.4 17 36.4 1 24.3-22.2 52-51.1 61.2a85 85 0 0 1-41.3 3.7c-41-5.8-70.8-38.4-66-72.2 1.6-11.3 5.7-18.6 17.1-30.8 14.5-15.2 20.2-28.6 19.2-44.6a61 61 0 0 0-40.9-53.6q-50.7-18.5-197.3 2.2c-17 2.4-26 3.2-26.1 2a27061 27061 0 0 0 4.8-287.6l1-92.7c.8-58.3 1-83.6 1.2-156.7.1-35.1.4-67.1.5-71l.2-7 47.4 6.7c135.3 19.1 186 14.4 208.4-19 5-7.4 5.5-9.1 7.3-22 1.9-13.4 1.9-14.3-1.6-24.8-3-9-5.4-13-15-24.9a68 68 0 0 1-14.4-22.7c-11.5-35 20.3-73.2 65.4-78.8 15-2 39.4 2.3 52.2 9m892.3 235.2c-14.5 93.9-14.7 151-.9 184.4 8.5 20.6 21 32 39.8 35.7a57 57 0 0 0 52-16c20.5-19.5 38.9-23 61.6-11.9 34.6 17 51.5 67.9 35.4 106.7-10.6 25.5-28.7 42.1-50.8 46.7-18.1 3.6-29.4-.3-46.5-16-13.7-12.7-23.7-18-37-19.8a43 43 0 0 0-36 9.9c-17.5 13.4-24.4 27.3-29 60a289 289 0 0 0-1.8 69.2c1.7 28.2 11 114.3 13.8 126.4.9 3.8 3.7 3.3-38.3 8.5-32.3 4.1-62.7 6.7-92 8q-100.4 4.2-94.9-33.5c1-7 3.4-10.7 13-21 18.1-19.2 25.4-38.4 23.7-62.3a95 95 0 0 0-24.3-54.4 129 129 0 0 0-40.2-27.2 125 125 0 0 0-109.5 7 109 109 0 0 0-41.7 47.7c-4.1 9.8-7 30.3-5.8 41 1.8 16.5 5.8 25.3 19.6 43.1 13.7 17.8 16.2 23 15.1 30.4-4.2 29.7-61 32.5-209.7 10.3l-17.5-2.6 6.4-42q21.9-142 2.4-189.5c-11.1-27.2-35.6-41.7-62-36.6a69 69 0 0 0-32.8 18.4c-11.6 10.3-18.8 14.6-26.6 15.6-21.6 3.1-39.8-5.8-56.2-27.5a68 68 0 0 1-13-24.2 93 93 0 0 1 11.6-80.7 81 81 0 0 1 32.4-25 73 73 0 0 1 24.7-3c8 1.2 19.2 7.8 30.1 17.7 14.7 13.2 21 16.7 34.8 18.6 23 3.4 39.5-4 52-23 20.6-31.5 22.9-86.5 8.4-202.5-2.7-21.9-5-40.4-4.8-41 .1-1.2 41.3-6.7 70.7-9.6 67.1-6.5 116.1-5.1 135.3 3.6 15 7 20.3 15 18.5 27.4-.7 5-2 8-6.4 13-22.5 26.6-26.3 33.4-29 52.5-4.9 35 11 67.8 43.8 89.6a99 99 0 0 0 50.6 18.6 95 95 0 0 0 29.7 1.1c28-4 48.5-13.2 66-29.7a88 88 0 0 0 29.9-56 62 62 0 0 0-.2-25.6 82 82 0 0 0-21-41c-10.7-12-14.3-19.9-13-28.3 2.7-19.4 28.4-25.3 92.5-21.5 31.8 2 81.6 6.7 109 10.3l25.2 3.4zm-264.9 422c22.3 9.3 40.6 29.5 44.7 49.2a58 58 0 0 1-2.9 28.8c-1.2 2.5-7 10.3-13.1 17.4-14.5 16.7-17.5 22.5-19.7 38.5-1.6 11.4-1.5 13.3 1.2 21.8a62 62 0 0 0 33.8 35.5c16.5 7.3 52 11.6 85.4 10.3a1535 1535 0 0 0 125.5-11.2 51 51 0 0 1 15-1c1.1 1.6 8.8 65 11.1 91.4 4.5 51.4 4.9 71.4 1.5 95.5-4.8 33.5-14.5 46.9-31.9 43.3-6.1-1.2-8.9-2.9-17.3-10-17.9-15.5-30.7-22-47.8-24.5a70 70 0 0 0-37.4 3.3c-55.5 18.6-85 85.7-64.4 146.9a102 102 0 0 0 20 36.2 90 90 0 0 0 50.8 33c26.7 7 44 2.8 72.5-17.7 9.9-7.1 19.6-13.3 21.6-13.7 18.8-4.2 30.1 16.3 32.3 58.2 1.4 29-5.5 100.6-14.7 150.7-4.4 24.5-4.4 24.7-7.8 25.5-71.1 1.8-546 3.7-607.2.6-2.4-3.3-6.5-65-10-100.5-7.4-75.1-5-112.2 8.2-131.6 6.2-9.2 12.4-12.1 21.5-10.2 5.6 1.4 8.5 3.1 16.8 10.5 19.6 17.6 30.1 23 47.7 25.7a81 81 0 0 0 56.3-12 103 103 0 0 0 39.6-43.8c15.3-30.8 17.3-62 6.1-95.8a78 78 0 0 0-16.1-30.6 90 90 0 0 0-35.3-30.7 81 81 0 0 0-63.4-5.3 78 78 0 0 0-26 15.2c-17.5 13.4-22.9 16.1-29.9 15.2-13.9-2-22.3-17.5-25.6-47.4-1.8-16.7-2-27.1-.7-55.2 1.2-25.8 9.4-95 13.8-116.1l3.1-15.2 60.3 7.7c80.8 10.5 117.8 12 148.2 6.4 22.7-4.2 36.6-12.2 46.6-27 5.1-7.5 5.6-8.7 7.5-22.5 2-13.6 1.9-15-.9-24-2.4-7.8-5.5-12.8-15.5-25.8-18-23.3-21-35.7-13.3-55.1a62 62 0 0 1 20.6-28 90 90 0 0 1 89.2-11.8m910.8 194c.4.8.5 19.3.3 40.9-.3 21.7-.4 57-.5 78.3 0 21.4 0 56.8-.2 78.6-.2 53 .6 88.6 4 204 .8 22.7.9 70.7.3 92.2-.8 23.7-6.5 61.6-11.3 73.8q-16.2 42.5-57.4 49.7c-165.9 3.7-371.8-.4-550-3.7-.3 0 3-27 7.4-60a1742 1742 0 0 0 9-76.9c3.1-69.6-5.5-103.6-30.8-121a51 51 0 0 0-48.5-5.7 53 53 0 0 0-20.1 12.9c-19.5 16.9-28.6 20.3-46.4 17.8a57 57 0 0 1-31.6-16 70 70 0 0 1-21-33.8c-11.7-35.5-1.8-74.1 24.4-95.5a56 56 0 0 1 30.8-14c15.1-1.7 28.5 3.6 42 16.8 3.1 3 9.4 8 14 11 8 5.3 9.5 5.8 22.4 7.6 17.8 2.4 26.5.7 38-8 16.1-11.7 23.8-27.7 28-58 4.5-31.2 3.8-63.9-2-119.4a3035 3035 0 0 0-9.3-76.5c-.3-2.4-.2-4.7.4-4.9 2-.9 46.2-6.5 70.8-9 59.8-6.3 103.8-6.6 124.4-1 19.7 5.4 29 13 30.4 25 1 7.5-1.7 13.3-11.5 24.4-16.6 18.8-21.8 29.5-24.6 49a82 82 0 0 0 17.5 63.3 105 105 0 0 0 40.3 33.6c11.5 5.7 12.9 6 34.4 9.1 20 3 23.5 3 32.8 1.7 30.2-5 49.3-14 67.2-31.5 27.3-26.5 36-63.1 22.8-95.6-1.7-3.8-8.8-14.8-16.2-24.4-11-14.3-13.4-18.3-13.6-22.5q-1-21.3 30.6-27.4c16.5-3.2 49.1-4 82-2 22.5 1.5 120 15.3 120.8 17m-1293.3 35.6c-9 63-11.1 92-9.6 123 1.6 30.6 7.8 55.2 17.6 69.6a55 55 0 0 0 45.5 23.3c13.4-.3 21-3.8 39.3-17.7 20-15.4 25.8-17.7 41.3-16.3q27.4 2.4 45.8 29.5a91 91 0 0 1 6 89c-13.3 27-36.2 42.6-60 41.3-12.1-.7-18.4-4-33.5-17.2-15.6-13.6-24.9-18.1-40.7-19.6-13.6-1.2-22.6.9-31.3 7.2-27 19.5-35.9 56.7-31.5 131.1.8 12.7 19.5 134 14.2 136.6-156.6 5-319 10.5-475 7.6-42.2-.8-66.3-4.4-88.4-13.2-26.2-10.4-46.2-34-49-58-.6-4.5-.4-18.7.3-31.5 1.5-25.7 1.4-34.6-.5-99.7-2.4-87.8-1.8-176.7 2-300.7 1.7-53.2 4-138.6 4-141.7-.2-4.3 0-4.3 23.9-8 65.7-10 135.9-13.7 170-8.9 35 5 50.3 25.6 33.7 45.2-22.3 26.5-25.5 32-29.4 51.7a80 80 0 0 0 3.4 43.6c4.3 11.8 22 35.4 33 43.7 28.4 21.5 61.9 29 98.3 22.2a110 110 0 0 0 80-63.8c4.1-10.6 7-29.6 5.8-40.1-2.1-16.9-5.9-25.4-20.1-44a185 185 0 0 1-14.5-20.4c-1.5-4.4.2-14.7 3.2-18.8 10.4-14.7 45.9-18.5 121-13 3.4.2 27.8 3.4 54.5 7l48.4 6.6z"/><path stroke="#006386" stroke-width="12" d="M1677.6 8.3c-6 3.7-7.6 7.8-11 28.2-4.7 27.7-16 82.3-21.7 104.1-9.9 38-19.6 62.5-30.5 76.8-8.1 10.7-14.8 14.7-22.7 13.7-7.9-.8-10.9-3.6-18.5-16.8-15.7-26.7-34.4-40.2-60.3-43.2a90 90 0 0 0-57 12.8c-18 10.2-37.2 33.3-46.4 56.2-5.8 14.6-9.4 44-7.3 59.2 3.2 21.6 12.7 43.2 24.7 55.1a75 75 0 0 0 47.9 24.7c15.4 1.8 24.4.4 43.6-7.2 10.1-3.8 14.7-4.9 19-4.4 20 2.5 21.7 29.6 5.3 75.8-10.2 28.3-31 74.7-53.9 119.5a502 502 0 0 0-13.2 27.3c-1.9 5.2 0 12.2 4.3 16 4.4 3.7 31.8 17.5 49.2 24.8 8.6 3.6 21 9 27.6 12 31.6 15 83 36 100 41.2 41.4 12.5 76.8 3.1 88.4-23.1 8-18.7 7.9-27.4-.7-51.4-6.4-17.5-6.3-17.7-5-28.9 1.2-9.6 2-12.2 6.2-18.4 9.6-15 29.9-26 51-27.6a81 81 0 0 1 37 5.2 74 74 0 0 1 47 46.9c3.2 9 3.2 10.5 1.6 23.5-2.4 20.1-6.1 25-29 39-13.2 7.8-19.9 13.7-24.8 22a51 51 0 0 0 4.7 59.3c8.3 10.7 29 24.6 47.8 32 39.5 15.5 113.2 33.4 162.3 39.4 28.7 3.5 31.1 2.6 40-16 4.7-10.1 24.2-59.7 28.9-73.6 2.1-6.6 14.4-42 21-60.6a8375 8375 0 0 0 43.6-132.4l14.5-45.9a3158 3158 0 0 1 43-127.6 552 552 0 0 0 19.9-57.2c13.5-52.2-3.8-90.8-53-118.2-22.7-12.7-53-23-138.3-47.2-99.9-28.2-127.2-36.8-270.4-84.8-103-34.5-106.2-35.3-114.8-30.2Zm68.3 48c196 65 202 67 323.5 100.7 61.4 17.1 85.5 25.4 110.5 37.9 24.3 12.2 40.3 27.6 46.1 44.5 2.7 8 2.8 9.3.8 24.2-2.2 17.2-5.6 27.8-22 70.7a3447 3447 0 0 0-50.7 151.5c-31.4 100.6-71.6 217.7-91.5 266.2l-8 19.8-11.3-1c-12.5-1-56.7-9.7-80-15.7-60-15.3-91.2-28-103.6-42.2-6.7-7.8-8.6-13.2-6.6-20.3 1.8-6.8 5-10.5 13-14.8 29.4-15.4 41.3-30.7 46.3-59.2 6.6-37.9-9.9-73.2-45-96.2A99 99 0 0 0 1818 504c-42-5.2-77.9 9.7-97 40.2-15.2 24-16.9 44.3-6.3 74 6.4 18 6.5 25.2.5 32.1-6.7 7.5-12.3 8.6-33.4 5.9-26.8-3.5-41-8.7-116.9-43.5-54.2-25-52.1-23.9-51.6-26.9a407 407 0 0 1 13-27.5c23-45.5 43.5-94.2 51.5-121.6 5.5-18.7 8.3-39.4 7-52a55 55 0 0 0-23.6-41c-7.5-5-9.4-5.6-20.2-6.9a54 54 0 0 0-35 6.2c-15.4 7.1-25.6 7.7-38.6 2.4-8.7-3.5-15.2-9-21.8-18.4a66 66 0 0 1-11.9-31.7c-2.2-15 1.3-37 8-50.3 14-28.1 38.3-44.5 63.5-43.1 19.5 1 28.5 7.3 41 29.1 12.7 22 24.2 30.1 44.8 31.7 9.7.8 12.6.4 20-2.5a65 65 0 0 0 28.5-23c20.3-26 35.5-74.2 53.3-169.3 4.6-25 5.2-26.9 7-26.6.5 0 21.3 6.9 46.1 15Z"/><path stroke="#006386" stroke-width="12" d="M1256.6 259.2a23392 23392 0 0 0-209.8-2c-18.8 0-57.6-.3-86-.6l-167.5-1.5c-63.6-.5-137.7-1.3-164.7-1.8-55.4-1-97.5-1.2-166.1-1.2-81.2 0-161.7-.2-193.9-.6-57-.5-61.8-.7-83.9-1.6l-30-1.5c-13.3-.5-38 2.8-50.4 6.7-41.2 12.7-64.6 42.3-76 95.9-5 23.5-6.1 70.4-3.7 156.3C28.4 641.6 29 688 27.8 765c-1.2 75.6-2 162.2-2 214.5 0 18.2-.4 63.5-.8 100.9-.5 37.3-1 76.9-1 88l-.7 52.4-.7 66.6c-.5 80.9-4.9 290.2-8.5 414.2-2.8 92-4.3 179-4 238.5 0 40.8.3 58.2 2.1 116.8.8 27 .6 46.3-.7 76.6-3.2 76.3 40 118.5 131.4 128 657.4-.7 1096.5-2.6 1672 2 43 .4 75.4-4 101.5-15.7 22.1-10 39.6-29.5 51.2-57.4 6.5-16 12.6-48.6 14-75 1-20.3.9-74.3-.2-100.2-3.4-86.6-4.5-177-3.6-298.7l.5-85.5 2.1-176.7 1.4-161.4c2.4-258 2.8-359 1.4-362.6a16 16 0 0 0-11.3-9.8c-2.3-.4-12.5 1-22.6 2.8-19.4 3.8-80.1 11.6-104.4 13.7-37.3 3.2-52.4 3.1-78-.5-22.9-3.1-24.8-3.6-30.8-7.3a45 45 0 0 1-10.1-9.3c-3.6-5-3.8-5.7-2.5-14.3s1.4-9.2 10.3-18.9a152 152 0 0 0 14.3-18.3c15.6-24.3 14.8-56.5-1.8-85.4-10.5-18.1-25.9-31.4-49.4-42.2a83 83 0 0 0-29.2-7.8c-20-2.8-34-2.2-52.3 2.6-32.5 8.5-60.1 31.6-71.5 60-4.2 10.4-7 29.5-5.8 40 1.8 16.6 5.7 25.3 19.5 43.2 13.7 17.8 16.3 22.9 15.2 30.4-2.8 19.8-29.4 27.2-86.9 24-32.2-1.6-76.3-6-110.5-10.8-27.5-3.9-30-4.4-30.2-6.7 0-1.2 2.2-19.9 5-41.3 7-51.5 10.9-96.5 10.7-129.8-.1-52.1-13.3-82-41.3-93.5a50 50 0 0 0-30.7-2c-11.5 2.6-17.6 6.4-34.1 21.5-34.6 31.4-88.3.8-95.6-54.5a89 89 0 0 1 14.2-63.6c12-17.6 26.3-26.9 44.5-28.9 15.5-1.7 28.2 3.6 43.5 18.2a58 58 0 0 0 24.5 16c27.6 10 56-4.4 68.2-34.3 4.7-11.7 10.5-57.1 9.9-78.7q-2-63.9-16.8-151.9c-4.8-28.1-5.9-29.8-19.8-31.6-5.3-.7-37.2-1.6-70.8-2Zm62.8 58c13 86 16.1 153.7 8.3 182.6-4 14.8-7 20.3-13.1 25-10.4 7.8-18.1 6-33.5-7.4-19-16.9-28.6-22-47.4-24.7a84 84 0 0 0-65.8 18.6c-23.9 18.7-40.7 53.7-41.4 86.5-.7 32.3 7.4 57.1 26.2 80.6 23.7 29.5 60.6 42.7 92.1 33a77 77 0 0 0 33.6-19.5c13.6-12 18.7-14 28.3-11.8 5.8 1.4 7.1 2.4 10.7 7.7a74 74 0 0 1 9.8 28.5c3.8 24.9 1 82.4-7.5 151.4-4.7 37.8-5.8 44.7-7.4 45a985 985 0 0 1-48.4-4.7c-126.7-14-168.6-12.4-195.4 7.2a48 48 0 0 0-20 38.3c-.9 16.8 4.8 29.6 24 52.8 9 11 12.5 20.8 11.7 32.6-1.7 25.8-22.2 49.1-51.7 59.1-42.2 14.1-93-8.8-104.9-47.4a36 36 0 0 1-1.4-20.7c1.8-12.9 4-16.9 18.4-33.7 14.2-16.9 19.4-30.5 17.4-46.9a56 56 0 0 0-25.4-40.6c-30.4-19.9-98.5-22.2-209.5-7a317 317 0 0 1-27 3.1c-.7-1-7.1-52-10-80.3-6.1-59.5-6.6-87.8-2-113 5-26.8 13.6-38.7 27.7-38.2 7.5.3 10.2 2 23.9 14.5a77 77 0 0 0 49.3 22c21.3 1.6 38.8-4 58.7-18.8a74 74 0 0 0 22.3-23.1 117 117 0 0 0 21.8-66.5c0-41.4-17.4-78.5-46.2-98a83 83 0 0 0-43.4-15.7c-23.8-2-38.1 2.7-60.7 20.3-8.4 6.5-17 12.5-19 13.2-8.3 3-18.3-1.5-23.3-10.2-10.4-18.5-13.3-52.7-8.9-104.5 2.1-24.6 15.6-119.2 17.1-120.2.5-.2 22.5-.2 49.2 0 39 .6 139.5 1.6 190.9 2l132.5 1.2c16.6.2 41.4.5 55.1.5s44 .4 67.3.6c49.7.7 65.8.9 88.7.6 26.7-.3 23.9-3 28.3 26Zm-653.3 28a798 798 0 0 0-9 81.8c-2 56.6 3.3 86.1 19.5 106.3a48 48 0 0 0 44.8 20.1c13.6-1.2 24.2-6.3 37.6-18.4 12.2-11 19.7-15.4 29.2-16.7 28.3-4.2 56.5 17.1 68.1 51.5a102 102 0 0 1-1 59.9 88 88 0 0 1-25.9 35.1 51 51 0 0 1-38.2 13.2c-13.5-1.1-19.5-4.1-34-17-16.1-14.3-20-16.4-35.4-18.7-11.5-1.7-13.3-1.6-22 1.2a59 59 0 0 0-36.5 37.2c-13 34.3-12.9 88.2.4 191.6 2.5 19.5 4 35.9 3.3 36.3-2 1.5-61.7 9.2-93.4 12.1-67.4 6.1-110.3 2.4-125-11.2q-8.7-8-7.2-18.3c.9-7.3 3-11 11.6-20a76 76 0 0 0 24-52.4 69 69 0 0 0-.7-23.4c-5.9-27.7-28.3-54.3-57.3-68.9a125 125 0 0 0-59.3-11.2c-36.8 2.4-67.7 19-86.6 46.6a82 82 0 0 0-15.6 43c-2.2 26 4.8 44.7 25 66.8 10.2 11.1 12 23 5 33q-12.4 17.6-87.8 14c-28.7-1.5-133.1-14.5-138.1-17.4-2.8-1.6-3.2-3-3.2-8.4 1.8-101.1 2-242 0-303.3C54.6 448 54.3 422.3 56.9 381c1.4-18.8 2-23.4 5.6-35.7 10-33 25-51.4 48.9-59 18.4-6.1 34.1-7 79-4.7 12.6.7 27.8 1.4 34.2 1.5 27 .6 75.5 1 86 .7 6.4-.2 42.5-.2 80.2-.1a14899 14899 0 0 1 281.1 2.1c2.7.3 2.6 1-5.7 59.4Zm1023.1 426.1c16.7 8 31 24.5 36.4 41.7a43 43 0 0 1 1.9 19.5c-1.2 12.9-3.8 18-16.7 33-15.1 17.4-17 21-19.1 36.3-1.8 12.2-1.7 13.9 1.1 22.5a56 56 0 0 0 23.6 29.6c21.4 14 51.7 18.7 102.8 15.7 38.8-2.2 86.3-7.2 118.9-12.4a67 67 0 0 1 14.2-1.4c.5.9.6 3.5 0 46-.4 15.5-.6 45.5-.7 66.6 0 21.2-.3 55.3-.7 76-1.2 90.5-2 183.3-2.4 269-.1 36-1.5 143.7-1.8 154l-.4 7.3-33.2-5.1c-50.2-8-108.8-12.6-142-11.5-42 1.2-67.8 10.8-80.5 29.7a53.5 53.5 0 0 0 3.9 65c18.7 23 22.3 29.8 22.9 43 1 25-21.5 52.6-50.4 62-15.5 5-27 6.3-41 4.3-36.4-5.3-65.1-31.7-68-62.4-1.2-14.7 3.6-26 18.4-42.4 12.5-13.7 15.3-19.2 17.5-34.8 1.7-12.4 1.7-14.7-.7-22.2-9-30-35-45-81.6-47.5-35.5-1.7-69.8.3-136 8.3-20 2.3-37.7 4.1-39.5 4-3.1-.3-3.5-1.3-5.6-16.2-8.7-63.7-13.7-121.7-12.7-151.1 1.4-40.2 13-65 30.3-65.5 6.8 0 9.6 1.5 21.9 12.5 16.7 15.2 25.2 19.6 43.7 23 17.9 3.3 28 2.5 42.2-2.7a108 108 0 0 0 63.3-66.2 165 165 0 0 0 6.4-50.2c-3.7-39.5-24.3-73.7-54.8-91.3-12.2-7-29.7-11-45-10.7a79 79 0 0 0-53.3 23c-16.3 14.8-27.5 16.2-37.4 4.9-8.3-9.3-13-27.7-14-53-1-29 .4-45.6 8.5-107.5 6.9-53.4 8.3-61.9 10.3-63.3 1.8-1.5 10.6-.7 53 4.6 56.7 7 84.1 9.5 112.8 9.6 52.3.3 80.2-9.6 93-33a64 64 0 0 0 4.9-35 75 75 0 0 0-19.2-34.9 52 52 0 0 1-12.7-19.7c-11.5-34 17.8-71.7 61.6-79.4a107 107 0 0 1 56 8.3ZM408 756.5c27.8 14.5 43.2 41.8 37.3 66.5a53 53 0 0 1-15.7 26.6 152 152 0 0 0-11.9 14.2c-4.5 6.3-5 7.8-7 22-2 14.5-2 15.5.9 23.6 5.7 15.9 18.9 28.4 38.4 36.6 6.4 2.7 13.5 4.1 30 6.5a237 237 0 0 0 50 2 1040 1040 0 0 0 122.4-11l21.3-2.8 1 5c4.2 20 12.4 107.5 13.2 140.8 1.3 46.5-5.1 73.7-19.7 83.2-9.8 6.5-17.8 4.4-31.8-8.4a115 115 0 0 0-32-20.8c-4-1.5-12.4-3-19.7-3.6-23.6-2-42.2 4.2-63.3 21a105 105 0 0 0-31 40c-4.8 10.4-5.6 13.3-8.4 32.5-2.7 19.2-2.7 22.3-1 33.3 6.2 38.7 27.6 70.4 58.7 86.9a64 64 0 0 0 26.5 7.4c16 2.4 17.9 2.4 27 0a100 100 0 0 0 41-22.2c14.6-13.3 23.8-15.6 32.4-8.6 14.7 12.2 19.3 38.4 17.1 96a1571 1571 0 0 1-15.7 127.3l-1.6 7-41.2-5.9a1009 1009 0 0 0-122.6-10.6c-44.1.1-64.6 5.2-82.8 20.1-10.7 8.9-15 17.3-17.4 33-2.8 18.4 0 26.1 17.6 49.5 14 18.6 16.4 23.4 17 36.4 1 24.3-22.2 52-51.1 61.2a85 85 0 0 1-41.3 3.7c-41-5.8-70.8-38.4-66-72.2 1.6-11.3 5.7-18.6 17.1-30.8 14.5-15.2 20.2-28.6 19.2-44.6a61 61 0 0 0-40.9-53.6q-50.7-18.5-197.3 2.2c-17 2.4-26 3.2-26.1 2a27061 27061 0 0 0 4.8-287.6l1-92.7c.8-58.3 1-83.6 1.2-156.7.1-35.1.4-67.1.5-71l.2-7 47.4 6.7c135.3 19.1 186 14.4 208.4-19 5-7.4 5.5-9.1 7.3-22 1.9-13.4 1.9-14.3-1.6-24.8-3-9-5.4-13-15-24.9a68 68 0 0 1-14.4-22.7c-11.5-35 20.3-73.2 65.4-78.8 15-2 39.4 2.3 52.2 9Zm892.3 235.2c-14.5 93.9-14.7 151-.9 184.4 8.5 20.6 21 32 39.8 35.7a57 57 0 0 0 52-16c20.5-19.5 38.9-23 61.6-11.9 34.6 17 51.5 67.9 35.4 106.7-10.6 25.5-28.7 42.1-50.8 46.7-18.1 3.6-29.4-.3-46.5-16-13.7-12.7-23.7-18-37-19.8a43 43 0 0 0-36 9.9c-17.5 13.4-24.4 27.3-29 60a289 289 0 0 0-1.8 69.2c1.7 28.2 11 114.3 13.8 126.4.9 3.8 3.7 3.3-38.3 8.5-32.3 4.1-62.7 6.7-92 8q-100.4 4.2-94.9-33.5c1-7 3.4-10.7 13-21 18.1-19.2 25.4-38.4 23.7-62.3a95 95 0 0 0-24.3-54.4 129 129 0 0 0-40.2-27.2 125 125 0 0 0-109.5 7 109 109 0 0 0-41.7 47.7c-4.1 9.8-7 30.3-5.8 41 1.8 16.5 5.8 25.3 19.6 43.1 13.7 17.8 16.2 23 15.1 30.4-4.2 29.7-61 32.5-209.7 10.3l-17.5-2.6 6.4-42q21.9-142 2.4-189.5c-11.1-27.2-35.6-41.7-62-36.6a69 69 0 0 0-32.8 18.4c-11.6 10.3-18.8 14.6-26.6 15.6-21.6 3.1-39.8-5.8-56.2-27.5a68 68 0 0 1-13-24.2 93 93 0 0 1 11.6-80.7 81 81 0 0 1 32.4-25 73 73 0 0 1 24.7-3c8 1.2 19.2 7.8 30.1 17.7 14.7 13.2 21 16.7 34.8 18.6 23 3.4 39.5-4 52-23 20.6-31.5 22.9-86.5 8.4-202.5-2.7-21.9-5-40.4-4.8-41 .1-1.2 41.3-6.7 70.7-9.6 67.1-6.5 116.1-5.1 135.3 3.6 15 7 20.3 15 18.5 27.4-.7 5-2 8-6.4 13-22.5 26.6-26.3 33.4-29 52.5-4.9 35 11 67.8 43.8 89.6a99 99 0 0 0 50.6 18.6 95 95 0 0 0 29.7 1.1c28-4 48.5-13.2 66-29.7a88 88 0 0 0 29.9-56 62 62 0 0 0-.2-25.6 82 82 0 0 0-21-41c-10.7-12-14.3-19.9-13-28.3 2.7-19.4 28.4-25.3 92.5-21.5 31.8 2 81.6 6.7 109 10.3l25.2 3.4zm-264.9 422c22.3 9.3 40.6 29.5 44.7 49.2a58 58 0 0 1-2.9 28.8c-1.2 2.5-7 10.3-13.1 17.4-14.5 16.7-17.5 22.5-19.7 38.5-1.6 11.4-1.5 13.3 1.2 21.8a62 62 0 0 0 33.8 35.5c16.5 7.3 52 11.6 85.4 10.3a1535 1535 0 0 0 125.5-11.2 51 51 0 0 1 15-1c1.1 1.6 8.8 65 11.1 91.4 4.5 51.4 4.9 71.4 1.5 95.5-4.8 33.5-14.5 46.9-31.9 43.3-6.1-1.2-8.9-2.9-17.3-10-17.9-15.5-30.7-22-47.8-24.5a70 70 0 0 0-37.4 3.3c-55.5 18.6-85 85.7-64.4 146.9a102 102 0 0 0 20 36.2 90 90 0 0 0 50.8 33c26.7 7 44 2.8 72.5-17.7 9.9-7.1 19.6-13.3 21.6-13.7 18.8-4.2 30.1 16.3 32.3 58.2 1.4 29-5.5 100.6-14.7 150.7-4.4 24.5-4.4 24.7-7.8 25.5-71.1 1.8-546 3.7-607.2.6-2.4-3.3-6.5-65-10-100.5-7.4-75.1-5-112.2 8.2-131.6 6.2-9.2 12.4-12.1 21.5-10.2 5.6 1.4 8.5 3.1 16.8 10.5 19.6 17.6 30.1 23 47.7 25.7a81 81 0 0 0 56.3-12 103 103 0 0 0 39.6-43.8c15.3-30.8 17.3-62 6.1-95.8a78 78 0 0 0-16.1-30.6 90 90 0 0 0-35.3-30.7 81 81 0 0 0-63.4-5.3 78 78 0 0 0-26 15.2c-17.5 13.4-22.9 16.1-29.9 15.2-13.9-2-22.3-17.5-25.6-47.4-1.8-16.7-2-27.1-.7-55.2 1.2-25.8 9.4-95 13.8-116.1l3.1-15.2 60.3 7.7c80.8 10.5 117.8 12 148.2 6.4 22.7-4.2 36.6-12.2 46.6-27 5.1-7.5 5.6-8.7 7.5-22.5 2-13.6 1.9-15-.9-24-2.4-7.8-5.5-12.8-15.5-25.8-18-23.3-21-35.7-13.3-55.1a62 62 0 0 1 20.6-28 90 90 0 0 1 89.2-11.8Zm910.8 194c.4.8.5 19.3.3 40.9-.3 21.7-.4 57-.5 78.3 0 21.4 0 56.8-.2 78.6-.2 53 .6 88.6 4 204 .8 22.7.9 70.7.3 92.2-.8 23.7-6.5 61.6-11.3 73.8q-16.2 42.5-57.4 49.7c-165.9 3.7-371.8-.4-550-3.7-.3 0 3-27 7.4-60a1742 1742 0 0 0 9-76.9c3.1-69.6-5.5-103.6-30.8-121a51 51 0 0 0-48.5-5.7 53 53 0 0 0-20.1 12.9c-19.5 16.9-28.6 20.3-46.4 17.8a57 57 0 0 1-31.6-16 70 70 0 0 1-21-33.8c-11.7-35.5-1.8-74.1 24.4-95.5a56 56 0 0 1 30.8-14c15.1-1.7 28.5 3.6 42 16.8 3.1 3 9.4 8 14 11 8 5.3 9.5 5.8 22.4 7.6 17.8 2.4 26.5.7 38-8 16.1-11.7 23.8-27.7 28-58 4.5-31.2 3.8-63.9-2-119.4a3035 3035 0 0 0-9.3-76.5c-.3-2.4-.2-4.7.4-4.9 2-.9 46.2-6.5 70.8-9 59.8-6.3 103.8-6.6 124.4-1 19.7 5.4 29 13 30.4 25 1 7.5-1.7 13.3-11.5 24.4-16.6 18.8-21.8 29.5-24.6 49a82 82 0 0 0 17.5 63.3 105 105 0 0 0 40.3 33.6c11.5 5.7 12.9 6 34.4 9.1 20 3 23.5 3 32.8 1.7 30.2-5 49.3-14 67.2-31.5 27.3-26.5 36-63.1 22.8-95.6-1.7-3.8-8.8-14.8-16.2-24.4-11-14.3-13.4-18.3-13.6-22.5q-1-21.3 30.6-27.4c16.5-3.2 49.1-4 82-2 22.5 1.5 120 15.3 120.8 17Zm-1293.3 35.6c-9 63-11.1 92-9.6 123 1.6 30.6 7.8 55.2 17.6 69.6a55 55 0 0 0 45.5 23.3c13.4-.3 21-3.8 39.3-17.7 20-15.4 25.8-17.7 41.3-16.3q27.4 2.4 45.8 29.5a91 91 0 0 1 6 89c-13.3 27-36.2 42.6-60 41.3-12.1-.7-18.4-4-33.5-17.2-15.6-13.6-24.9-18.1-40.7-19.6-13.6-1.2-22.6.9-31.3 7.2-27 19.5-35.9 56.7-31.5 131.1.8 12.7 19.5 134 14.2 136.6-156.6 5-319 10.5-475 7.6-42.2-.8-66.3-4.4-88.4-13.2-26.2-10.4-46.2-34-49-58-.6-4.5-.4-18.7.3-31.5 1.5-25.7 1.4-34.6-.5-99.7-2.4-87.8-1.8-176.7 2-300.7 1.7-53.2 4-138.6 4-141.7-.2-4.3 0-4.3 23.9-8 65.7-10 135.9-13.7 170-8.9 35 5 50.3 25.6 33.7 45.2-22.3 26.5-25.5 32-29.4 51.7a80 80 0 0 0 3.4 43.6c4.3 11.8 22 35.4 33 43.7 28.4 21.5 61.9 29 98.3 22.2a110 110 0 0 0 80-63.8c4.1-10.6 7-29.6 5.8-40.1-2.1-16.9-5.9-25.4-20.1-44a185 185 0 0 1-14.5-20.4c-1.5-4.4.2-14.7 3.2-18.8 10.4-14.7 45.9-18.5 121-13 3.4.2 27.8 3.4 54.5 7l48.4 6.6z"/></g><defs><filter id="a" width="2268.5" height="2277.6" x="0" y="0" color-interpolation-filters="sRGB" filterUnits="userSpaceOnUse"><feFlood flood-opacity="0" result="BackgroundImageFix"/><feColorMatrix in="SourceAlpha" result="hardAlpha" values="0 0 0 0 0 0 0 0 0 0 0 0 0 0 0 0 0 0 127 0"/><feOffset dy="4"/><feGaussianBlur stdDeviation="2"/><feComposite in2="hardAlpha" operator="out"/><feColorMatrix values="0 0 0 0 0 0 0 0 0 0 0 0 0 0 0 0 0 0 0.25 0"/><feBlend in2="BackgroundImageFix" result="effect1_dropShadow_2574_221"/><feBlend in="SourceGraphic" in2="effect1_dropShadow_2574_221" result="shape"/></filter></defs></svg>