<svg xmlns="http://www.w3.org/2000/svg" width="1000" height="792" fill="none"><path fill="#000" d="M108 40.4A80 80 0 0 0 48.7 86c-7.2 16.5-6.8-.4-6.8 309.4 0 165 .5 288.2 1.3 292.2a72 72 0 0 0 20.1 39.6 82 82 0 0 0 33.8 21.3l8.8 3h788.6l10-3a81 81 0 0 0 50.6-48.8l2.8-7.8V396.4c0-286.3-.1-295.6-2.4-302.4A80 80 0 0 0 905 43l-8-2.8-393-.2c-216.1 0-394.4.2-396.2.4m794.5 25.2a51 51 0 0 1 25.2 21c7.7 11.8 9.4 20.9 9.4 50.8v23.8H65c-1.4 0-1.7-4.7-1-27.6.4-25.5.8-28.1 3.7-36.1a56 56 0 0 1 43.4-35c3.5-.7 181-1 394.3-1l388 .2zM937 217.8v34.7H831.3l-27.8 28-28 27.8H694l-1.6-4c-4.2-10-16.6-17.6-29.2-17.6-20.3.3-32.8 12.3-32.8 31.9a30 30 0 0 0 9.2 23.7 37 37 0 0 0 23.1 10.4c11 0 23.6-7.4 29.3-17.3l3.3-5.5h90.4l12.5-13.1 26.7-27.5 14-14.6 49.2-.4 49-.4-.2 44.2-.4 44-36.2.5-36.4.2-3.3-5.6c-9.1-15.6-28.3-21.8-43.2-13.9a30 30 0 0 0-15.5 14.8 35 35 0 0 0 6 38.7c6.8 7 13.3 9.5 23.5 9.4a33 33 0 0 0 30.9-19l1.5-2.8H937v44.3H694.8l-2.2-3.9q-5-9-15.8-14.7c-5.7-2.8-7.6-3.2-16.4-2.7-8.6.6-10.5 1.2-16.7 5.2-9.6 6.4-13.8 14.5-13.8 27-.1 13.7 5.8 23.3 19.4 30.5a40 40 0 0 0 28.8-.7 40 40 0 0 0 15-15.3l2-3.8H937v40.6h-95.9c-55.5 0-96.9.5-97.9 1.1-3.1 2-71.2 70.4-72.7 73-1 1.8-1.6 25-1.6 83.7V730l-21.1.3-21.2.3-.9-3.3c-.5-1.8-.5-32.5-.1-68.2l.9-71.3c0-6.3 0-6.6 6.3-10.7 7.2-5 11.3-10.4 14.3-19.4 2.7-7.9 2.7-9.7 0-18.4-1.6-5.4-3.9-8.9-9.2-14.2a29 29 0 0 0-24-10 36 36 0 0 0-28.1 17.8c-3.2 6.4-4.3 18-2.6 24.8a41 41 0 0 0 16 20l5 2.8-.2 63.4-.2 74.9-.2 11.8H362c-162 0-244.6-.5-250.2-1.4a57 57 0 0 1-46.9-46.8c-1.2-6-1.9-497.2-.5-498.5.4-.4 197-.8 436.8-.6h436zm-266.6 93.5c2.7 2.5 3.5 4.1 3.5 8.4 0 4.5-.8 5.8-3.8 8.4a15 15 0 0 1-7.3 3c-4.7 0-11-6.2-11-10.8 0-3.9 3-10.2 5.2-11.1a14 14 0 0 1 13.4 2.1m168 54c3.2 2.8 4 4.5 3.9 8.2-.3 8.5-7.5 13.4-15 10.4-11.5-5-8-21.8 4.7-22.2 1.3-.1 4 1.5 6.3 3.5m-169.2 65c3.2 1.6 5.9 9.5 4.6 13.2a11 11 0 0 1-8.8 7.6c-7 1.2-13.3-3.6-13.3-10.4 0-6 2-9.3 6.7-11.3 4-1.7 5.6-1.5 10.8 1m267.5 165.4c.3 91.4.3 92-7.6 105.4-5 8.5-14.2 18-21.8 22.4-11 6.5-17.4 7-89 7-59.2 0-66.3-.3-67-2-1-2.7-.7-85.4.3-89 .5-1.4 12-14 25.6-27.7l24.8-25 11.4-.3c15-.5 17.8 0 19.6 4.7 2 4.9 10.4 12.3 17.5 15.3a26 26 0 0 0 14.2 2c9-.6 12.8-2.5 20.7-9.7 7.5-7 10.3-13.2 10.1-23-.2-13.4-6.7-24-18.7-30.3-6-3.2-20-3.7-26.5-.9-5.9 2.4-13 9-16.8 15.5l-3.3 5.6H813c-17.3 0-17.5 0-22.5 3.6-2.6 2-17.3 16.1-32.4 31.5l-27.7 27.8-.1 48.4c-.1 26.6-.4 49-.5 49.7l-.5 2.6c-.1 1.7-35.5 1.3-37.8-.5-1.3-.8-1.5-18.3-1.5-75.4.1-41 .5-75.7.9-77.3s14.6-16.5 31.3-33.3l30.3-30.4 92 .3 92 .4zm-313.1-55.1c2 2 2.8 4.2 2.8 8 0 8.6-7.8 13.5-15.8 10.2-5.4-2.3-7.6-5.3-7.4-10.4 0-5.2 2.1-7.8 7.3-10.1q7-3 13 2.3m247.2 27.1c3.2 3.5 3.8 11.2 1.1 14.6-4.6 6-11.1 6.3-16.8.6-5-5-5.5-9.1-1.7-14 5.2-6.5 12.2-7 17.4-1.2"/><path stroke="#000" stroke-width="22" d="M139 91.7c11.2 0 20 9 20 19.5s-8.8 19.5-20 19.5-20-8.9-20-19.5 8.8-19.5 20-19.5ZM220 91.7c11.2 0 20 9 20 19.5s-8.8 19.5-20 19.5-20-8.9-20-19.5 8.8-19.5 20-19.5Z"/><circle cx="300.5" cy="111.2" r="19.5" stroke="#000" stroke-width="22"/><path fill="#000" d="M575.7 399.8c-1.4-2.4-4-5-5.8-5.8-2-.7-7.3-3.8-11.8-6.7-7-4.2-8.4-5.8-8-8 .2-1.5 0-6-.4-9.6l-1-7 11-9c16.6-13.5 16.8-15 5.5-38.9-9.1-19-12.6-23.2-19.9-24.4-2.4-.4-18.2 2.9-24 5-1.4.5-3 .8-3.7.7a134 134 0 0 1-16-12.6c-.3-.4 0-6.5.8-13.6 2.2-21.6 0-24.4-26.3-33.4-13.2-4.4-17.3-5.4-21.2-4.9-6.6.9-8.5 2.7-15.6 15-7 11.8-9.5 13.3-22.2 13l-6.6-.2-7.2-9.5c-8.3-11.2-10.4-13-17-14-3.7-.6-7 0-13.7 3.2a166 166 0 0 0-29.7 16.3q-6.8 6.3-1.3 26l3 10.3-6.3 7.3-6.3 7.2-15.1-1.1c-16.7-1.2-20.4-.3-24.5 5.6a163 163 0 0 0-12.5 36.4c-1.8 10 1 13.5 20 24.2 6.5 3.8 6.4 3.5 7.3 11.8.3 3.5.8 7.4 1.1 9 .3 2.1-1.9 4.4-10.8 11-13 9.9-16.2 14.9-14 22.5 2.5 9 13.2 31.4 17.2 36.2 5.2 6.5 10.7 7.1 27.2 3.6l13.1-2.9 6.4 5.6c3.7 2.9 7 6.3 7.6 7.5.6 1.1.5 6.4-.2 11.8-2.8 20-.3 25 16.3 30.6 27.4 9.1 31.2 9.8 37.1 5.8 3.5-2.2 9.3-9.9 13.6-18l3-6 8.9-.8c4.8-.4 9.3-.6 10.2-.5s5 4.6 9.3 9.8 9 10.2 10.4 11.3c4.4 3.3 11.8 3.6 17.8.9a306 306 0 0 0 29-15.1c5.4-3.4 6-4.3 7-9.8.6-4.4 0-9-2.6-17.4l-3.2-11.3 6.9-7.7c4-4.4 7.8-7.5 9-7.3s7.9.7 14.8 1.1c13.4 1 17.6-.1 21.4-5.2 3.5-4.8 8.7-18.7 11.9-31.7 2.7-11.5 2.7-11.8.1-16.3m-25.1 26c-1.7 5.5-2.3 6.4-4.6 6.1-1.4-.2-4.7-.5-7.1-.6l-11.8-.7c-4.1-.3-8.8 0-10.4.4-4.4 1.3-25.6 25.3-26.4 29.8-.6 4.1.5 12 3 21 .9 3.3 1.5 6.5 1.2 7.3-.5 2.6-18.5 11.3-20 9.8L464 487.4c-9.7-10.8-12-12.1-21.2-11-2.5.4-9.2.7-15 .8-12.3.2-14.7 1.8-23.7 16.3-3.3 5.3-6.4 10-6.8 10.4-.5.3-5.5-1-11.2-3.2l-10.3-4v-5.6c.2-3.2.7-9.4 1.4-13.6.9-6 .7-9-.7-12a161 161 0 0 0-27-24c-2.8-1.7-12-1-21.8 1.9a47 47 0 0 1-10.1 2.1c-.9-.1-3.2-3.7-5.4-8-2-4.2-4.3-8.7-5-9.7-.6-1-1.2-2.4-1.1-3 0-.4 4-3.9 8.7-7.6s9.7-8.2 11.2-9.9c3.2-3.5 4.6-10.1 3.3-17.1-.4-3-.7-8-.7-11.5.2-13.3-3-17.4-20.7-27.1-4.8-2.8-6.2-4.2-5.8-5.9 2.6-9 6.3-18 7.7-19.3q1.3-1.5 13 .5c16.2 2.7 16.8 2.4 33.7-16.2 9.6-10.5 11.1-14.8 8.6-24.6-3.4-13.4-3.9-16-3.1-17a135 135 0 0 1 20-10.4c1-.2 4 2.7 6.7 6.5 11.2 15.8 16.8 18.8 30.8 16 3.9-.8 8.8-1.1 11.2-.8 7.2 1.2 12.7-2.5 21.5-14.4 4.3-6 8.2-11 8.4-11.2.6-.4 20.1 6.4 20.7 7.1.3.3 0 6.3-.8 13.3-1.7 18.6-1.5 19.1 14 31.7 11.7 9.6 13.7 10.7 18 10.7 6 0 15-1.4 20-3 6.6-2.1 8.4-1 13.1 8.3a47 47 0 0 1 4.4 10c-.1.7-5 5-10.6 9.8-5.8 4.6-11 9.8-11.8 11.3a24 24 0 0 0-.6 9c.4 3.3.9 9.8 1 14.5.4 16 .3 15.5 9.7 22.4 4.7 3.4 10.6 7.2 13.2 8.6 4.4 2.1 4.5 2.4 3 6.5z"/><path fill="#000" d="M497.4 375.1a73 73 0 0 0-29.4-51.6 67 67 0 0 0-79.8.2 63 63 0 0 0-28.6 53.3c.5 18 4.4 29.6 14.3 42.9a68 68 0 0 0 76 24 89 89 0 0 0 33.3-23.3 70 70 0 0 0 14.2-45.5m-32.7 32.6a44 44 0 0 1-37.3 17.4c-27 0-48.5-24.6-45.6-51.8a42 42 0 0 1 14.9-28.4c26.8-24 65.9-12.5 76.8 22.3 2.6 8.4 2.6 9.3.3 20.7-2.2 11.3-2.6 12.2-9.1 19.8M359.4 562.3c-1.3-5-4.9-7.9-14.8-11.8l-9.9-4-1.8-6.6-1.8-6.7 5.1-5c7.3-7.3 10.5-13 10.3-18.1 0-5.3-15.9-29.8-21.6-33.3-6.2-3.8-9.3-3.7-20.3 1.3l-10.4 4.7-5.7-3.3-5.7-3.2-.5-10.9c-.3-6-1-12.4-1.8-14-2-4.5-9.6-7.4-24.6-9.7-13.4-2-19.4-1.4-23.7 2a51 51 0 0 0-9.3 18.2c-.5 3.1-5.5 5.5-11.7 5.5-3.9 0-5.5-.9-10.7-5.8q-12.4-12.1-24-6.6c-5.2 2.4-19.2 13-24.5 18.5-3 3-3.8 13.6-1.5 18.2l4 8 2.4 5-4 5.7c-4.1 5.8-5.6 6.4-16.5 6.1-4.5 0-7.7.8-11.3 3.2-4.8 3-5.3 3.8-7.7 13-3 12.2-4.4 23.8-3.3 28.6q1.9 7.8 15.8 12.5c4.4 1.5 8.3 2.8 8.8 2.8 1.2.3 4.4 10.4 4 12.8a37 37 0 0 1-6.5 8.8c-7.1 8-9.6 13.5-8.3 19 .4 2 5.2 9.7 10.6 17 11.3 15.5 14.8 17.6 24.3 14.5 3.1-1 7.5-3 9.7-4.2 5.7-3.3 8.6-3.4 12.5-.6 2 1.5 4.2 2.8 5.2 3 1.3.1 1.8 3.2 1.6 10.2 0 12 1.2 15 7.5 19.6 4.4 3.3 6.2 3.7 20 5.4 8.4 1 16.8 1.3 18.8.9 5.1-1.5 8.3-5.3 10.4-12.8 2.8-9.5 5.3-12.2 12.4-13.5l6.2-1 7.5 7c12.1 11.2 16.7 11 35-2.5 10.7-8 15-12.4 15.7-16.5.4-2.5-2.6-12.8-6.2-21.9-1.4-3.2-1.2-3.9 2-8.8 2.8-4.4 4.2-5.3 8.5-5.9 3-.4 6.8-.4 8.4-.1 4 .6 12-3 14.6-6.6 2.3-3.2 7.7-33.7 6.8-38.1m-34.1 22.9c-12 .3-14.9 2-20.1 11.2a274 274 0 0 1-7.8 13c-4.3 6.5-4.1 10.7 1.1 22l3.2 7-4 3.7c-2.4 1.9-5 3.8-6 4s-5.1-2.4-9.3-6c-4-3.4-9-6.5-11-6.9a91 91 0 0 0-31.8 7.2c-2.8 1.8-4.7 4.8-6.7 10-3.6 9.4-5 11.5-7.8 10.5-1.2-.4-4.1-1.2-6.6-1.6l-4.5-.8-.1-8.8c-.2-9.3-2.5-17.4-5.2-17.8-.8-.2-6.5-3.1-12.5-6.6a83 83 0 0 0-13.4-6.7c-2.5-.4-12 2.5-18.9 5.9-3.4 1.7-3.6 1.7-8-4l-4.5-5.9 4.4-4.7c6.7-6.8 9.9-11.6 10.5-15a49 49 0 0 0-2.4-13 77 77 0 0 1-2.6-11.2c0-.7-1-3.3-2.5-6-2.9-4.5-12.4-10-19.9-11.1-3-.5-3-.8-1.6-7.6l1.6-7.1 9.8-.8c11.3-.9 16-3.6 20.5-11.4 1.8-3 4.6-7.2 6.4-9.2 4.6-5.7 4.9-14.3.5-24-2-4.2-3.4-8-3.3-8.6a23 23 0 0 1 5.7-4.9l5.7-4 6 5.7c9 8.4 13.3 9.9 22.6 8.1 4.2-.8 10.2-2 13.2-2.4 7.8-1.5 11.3-4.7 15.8-14.7 2.2-4.7 4.5-9.1 5.2-9.6.6-.5 3.9-.3 7.2.5l6 1.4 1 10.7c.7 7.4 1.8 11.7 3.5 13.8 3.7 4 22.3 15.2 27 16 2.3.4 7.3-1 13.5-3.7l9.9-4.3 3.4 5.5c1.8 3 3.4 5.6 3.3 5.8l-7 10.2-7.2 9.7 1.3 6.4 2.4 12.7c1.7 10.3 5.7 15 16.7 19.5l9.3 4-1.5 6.8-1.5 6.8z"/><path fill="#000" d="M292.5 551.9a59 59 0 0 0-26.2-37c-24.3-16-61.3-8.1-76.1 16.1a61 61 0 0 0-4.2 53.8c8.5 19 30.1 32.8 51.2 32.6 16.7 0 35.4-9.5 46.1-23.4 5.4-6.9 5.9-8 8.3-21 2.3-12.1 2.4-14.6.9-21.1m-27.8 29.6a36 36 0 0 1-34.8 13.3c-17.7-3-29.5-20.7-26.3-39.4q3-17.4 21.9-25c6.6-2.6 8.5-2.8 16.4-1.5q16 2.5 24.2 16.2c7 11.4 6.5 25.5-1.4 36.4"/></svg>