<svg xmlns="http://www.w3.org/2000/svg" width="1188" height="887" fill="none"><g clip-path="url(#a)"><path fill="#000" d="M5.2 214.4q-4 4-4 8.3c0 10.7 5.4 14.9 21.7 17.1 29.8 4 59.6 20.1 81.6 43.7a217 217 0 0 1 50.6 93.3c5 21.3 5.5 26.6 2.5 26.5-30-2.4-31.7-2.4-36 1.4-5.1 4.8-6.4 10.7-3.4 16 3.7 6.9 8 8.7 21 8.7 35.2 0 77.6 18.6 101.3 44.4a199 199 0 0 1 43.6 85.5l2.3 9.9-4 7c-13 22.2-22.8 47.6-22.8 58.6 0 11.3 11.8 17.8 20 10.8q3.4-2.7 6-12.7c8.1-28.9 25.4-55 52.2-79.2 14.5-12.9 23.6-18.4 56.8-33.7 31.4-14.5 39.8-19.2 54.8-30.7a294 294 0 0 0 31.8-28.8l8-9.7 5-6 10.2 1c6.4.5 12.3.2 15.8-.8 7-2.1 15.1-10 19.2-18.5 2.7-5.8 3.7-6.6 8.6-7.5 2.8-.5 6.9-1.8 8.8-2.8 6.2-3.6 13.5-13 15.8-20.6 2-6 3.2-7.8 6.2-8.9 13-4.5 23.3-24.3 19.8-38.2-1.2-4.2-.8-5.5 3.2-11.8 6.6-10.2 7.2-17 4-38.3-.7-4-.4-5.2 1.1-5.2 4 0 17.5-9.8 29-21.2 12.6-12.5 23.9-21 27.8-21 3.6 0 8 5.2 8 9.6 0 5.3-3.6 11-14 22.3-13.7 14.8-14.6 18.1-7.9 26.6 4 4.8 4.6 5 10 4.3 5-.5 6.9-2 15.7-11.3a66 66 0 0 1 11.4-10.7c4.4 0 8.5 11.4 5.9 16.6-.8 1.5-5.5 8.1-10.6 14.4-8.2 10.6-9 12.1-8.5 16.6.8 6.9 7 12.8 13.2 12.8 3.8 0 5.9-1.3 11.9-7.3 6.7-7 7.3-7.3 9-4.7 3.4 5 2.2 10.9-4 19.7-3 4.6-6.9 9.5-8.3 11-6.1 5.9-6.3 13.9-.5 20.9 2.5 3.2 12.9 3.4 17 .3 2.4-1.9 3-1.9 3.6-.2 2.3 6.8-16 29.8-43.2 54.2-15.6 14-25 20.5-43.4 30l-24.8 12.6c-19 9.7-46.3 39.5-65.6 71.3l-12.8 20.8c-4.3 7.2-8 13.4-8 13.7 0 .7-12.4 22-21.9 37.9a400 400 0 0 1-48.4 65.4c-19.1 20.5-29 28.8-60.1 50.4a404 404 0 0 0-50.2 39.2c-13.2 12.2-20.2 16-29.9 16.2-15.7.3-20.3-2.5-59.7-34.6a672 672 0 0 0-36.2-26.7l-39.8-27c-65.3-44.7-92.3-74.6-130.3-145.4a701 701 0 0 1-12.2-24.6c-7.7-16.4-8.6-17.6-15.7-17.6-8 0-12.8 5-11.7 12.7.9 8.1 8.2 25 21 49.1 30.8 58.2 57.6 90.8 104.5 126.6a894 894 0 0 0 52.8 37.6c3.9 2.5 10.7 6.9 15 10s9.4 6.3 11.3 7.4c5.1 3 24.8 18.3 44.8 34.7 19.8 16.3 26 20 41 24a36 36 0 0 0 21 1.5c12.6-2 25.1-8.8 38.4-20.6a395 395 0 0 1 50.5-39.3c8.9-5.7 31-22.7 41.4-31.7a372 372 0 0 0 51-56.6c11-15.5 43.5-67.6 52.1-83.9 15.6-29.3 43.5-68.4 49.2-68.7 2.6 0 20.5 23.2 32.2 42 4.9 7.8 19 31.8 27 46.1 41.4 73.3 71 109 118.6 142.8a408 408 0 0 0 20.4 14c5.7 3 27 19.8 39 30.4 14.4 12.8 18.9 16.3 24.9 19 9.9 4.6 17 6.3 26 6.3 18.7 0 31.2-6.2 58.6-28.6 22-18.2 40.6-32 52.2-38.8 14-8.4 51.7-35.3 72.4-51.8a318 318 0 0 0 76.6-83c21.8-33.5 42.8-74.9 44.2-87.4.8-5.8.4-6.9-2.5-10.1-3.8-4-11.7-5-15.5-2-1.2 1-7.5 12.1-14 24.6a528 528 0 0 1-47.8 79.2c-12.6 17.6-44.8 48.6-67.5 65.2-12.2 9-29.2 20.8-43.3 30.3-26.9 18-50 35.1-64 47-16.9 14.5-29.4 23.5-36.2 26-2.7.8-8.6 1.7-13 1.7-11.1.5-18.4-3.8-38.4-21.9-8.8-8-25.8-21-38.4-29.6-31.5-21.5-49-36-66-54.5-22.5-24.6-33.4-40.3-59.7-85.4-35.3-61-41.8-71.2-57.4-89.7l-7.4-9.2 20-10.6c11-6 24.1-13.5 29.2-16.9 8.6-5.6 32.3-25.4 33.9-28.2s4.7-1 14 8.4a184 184 0 0 0 29.7 25.7c14.7 11 21.4 14.6 49 27.1a788 788 0 0 1 31.5 15c32.2 17.2 64 55 77.3 92 6.8 18.9 7.6 20.1 12.4 22.2 7.9 3.7 16.3-3 16.3-12.9 0-10.4-11-39.5-21.1-55.8l-6-9.5 1.8-8.6c6.2-29.5 21.8-62 39.3-82 17.2-19.7 40-34.4 65.6-42.3 19.4-5.9 19.7-6 38-7.1 16.1-1 17-1.2 20.7-5 7-7.3 4.2-19.2-5-21.9-4.5-1.2-26.8-.7-31.1.7-3.7 1.3-3.4-3.5 1.1-24.5a201 201 0 0 1 47.1-91c23.1-25.5 45.6-39.1 77.4-46.7 6.4-1.5 13.5-2.8 15.9-2.8 9 0 14.6-6.2 14.6-16.1 0-3.6-1-5.7-3.9-8.3-3.7-3.3-4.7-3.4-13.4-2.7-40.3 3.2-75.4 21.5-107.4 55.8a215 215 0 0 0-53.2 99.1c-2 8.2-4 17-4.8 19.8s-1.2 7.9-1.2 11.3c0 9.4-2.2 12.6-10.4 15.5a205 205 0 0 0-55.7 33.2 267 267 0 0 0-31.4 38.9c-6.2 10.1-14 26.1-20.7 43.8-2.7 7.2-5.3 13-5.7 13s-4.5-3.4-9.2-7.8c-15.6-14.3-32.2-24.4-62-37.5-22-9.7-41.5-20-50.4-26.4-9-6.6-35.4-31.7-36-34.3-.3-1 2.3-5 5.6-9.2a46 46 0 0 0 12.1-30.5 43 43 0 0 0-6.5-27c-2.2-3.2-2.2-4-.3-11.8q5-19.8-9.5-37.3c-5-6.2-5.2-6.6-4.5-14.8.6-11.2-3.4-21.3-13.3-32.4-6.4-7.2-7.4-9-7.4-14a29 29 0 0 0-2.6-10.5l-3.7-8a42 42 0 0 0-19-14.7c-7-2.3-17.6-1.8-23.6.8-7.5 3.5-10.5 2.8-19.5-4.6-16.5-13.6-28.6-14.6-48.3-4-6.5 3.4-16.2 8-21.5 10.2a79 79 0 0 0-12.7 6.3c-2.3 2-4.7 2.2-11.8 1.7a33 33 0 0 0-29 10.8c-4.8 5-6.8 8.4-8.6 14.9-2.7 9.7-5.1 13.3-8.9 13.3-1.4 0-5.7 3.4-9.9 8.2a32 32 0 0 0-9.8 29.7l1 8.8-6 6.6a42 42 0 0 0-8 12.6 49 49 0 0 0 0 26.8c1.8 5.6 1.8 6-1.5 10.7-11.2 15.7-9 34.7 5.8 49.4l7.4 7.6-11 11.1a214 214 0 0 1-44 34.1c-5.1 2.9-9.7 5.1-10 5.1a1498.6 1498.6 0 0 1-28.8 13.3c-30.6 14-46.1 24-62 39.5l-5.1 5-3.3-7.7a279.5 279.5 0 0 0-10.7-27.4 173 173 0 0 0-95.7-94.3c-10-3.8-13-7-13-14 0-6.4-5.6-32.4-10-47.1-15.8-52.4-53.9-100.3-99.3-124.7-11.8-6.5-31-13.1-45.4-15.8-17.2-3-20.8-2.8-25.4 2m610.3 29.3c2.5 2.2 4.7 4.7 5 5.5.6 2.1-13 14-19.8 17.4a38 38 0 0 1-30.3-.8c-10.2-5-9.4-7.6 4.2-13.5 4.3-1.8 11.2-5.3 15.2-7.9 4-2.3 8.5-4.7 9.8-5 4.6-1.4 11.4.4 16 4.3m-76.1 26a41 41 0 0 0 23.4 22.8c9.7 3.8 14.6 8 18.3 15.3 2.3 4.8 2 12-.8 12-1.4 0-15.2-9.8-29.6-21.1-5.2-4.3-13.6-10.9-18.5-14.6-5.1-4-9.4-8.2-10-9.5-.7-2.6 2.5-10.3 5-11.3 1-.5 3.4-.9 5.4-.9 3.1-.1 4 .9 6.8 7.3M516 306.1a950 950 0 0 1 51 40.2c7.9 7.1 9.2 12.2 3.4 13.7-2.6.7-5.8-.2-12.7-4a690 690 0 0 1-60.3-40c-4-5.7.1-17.2 6.2-17.2 1.2 0 7 3.2 12.4 7.3m-9.7 49.2 22.5 14.6c10.8 6.9 18.3 13.9 18.3 17.4 0 5.9-9 4.6-24.8-3.5l-23.5-12c-13.7-6.8-18.9-11.6-18.9-17 0-4 4.8-11 7.7-11 .7 0 9 5.1 18.7 11.5m-15.2 43.4c17.8 8 22.5 10.6 24 14 1.9 3.7-.4 6.9-4.7 6.9-8.4 0-33.8-12.5-36-17.7-1.3-3.1.5-9 2.8-9 .6 0 6.9 2.5 14 5.8"/><path fill="#000" d="M88.7 498c-3 3.3-4 5.4-4 9.8 0 12.2 10.8 38 23.2 55.5a212 212 0 0 0 41 42c19.6 14.4 37.2 23.3 43.5 21.6 5.2-1.4 9.8-7.4 9.8-13 0-4.7-4.5-13.1-7-13.1-3.5 0-26.4-13.8-36.2-21.7a145 145 0 0 1-47.4-65.4c-4.8-14.5-7.4-18-14.2-19.3-4-.7-5.2 0-8.7 3.6M1088.5 495.3q-5.7 2.7-8.5 12a161 161 0 0 1-30 52.7 230 230 0 0 1-31.3 27.4c-6.7 4.7-19.7 12-21.2 12-2.5 0-9 6.1-10.2 9.5-1.7 4.8.7 12.1 5 15 5.3 3.8 13.3 2 29.6-6.8 16.5-8.9 25-15.5 40.4-31.2a163 163 0 0 0 32-45.4c11.6-24.4 13.7-35.4 7.8-41.7-3.5-3.6-9.7-5.3-13.6-3.5M450.7 562.4c-4.3 1.2-5.8 3.1-17.4 21.8-22.7 37-46.2 60-79.2 77.8-6.4 3.5-12.6 7.3-13.8 8.4-7 6.8-.7 23 9 23 8.7 0 45-22.7 62.6-39.3 23.4-22 53.8-66.4 53.8-78.9 0-8.7-7.3-14.9-15-12.8M728 565.1c-5.8 5.2-5.5 11.8.8 23.3 23.4 43.7 53.7 75.4 91.3 96 17 9.5 20.3 10.3 26.3 7 4.5-2.4 5.4-4.7 5.4-12.5 0-7.3-2.4-9.7-14.4-15.6-33-16.2-62.5-45.8-84.8-85.4-3.9-6.9-8.2-13.4-9.6-14.5-4.2-3-10.6-2.4-15 1.7"/><path stroke="#000" stroke-linecap="round" stroke-width="27" d="m307.5 210.7 60.4 23.7 60.3 23.7M403.2 83.2l42.6 51.8 42.5 51.8M591.8 20v138M777.9 60.1l-34.7 58.3-34.6 58.2M892 201.3l-57 32-57 32"/><path stroke="#000" stroke-linecap="round" stroke-width="26" d="M597.4 730v101M667.4 712.8l23.2 43.9 23.2 43.9M527 713l-22.9 44.1-22.8 44.1"/></g><defs><clipPath id="a"><path fill="#fff" d="M0 0h1188v887H0z"/></clipPath></defs></svg>