<svg xmlns="http://www.w3.org/2000/svg" width="947" height="874" fill="none"><g fill="#000" clip-path="url(#a)"><path d="M731.7 3c-2.7 2.4-4.5 6.7-7 16.9-9.4 35.3-12 41.2-22 45.3-7.8 3.3-21.6 8-33.6 11.2-15.4 4-21 14.2-12.5 23.3 3 3.5 6.7 5 18 7.9 8 2 15.6 4.1 17.2 4.8 1.6.6 5.4 2 8.6 3 6.5 2 10.2 4.9 13 10.2 3 5.8 7.4 19.4 10.4 32.2 4.5 19.6 10 25.4 20.8 21.8 6-2 6.3-2.4 13-27 6-21.8 9.8-29.7 16-33.9 4.5-3 15.2-6.7 36.6-12.7 10.1-2.7 16.4-8.4 16.4-14.7 0-5.8-6.1-12.5-13.3-14.5a263 263 0 0 1-41.5-14.9c-4.7-3.1-8.4-9.8-10.7-18.8-9-36.4-10.1-39.4-16.7-41.8C739-.8 735.7-.4 731.7 3m21 77.5c2.6 2.3 7.4 5.3 10.9 6.7 3.4 1.6 6 3.4 5.7 4.3s-3.6 2.7-7.5 4.1c-8.7 3.3-11.5 5.9-16.8 15.1a53 53 0 0 1-4.8 7.6 15 15 0 0 1-2.5-4.7 39 39 0 0 0-18.5-18.4c-5.4-3-7-4.8-5.8-5.4 2.6-1.6 5-2.6 7.5-4.3A56 56 0 0 0 737.6 66l2.3-5.6 4.1 8c2.1 4.4 6.1 9.8 8.7 12M127 50.1c-3 2.6-5.2 8.3-10.3 26.1-13 45.8-17.4 55.6-27.7 61.2-3.5 1.9-17.2 6.7-30.6 10.7-11 3.4-21.3 7.5-33.3 10.9a22 22 0 0 0-8.8 4.5c-3.5 2.9-4.3 4.7-4.3 9.2 0 7.4 4.1 11.2 16 14.6 36.3 10.6 58 18 63.3 21.3 8 5.1 12.3 15.1 24 54.5l6.1 20.4c3.3 11 6.6 14.6 13.1 14.6 7 0 10.7-4 13.7-15 4.2-15 4.7-16.9 9-31.4 9.3-30.7 13.3-39.2 20.4-42.8 7.3-3.9 27.1-10.7 49.8-17.3 24.7-7.3 30-10.5 30-18.5 0-9.9-2.2-11-47.8-25.6-25.7-8-32.4-11-37-15.8-3.7-4.1-8.8-16.4-13.7-33.4-1.7-5.8-4-13.2-5.1-16.4l-5.6-18.1c-4-13.4-6.8-16.8-13.8-16.8-2.1 0-5.4 1.4-7.4 3.1m13.4 71.9c8.5 25.8 11 29.4 25.7 37.4 8.1 4.4 27.3 10 31.5 11.1 4.3 1.1 3.4 3.3-6.9 6.3-17 5-33.6 13.4-38 19.1-3.6 4.7-15.2 31-15.2 34.4 0 .8-.8 2.7-1.8 4.1-1.7 2.3-2.3 1.3-5.7-9-5-15.4-11.4-28.6-15.6-32.3a105 105 0 0 0-32.8-15.6c-7-2.1-12.5-4.4-12.5-4.8 0-.5 5.4-2.6 12-4.8 14.6-4.7 29.6-11.8 33.3-16 3.3-3.5 9.5-16 10.3-18 3.3-8 6.7-15.7 8.4-24.2.6-4.4 3.3.2 7.3 12.3M291 233.6c-17.4.3-20.2.7-24 3.4-4.3 3.1-20.6 23.1-61.7 76l-18.7 24.4c-7.1 9.3-18 22.7-24.1 29.8-18.4 21.3-32.2 40.4-33.1 45.6-1.1 7.2-3.6 3.8 61.6 85.3l40.7 50.8c27.4 34.8 46.5 58.9 72.2 90.8l56.6 70.7c23.7 29.4 46.5 57.9 51.1 63.4l39 49c38.2 48 40.2 50.2 47.9 50.2 3.3 0 7.4-1 9.3-2.3s9.5-9.8 16.8-19L591 769c145.8-181.7 264-329.5 270.8-338.3 9-12.3 10.5-18.4 6-27.1-1.6-3.3-15.9-25-31.4-48.2-62.1-92.2-78.8-116.2-83.6-120l-3.9-3-219 .4c-120.5.3-228 .6-239 .9m180.8 26.8c1.9 2-19 24.8-69 75.2-31.2 31.4-53 52.3-54 51.8-.8-.6-5.5-9.5-10.4-19.9s-17-35-26.8-54.5c-23.6-46.6-25.3-50.6-22.7-52.2a3913 3913 0 0 1 182.9-.4m243.7 12.3c-3.9 7.2-9.4 18-12.6 24l-10.4 19.2a2136 2136 0 0 0-30 56c-5 10.2-9.8 17.5-10.8 17.2-26-24.9-93.5-94.4-126.1-128.7-.3-.3 44.4-.9 98.4-.9h98.5zm-93.8 125.6c1.6 1.6-244.8 1.2-243.8-.4.5-.8 27.7-28.5 60.4-61.5 32.6-33 60.3-61.3 61.3-62.9 1.2-1.6 2.6-2.3 3-1.6 40.1 44 83.4 90.7 119.1 126.4m132.2-115c3 4.6 6.5 9.5 7.5 10.9l8.3 11.4a5234 5234 0 0 1 61.8 91.9c.8 1.4-14.7 1.8-75.4 1.8-56.7 0-76.4-.4-76.4-1.7 0-.8 7.1-14.8 15.8-31 22.5-41.6 24.4-44.9 25.5-46.4.6-.9 5.3-9.9 10.7-20 11-21 13.5-25 15.2-25 .5 0 3.7 3.7 7 8.2m-483.7 7c27.3 50.1 50.8 97.2 52.2 104.8l1 4.2h-78c-42.8 0-78.3-.7-78-1 19.2-22.3 64-78.5 84.6-102.4 1.5-1.7 11.4-13.7 13-13.1.6.1 3 3.6 5.2 7.4m286 136.7c42.1.5 77.1 1.2 77.5 1.6.6.6-2.4 10.7-6.7 22.5l-14.4 41.7-16.4 46.4c-9.6 26-25 70.2-34.2 97.7a3884.5 3884.5 0 0 0-36.5 105.6c-4.8 14-9.2 27-9.9 28.5-.6 1.6-1.6 4.1-1.9 5.7-2.4 9-13.5 38.5-14.5 38.2-.7-.1-2.4-3.2-3.7-7.1a7617 7617 0 0 1-32.7-93.2 17541 17541 0 0 0-41.4-119 7261 7261 0 0 1-31.3-90.7l-16.3-47.2a285 285 0 0 1-9.9-31.7c.5-.4 26.6-.5 58.1-.1zm-223.5.6c2.7 1.7 30.7 79.9 63.5 177.2l10.7 31.4c5.1 14.1 27.5 78.9 37.4 107.7 3.7 11 8.8 25.2 11.4 31.8 4.4 11.6 4.8 16.6.8 10.8a2626.7 2626.7 0 0 1-41.7-51.2 8321 8321 0 0 0-78.2-98.4c-15.7-19.4-37.9-47-49.3-61.4l-51.5-64.3a2031 2031 0 0 1-65.5-84c0-1.2 160.4-.7 162.4.4m495.3-.3c0 1.7-8.2 12.3-74.9 95.3l-81 101.3-19.5 24.4-28 35-47 58.3c-14 17.6-26.9 33.5-28.3 35.7-5 6.5-10.9 13.1-10.9 12a1070.6 1070.6 0 0 0 15.7-44.7c9-26.7 31-90.6 37.8-109.9a8344 8344 0 0 0 31.1-89.1 7537.8 7537.8 0 0 0 23.5-66.3c7.2-20 14-39.9 15.5-43.9l2.7-7.5 40.6-.3c101-1 122.7-1 122.7-.3M823.5 601.5c-4.7 3-5 3.6-13.3 32.5-8.3 28.6-10.6 33.6-17.7 37.6-4.8 2.7-22.7 9-50.2 18-12 3.8-15.8 13-8.7 21a146 146 0 0 0 28.1 11c14.3 4.6 27.8 9.4 30.2 10.6 7.9 4.1 8.5 5.6 24 58.2 3.6 12.6 10.3 17.3 18.8 13.3 5.5-2.7 6.3-4.3 11.2-22 7.1-25.8 11-38 13.5-42 3.7-6 10.3-9.4 32.8-16.4l22.2-7.2c1.5-.7 4.5-1.6 6.7-2 4.1-1 8.2-7 8.2-12.2q0-9-19.5-15c-39.5-12.3-45-14.8-50.2-22-2.9-3.9-4.3-8.5-12.4-36.6-6.6-22.7-7.5-24.7-12.2-27-5-2.8-6.8-2.6-11.5.2m18.4 84.3c3.3 4.4 18.6 12.3 26.2 15 3.1 1.7 3.1 1.9 0 3.1-3.9 1.6-20.4 8.7-24.7 12.5-2 1.8-5.8 8-8.2 14l-5.2 11.2c-.2.3-1.7-2.3-3.1-5.7-8.1-18.7-8.7-19.4-17.8-24.1a116 116 0 0 0-14.3-6.3c-3.1-.8-5.4-2.3-5.4-3 .1-.8 3.3-2.4 7-3.7a58 58 0 0 0 20.5-10.8c1.3-1.5 4.9-7.7 7.7-14l5.3-11.4 4.1 9.2c2.3 5 5.9 11.5 7.9 14"/></g><defs><clipPath id="a"><path fill="#fff" d="M0 0h946.7v873.3H0z"/></clipPath></defs></svg>