<svg xmlns="http://www.w3.org/2000/svg" width="1202" height="954" fill="none"><path fill="#000" d="M951 9.8c-28.9 4-55.2 11.6-77.3 22.8A231 231 0 0 0 763 154.8l-4.4 13.5c-3 8.8-2.5 13.2 2.2 17.8 3.2 3.1 5.5 4.1 9.7 4.1 7.7 0 12.5-4 15.2-13 14.3-48.5 46.8-89 92.1-115C920.7 37.4 975 30.5 1026 43.3A201 201 0 0 1 1171.3 208c2.7 18 2.7 26.9 0 49.1a168 168 0 0 1-11.6 48 222 222 0 0 1-48 71.5 168 168 0 0 1-49.5 35.4 174 174 0 0 1-69.8 19.9c-26 2.4-59.3-1-76.2-7.8l-11.3-4.4c-4.7-1.7-12.2-5-16.6-7.2-10.7-5.3-15.8-5.1-21.1.1a12 12 0 0 0-4.2 10c0 9 3.9 11.8 31.2 22.9a227 227 0 0 0 167.3-1.4c42.6-16.5 91-60.4 112.7-102.2 19-37 26.2-65.6 26.3-107a193 193 0 0 0-20.3-94.8 228 228 0 0 0-79-93.3 229 229 0 0 0-96-36.6 367 367 0 0 0-54.3-.4"/><path fill="#000" d="M846.7 206.1c-7.5 1.1-47.7 8.4-80.7 14.6l-41.1 7.7c-53.9 10-60.3 11.9-82.2 22.6-52.3 26-97 53-163.5 98.7a512 512 0 0 0-38.5 29.8c-3.6 3.2-9 7.6-11.8 9.7l-5.2 4-48.5 1.8c-26.8 1.2-60.4 2.4-74.8 2.9a314 314 0 0 0-31.5 2.2c-4.2 1.2-8 4.9-23 22.3-19.5 23.3-38.1 48.8-59.6 70.3-18.7 21-77.6 92.1-78.8 95.5-1.9 5-.5 10.7 3.7 14.5 3.2 3.1 4 3.2 20 2.4 9.3-.4 27.7-1.9 40.9-3.1 68.9-6.3 95.7-8.4 96.5-7.4.7.6-.4 5-8.8 33.6-5.6 19.4-6.2 21.7-6 27 0 2.6.6 6.3 1.6 7.9a450 450 0 0 0 24 25.9l22.4 23-6.8 8.2c-3.7 4.5-14 17.7-23 29.2s-17.7 22.5-19.4 24.5c-10.3 12.2-6 27.2 8 27.2 4.3 0 10.9-3.7 39.2-22.1 18.6-12.2 35.3-23.5 37.1-25.1l3.3-3 25.8 25.8c29.3 29.4 26.8 28 47.2 23.1 20.8-5 43-10 45.2-10q2-.1 1.4 3.8c-8 51.9-19.4 140.9-18.7 146.7a14 14 0 0 0 14.2 12.5c4 0 7-2 45.9-31.8l54.3-41.1c68.7-51.7 93.1-70.3 95.2-72.7 1.7-1.8 3.1-10.2 5.3-31.6l5-47.5 5.2-48.2c3-29.5 3-29.7 7.5-34.8 2.4-2.7 11.5-13 20-22.9 16.1-18.2 17.7-20.2 34.6-41.5a1496 1496 0 0 0 66-93.3c42.2-66.3 40-60.9 55.1-126.4 2.9-11.7 7-30.2 9.3-41l9.9-44.7c13.2-58.4 13.4-62.1 7.8-67.3-3.3-3-5.1-3.6-12.5-3.4-4.8 0-12.5.8-17.2 1.5m2.2 30.2-3.4 15.3c-2.9 11.8-10 43-18 79.7C819 369.8 815 385 813.9 385c-.7 0-16.3-16-34.5-35.4l-57-60.7a263 263 0 0 1-23.3-26c.5-.5 5.5-1.8 11.2-2.9l123-22.8c7.2-1.6 15.6-2 15.6-1m-162.3 56 27.6 29 36.7 39c12 13 28.8 30.5 37.3 39.3 8.4 8.6 15.3 16.7 15.3 17.7 0 2.3-32.9 55-52.7 84.5-36.4 54.2-98.5 128.7-118.2 142-4.5 3-12 8-16.2 11.3a2848 2848 0 0 1-63 45c-13.7 9.3-27 19.2-40.4 28.7-13.6 9.7-27.2 19.4-30.2 21.8l-5.3 4.3-5.2-5.7c-2.8-3-15.3-16-27.8-28.6L422 697.4l26.6-17.8c43-28.6 45.2-30.6 51.3-47.9 1.6-4.6 6.1-16.1 10-25.5a678 678 0 0 0 18.7-51.3c1.5-5.2 1.5-6.4-1-10.6-5.1-8.8-9-8.8-40.1.7l-29.1 8.8c-7 2-14 4.2-15.6 5-4.4 2-20.3 7-22.4 7-2.4 0-10.9 9.1-24.5 26.4-6.1 7.8-14.3 18.3-18.3 23.2L367 629c-2 2.7-4.1 4.9-4.8 4.9s-4.9-3.7-9.2-8.3c-16.8-17.3-43.4-45.9-43.8-46.9-.5-1.2 5.8-9.6 23.8-31.6 7.3-9 18-22 23.4-28.9 10.4-13 25.6-31.6 39.8-48.9l23.7-29.2c17-21 20.2-24 53.4-49.6 41.2-31.7 74.5-53.6 141-92 4-2.2 17-9.3 29-15.6l22-11.6 4.3 3.8c2.4 2 9.9 9.8 17 17.2m-289.9 131c0 .5-7.5 10-16.7 21l-34.4 42-25.4 31.2-21.7 26.6a301 301 0 0 1-15.7 18.8c-1 .8-9.8 2.2-19.4 3-9.7.6-24.3 2-32.5 2.8l-31.3 2.8c-16.4 1.4-25.4 2.3-38.6 3.7-3.6.3-6.6.1-6.6-.6s6.8-9 15.2-18.7l25-29.8c9.5-11.3 35.6-42 63.3-74.4 6.6-7.8 14-16.5 16.3-19.4l4.3-5.2 47.2-1.6c26.1-.7 47.7-1.7 48-2.1 1-1 23-.9 23 0m95 151.7a814.9 814.9 0 0 0-19 47.8c-2.5 7-8.5 13-20.1 20.4-3.8 2.3-30.5 20-59.1 39.3a2430 2430 0 0 1-64.8 42.8c-1.8 1.1-1.8 1 0-1.7a1529 1529 0 0 1 36-46.7c4-4.8 14.9-18.4 24.3-30.3a989 989 0 0 1 43.5-53.4c1.1-1 9.3-4 18.2-6.7s21-6.5 26.8-8.5c10.7-3.5 14.2-4.2 14.2-3M320 632.3c12.6 13.2 23 24.5 23 25.2s-1.1 2.6-2.6 4.1c-1.4 1.5-6.5 8-11.3 14.4-5 6.5-9.4 11.7-9.8 11.7a436 436 0 0 1-34.6-34.3c-.8-1.7 0-6.8 2.9-17 2.2-8 5-17.6 5.8-21.4 1-3.7 2.1-6.7 2.7-6.7.4 0 11.2 10.8 24 24m317.2 52.2-3 29.4c-1 11.7-3.4 33.8-5 48.8-2.3 25-3 28-5.9 30.7-1.8 1.7-19.1 15-38.7 29.5L535 860.3c-7.6 6-19.2 14.8-25.6 19.5L486 897.2c-6.5 4.8-12 8.6-12.3 8.2-.3-.3.2-5.8 1-12.3a4824 4824 0 0 1 15-109.1c.7-4.7 2-6.1 13-13.5 6.9-4.4 17-11.5 22.3-15.5 5.5-4 15.9-11.4 23.3-16.4 20-13.7 26.3-18.1 44-31 9-6.6 19.6-14 23.4-16.8l13.5-9.6c3.5-2.6 7-4.7 7.5-4.7.6-.1.8 3.6.4 8m-235 32.7A823 823 0 0 1 445 763c0 .7-1 1.3-2 1.3-1.2 0-8.7 1.5-16.8 3.4-26.7 6.3-21.8 7.7-42.5-13-16.6-16.5-17.9-18.2-15.6-20 13-9.7 28.3-20 29.9-20 .8 0 2.8 1 4.2 2.5"/><path fill="#000" d="M219.4 704.4c-10 6.7-99 93.9-100 98.1-3.4 13 8 22.8 18.8 16.6 1.7-1 24.8-23 51.3-48.9 40.9-40 48.4-48 49.2-52.2 1.2-6.3-2-11.3-8.5-14.1-6-2.6-6.2-2.6-10.8.5M319.8 819.1c-9.5 9-39.6 37.8-69.3 67-14.8 14.6-24.4 25.1-25.2 27.8-3.9 11.4 8.7 21.1 19.4 15.2 7.5-4.3 97.2-92.3 100.6-98.7 4.3-8.3-2.3-18-12.3-18-5 0-7 1-13.2 6.7M210 821.5c-4.9 1.7-8.7 5.3-57.7 52.5C88.9 935.2 92 931.8 92 936.9c0 10.2 8.7 17.6 17.9 15.3 2-.6 19.3-16.3 39.2-36l54.6-53.4c10.5-10.1 19.9-20.2 21-22.3 3.1-6 2.5-11.5-1.9-15.6-5.2-4.7-7.3-5.4-12.7-3.4"/><path stroke="#000" stroke-width="22" d="M944 129.8a24 24 0 0 1 24.5 23.5 24 24 0 0 1-24.5 23.5 24 24 0 0 1-24.5-23.5 24 24 0 0 1 24.5-23.5Z"/><path stroke="#000" stroke-width="27" d="M988 287.3c26.7 0 48 21.2 48 47 0 25.7-21.3 47-48 47s-48-21.3-48-47c0-25.8 21.3-47 48-47Z"/><circle cx="633.5" cy="442.8" r="74.5" stroke="#000" stroke-width="27"/><path stroke="#000" stroke-width="27" d="M1096 154.3c18 0 33 15 33 34s-15 34-33 34-33-15-33-34 15-34 33-34Z"/></svg>