<svg width="795" height="533" viewBox="0 0 795 533" fill="none" xmlns="http://www.w3.org/2000/svg">
<path d="M546.955 39.4092C527.611 33.2428 502.306 37.5559 486.659 39.4092C479.737 39.8008 476.424 38.052 472.091 32.7304C459.52 20.9079 444.403 11.551 427.664 5.23232C421.379 2.92563 407.003 -0.617682 399.742 -1.41698L388.531 -1.26686L379.125 -2.18693L375.664 -1.99115L367.426 -1.28315C352.114 0.895598 337.178 4.91493 323.012 10.6684C318.575 12.3716 317.259 12.6881 312.629 11.2557L287.044 7.86266C270.374 8.49055 253.839 10.9704 237.808 15.2464C227.278 17.7783 208.066 26.8521 198.067 33.7103C192.994 38.1117 178.115 52.5069 175.675 56.2755C172.746 60.7976 168.798 61.747 158.903 61.5807C149.009 61.4143 125.168 69.0561 116.634 73.6528C107.612 79.004 97.4658 87.8065 92.2448 94.1529C87.8519 100.936 86.5356 101.253 79.8062 104.779L72.1006 109.814L68.4918 111.954C63.0786 115.165 56.2011 120.637 48.1995 129.56C41.6623 136.222 39.7099 139.238 31.9005 151.296L22.3308 169.506L19.4464 179.108L17.3901 189.148C17.0941 193.037 16.4581 195.735 14.0176 199.504L5.27619 218.15C0.779522 231.958 -1.3363 254.102 0.896533 264.383C3.61744 273.91 9.50321 287.131 13.0081 292.015L22.9907 302.342C30.6367 309.412 30.9769 310.602 28.5363 314.371L21.7031 324.923C14.2337 338.172 12.1775 348.213 11.1859 366.904C11.082 373.929 18.0323 395.802 22.5576 404.259C29.4194 415.973 44.9037 433.248 54.206 441.193L65.6528 449.259C72.1305 454.701 88.3545 462.254 97.6129 465.119L110.183 469.733C116.47 472.039 117.298 472.476 117.15 474.421L119.679 480.812C121.186 483.631 122.843 484.506 129.808 489.194C140.173 494.666 150.973 506.691 156.402 515.963C158.163 518.969 163.366 523.794 165.952 525.368C177.731 531.589 200.698 526.379 209.036 517.87C219.182 509.067 241.893 512.217 251.595 509.248C259.981 506.595 271.34 504.501 280.894 503.477L290.448 502.452C296.459 500.514 302.066 497.658 307.028 494.011C311.465 492.308 320.294 483.821 326.491 475.968L332.689 468.114L335.661 468.673L341.311 473.677L345.985 480.19L349.637 483.129C350.318 485.511 369.898 499.894 381.004 506.768C414.519 525.606 453.674 534.626 493.183 532.611C498.789 532.536 532.525 525.062 533.501 523.555L540.718 519.274C552.713 514.481 566.468 503.538 577.59 493.227L581.198 491.086C583.831 490.454 585.148 490.137 592.602 494.072C612.626 502.62 624.857 506.043 640.845 505.38C649.911 505.109 655.176 503.844 666.195 500.558C672.776 498.975 681.086 489.956 684.222 488.766C687.358 487.576 694.429 486.134 699.694 484.867C717.974 482.381 720.56 461.722 731.533 453.356C736.607 448.955 743.301 447.954 749.987 439.347C749.987 439.347 760.023 430.11 760.823 427.176C761.622 424.241 768.521 411.906 768.513 405.842C768.504 399.779 786.934 384.011 789.819 374.409L791.874 364.369L793.783 356.274L794.567 351.631L794.375 348.496L793.99 342.226C795.411 334.884 793.518 325.794 790.117 313.885C786.376 300.785 782.678 292.765 777.665 285.062C772.992 278.55 771.823 276.922 771.587 268.706C770.863 261.245 771.529 229.766 768.513 224.128L765.156 217.299C760.03 208.306 754.053 199.736 747.291 191.686L726.541 175.676C724.056 174.365 724.066 164.2 716.864 151.296L712.191 144.783L709.026 141.09C703.653 133.515 697.402 126.485 690.377 120.12C671.064 101.52 647.473 86.9956 621.252 77.5619C612.333 75.888 604.826 77.0381 593.528 67.0281C585.541 58.7669 584.713 58.3297 569.466 49.2692C557.87 43.1483 551.585 40.8416 546.955 39.4092Z" fill="black"/>
</svg>
