<svg xmlns="http://www.w3.org/2000/svg" width="3253.3" height="3253.3" version="1.0" viewBox="0 0 2440 2440"><path d="m1737 13-10 2a314 314 0 0 0-69 22l-13 9c-10 7-18 18-33 43-10 18-13 26-16 53l-1 6 1 8 2 12 2 10 3 12a391 391 0 0 0 29 66c10 17 11 19 10 25s-3 7-16 8l-18 2a478 478 0 0 1-84 11l-18 2-22 2h-17l-29 2c-24 2-34 2-72 2-15 0-19 1-24 7-6 7-9 15-10 27l1 21v15l2 20 2 26 2 21 2 21a924 924 0 0 1 4 43l2 11 1 14a1218 1218 0 0 0 13 88l3 11 3 11c2 9 6 16 14 25 14 15 30 22 52 24 6 0 9 0 20-3l15-4 24-14a363 363 0 0 1 65-27c13-2 22 0 36 6 17 9 22 14 26 23l5 8 4 15c3 17 2 21-10 44a55 55 0 0 1-45 29l-14 2-49 1-24 1-11 3c-17 4-34 15-41 28l-6 9c-4 5-9 23-9 32a323 323 0 0 0 24 86l10 23a503 503 0 0 1 24 59l4 9a1043 1043 0 0 0 41 83c9 19 14 26 24 37 6 6 9 8 12 9 9 3 22 0 39-7l19-9 11-5 13-6 10-5 14-6c22-12 31-16 41-19a274 274 0 0 0 32-14 773 773 0 0 0 57-23c18-8 41-15 45-12l1 33 1 14 1 16c0 11 0 13 4 31l4 19c2 9 13 29 22 40l7 8 10 11a164 164 0 0 0 30 20 164 164 0 0 0 49 16l20 1 21-4 9-2c3 0 8-1 15-5l16-8 9-5 9-8c7-5 15-13 20-21a337 337 0 0 1 13-20l6-11 6-14c6-15 8-29 8-48 0-17-4-34-10-48l-5-10a888 888 0 0 0-31-63c0-3 1-4 2-5 4-2 26-7 37-8a280 280 0 0 0 29-3l12-2a404 404 0 0 0 44-5l15-1a643 643 0 0 1 90-6l10-1 10-1 9-1c5-1 18-5 26-9 5-2 13-9 16-16 5-8 9-29 8-42v-26a680 680 0 0 0-6-88l-1-7-1-13a298 298 0 0 0-5-40 138 138 0 0 0-4-26l-1-7-1-11-4-19a1016 1016 0 0 1-13-42c-5-8-18-22-26-27-7-4-25-11-32-11-12-2-17-1-30 2l-20 8a207 207 0 0 1-26 14 545 545 0 0 1-49 22l-10 2a74 74 0 0 1-41-11c-7-4-14-13-20-25a63 63 0 0 1-3-40c1-9 8-23 14-28 11-10 16-13 23-14l6-3c6-3 41-5 72-4 12 0 16 0 25-2 24-5 36-12 50-29 9-10 13-17 16-31 2-12 2-13 1-22-1-12-9-40-14-53a376 376 0 0 1-16-44l-6-14a440 440 0 0 0-14-34l-5-11-5-10-6-14-6-14-4-7-7-16-2-4-5-11-5-10-8-14a1311 1311 0 0 0-15-27c-3-5-12-14-19-17-8-4-14-5-23-2l-13 7-15 9a230 230 0 0 0-19 10l-18 9-23 11-25 12a215 215 0 0 1-41 18l-7 3-10 4-11 5-12 5-12 4-12 5-15 5c-4 0-10 2-13 4-12 3-14 3-16 1l-1-13v-20l-1-23c-1-19-2-28-8-45l-3-14c-2-11-11-28-21-39l-8-11-9-9a1083 1083 0 0 1-30-18l-11-7c-5-2-24-7-29-7l-6-1c-1-2-6-3-10-2zm6 75c10 3 24 10 33 17 5 5 7 7 10 13l5 10a204 204 0 0 0 6 24c1 6 2 35 1 39a135 135 0 0 0 5 47c4 16 8 26 15 34 6 5 19 14 29 19l11 5c6 3 27 2 42-3l10-3 13-4 15-5 18-7 17-7a709 709 0 0 0 39-15 524 524 0 0 1 55-24 548 548 0 0 0 61-29c2 0 11 16 22 40a1562 1562 0 0 0 28 60 466 466 0 0 0 17 41l4 11 20 53c4 12 2 16-6 16h-42c-9 0-25 2-36 5-43 11-48 12-56 17-11 6-37 29-45 41a155 155 0 0 0-24 71 142 142 0 0 0 8 41c0 5 6 23 9 30 5 11 27 35 41 46 9 7 25 15 33 17l27 7 11 1c8 2 20 0 33-4l14-3a327 327 0 0 0 79-35c11-8 19-4 21 9l1 7 1 15a130 130 0 0 0 4 26l1 6c2 8 4 24 4 34a362 362 0 0 0 5 44l3 58c1 15 1 30-1 31-1 2-6 2-23 2a581 581 0 0 0-69 5 365 365 0 0 1-40 4l-10 1a545 545 0 0 0-114 21c-10 2-21 7-27 13a85 85 0 0 0-26 55c-1 7 0 10 2 18a76 76 0 0 0 10 27l5 8 11 18 8 15 5 11 4 12 3 14c3 19-2 37-15 52-6 7-8 8-17 13-19 10-34 11-48 4-21-11-33-21-38-31-4-6-7-20-7-32l-1-39c-1-30-1-31-4-45a117 117 0 0 0-7-22c-2-5-14-18-21-22l-8-5c-5-5-27-11-39-11-14 0-33 5-45 12l-14 5a286 286 0 0 0-35 13l-32 13a355 355 0 0 0-40 17 310 310 0 0 0-24 11l-10 4a630 630 0 0 1-42 20c-10 5-12 5-14-1l-4-9-10-18a5247 5247 0 0 0-31-66l-8-20-5-13-9-22-6-15-2-9-6-14-6-16c0-7 1-12 5-13h41c31-2 32-2 47-6l23-6a127 127 0 0 0 40-21 130 130 0 0 0 53-106c0-10-1-15-4-24l-2-10-9-27-8-16c-8-11-30-33-32-33l-5-2a261 261 0 0 0-46-22 80 80 0 0 0-46-3l-17 5-12 2c-10 2-18 6-33 13l-13 6-14 8c-18 11-21 12-26 12l-4-1-3-6c-2-8-4-19-4-26l-1-14-2-14-2-10a301 301 0 0 1-5-44l-1-9a3121 3121 0 0 0-4-56c-1-3-2-53-1-55l12-1 14-1 22-1a457 457 0 0 0 75-6l14-2 9-1 9-1a451 451 0 0 1 57-7 350 350 0 0 0 46-12c10-2 19-7 28-17 8-8 10-10 15-20 6-14 8-20 8-31 0-15-8-40-19-57a326 326 0 0 1-16-29c-3-4-9-17-11-24l-3-11c-3-18 3-37 15-53a60 60 0 0 1 58-22z"/><path d="m512 379-23 1a861 861 0 0 0-122 8h-12l-4 1c-6 1-9 2-23 2l-16 2c-14 6-18 8-22 12-6 7-13 20-13 25l-1 12a505 505 0 0 0-6 54 280 280 0 0 0-3 25 857 857 0 0 0-7 67l-2 13-2 18a672 672 0 0 1-7 66l-1 12a428 428 0 0 0-7 56l-2 14-1 11-1 7-1 12a1231 1231 0 0 0-9 78 1148 1148 0 0 1-9 80 1231 1231 0 0 0-9 80 686 686 0 0 0-7 64 344 344 0 0 1-5 39l-3 29-2 14a267 267 0 0 1-4 39l-1 11-2 17-2 19-1 10-1 7-2 12a183 183 0 0 1-2 21 344 344 0 0 1-4 38l-1 12a506 506 0 0 0-7 58 698 698 0 0 1-7 61 432 432 0 0 0-6 56l-2 12-1 12a1046 1046 0 0 0-9 77l-4 39a527 527 0 0 1-6 48v10a214 214 0 0 0-3 22 613 613 0 0 0-8 65 340 340 0 0 1-3 31 588 588 0 0 1-7 59l-1 9-1 11-2 19a482 482 0 0 1-5 42 257 257 0 0 0 1 53c2 8 3 9 9 16 6 6 9 8 17 13 8 4 11 5 16 5l17 2 41 4 40 4 39 4a2009 2009 0 0 1 100 10 1918 1918 0 0 1 115 11l8 1a280 280 0 0 0 31 3l8 1 15 1 11 2h6l8 1a241 241 0 0 0 31 3l9 1 10 1 10 1 13 1a977 977 0 0 1 77 8l21 2a1860 1860 0 0 0 99 10 4260 4260 0 0 0 194 19l10 1 10 1 10 1 10 1 7 1a234 234 0 0 0 33 3l10 1 10 1 7 1 10 1a222 222 0 0 1 24 2l37 4 18 2 42 4 39 4 20 2 20 2 20 2 40 4 20 2 20 2a3131 3131 0 0 0 77 8l42 4a469 469 0 0 0 42 4 237 237 0 0 0 28 3h5l8 1a241 241 0 0 0 58 1c15-4 30-16 37-30 5-9 7-22 5-29l-1-21a255 255 0 0 0-3-29l-1-17a1299 1299 0 0 1-3-188c2-2 10 0 19 4a313 313 0 0 0 101 26 118 118 0 0 0 38-7 176 176 0 0 0 45-25 193 193 0 0 0 29-32 203 203 0 0 0 18-39c5-15 7-41 5-55a151 151 0 0 0-55-90l-9-7c-15-10-36-18-51-20l-35-3-21 1-9 1a219 219 0 0 0-34 5c-8 2-11 2-13 0s-2-3-1-11l2-14a189 189 0 0 1 7-28l2-10a335 335 0 0 0 10-43l3-8 2-7 2-10 3-11 2-6 3-11a331 331 0 0 0 11-34 218 218 0 0 1 7-19l3-11 8-24c5-13 5-14 6-20 0-7-2-19-5-24-7-9-13-14-25-20l-14-5c-2 0-13-4-15-6l-4-1-9-5a98 98 0 0 0-20-8l-11-3-10-3-11-3-11-4-8-2-10-3-9-2c-1 0-10-2-12-4l-9-2-12-3-8-2-7-2-10-2-10-2-12-3-9-2a227 227 0 0 0-38-5 221 221 0 0 0-21-3c-18-3-25-2-39 7-10 5-13 8-21 16s-16 19-15 21l-1 4c-3 5-6 15-6 19 0 16 0 21 4 34a125 125 0 0 1 3 21 145 145 0 0 1-1 62c-1 3-6 14-10 19-6 9-17 16-30 20-9 3-11 3-21 3-11 0-13 0-19-2l-7-3c-2 0-9-8-18-18-8-9-15-22-16-33v-16l2-10 3-10 7-19 9-24 4-12c4-10 6-25 6-38 0-10 0-11-4-20-6-14-13-23-26-34l-9-7-10-4c-6-3-10-4-16-5l-10-2h-46a943 943 0 0 0-127 4 446 446 0 0 1-31 1l-33 3-9 1-1-4v-4l-1-8a366 366 0 0 1-4-45l-2-14a1117 1117 0 0 0 0-24 1048 1048 0 0 1-1-130c4-7 11-8 21-2l10 4 11 4 6 2 6 2 17 6 5 1 9 2 15 2 16 2c15 2 35-1 53-8l14-5a147 147 0 0 0 44-35l8-11 14-28c4-8 8-31 9-50v-11c2-3-7-36-11-45a226 226 0 0 0-59-64l-9-6-7-2c-6-4-18-6-33-7l-14-2-11-1a244 244 0 0 1-16 0 645 645 0 0 1-39 5l-17 2c-8 1-9 1-12-1-2-1-2-1-1-8v-10l2-8 6-22 2-11a214 214 0 0 1 5-20 256 256 0 0 1 9-35l3-11a173 173 0 0 0 6-22l4-11 3-11 4-11a361 361 0 0 1 11-33l4-11 3-12 4-12 2-8 4-10 3-8 1-7c2-5 0-11-5-18-4-5-5-7-14-11l-14-6a301 301 0 0 1-40-14l-11-3a105 105 0 0 0-20-7 257 257 0 0 0-20-6l-7-2-6-1-8-3a168 168 0 0 1-16-5 207 207 0 0 1-32-8l-10-3-9-3-10-2-12-3-9-1-6-1-13-4c-11-4-26-6-52-8-14-1-13-1-26 3l-5 1-6 2c-1 2-5 4-7 5-9 4-22 19-28 32a87 87 0 0 0-7 33l-1 9 2 11 2 16c3 10 5 28 5 45 1 10 1 12-2 20l-3 12c-3 11-15 24-28 31l-13 6c-12 3-15 3-26 2-10-1-12-2-18-5-13-6-25-19-31-33-2-7-3-10-3-17v-14l2-12c0-7 2-15 8-29l4-11 3-10 3-7 4-9c5-11 7-20 7-34 0-11-1-12-5-23l-8-17c-8-12-27-28-34-30l-5-1-17-3-10-1-27-2a834 834 0 0 1-58-1zm50 75h28c10 0 11 7 4 21l-5 13-3 7-2 5-1 5-3 8a323 323 0 0 0-7 99l3 9 4 11c0 4 9 20 16 29 14 17 23 24 45 36 13 7 17 8 29 10l15 3a112 112 0 0 0 50 1l7-3a409 409 0 0 0 36-15l11-8a137 137 0 0 0 36-40c8-12 13-27 15-43l2-19a277 277 0 0 0-1-66c1-2 1-3-1-6l-4-18 1-7c4-4 14-5 21-2l6 1 9 2 10 3 10 3 8 2a352 352 0 0 1 26 7l12 3 7 2 7 2 18 5a177 177 0 0 1 33 10c1 0 10 2 13 4l7 2 11 3 10 3 11 4c10 4 12 5 10 10l-6 18-3 9a717 717 0 0 0-34 117l-2 9-3 10-2 10-3 13a66 66 0 0 0-3 17 217 217 0 0 0-3 24l-1 7-1 12-1 15c0 8 0 9 5 19 4 9 7 13 15 24 4 4 23 17 28 18l10 2c3 1 10 3 16 3 9 1 12 1 23-1l32-5c33-4 43-3 62 4 5 2 12 7 20 16 10 11 12 15 13 19l2 7c2 5 0 36-3 42-6 11-30 31-41 34-14 3-22 3-42-2l-10-2-29-11-11-5-9-3-22-6h-28c-19 6-25 10-39 24a57 57 0 0 0-18 37 367 367 0 0 0-5 68 1535 1535 0 0 0 2 108l2 23a1365 1365 0 0 0 5 54c3 6 0 8-12 9l-12 1a593 593 0 0 1-33 3 609 609 0 0 1-66 4c-12 2-93 2-101 1-13-2-13-2-13-4 0-4 3-15 6-21a349 349 0 0 0 24-101c-1-16-2-23-4-30l-2-8-3-8-4-11c-5-12-27-40-38-47l-10-6c-8-5-28-14-35-16a176 176 0 0 0-75-4l-6 2-7 3-3 1-19 10-17 13c-22 19-22 18-30 31-9 14-14 25-15 30a427 427 0 0 1-3 32l-2 10-1 13c-1 6 0 24 2 37 3 30 4 41 3 43s-16 2-21 0a275 275 0 0 0-40-9l-12-3-12-3a274 274 0 0 0-35-9 269 269 0 0 1-34-11l-12-3-5-1-5-1-9-4-21-7-6-2-6-2-12-5-7-2 1-6 1-12a481 481 0 0 0 7-61 613 613 0 0 0 7-65l1-11a671 671 0 0 0 10-79l2-20 2-19 1-10 1-8a327 327 0 0 0 3-24 486 486 0 0 0 6-56l1-10 2-11 1-11 1-9v-8l2-10 1-10a307 307 0 0 1 5-42l1-11 1-9 1-11a461 461 0 0 0 6-48 105 105 0 0 1 2-16v-7l2-15a775 775 0 0 1 8-66 1129 1129 0 0 1 8-67c0-4 6-7 13-8a324 324 0 0 0 36-4l13-1c9-2 42-3 70-4a610 610 0 0 0 53-1l24 1zm92 660 14 6c7 3 26 27 28 34l1 5c3 9 3 11 3 20l-2 13-3 10a41 41 0 0 1-4 13l-5 13-5 15a426 426 0 0 1-11 29c-2 6-2 9-1 12v9c-2 12 1 25 10 39 6 10 16 20 27 27 5 3 21 8 27 9l10 1c4 2 20 2 29 1h8l6 1h18a3250 3250 0 0 0 183-10c5-1 5-1 6 8a1491 1491 0 0 1 1 26l3 28 3 30 2 93v28c0 20 0 20-3 22-3 3-8 2-18-3a137 137 0 0 0-37-13c-7-3-25-8-34-9l-22-3c-19-2-27-1-40 2-13 4-31 10-34 13l-8 5c-15 11-30 24-33 30l-5 8a126 126 0 0 0-18 37l-4 11-1 9c-2 8-2 27-1 39 4 27 8 37 21 53l8 10 5 8 11 12a114 114 0 0 0 41 27l11 4a272 272 0 0 0 110 0l14-2c7 0 8 1 8 12 0 5 0 9-2 13l-2 7-2 9-3 9-2 14-1 7-3 10-3 12-2 6a352 352 0 0 0-14 51l-3 8-5 14a490 490 0 0 1-15 49l-2 8-2 10-3 8h-5l-16-1a3792 3792 0 0 0-141-14l-21-2-16-2-12-1-11-1-6-1-12-1a5286 5286 0 0 1-176-17l-9-1-11-1-8-1-13-2-13-1h-5l-8-1-12-1a635 635 0 0 1-49-5 1219 1219 0 0 1-59-6l-20-2-21-2a1223 1223 0 0 0-38-4l-21-2-20-2-8-1 1-5 1-12 2-18a698 698 0 0 1 6-59l3-20 2-18a191 191 0 0 0 3-25 619 619 0 0 0 6-55 698 698 0 0 1 7-60 801 801 0 0 1 9-80 690 690 0 0 0 6-54 318 318 0 0 0 4-31l1-14a359 359 0 0 0 5-47l1-10 1-9 1-10a370 370 0 0 0 6-49l1-8 1-12 2-13a619 619 0 0 0 8-67l1-9 1-11a28002 28002 0 0 0 3-33l8 2a197 197 0 0 0 22 8 487 487 0 0 0 64 19 137 137 0 0 1 20 6c4 0 8 1 15 4l8 2 9 2a114 114 0 0 0 24 6l5 1 9 2 13 2 7 1a155 155 0 0 0 22 5l13 2 10 1 20-4c7-2 23-13 34-24 8-8 11-11 14-17l4-11 1-11 2-18-4-32-2-23-2-16-1-13c0-8 1-10 4-17l2-7 14-20c7-8 22-14 38-17 5-1 17 0 21 1zm630 227c10 1 17 3 18 5l-5 15-12 33c-9 29-9 29-11 43l-2 15c-2 6-1 20 3 37 2 11 3 13 8 27a155 155 0 0 0 54 63c5 3 20 11 29 13a470 470 0 0 1 19 5l10 2c5 1 9 2 10 1h9c18-2 26-3 37-7 13-4 27-12 35-19l10-8a156 156 0 0 0 41-47l3-10 5-14 3-10c1-4 2-10 2-22a690 690 0 0 0-8-89l1-3h11a78 78 0 0 1 21 4l13 3 9 2 9 2 9 2 7 2 6 2 8 1 9 3 12 2 12 4 5 2 10 3a145 145 0 0 0 18 4l12 4 9 3 9 3 12 4 13 5c9 3 11 4 11 7l-5 13-2 6-3 11a281 281 0 0 0-15 49l-2 4-4 16-4 10-3 12-6 24-3 14a155 155 0 0 1-6 24c-2 6-5 19-4 22l-4 22-2 10-1 9c-1 6 1 21 4 27 3 9 10 20 20 30s16 15 26 20c4 2 27 7 28 6h10l11-1c4-2 26-5 51-7 14-2 12-1 25 0a77 77 0 0 1 21 4c3 1 12 9 18 15 11 13 18 30 15 42l-1 11c0 10-4 18-12 28-12 15-23 20-40 20a144 144 0 0 1-34-3c-6 0-37-11-51-18-16-8-25-10-38-10-7 0-10 1-18 3a149 149 0 0 0-50 38c-4 6-11 22-10 23l-1 6-2 38a5777 5777 0 0 0 5 151c0 16 0 18 2 26a224 224 0 0 1 1 32l-9-2a153 153 0 0 1-20-2h-8a346 346 0 0 0-40-4l-10-1-9-1a344 344 0 0 0-39-4 190 190 0 0 0-24-2l-10-1a957 957 0 0 1-56-6l-20-2a1099 1099 0 0 0-61-6l-17-2-13-1-41-4a662 662 0 0 1-52-5l-13-1a179 179 0 0 1-23-3h-6a524 524 0 0 0-60-6l-10-2h-10l-9-1-7-1a251 251 0 0 0-27-3l-10-1-7-1a420 420 0 0 0-56-5l-10-1-20-3c-2-1-2-1-1-3l2-5 2-7 5-14 4-11 3-9 3-11 2-5 2-8 3-12 3-10 4-13a669 669 0 0 1 16-60l2-10 2-10 2-9 2-8 6-30 1-14c1-20-5-34-25-57a77 77 0 0 0-40-26c-5-1-8-2-16-1a257 257 0 0 0-46 7 815 815 0 0 0-44 0l-16-1c-9-2-10-2-18-8-9-6-12-10-19-22l-4-9v-10c0-18 0-24 5-37 2-5 3-7 11-15 7-6 11-9 17-12 7-4 9-4 18-6l17 1h5l6 2 12 3c7 1 13 3 33 12l13 4 8 3 8 3 11 2c9 2 24 2 31-1 8-2 15-5 18-8 19-14 29-25 35-37 6-14 7-17 8-37a1554 1554 0 0 1 2-60l-1-11-2-12 1-8v-13l-1-17-5-71-1-14-1-14c-2-9-2-18-1-18 1-1 17-3 27-3a246 246 0 0 0 27-3 274 274 0 0 1 54-2 1695 1695 0 0 1 106-3z"/></svg>