<svg xmlns="http://www.w3.org/2000/svg" width="800" height="800" viewBox="0 0 800 800"><path d="M566 5C549 8 537 14 529 29C522 40 524 50 526 62C528 70 531 77 535 84C538 89 541 94 533 95C504 98 477 102 448 102C443 102 442 102 440 104C438 106 437 109 437 113C438 131 440 149 441 168C443 182 444 197 448 212C449 215 450 217 453 220C459 227 468 229 476 227C489 221 521 200 531 222C535 232 534 244 524 250C514 257 496 255 484 255C472 258 466 268 466 279C478 309 494 349 507 375C509 377 510 378 511 378C514 379 518 378 524 376C545 366 566 356 588 348C606 340 603 348 604 364C604 382 613 398 629 407C645 415 663 411 678 402C693 390 699 366 692 349C688 341 686 335 682 327C681 326 680 322 683 322C709 317 740 314 765 314C770 313 776 311 778 306C780 303 781 296 781 292C781 262 777 229 769 200C768 198 763 193 761 191C758 190 752 188 750 188C746 187 745 188 740 189C724 195 698 215 686 192C681 179 688 169 699 164C708 159 721 164 731 162C739 160 743 158 747 152C750 149 751 147 752 142C753 138 753 138 753 135C743 110 731 77 719 51C717 48 716 45 714 42C713 41 710 38 708 37C705 35 703 35 700 36C675 50 648 65 620 72C610 75 614 61 614 54C613 48 612 42 610 35C607 18 583 2 566 5ZM590 63C589 77 593 89 606 95C611 98 617 98 623 96C648 87 695 65 698 65C700 66 701 70 705 78C713 96 721 114 728 132C729 136 728 138 726 138C717 138 708 137 700 139C670 147 650 172 665 205C672 221 695 232 712 227C723 225 733 220 743 214C746 212 749 213 750 217C753 238 754 258 756 278C756 283 758 289 755 290C753 291 753 290 748 290C740 291 733 291 725 292C721 293 717 293 712 293C698 295 685 297 671 301C668 301 665 303 663 305C656 311 653 320 655 329C657 341 666 351 670 363C674 387 641 396 631 376C627 370 629 359 629 352C628 345 628 338 625 330C623 326 619 324 615 322C614 320 607 318 603 318C575 325 548 338 523 349C520 351 519 351 519 349L514 340C505 321 498 302 490 283C490 280 490 279 492 278C501 278 511 279 521 276C528 274 535 272 541 268C562 252 559 229 551 208C538 190 519 185 499 190C492 192 486 196 480 199C474 203 473 203 471 203C468 200 468 196 468 192C465 175 459 130 463 128C466 125 501 123 512 122C522 121 543 117 547 115C551 114 553 113 556 110C559 107 559 107 561 103C563 99 564 97 564 93C564 88 561 80 557 74C549 61 541 37 561 30C579 23 596 42 590 63Z" fill="black"/><path d="M102 129C98 131 96 131 95 133C92 137 91 140 90 145C71 314 52 485 33 655C32 661 32 667 33 672C34 675 34 675 36 678C38 680 39 680 42 682C44 683 45 684 47 684C220 701 380 716 546 733C552 734 559 734 565 734C570 732 575 729 577 724C579 721 579 717 579 714C577 687 574 659 576 631C577 630 579 631 582 632C593 637 604 640 615 641C625 640 635 636 643 630C650 624 655 616 658 607C660 602 660 593 660 589C657 575 649 565 639 557C634 554 627 551 622 550C611 550 600 549 590 552C587 552 586 552 585 552C585 551 585 551 585 548C589 521 598 497 606 471C608 467 608 466 608 464C608 462 608 458 607 456C582 444 536 430 507 425C499 424 492 427 487 433C483 436 480 442 480 447C480 452 480 454 481 458C483 468 485 483 478 492C475 497 468 499 462 499C455 499 452 497 447 492C437 480 446 464 450 451C451 448 452 443 452 439C452 435 452 435 451 432C449 428 447 425 442 421L436 417C434 416 433 416 431 416C403 415 375 415 347 418L346 413C345 408 345 403 345 398L344 393C344 391 344 388 344 386C343 371 343 357 344 343C345 341 348 340 351 342C367 346 383 354 399 348C413 343 419 334 426 322C431 312 429 297 425 287C419 277 411 269 400 264C388 256 371 261 358 263C355 263 355 263 354 262C353 262 353 262 353 260C358 237 365 216 371 192L378 170C379 169 378 167 377 164C375 163 375 162 372 161L368 159C337 150 310 141 275 134C270 134 266 136 261 138C258 139 254 144 252 149C249 156 250 163 250 171C252 177 254 186 251 192C249 201 244 205 237 209C232 210 227 210 223 208C216 205 211 198 211 191C212 185 212 179 215 173L219 161C221 157 222 154 222 150C222 142 215 129 206 127C172 123 137 125 102 129ZM193 149C197 149 197 151 195 156C189 170 187 185 188 201C190 206 192 212 195 217C211 236 235 237 255 227C261 223 267 218 270 211C276 203 277 178 275 168L274 159C276 158 279 158 281 159C303 164 325 170 346 177C350 178 350 179 350 180L347 189C339 214 334 239 329 266C329 269 329 269 331 272C334 280 340 285 348 287C352 288 357 288 361 287C371 286 382 283 392 287C396 289 402 294 403 298C404 303 405 310 402 314C400 318 392 325 389 326C376 328 361 320 349 316H339C333 318 331 319 327 324C323 327 321 331 321 336C319 343 319 351 319 358C319 370 319 382 320 394L320 401C321 407 321 413 322 419C324 423 316 422 314 422C303 424 292 425 282 425C278 425 251 425 249 425C243 424 244 422 246 417C250 406 253 395 254 384C254 377 252 371 250 365C245 354 234 346 223 342C204 337 181 344 171 361C167 368 166 373 165 381C164 391 170 406 166 415C163 420 120 405 115 403L88 394C97 314 104 241 115 159C115 154 118 152 120 152C145 149 169 149 193 149ZM214 365C223 369 230 376 230 387C228 394 226 401 223 408C221 413 219 418 219 424C215 449 248 449 264 450C284 449 304 448 324 446C325 446 325 446 326 449C326 452 326 455 326 457L328 476L329 516C329 523 329 523 328 523C324 527 304 516 298 515C280 513 262 517 252 533C248 539 246 545 244 552C242 562 244 574 251 582C257 590 263 597 272 601C285 605 299 605 312 602L316 601C319 601 319 602 319 605C319 607 319 608 318 610C312 631 305 655 300 674L298 682L291 682C214 673 136 667 58 659C67 579 76 498 85 420L88 420C90 421 93 422 95 423C120 430 147 439 173 439C176 438 180 437 184 434C186 431 188 428 189 426L191 412C190 403 186 389 190 379C195 370 202 362 214 365ZM421 440C431 441 424 450 421 457C417 471 416 483 421 497C425 505 431 513 438 518C449 524 463 527 476 522C493 517 502 503 508 487C510 476 505 453 506 450C506 448 510 450 510 450C532 455 555 460 576 468C579 469 580 469 580 470L576 480C570 502 560 541 560 559C561 562 563 566 567 569C570 572 572 574 575 576C576 576 584 578 584 578C597 577 611 572 623 576C632 579 634 591 633 599C633 614 616 616 605 613C595 613 587 604 576 604C563 604 552 612 550 625L550 640C550 662 550 686 552 708H548C442 698 399 695 324 685C323 685 323 685 323 684C332 657 339 631 344 603C345 597 343 592 336 585C332 579 325 575 318 576C301 577 274 584 270 562C270 537 284 533 310 545L323 549C326 549 331 549 333 548C336 548 338 547 339 546C346 541 349 537 351 533C353 529 353 528 353 521C354 515 354 508 354 502L351 449C350 446 350 443 350 443C371 441 403 440 416 440" fill="black"/></svg>