<svg xmlns="http://www.w3.org/2000/svg" xml:space="preserve" style="enable-background:new 0 0 400 381" viewBox="0 0 400 381">
  <path d="M143.6 5.7a5.9 5.9 0 0 0-2.7 10.5 6.4 6.4 0 0 1-2 11c-1.4.5-1.6.5-25.4.5-27.1 0-29.1.1-38 1.9-40.2 8-71.8 40.2-79 80.3-2.2 12-2.1 24.6.1 40.8a106 106 0 0 0 4.5 20.5c.2.2.1.5-.6 1-10 8.3-13.3 21.3-9.8 38.4 6.9 33.8 14.7 49.3 27.1 53.4l2.2.7 1.2 3.4c.7 1.9 2.4 7.3 3.8 12.1 13.4 44.9 29.7 69.9 55.3 84.6a97.5 97.5 0 0 0 88.2 1.6c26.2-13.5 44.2-39.5 57.4-82.9l4.1-13.1 1.8-5.4 2.5-1.3c10.8-5.3 20.6-18.4 27.9-36.8 8.7-22.2 8.9-37 .5-45.3l-1.5-1.4.3-1c.2-.5.3-1.5.3-2.1a80 80 0 0 0 3.4-17.2c3.2-24.6 1.4-42.2-6.2-60.5a102 102 0 0 0-35.7-44l-1.7-1.1v-2.4a25 25 0 0 0-20.5-24.8c-5.5-1.1-8.9.7-9.5 4.9-.8 5.9-6.8 5.3-8.4-.8a35.2 35.2 0 0 0-25.2-25 69 69 0 0 0-14.4-.5m14.5 12.7a23.1 23.1 0 0 1 14 15.9l.8 2.8.2.8c0 .7.3 1.2 2.2 3.6 6.8 8.4 19.6 8 25.5-.8l1-1.5 1.5.8c4.8 2.7 7.5 8.4 6.4 13.8s-.7 6 5.7 10.2a89.7 89.7 0 0 1 39.8 74.1c0 13.6-2.9 33.5-6 41.2-1.6 4.2-.9 6.7 2.5 8.7 5.8 3.4 6.9 9.9 3.8 22-5.7 21.9-19.1 42.5-29 44.3a5.8 5.8 0 0 0-4.9 4.6l-2.1 6.6-3.6 11.5c-10.6 35.4-21.5 55-38.8 69.9a82.7 82.7 0 0 1-97.3 3.7c-19.8-14.2-32-35.1-43.7-74.6L33 265.8l-1.9-5.5c-1.9-5.7-2.7-6.5-6.9-6.9-8.8-.9-15-13.4-21.2-42.2-3.6-16.8-1.3-26.8 7.2-30.9 3.6-1.8 5-4.6 3.8-7.9-5.7-15-8.6-39.4-6.6-55.2a89.5 89.5 0 0 1 69.8-76c7.9-1.7 7.2-1.7 36.7-1.8l26.8-.1 2.2-.9c9-3.8 13.6-11.7 11.9-20.4-.2-.8 0-.8 3.3.4m-53 89.3a22.8 22.8 0 0 0-12.2 7.4c-7 7.7-16.9 9.1-28.2 3.9a23.2 23.2 0 0 0-12.4-3.1c-10 0-17.9 5.7-21.2 15.5-1.1 3.1-7.2 33.2-7 34.5.4 4.5 6.1 6.7 9.6 3.7 1.4-1.2 1.7-2.2 4.8-17.5 4-19.3 3.9-18.9 6.2-21.5 3.6-4 8-4.2 15.5-.9 15.4 7 30 4.7 40.9-6.4 4.2-4.3 7-5.3 11.3-4 3.8 1.2 4.5 1.7 12.4 10.8 8.3 9.5 10.4 11.4 15.3 13.8 8.8 4.3 16.4 3.1 23.2-3.7 5.6-5.6 11-7.5 16.2-5.6 9.1 3.2 21.5.9 29.9-5.7 3.3-2.6 4.1-2.8 5.5-1.4 2 2.1 2.4 3.5 4.9 17.8 2.3 13.4 2.5 14 3.9 15.4 3.8 3.7 10.3.6 9.7-4.7-.2-2.3-4-23.8-4.6-26.1-2.3-8.9-8.2-14.9-14.7-14.8-5.1 0-7.1.8-11.8 4.5-5.5 4.3-14 5.9-19.7 3.8l-2.4-.9h-4.6c-8.5 0-15.7 3.3-19.2 8.9-.4.7-1.1 1.4-1.4 1.5-7.3 3.7-10.4 2.1-21.4-10.5-8.3-9.5-9.6-10.7-14.2-13a27 27 0 0 0-14.3-1.7m-61.6 67.4a90.6 90.6 0 0 0-21.8 2.7c-3.9 2.4-4.5 10.4-1.1 14.6 1.3 1.6 1.7 4 1.9 10.8.9 29.1 8.8 41 29.3 43.7a123 123 0 0 0 45.4-1.8c12-3.6 16.8-9.7 21.3-26.8 1.8-7 3.1-11.3 3.5-11.9.6-.8 13.7-1.2 14.6-.4a55 55 0 0 1 2.9 9.6c5 19.1 8.8 24.7 19.7 28.7 14.3 5.3 44.4 5.2 57.9 0 12-4.7 17.7-15.6 18.8-36 .8-13.8.9-14.6 2.2-16 3.8-4 2.4-13.8-2.2-15-7.6-2.1-44.6-3.3-57.4-2a65 65 0 0 0-24.8 6.3 50.8 50.8 0 0 1-9.3 4.2 53.8 53.8 0 0 1-36.9-2.8 62 62 0 0 0-27.2-7.6 626 626 0 0 0-36.8-.3M63.7 187c17.5 0 31.4 2.6 38.4 7.1 7.7 5 8.4 11.3 3.4 27.4-3.6 11.3-8.5 13.9-28.1 15.1-22.6 1.4-34.7-1.7-38.8-9.8-4.3-8.6-5.3-33.9-1.4-36.4a56.2 56.2 0 0 1 19.1-3.2c-.7-.3-.3-.5.5-.3l6.9.1m140.3.3c3.2.2 8.9.8 10.3 1.1 6.6 1.3 7.6 1.8 8.5 4.7 1.8 5.9.4 25.8-2.3 32.2-4 9.4-15.5 12.7-39.4 11.3-22.2-1.3-25.4-3.7-30.1-21.9-4.7-18.3 3.3-24.9 33.2-27.4 3.8-.3 15.6-.3 19.8 0M97.1 302.1c-4.8 2.2-4.9 7-.1 11.2a48 48 0 0 0 60.1 3.4c7.9-5.6 9.9-10.3 5.7-13.7-2.8-2.3-5.4-1.9-9.3 1.5a36.2 36.2 0 0 1-49.3-.4c-2.8-2.5-4.7-3-7.1-2" style="fill-rule:evenodd;clip-rule:evenodd" transform="translate(66 -.4)"/>
</svg>