<?xml version="1.0" encoding="utf-8"?>
<!-- Generator: Adobe Illustrator 25.4.0, SVG Export Plug-In . SVG Version: 6.00 Build 0)  -->
<svg version="1.2" baseProfile="tiny" id="Layer_1" xmlns="http://www.w3.org/2000/svg" xmlns:xlink="http://www.w3.org/1999/xlink"
	 x="0px" y="0px" viewBox="0 0 127 127" overflow="visible" xml:space="preserve">
<path d="M61,5.3c-3.1,1.5-3.6,16.3-0.6,18.6c1.9,1.5,5,0.8,6.1-1.4c0.7-1.4,0.6-14.8-0.2-15.9
	C65.1,4.9,62.9,4.3,61,5.3"/>
<path d="M22.1,21.1c-1.4,0.6-2.4,2.3-2.4,4c0,2.1,10.1,12,12.3,12c3,0,5.1-3,3.8-5.5C35,30,26.2,21.4,24.9,20.9
	C23.6,20.4,23.6,20.4,22.1,21.1"/>
<path d="M99.6,21.1c-1.4,0.7-9.5,8.7-10.2,10.1c-1.6,3,0.4,6,3.9,6c1.4,0,10.3-8.1,11.7-10.6
	C106.7,23,103,19.3,99.6,21.1"/>
<path d="M59.8,29.6c-27.7,2.5-40.5,36.1-21.6,56.3c21,22.4,58.1,7.8,58.1-22.7C96.4,43.1,79.6,27.8,59.8,29.6z
	 M82.8,79.1C71.7,93,49.9,91.4,40.8,76c-11.1-18.8,6.1-42.6,27.4-37.9C86.8,42.2,94.6,64.3,82.8,79.1z"/>
<path d="M6.7,59.6c-2.3,1.1-3.7,4.7-0.9,6.2s8.9,1.1,8.9,1.1c7.7,0,7.8,0,8.7-0.9c1.9-1.9,1.6-4.9-0.6-6.3
	C21,58.7,8.7,58.6,6.7,59.6"/>
<path d="M103.7,59.4c-2.5,1-3.2,4.5-1.3,6.5l1.1,1.1h7.8c7.7,0,7.8,0,8.7-0.9c1.9-1.9,1.6-4.7-0.5-6.2
	C118.1,58.9,105.7,58.6,103.7,59.4"/>
<path d="M91.2,89.4c-1.4,0.6-2.4,2.3-2.4,4c0,2.1,10.1,12,12.3,12c3,0,5.1-3,3.8-5.5
	c-0.8-1.6-9.7-10.2-10.9-10.7C92.7,88.7,92.7,88.7,91.2,89.4"/>
<path d="M61.4,101.8c-2.2,1-2.6,2-2.7,8.3c-0.2,9.1,0.6,11.2,4.1,11.2c3.7,0,4.2-1,4.2-10.2v-7.2l-1.1-1.1
	c-0.6-0.6-1.4-1.1-1.7-1.1c-0.3,0-0.8-0.1-1.1-0.2C62.8,101.4,62,101.5,61.4,101.8"/>
<line stroke="#000000" stroke-width="8" stroke-linecap="round" stroke-miterlimit="4.0693" x1="20" y1="101.2" x2="29.3" y2="92.2"/>
</svg>
