<svg xmlns="http://www.w3.org/2000/svg" xml:space="preserve" style="enable-background:new 0 0 400 390" viewBox="0 0 400 390"><path d="M142.8 15.4a5509 5509 0 0 1-45.7 24.8C23.7 79.7 2.4 91.9 1.6 95c-.7 2.7 4.6 6.3 28.2 18.9 16 8.6 32.2 17.5 36.1 19.9l7 4.3v74l11.5 5c50.3 21.8 121.8 20.8 169.2-2.3l6.5-3.2.5-36.6.5-36.7 12.5-6.9a737 737 0 0 0 18.6-10.5l6.1-3.6v52.4l-4.7 1.2c-2.7.7-5.1 2.9-5.6 5.2a815 815 0 0 0-8.4 56.2v4.7l22.8-.5c21.5-.5 22.8-.7 22.6-4.2-2.1-29.2-9-59.2-14-61l-5.3-1.8v-55.4l8.9-5c26.5-15 30.1-10.2-34-45.4C181 8.9 172.3 4.1 169.7 3.1c-1.5-.5-13.6 5-26.9 12.3M200.3 28A48519 48519 0 0 0 275 69.1c24.6 13.5 45.3 25.1 46.1 25.8.7.7-3.5 3.8-9.3 6.8-5.9 3-19.2 10.4-29.7 16.3a275.7 275.7 0 0 1-20 10.7c-.5 0-1.2-6.1-1.5-13.5l-.5-13.5-15.9-5.9a234.7 234.7 0 0 0-158.4.9c-14.6 5.8-14.8 6-14.9 19.5 0 5.9-.3 10.7-.7 10.7-.4 0-7.7-3.9-16.3-8.6-8.6-4.7-21.7-11.8-29.2-15.6l-13.6-7L23 89.6c6.4-3.3 18.3-9.8 26.3-14.3s20.6-11.5 28-15.4L128 32.1c44.5-24.7 36-24.2 72.3-4.1M350 99.9 337.5 125v96.1c0 82.5.4 96.9 2.8 101.6l2.8 5.5h-15c-16.8 0-16.7.1-10.4-8.1 19.5-25.6 6.2-72.6-21.6-76.6-19.2-2.7-283.9-.2-283.9 2.7 0 1.9 3 3.2 9.8 4.2 39.3 5.7 40.1 76 .8 76H6.5l.1 62.4 194.6.5c126.6.3 184.8.7 197.8.1.2-23.4.1-44.2.1-60.6h-5.7l-8.3-.2s2.6-3.4 3.6-5.1c1.5-2.9 2.5-14.3 2.6-100.8l.1-97.2-12-25.3c-6.7-14.1-13.1-25.3-14.6-25.3-1.2-.1-7.9 11.2-14.8 25m19.7-2c0 1.4-2.6 1.1-5.2 1.1-5.4 0-5.4-.1-2.4-6.6 2.3-5.1 4.9-4.6 6.9 2m-160.1.1c7.7 1.6 20.7 5.1 28.9 7.9l14.9 5 .5 49.5.5 49.5-4.8 2.2c-6.2 2.8-6.5 2.8-6.5-1.4 0-5.6-2-9.5-4.9-9.5-2.4 0-2.9 1.8-3.4 12.1-.2 3.5-6.9 8.3-11.8 8.4-1.4 0-2.3-2.5-2.3-6.6 0-10.4-6.3-8.2-7.1 2.5-.5 6.3-1.4 7-4 7.9-2 .7-3.1.9-6 1.4-3.5 1-3.4-.3-3.4-3.9 0-12.6-6.9-14.9-7.8-2.7l-.6 7.9-8.7.6-8.7.6-.6-7.1c-.4-4.8-1.5-7.1-3.4-7.1s-3 2.3-3.4 7.1l-.6 7.1-8.7-.6-8.7-.6-.6-7.9c-.9-12.1-7.8-9.9-7.8 2.5 0 5-3.7 5.8-12 2.7-4.1-1.5-4.8-3-4.8-9.5 0-10.3-6.2-10-7.1.3l-.6 6.7-7.3-1.8c-6.8-1.7-7.3-2.3-7.8-9.5-.7-9.8-7.1-12.7-7.1-3.2 0 6.3-4.1 7.7-9.9 3.4-2.9-2.1-3.1-6.9-2.7-51.7l.5-49.4 11.2-4.1a226.9 226.9 0 0 1 116.6-8.7m169.5 19.3c2.1 4.1 3.4 6.1 2.3 7.5-1.8 2.2-6.1 1.9-15.3 1.9-18.1 0-18.4-.2-13.6-10.2 5-10.5 21.1-10 26.6.8m5.7 22.3c0 4.6-.8 5.6-5.1 6.1-7.6.9-8.2 7.1-.6 7.1 5.4 0 5.7.4 5.7 7.5 0 4.1-.6 7.4-1.4 7.2-5.1-.8-9.8.6-9.8 3 0 1.9 1.9 2.8 5.6 2.8 5.3 0 5.6.4 5.6 7.5s-.3 7.5-5.7 7.5c-7.5 0-7 6.2.6 7.1 7.7.9 7.7 12.8 0 13.7-7.6.9-8.2 7.1-.6 7.1 5.4 0 5.7.4 5.7 7.5 0 7-.3 7.5-5.6 7.5-3.7 0-5.6.9-5.6 2.8 0 2.6 3.2 3.7 8.9 2.9 1.5-.2 2.3 2.3 2.3 7.2 0 7.1-.3 7.5-5.6 7.5-4.3 0-5.6.8-5.6 3.7 0 2.9 1.2 3.7 5.6 3.7 8.2 0 8.6 12.4.5 13.4-7.6.9-8.2 7.1-.6 7.1 5.1 0 5.7.6 5.7 5.6v5.6h-39.2V130.6h39.2v5.5m-74.5 42.6c0 .8 1.7 11.5 3.7 23.8s3.7 23.4 3.7 24.7c0 1.7-4.2 2.3-14.9 2.3-8.2 0-14.9-.5-14.9-1.2 0-2.4 7.6-46.4 8.4-48.7.8-2.5 13.9-3.3 14-.9M69.1 257.5c0 10.5 6.2 9.9 7.1-.7l.5-6.4 19.4.4.6 7c.4 4.4 1.5 7 3.1 7s2.8-2.6 3.1-7l.6-7 19.3-1.1.6 7.1c.9 10.6 7.1 11.2 7.1.7v-7.6h20.3l.6 7c.9 10.5 7.1 11.1 7.1.6v-7.6H179v7.6c0 10.5 6.2 9.9 7.1-.6l.6-7H207v7.6c0 10.5 6.2 9.9 7.1-.7l.6-7.1 9.7.6c8.8.5 9.7 1 9.9 5.2.4 8.6.7 9.3 3.4 9.3 1.8 0 2.9-2.4 3.3-7l.6-7 19.3-1.1.6 7.1c.9 10.6 7.1 11.2 7.1.7v-7.6h18.6v48.4H277c-7.9 0-10.2.6-10.2 2.8 0 2.1 2.4 2.8 10.2 2.8h10.2v22.4H44.7l5-6.5 5-6.5 50.6-.5c46.4-.5 50.6-.8 51.2-3.8.6-3-2.7-3.3-48.9-3.3-38.4 0-49.5-.5-49.5-2.3 0-1.3.5-5.5 1.2-9.3l1.2-7h10.1c15 0 13.8-6.3-1.4-7.1l-10.3-.5-2.2-8.2a43.5 43.5 0 0 0-8-14.8l-5.8-6.6h26.4v7.6m239.3.5c15.4 15.4 15.3 46.4-.1 61.9-13.1 13.1-13.8 11.6-13.8-30.8-.1-42.3.8-44.2 13.9-31.1m68.5 38.5h7v11.8c0 15.9-3.1 18.8-19.1 18.2-15.8-.5-20-5-20-21.1v-11.3l12.6 1.2c6.8.7 15.6 1.2 19.5 1.2m-202.3 3.1c-3.3 3.3 3 4.4 25.8 4.4 21 0 25-.4 25-2.8.1-2.9-48-4.4-50.8-1.6m217.6 35.5c.4.4 0 47.3 0 47.3h-23.1l-.6-7.1c-.8-9.7-6-9.8-6.8-.1l-.6 7h-21.9l-.6-7c-.4-4.7-1.5-7-3.4-7s-3 2.3-3.4 7l-.6 7h-21.9l-.6-7c-.4-4.7-1.5-7-3.4-7s-3 2.3-3.4 7l-.6 7h-21.9l-.6-7c-.4-4.7-1.5-7-3.4-7s-3 2.3-3.4 7l-.6 7h-21.9l-.6-7c-.4-4.7-1.5-7-3.4-7s-3 2.3-3.4 7l-.6 7h-21.9l-.6-7c-.4-4.7-1.5-7-3.4-7s-3 2.3-3.4 7l-.6 7h-21.9l-.6-7c-.4-4.7-1.5-7-3.4-7s-3 2.3-3.4 7l-.6 7H160l-.6-7c-.4-4.7-1.5-7-3.4-7s-3 2.3-3.4 7l-.6 7h-21.9l-.6-7c-.4-4.7-1.5-7-3.4-7s-3 2.3-3.4 7l-.6 7h-21.9l-.6-7c-.4-4.7-1.5-7-3.4-7s-3 2.3-3.4 7l-.6 7h-21l-.6-7c-.4-4.7-1.5-7-3.4-7s-3 2.3-3.4 7l-.6 7H41.4l-.6-7c-.4-4.7-1.5-7-3.4-7s-3 2.3-3.4 7l-.6 7H13.2v-46.6l144.9-.6c140.4-.5 234.3.1 234.3.1z" style="fill-rule:evenodd;clip-rule:evenodd"/></svg>