<svg width="2011" height="1886" viewBox="0 0 2011 1886" fill="none" xmlns="http://www.w3.org/2000/svg">
<path d="M870.391 2.0614C849.915 6.133 838.898 9.98438 818.422 20.4385C784.954 37.4952 763.959 55.7625 698.271 124.76C653.682 171.638 628.009 198.268 615.848 210.483C606.494 219.727 604.623 221.157 602.336 220.607C595.061 218.956 579.782 218.626 570.843 219.947C549.64 223.138 520.434 235.903 499.854 251.199C468.569 274.308 448.925 302.919 439.778 338.793C436.245 352.439 435.725 356.62 435.205 372.907C434.685 388.643 435.309 397.446 437.908 415.824C438.427 419.235 438.427 422.426 437.908 423.086C437.388 423.747 433.75 425.947 429.904 427.928C421.381 432.33 405.063 443.774 397.996 450.157C373.882 472.276 359.435 496.595 351.12 528.948C345.091 552.497 344.468 569.444 348.313 600.476C348.833 604.878 348.625 605.538 343.74 610.93C335.321 620.504 329.501 628.317 323.888 637.67C315.054 652.416 306.011 672.774 302.893 684.879C297.488 705.567 296.137 713.6 294.474 733.628C292.707 754.206 294.994 781.057 300.294 801.525C301.23 805.156 302.373 809.558 302.893 811.429C303.309 813.189 304.036 815.61 304.452 816.601C304.972 818.031 302.789 822.103 296.864 830.906C276.908 860.838 262.149 891.98 256.641 915.86C250.197 943.921 250.508 981.115 257.576 1008.41C262.253 1026.56 272.959 1052.2 280.65 1063.65C282.625 1066.51 284.184 1069.48 284.184 1070.25C284.184 1070.91 281.066 1075.86 277.324 1081.25C269.529 1092.04 257.264 1108.99 255.601 1110.97C255.082 1111.63 251.963 1115.7 248.845 1119.99C245.831 1124.28 242.505 1127.8 241.57 1127.8C240.634 1127.8 238.556 1126.26 236.789 1124.39C230.137 1116.8 216.937 1108.22 206.023 1104.14C203.529 1103.26 196.877 1101.72 191.264 1100.73C182.533 1099.19 179.623 1099.08 172.555 1100.18C160.81 1101.94 154.054 1104.14 144.388 1109.21C132.747 1115.26 125.991 1121.31 113.727 1136.5C110.609 1140.35 107.491 1144.09 106.971 1144.75C106.347 1145.41 101.046 1151.9 95.122 1159.17C63.9828 1197.34 15.3718 1237.42 1.37041 1287.37C-0.604396 1294.3 -0.396521 1320.16 1.68223 1328.08C6.8791 1347.56 14.4665 1359.55 31.7201 1375.51C35.3579 1378.92 42.8414 1385.74 48.2462 1390.81C53.6509 1395.76 59.5754 1401.15 61.2384 1402.8C63.0053 1404.34 69.9691 1410.83 76.829 1417.22C231.293 1558.45 385.648 1699.77 538.311 1843.19C547.721 1851.91 557.193 1860.55 566.686 1869.16C568.869 1871.36 581.341 1878.52 586.018 1880.28C596.516 1884.24 605.247 1886 614.393 1886C635.181 1886 655.137 1877.75 669.376 1863.11C696.823 1835.67 719.89 1802.79 744.627 1772.55C771.608 1739.22 806.513 1704.38 792.958 1656.01C789.32 1642.91 782.46 1630.15 774.145 1620.91C767.181 1613.31 765.102 1609.57 767.285 1608.47C767.701 1608.25 771.962 1603.19 776.847 1597.14C810.211 1555.65 849.084 1513.83 878.394 1487.86C889.412 1478.18 908.224 1464.31 917.371 1459.25C926.309 1454.19 955.931 1443.63 961.128 1443.63C962.272 1443.63 977.239 1451 994.492 1460.02C1011.75 1469.05 1028.38 1477.63 1031.49 1479.17C1037.31 1482.03 1056.44 1491.06 1062.16 1493.7C1103.05 1511.52 1152.16 1523.79 1189.17 1548.17C1207.98 1560.82 1216.71 1568.53 1241.34 1594.06L1252.26 1605.39L1241.86 1616.06C1230.22 1628.06 1224.19 1637.63 1220.04 1650.73C1210.79 1679.45 1216.09 1709.71 1234.48 1733.26C1239.68 1739.97 1244.05 1745.36 1271.59 1778.71C1278.14 1786.63 1286.14 1796.31 1289.36 1800.28C1344.35 1867.18 1344.87 1867.73 1359 1875.88C1370.12 1882.37 1383.43 1886 1396.21 1886C1404.73 1886 1415.96 1884.13 1421.78 1881.6C1437.89 1874.89 1442.77 1871.36 1462.83 1852.44C1465.43 1849.91 1472.92 1842.97 1479.46 1837.03C1486.01 1830.98 1493.08 1824.49 1495.05 1822.62C1646.07 1679.56 1800 1539.77 1953.42 1399.61C1990.11 1366.05 1990.84 1365.28 1997.28 1355.59C2007.78 1339.86 2011 1328.41 2011 1307.17C2011 1290.01 2009.96 1284.39 2004.87 1272.51C2001.02 1263.71 1991.56 1249.51 1984.6 1242.25C1954.8 1210.7 1931.94 1167.73 1899.79 1139.36C1899.27 1138.7 1895.84 1134.63 1892.2 1130.33C1878.27 1113.28 1861.64 1103.92 1838.88 1100.18C1819.13 1096.99 1795.12 1105.57 1776.31 1122.63C1771.22 1127.25 1766.54 1131.1 1766.02 1131.1C1765.4 1131.1 1764.15 1130 1763.01 1128.68C1761.86 1127.25 1749.91 1114.27 1736.4 1099.74C1674.76 1033.39 1650.34 1006.98 1648.67 1004.99C1647.01 1003.01 1647.12 1002.35 1650.03 993.55C1654.7 979.795 1662.08 954.375 1666.14 937.978C1668.72 927.936 1671.07 917.877 1673.2 907.716C1675.91 894.511 1679.02 875.474 1681.1 858.747C1682.56 847.083 1682.45 805.596 1681 797.233C1675.59 766.861 1660 740.011 1635.68 719.432C1633.29 717.342 1631.32 714.811 1631.32 713.82C1631.21 712.83 1632.77 708.428 1634.75 703.917C1646.18 677.726 1651.69 660.229 1658.24 629.857C1661.77 613.571 1662.81 585.51 1660.42 570.984C1655.22 539.842 1644.1 517.063 1623 494.504C1618.43 489.662 1611.88 483.5 1608.45 480.749C1605.02 477.998 1602.21 475.247 1602.11 474.477C1602.11 473.816 1604.19 468.754 1606.79 463.252C1609.39 457.75 1611.46 452.688 1611.46 451.808C1611.46 451.037 1611.88 449.937 1612.3 449.387C1613.13 448.286 1615.41 441.244 1617.6 432.88C1623.42 410.431 1623.42 380.83 1617.6 358.051C1611.05 332.631 1598.78 309.412 1582.88 292.465C1574.15 283.112 1562.09 273.978 1551.18 268.256C1543.8 264.404 1542.76 263.414 1543.18 261.433C1543.49 260.112 1545.67 253.07 1547.96 245.807C1553.88 226.769 1555.34 216.756 1555.34 194.967C1555.34 177.36 1554.3 167.456 1551.08 153.921C1543.8 123.879 1528.73 95.3778 1510.85 77.991C1490.48 58.1832 1463.77 45.0881 1432.17 39.3658C1421.16 37.275 1379.27 37.2751 1367.21 39.2559C1349.96 42.117 1313.79 51.1405 1286.66 59.2837C1285 59.8339 1280.94 60.9344 1277.83 61.8147C1267.85 64.6758 1251.01 69.7379 1240.41 73.0392C1237.29 74.0296 1233.34 75.2399 1231.57 75.7902C1229.91 76.2303 1224.51 77.9911 1219.62 79.6417C1197.42 87.1421 1175.23 94.4827 1153.1 102.2C1140.48 106.601 1127.98 111.314 1115.48 116.066C1111.32 117.607 1106.12 119.587 1104.04 120.578C1100.4 122.228 1100.09 122.228 1097.18 119.697C1095.52 118.267 1085.75 109.573 1075.56 100.55C1053.53 81.0723 1040.74 70.5081 1022.14 56.4226C1014.55 50.5903 994.492 36.2847 988.256 32.103C975.887 23.8498 950.942 10.8647 947.513 10.8647C946.473 10.8647 945.226 10.4244 944.602 9.98425C942.316 7.89343 931.61 4.92232 914.253 1.51099C903.027 -0.689877 882.967 -0.469591 870.391 2.0614ZM912.486 68.9674C914.253 69.5176 917.682 70.7282 920.281 71.4985C931.714 75.0199 944.498 81.9525 960.817 93.287C967.365 97.9088 973.289 101.87 973.809 102.2C980.773 105.722 1034.51 150.179 1034.61 152.38C1034.61 153.15 1032.64 154.691 1030.25 155.901C1023.59 159.203 1009.56 166.135 996.987 172.408C990.854 175.489 981.916 180.881 977.239 184.403C972.457 187.924 965.182 193.206 961.128 196.287C946.993 206.632 942.627 209.933 939.094 212.904C932.857 218.076 912.07 233.482 891.282 248.338C870.703 263.084 825.282 293.676 824.139 293.676C823.827 293.676 821.852 294.776 819.67 296.207C808.444 303.69 784.019 316.895 771.651 322.177C753.15 330.21 744.835 332.851 722.28 337.803C707.105 341.104 674.053 341.434 660.957 338.463C642.664 334.282 631.439 329.77 626.034 324.378C621.149 319.646 620.837 315.464 624.163 304.57C627.801 292.905 634.037 284.432 652.954 265.505C670.623 247.678 694.737 222.698 737.767 177.58C791.295 121.458 807.509 105.832 828.296 90.9762C838.067 84.0435 854.281 75.4601 863.635 72.4889C877.355 68.0872 884.526 66.9867 896.895 67.4269C903.755 67.647 910.823 68.3071 912.486 68.9674ZM1429.05 106.602C1458.05 114.415 1474.48 128.501 1484.56 154.361C1490.9 170.647 1492.35 178.02 1492.35 196.287C1492.35 211.363 1492.04 213.674 1489.44 222.148C1486.32 232.602 1482.69 240.855 1477.8 249.108C1471.46 259.672 1481.96 253.62 1359.73 317.775C1301.73 348.367 1301.73 348.367 1297.47 363.113C1295.49 370.156 1295.29 371.916 1296.33 376.978C1297.89 385.121 1300.48 390.293 1305.47 395.576C1312.23 402.838 1316.18 404.269 1328.24 404.159H1338.63L1401.51 370.816C1507.63 314.584 1496.82 319.976 1502.85 321.076C1526.86 325.808 1543.49 340.004 1552.53 363.553C1557.42 376.098 1557.94 379.399 1557.94 396.016C1557.94 410.651 1557.73 412.742 1555.03 421.216C1549.93 436.952 1545.15 444.875 1531.02 460.941C1528.11 464.242 1523.85 469.194 1521.66 471.946C1507.63 489.143 1492.68 505.473 1478.42 522.455C1464.33 537.373 1452.48 554.544 1438.41 569.444C1418.04 592.883 1416.37 595.194 1414.5 605.098C1412.42 615.992 1416.69 629.527 1424.48 636.35C1430.93 642.182 1435.71 643.943 1444.65 644.053C1459.82 644.273 1459.92 644.163 1492.87 605.538C1495.47 602.457 1501.39 595.634 1505.97 590.242C1510.54 584.96 1515.01 579.678 1515.84 578.687C1520.31 573.185 1553.26 534.78 1556.59 531.039L1560.43 526.747L1563.76 528.838C1569.16 532.139 1581.11 544.464 1585.9 551.617C1595.25 565.702 1598.26 576.046 1598.37 594.093C1598.58 627.436 1583.51 670.133 1551.91 726.145C1533.82 758.278 1500.67 805.156 1474.68 835.418C1465.95 845.432 1463.67 850.824 1463.67 861.498C1463.56 871.622 1466.89 880.096 1473.23 886.148C1480.3 892.861 1484.87 894.731 1494.64 894.731C1508.57 894.731 1512.31 892.09 1530.29 869.752C1534.55 864.249 1539.02 858.857 1540.06 857.647C1542.55 854.896 1571.24 815.61 1576.33 808.127C1584.13 796.463 1595.87 777.755 1595.87 776.875C1595.87 776.325 1596.71 775.555 1597.74 775.114C1600.03 774.124 1609.07 784.468 1613.13 792.501C1618.64 803.726 1619.26 807.577 1619.16 829.586C1618.95 861.168 1613.75 892.42 1601.49 936.328C1598.78 945.901 1591.82 968.02 1589.53 974.292C1577.35 1009.77 1562.7 1047.03 1544.94 1079.93C1533.62 1101.17 1521.56 1118.78 1512.52 1127.14C1507.01 1132.31 1462.11 1166.65 1447.24 1176.99C1423.47 1193.78 1399.37 1210.55 1374.28 1225.08C1366.48 1229.48 1359.31 1233.77 1352.66 1237.74C1309.53 1263.6 1263.58 1284.85 1217.02 1302.77C1201.02 1309.59 1152.17 1326.21 1121.4 1335.23C1117.97 1336.22 1113.81 1337.54 1112.05 1338.1C1073.04 1349.89 1033.09 1356.74 993.557 1366.05C989.607 1367.04 984.202 1368.25 981.604 1368.8C975.991 1370.01 940.861 1379.47 936.391 1380.9C934.728 1381.45 928.388 1383.54 922.36 1385.41C903.547 1391.47 889.204 1398.4 873.301 1409.18C860.348 1417.8 848.515 1427.75 836.507 1437.57C817.695 1452.87 781.421 1490.73 745.147 1533.2C744.627 1533.86 741.509 1537.6 738.391 1541.56C734.285 1546.78 730.023 1551.87 725.918 1557.08C719.994 1564.56 717.811 1566.87 716.875 1566.87C716.356 1566.87 714.381 1565.22 712.302 1563.24C579.656 1443.87 439.593 1321.06 313.287 1194.93C312.975 1194.6 309.025 1190.86 304.452 1186.68C299.879 1182.38 294.786 1177.65 293.123 1176L290.005 1173.14L292.811 1169.4C298.059 1162.26 320.985 1120.1 329.813 1120.1C330.228 1120.1 334.906 1123.29 340.102 1127.25C349.665 1134.52 366.814 1145.63 373.57 1148.93C380.189 1152.2 391.219 1154.64 396.956 1159.5C399.243 1161.7 424.292 1168.96 443.208 1173.14C452.147 1175.01 483.328 1175.01 491.019 1173.14C505.883 1169.4 512.119 1167.2 522.097 1161.7C549.848 1146.51 573.546 1116.69 587.577 1079.16C588.929 1075.75 590.488 1072.67 591.111 1072.45C591.839 1072.12 597.036 1072.56 602.752 1073.44C636.532 1078.17 671.455 1070.03 695.568 1051.87C712.822 1038.78 726.75 1020.18 735.376 998.502C744.627 975.283 748.888 947.222 746.809 922.792C745.562 908.046 744.003 897.813 741.924 889.889C741.197 887.028 740.885 884.497 741.301 884.167C741.716 883.947 744.419 882.406 747.225 880.756C760.425 873.163 770.715 864.91 781.629 853.355C802.416 831.236 812.498 808.678 815.096 778.746C816.24 766.531 815.304 747.494 813.122 738.25C808.86 719.322 808.964 719.543 804.287 706.337C800.857 696.764 792.126 677.506 789.216 673.104C787.553 670.684 787.345 669.583 788.28 667.822C788.904 666.612 789.84 665.621 790.463 665.621C792.022 665.621 799.921 659.679 809.796 650.986C828.4 634.809 843.471 611.921 852.41 586.391C856.463 574.616 859.997 554.478 859.997 542.593C859.997 523.226 852.826 497.035 839.833 468.644C831.622 450.817 813.018 422.536 795.66 401.518C791.814 396.896 791.606 394.585 794.829 393.045C796.076 392.384 798.051 391.064 799.194 390.073C861.215 335.586 939.094 283.012 1003.43 246.357C1006.76 242.285 1036.9 224.899 1059.04 214.444C1061.95 213.124 1067.56 210.373 1071.51 208.502C1083.58 202.602 1096.89 198.063 1108.41 191.005C1143.36 169.582 1184.56 161.684 1222.74 148.749C1247.48 140.213 1272.52 132.737 1297.57 125.31C1337.78 113.389 1386.59 95.3627 1429.05 106.602ZM560.346 297.747C558.059 312.823 558.683 329.22 561.905 339.894C567.725 359.592 578.847 373.787 597.14 384.791C622.916 400.307 650.667 407.13 688.916 407.24L710.743 407.35L714.901 411.312C733.09 427.818 758.658 457.53 769.468 474.477C785.474 499.676 796.595 527.847 796.595 543.364C796.595 560.64 785.37 584.74 771.235 598.165C755.228 613.241 736.52 618.963 721.241 613.351C711.055 609.72 674.989 590.242 660.749 580.778C657.215 578.467 653.993 576.486 653.785 576.486C653.058 576.486 626.45 558.66 617.303 552.057C613.354 549.086 609.3 546.335 608.469 545.674C604.831 543.143 584.043 527.627 583.524 527.077C583.212 526.747 580.198 524.216 576.768 521.465C573.338 518.714 570.324 516.293 570.012 515.963C569.7 515.633 566.27 512.551 562.217 509.14C542.884 492.634 524.176 467.324 512.95 442.784C504.012 423.086 501.517 414.393 498.711 392.714C494.242 358.381 506.61 328.339 534.154 307.431C542.469 301.159 555.357 293.896 558.475 293.786C560.761 293.676 560.865 294.006 560.346 297.747ZM464.204 488.122C465.243 489.112 466.075 490.323 466.075 490.873C466.075 492.524 473.142 503.638 482.601 517.063C491.643 529.938 515.757 556.679 524.383 563.391C526.982 565.482 536.336 572.855 545.171 579.898C563.464 594.534 583.316 608.949 605.766 623.805C619.902 633.049 624.579 636.13 638.091 644.163C640.378 645.594 644.847 648.235 647.965 650.105C653.785 653.627 686.214 670.683 690.06 672.224C691.203 672.664 694.009 673.875 696.296 674.755C698.582 675.745 702.116 676.956 704.091 677.616C720.929 682.568 719.266 681.578 724.775 690.161C740.157 714.371 748.057 733.078 751.383 752.886C754.085 768.732 753.046 778.196 747.537 790.961C742.34 802.955 726.542 818.031 713.446 823.423C704.507 827.165 684.135 826.835 669.272 822.763C651.603 818.031 636.844 812.639 621.253 805.266C615.848 802.735 581.653 784.798 574.481 780.727C561.073 773.134 535.505 756.187 531.451 752.225C528.853 749.694 523.552 744.632 519.602 741.001C506.402 729.006 503.076 725.705 486.758 708.538C468.777 689.501 463.476 683.229 450.172 664.631C445.183 657.588 440.402 651.096 439.778 650.215C437.596 647.354 428.241 632.388 425.019 626.556C419.822 617.092 416.081 608.179 412.755 597.945C409.844 588.701 409.637 586.831 409.637 571.535C409.533 555.798 409.74 554.478 412.859 543.914C420.134 519.924 434.581 501.437 455.161 489.332C461.293 485.701 461.709 485.701 464.204 488.122ZM381.781 678.937C384.276 683.558 403.504 711.069 411.3 720.973C430.528 745.733 449.756 765.761 485.823 798.774C504.353 815.59 525.602 828.416 547.146 841.14C561.385 849.504 595.892 867.11 606.806 871.512C619.104 876.628 631.532 881.254 644.327 885.048C653.618 887.73 663.536 890.238 673.118 891.76C676.548 892.31 677.067 892.861 678.419 897.592C685.694 922.022 686.006 945.351 679.562 965.599C670.831 992.89 650.667 1007.75 622.085 1007.86C613.977 1007.86 598.075 1005.76 589.76 1003.45C578.743 1000.59 572.506 998.612 571.675 997.732C571.051 997.292 569.908 996.851 568.973 996.851C557.153 996.851 536.324 981.664 527.398 975.833C525.942 974.843 518.459 970.001 510.768 964.939C481.769 946.011 461.293 930.936 451.523 921.252C406.83 877.014 380.846 840.7 367.334 803.505C361.306 786.999 356.94 763.78 356.94 748.484C356.94 727.246 361.929 704.357 370.66 685.979C377.104 672.444 378.04 671.784 381.781 678.937ZM342.701 894.291C361.202 920.922 391.24 955.145 414.626 976.383C430.613 990.323 448.539 1006.34 467.53 1015.56C472.008 1017.93 479.348 1026.56 484.264 1026.56C492.35 1026.56 524.132 1044.5 529.061 1053.19C529.788 1054.4 523.344 1068.71 518.355 1077.07C514.821 1083.02 499.958 1099.19 498.191 1099.19C497.672 1099.19 495.489 1100.4 493.306 1101.83C486.55 1106.34 475.845 1108.44 463.164 1107.66C451.731 1107 447.886 1106.23 432.815 1101.61C423.044 1098.64 423.252 1098.75 411.611 1093.58C399.97 1088.41 375.337 1073 371.492 1068.49C371.18 1068.16 368.685 1065.85 365.775 1063.43C357.148 1056.27 341.973 1039.66 336.88 1032.07C332.203 1024.91 324.512 1010.28 323.369 1006.21C323.057 1004.99 321.913 1001.25 320.77 997.952C312.143 972.092 313.183 940.729 323.576 914.869C327.006 906.286 336.672 887.909 337.816 887.909C338.024 887.909 340.206 890.77 342.701 894.291ZM1641.29 1092.81C1652 1104.47 1672.89 1126.92 1687.65 1142.77C1715.92 1173.03 1718.31 1175.89 1716.86 1177.21C1713.22 1180.73 1703.24 1189.87 1697.73 1194.93C1687.86 1203.95 1680.69 1210.56 1680.06 1211.33C1576.7 1320.76 1460.53 1416.91 1349.02 1516.81C1345.07 1520.44 1341.23 1523.85 1340.6 1524.51C1326.26 1538.15 1302.15 1559.83 1301 1560.05C1300.07 1560.27 1293.73 1554.55 1285.72 1546.3C1265.98 1525.83 1256.93 1517.25 1244.05 1507.01C1212.5 1481.9 1189.17 1469.5 1095.31 1435.92C1085.95 1435.92 1050.32 1421.83 1074.63 1416.34C1094.9 1411.6 1121.92 1404.56 1138.55 1399.61C1145.51 1397.52 1171.29 1389.6 1174.41 1388.49C1185.53 1384.75 1225.75 1370.78 1227.42 1369.9C1228.56 1369.46 1233.03 1367.7 1237.29 1366.05C1244.25 1363.41 1254.96 1359.22 1260.68 1356.69C1261.82 1356.14 1269.3 1352.95 1277.31 1349.54C1285.31 1346.02 1293.94 1342.28 1296.53 1341.07C1328.49 1326.18 1360.05 1310.25 1390.29 1292.1C1394.76 1289.57 1398.6 1287.37 1398.91 1287.37C1399.22 1287.37 1401.2 1286.15 1403.38 1284.83C1405.46 1283.4 1411.9 1279.33 1417.62 1275.81C1467.72 1244.89 1546.3 1187.23 1561.16 1170.61C1571.24 1159.16 1590.68 1131.21 1590.68 1128.02C1590.68 1127.47 1591.3 1126.37 1592.13 1125.71C1601.21 1117.3 1616.66 1088.29 1616.66 1077.62C1616.66 1076.52 1620.09 1071.68 1620.82 1071.68C1621.34 1071.68 1630.49 1081.14 1641.29 1092.81ZM187.003 1168.41C189.289 1169.62 192.615 1171.93 194.278 1173.69C350.004 1319.17 520.521 1454.94 667.297 1610.34C670.104 1612.98 676.028 1618.49 682.264 1624.1C688.812 1629.93 714.485 1653.7 715.524 1654.91C715.836 1655.24 719.162 1658.43 723.008 1661.95C728.828 1667.23 730.387 1669.33 731.739 1674.06C733.402 1679.56 733.402 1680 731.323 1684.73C730.179 1687.37 724.671 1694.97 719.162 1701.68C713.549 1708.28 706.586 1716.75 703.571 1720.39C679.919 1749.69 655.727 1778.55 631.855 1807.65C628.425 1811.83 624.059 1816.12 622.188 1817.11C616.992 1819.86 610.548 1819.42 605.766 1816.01C602.544 1813.7 587.889 1800.5 585.603 1797.97C585.291 1797.64 579.678 1792.46 573.13 1786.52C566.582 1780.47 560.762 1775.08 560.138 1774.42C559.618 1773.76 556.084 1770.45 552.343 1767.15C401.323 1633.91 256.21 1492.83 107.49 1356.69C78.0762 1329.73 65.4998 1317.41 64.2525 1314.22C61.6541 1307.61 63.0053 1299.91 67.5785 1294.41C68.7218 1293.09 72.1518 1288.91 75.2699 1285.16C78.388 1281.31 86.4951 1271.41 93.355 1263.27C118.578 1232.45 142.608 1199.23 169.853 1170.39C170.996 1169.07 178.272 1166.43 180.766 1166.43C181.91 1166.43 184.716 1167.31 187.003 1168.41ZM1836.9 1168.08C1839.5 1169.18 1842.93 1172.15 1846.05 1176C1870.63 1208.03 1957.91 1272.43 1948.01 1311.24C1946.77 1316.42 1945.52 1317.96 1935.75 1326.98C1931.49 1330.94 1927.75 1334.35 1927.43 1334.68C1927.12 1335.01 1921.3 1340.52 1914.44 1346.79C1758.8 1489.11 1605.16 1633.88 1449.32 1775.96C1445.58 1779.48 1436.02 1788.39 1428.02 1795.76C1420.01 1803.14 1412.01 1810.62 1410.24 1812.27C1405.46 1816.78 1401.1 1818.87 1396.31 1818.87C1388.62 1818.87 1389.56 1819.75 1352.76 1775.41C1351.31 1773.54 1344.24 1764.95 1337.07 1756.26C1329.9 1747.57 1315.24 1729.74 1304.43 1716.64C1281.98 1689.46 1280.63 1687.59 1278.97 1682.53C1277.41 1677.36 1279.18 1671.42 1284.06 1666.13C1287.08 1662.83 1302.77 1648.2 1318.36 1634C1319.82 1632.68 1322.41 1630.26 1324.08 1628.72C1325.84 1627.07 1334.26 1619.37 1342.79 1611.44C1492.45 1475.89 1639.68 1337.42 1788.16 1200.43C1802.71 1186.9 1816.22 1174.46 1818.09 1172.7C1824.74 1166.43 1830.05 1165.11 1836.9 1168.08Z" fill="black"/>
</svg>
