<svg version="1.1" xmlns="http://www.w3.org/2000/svg" x="0px" y="0px" viewBox="0 0 19.9 19.8" style="enable-background:new 0 0 19.9 19.8;">
	<path fill="currentColor" d="M2,18.6c-0.4,0-0.7-0.3-0.7-0.7v-16c0-0.4,0.3-0.7,0.7-0.7h16c0.4,0,0.7,0.3,0.7,0.7v16c0,0.4-0.3,0.7-0.7,0.7H2z
		 M2.7,17.2h14.6V2.6H2.7V17.2z M13.8,15.1v-4c0-1.1-0.9-2-2-2c-1.1,0-2,0.9-2,2v4H8.3V8.2h1.4v0.8l0.5-0.5C10.8,8,11.4,7.7,12,7.7
		c1.8,0,3.2,1.5,3.2,3.5v4H13.8z M4.8,15.1V8.2h1.4v6.9H4.8z M5.5,6.6c-0.7,0-1.2-0.5-1.2-1.2s0.5-1.2,1.2-1.2s1.2,0.5,1.2,1.2
		S6.2,6.6,5.5,6.6z"/>
</svg>
