<svg xmlns="http://www.w3.org/2000/svg" xml:space="preserve" id="svg" x="0" y="0" style="enable-background:new 0 0 400 400" version="1.1" viewBox="0 0 400 400"><style>.st1{fill:#d8d8d8;stroke:#006386;stroke-width:1.0173;stroke-miterlimit:4.0693}</style><g id="svgg"><path id="path0" d="M199.1 2.7c-2.3 1.4-2.2-1.1-2.2 42.5v40.1L195 89c-1.1 2-46.6 93.8-53.3 102.9-7.4 11.1-66.4 87-67.3 88.9-5.6 19.7-17.7 66.6-17.8 66.7-.3.4-5.6.5-24.3.5a276 276 0 0 0-24.8.4c-2.2 1.1-2.1-.1-2.1 24.7v22.7l1.2 1.1 1.2 1.1 192 .1c209.8.1 194.4.3 195.6-2.2 1.1-2.2.9-45.1-.2-46.9-1.2-2-49-1.2-49-1.2l-3-26.5c-6.7-11.6-36.1-37.6-38.7-44C294.9 264.7 205.2 84 205.2 84l-.1-10-.1-10.1 2.8.9c14 4.4 27.3 3.6 55.2-3.3 18-4.5 21.7-5.2 31.2-5.4 10.3-.3 16.4.8 24.3 4.4 6.2 2.8 10.1-1.3 6-6.3a148 148 0 0 0-16.8-16.8L306 36l4.3-2.1c4.1-1.9 6.6-2.9 11.7-4.3 4.9-1.3 5.4-5.9.9-8.2-8.1-4.1-19-6.3-29.7-5.8-8.7.4-15.6 1.6-35.8 6.6-25.1 6.2-37.6 6.6-50.1 1.6L205 23v-8.8c0-9.9-.2-10.7-2.5-11.7-1.6-.7-2-.7-3.4.2m-82.3 8.2c-3.1 1.5-3.6 16.3-.6 18.6 1.9 1.5 5 .8 6.1-1.4.7-1.4.6-14.8-.2-15.9a4 4 0 0 0-5.3-1.3M3.7 17.5c-1.8 1.6-1.9 4-.2 5.7l1.1 1.1h18.2c20 0 19.3.1 20.3-2.2.6-1.5.2-3.5-1-4.6l-1-.9-18.1-.1-18-.2-1.3 1.2m342-.3c-2.2 1.5-2.4 4.3-.5 6.2l1 .9h47.4l1-.9a4 4 0 0 0 .9-4.7c-1.2-2.4-.5-2.3-25.6-2.3H347l-1.3.8M307 24.6c2.2.5 2.1.8-1.6 2.7-12.4 6.3-13.1 8.2-5.4 14.5l6.2 5.2 1.7 1.6-1.7-.2c-11.5-1.6-21.8-.4-44.1 5.1-29.3 7.2-39.8 7.8-53.3 3.2l-3.6-1.2-.1-11.1c-.1-12.8-.2-12.4 2.6-11.4 2.7 1 5.2 1.5 10.9 2.1 12.1 1.4 20 .4 47-6.2 19.3-4.9 33.2-6.3 41.4-4.3M77.9 26.7c-1.4.6-2.4 2.3-2.4 4 0 2.1 10.1 12 12.3 12 3 0 5.1-3 3.8-5.5a68.7 68.7 0 0 0-10.9-10.7c-1.3-.5-1.3-.5-2.8.2m77.5 0c-1.4.7-9.5 8.7-10.2 10.1-1.6 3 .4 6 3.9 6a45 45 0 0 0 11.7-10.6c1.7-3.6-2-7.3-5.4-5.5m-39.8 8.5A33.7 33.7 0 0 0 94 91.5a33.5 33.5 0 0 0 58.1-22.7 33.3 33.3 0 0 0-36.5-33.6m8.4 8.5a25.6 25.6 0 0 1 14.6 41 25.6 25.6 0 0 1-42-3.1C85.5 62.8 102.7 39 124 43.7M62.5 65.2c-2.3 1.1-2.8 4.4-.9 6.2l1.1 1.1h7.8c7.7 0 7.8 0 8.7-.9a4 4 0 0 0-.6-6.3c-1.8-1-14.1-1.1-16.1-.1m97-.2c-2.5 1-3.2 4.5-1.3 6.5l1.1 1.1h7.8c7.7 0 7.8 0 8.7-.9a4 4 0 0 0-.5-6.2c-1.4-1-13.8-1.3-15.8-.5M4.1 70.1a4 4 0 0 0 .3 7.2c2.1.9 28.2.8 30-.1 3-1.5 2.8-6.1-.4-7.1-2.1-.8-28.5-.7-29.9 0m230.8 14.7c-2.9 1.2-3.3 4.3-1 6.5l1.3 1.2h17.6c14.3 0 17.8-.1 18.8-.5 3.4-1.4 3.1-6.4-.4-7.4-2.4-.6-34.8-.5-36.3.2M87.7 94.7c-1 .2-8.5 7.3-10.3 9.7-2.3 3.1-.6 6.6 3 6.6 1.8 0 10.8-8.1 12-10.8.9-2-.6-5.4-2.3-5.4l-1-.1h-1.4m59.3.3c-1.4.6-2.4 2.3-2.4 4 0 2.1 10.1 12 12.3 12 3 0 5.1-3 3.8-5.5a73.2 73.2 0 0 0-10.9-10.7c-1.3-.5-1.3-.5-2.8.2m68.5 25.6c4.2 7.9 7.3 14.9 7.5 15.1.8.8.5.5-6.5.5-8.8 0-7.9.3-11.2-3.9l-2.7-3.4.8-12.3.8-14.7v-2.5l1.8 3.4 9.5 17.8m88.9-18.6a25.4 25.4 0 0 0-21.5 22.6c-.2 1.8-.1 3.5.6 8.5.1.6-.3.8-2.3 1.2a18.7 18.7 0 0 0-9.7 31.5c5.9 6 2 5.6 55 5.5 46.2-.4 45.4-.1 49.1-1.7 3.9-1.8 5.7-6.3 7.3-10.4 4.3-11.4-3.7-23.8-16.4-25.2-.8-.1-1-.4-1.4-2.3-3-13.3-18-21.8-31.6-17.8l-3.4.9c-2.1-3.4-3-4.5-5-6.4a26.3 26.3 0 0 0-20.7-6.4m-108.6 7-.8 13.2c-.7 10.2-1 9.1 3.8 15.1 3.8 4.7 3.7 3.7 1.1 11.8l-4.4 15.5-2.3 8.9-3.1.4c-6.5.9-12.1 4.9-15 10.8-.8 1.6-1.5 4.8-1.5 5.2-2 .3-21.7.4-21.9.2 2.5-5 43.4-84.2 43.4-84.9 0-.3.2-.6.4-.6.4 0 .5 1.2.3 4.4m-78.6-1.6c-2.2 1-2.6 2-2.7 8.3-.2 9.1.6 11.2 4.1 11.2 3.7 0 4.2-1 4.2-10.2v-7.2l-1.1-1.1c-.6-.6-1.4-1.1-1.7-1.1l-1.1-.2c-.3-.1-1.1 0-1.7.3m195.1 3.1c5.2 1.3 8.8 4.5 11.4 9.9 2.3 4.8 4.1 5.5 7.9 3.2 10.6-6.4 24.7.1 26 12.1.6 5.4 1.2 6 6.2 6.3 7.1.4 11.2 3.7 12 9.7.3 2.5-.9 6.8-1.9 8.1-.6.7-1.3 1.8-2.3 2.6-1.6 1.2-2.3.8-4.7.9l-3.3-.1-.1-3.5c-.2-4.2-1.2-5.7-4.1-5.7-2.8 0-3.9 1.5-4.1 5.6l-.1 3.4H342l-.1-3.4c-.2-4.1-1.3-5.6-4.1-5.6s-3.9 1.5-4.1 5.6l-.1 3.4h-13l-.1-3.4c-.2-4.1-1.3-5.6-4.1-5.6s-3.9 1.5-4.1 5.6l-.1 3.4h-13.8l-.1-3.4c-.2-4.1-1.3-5.6-4.1-5.6s-3.9 1.5-4.1 5.6l-.1 3.4h-9l-1.9-1.3a10.7 10.7 0 0 1-2-16.2c2.5-2.7 4.2-3.3 9.8-3.6 6.9-.3 8.4-2 6.2-6.7-6.5-14.1 4.7-28.5 19.2-24.7m-265.8 2a27.3 27.3 0 0 0-22.8 33.6c.2.9.1 1.1-.5 1.1a22 22 0 0 0-13 6.4 20 20 0 0 0 9 33.1c2.1.6 4.9.7 49.2.7h47l2.7-.8c19.9-6.3 18-34.9-2.6-38.9l-3.2-.6-.5-2.1c-3.3-14.6-20.3-24.3-34.1-19.5-3.8 1.3-3.6 1.4-5.2-1.1-5-8-16.3-13.2-26-11.9m9.9 9.1c5.1 1.9 9.2 6 11.2 10.9 1.7 4.4 3.8 5.1 8.2 2.7 12.7-7 26.3-.1 28.7 14.7.8 5 1.3 5.4 7 5.7 16.8.8 16.9 23 .1 23.7l-3.8.2-.1-3.5c-.3-8.5-8.2-7.8-8.2.7v2.7H83.7l-.1-3.4c-.2-4.1-1.3-5.6-4.1-5.6s-3.9 1.5-4.1 5.6l-.1 3.4H59.7l-.1-3.4c-.2-4.1-1.3-5.6-4.1-5.6s-3.9 1.5-4.1 5.6l-.1 3.4H35.7l-.1-3.4c-.2-4.1-1.3-5.6-4.1-5.6s-3.9 1.5-4.1 5.7l-.1 3.5-2.7-.2a11.7 11.7 0 0 1-10.1-17c2.4-4.9 5.8-6.7 12.5-6.7 5 0 6.4-.4 7.3-2.5.8-1.6.8-1.4-1.5-6.9-6.6-14.7 8.7-30.3 23.6-24.7m214.1 111.3c-.5.5-61.1.7-61.4.2-.2-.3-6.7-20.9-6.7-21.3 0-.2.7-.8 1.7-1.4 11.5-6.8 11.8-25.9.5-33.1-3.4-2.2-3.3-1.8-2.6-4.8a236.2 236.2 0 0 1 5-18.5l1.3-4.5c.7-2.2 1.3-4.3 1.3-4.7 0-.8.2-.8 9.3-.8h8.1m-28.6 39.2a12 12 0 0 1 0 21.1c-8.3 4.2-17.6-2-17.1-11.4.5-8.5 9.4-13.6 17.1-9.7m-24.6 16.6a19.8 19.8 0 0 0 17.6 13.8l2.8.2 8.2 23.9-5.6 22.5c-.2.5-.6.7-2.4.7-8.3 0-16.3 5.7-19.1 13.7l-.8 2.4s-89 1.2-89 1l62.3-80.3h25.6l.4 2.1M6.5 215.4c-2.3 1.6-2.6 4.3-.8 6.2l1.1 1.1h17.1c18.7 0 18.2.1 19.2-2.2.6-1.5.2-3.5-1-4.6l-1-.9-16.9-.1c-15.4-.1-16.8-.1-17.7.5M44 241c-1.5 1.5-1.7 3-.7 4.8 1.1 1.9 1 1.9 24.9 1.9h22.5l1.1-1.1c.9-.9 1.1-1.4 1.1-2.9s-.2-2-1.1-2.9l-1.1-1.1H45.3L44 241m248.1 35.6c0 .2-77.8.3-77.8.3l-1-2.7c-1.5-4-3.5-6.7-7.1-9.6l-1.7-1.4s5.3-20.9 5.5-21.2c.3-.4 49.6-.7 63.8-.9m-74 29.3c11 5.4 6.9 22.3-5.4 22.3-13.3 0-16.4-18.4-3.8-23.1 2.2-.8 6.7-.4 9.2.8m-24.6 16.2a20.9 20.9 0 0 0 14 13.7c1.6.5 2.2.8 2.4 1.4.1.5 2.9 5.7 6.1 11.5 4.9 9 5.7 10.8 5.3 11.3l-1.8 2.3a677.7 677.7 0 0 0-15.2 19.5l-.7 1.2-119.2-.1L81 286l93.8-1 .4 1.6M330.6 319s-119.4 1.5-120 .7a249 249 0 0 1-4.7-8.4c-2.2-4.2-4.4-8.3-4.9-9-1.2-1.8-1.2-1.6 1.3-2.9 5.8-2.8 9.5-6.8 11.2-12.4l.6-2 82.5-.6m38.7 43c.5.6 1.3 20.2 1.5 20.4.3.4-140.9.3-141.6-.1a7 7 0 0 1 1.4-1.9l7.3-9.2c3.2-4 6-7.6 6.4-7.8m177.3 61.1h-17.3l-.1-5.7-.1-5.7-1.2-1.1a3.8 3.8 0 0 0-4.6-.5c-1.7.9-1.9 1.6-1.9 7.5v5.5h-29V385c0-7.1-1.4-9.4-5.1-8.5-2.5.6-2.9 1.7-3.1 7.9l-.1 5.4h-29v-5.6c0-7-.9-8.6-4.7-7.8-2.7.5-3.2 1.8-3.2 8v5.4H259v-5.3c0-5.8-.3-6.9-1.9-7.8-1.8-.9-3.3-.7-4.7.7l-1.3 1.3v11H222l-.1-5.7-.1-5.7-1.2-1.1c-1.5-1.3-3.1-1.4-4.9-.3l-1.2.7v12h-29.4l-.1-5.7-.1-5.7-1.2-1.1c-1.5-1.4-3.2-1.4-5-.2-1.6 1.1-1.8 2.1-1.8 8.3v4.4h-29v-5.5c0-5.9-.2-6.6-1.9-7.5-1.8-1-3.3-.7-4.8.7l-1.3 1.3v11h-29v-5.5c0-5.9-.2-6.6-1.9-7.5-1.8-1-3.3-.7-4.8.7l-1.3 1.3v11H73.7l-.1-5.7-.1-5.7-1.2-1.1a3.8 3.8 0 0 0-4.4-.7c-1.7.8-2 1.7-2.3 7.6l-.3 5.6H36.7l-.1-5.7-.1-5.7-1.2-1.1c-4-3.5-6.9-.3-6.9 7.6v4.9h-15V356l373.5-.3.8-.1" style="fill:#006386;fill-rule:evenodd;clip-rule:evenodd"/></g><path d="M351.5 68.5h28.4m-21.8 43.1H382m-88 96.6h23.9m3.5 37.5H367" style="fill:none;stroke-width:7.1212;stroke-linecap:round;stroke:#006386;stroke-miterlimit:4.0693"/></svg>