<svg xmlns="http://www.w3.org/2000/svg" xml:space="preserve" style="enable-background:new 0 0 355.1 352.8" viewBox="0 0 355.1 352.8"><path fill="#006386" d="M137.5.3a35.8 35.8 0 0 0-31.9 24.3l-1.3 3.8-.2 15.9-.2 15.9-.8.8-.8.8-33.7.2-33.7.2-3.4 1A42 42 0 0 0 .9 96.1l-.9 4.5v214l.9 4.4a41.4 41.4 0 0 0 32.3 33.1l4 .9h280.4l4-.9a41 41 0 0 0 32.7-35.6c.9-6.9 1.2-209.3.3-216.1A41.5 41.5 0 0 0 324.8 64c-5.7-1.7-6.4-1.7-42.4-1.7-21 0-35-.1-35.5-.4-1.9-.7-1.9-1-2.1-17.7l-.2-15.7-1.3-3.8A36 36 0 0 0 216.5 1c-3.4-.8-69-1.4-79-.7m78.2 9A28 28 0 0 1 236 29.4c.7 3.1.9 29.6.2 31.1-.6 1.3-2.2 1.9-4.5 1.6-3.3-.3-3.2.2-3.4-14.9-.2-18-1.4-21.6-8.6-26.5-4.4-3-1.3-2.9-45.3-2.9h-39.1l-2.3.9c-9.9 4-12 8.9-12.1 27.8 0 13.1-.2 14.4-1.8 15.2-1.7.8-4.8.6-5.8-.4l-.9-.9V30.9l1-2.9a27.9 27.9 0 0 1 24.4-19.5c1.4-.2 18.7-.3 38.5-.2l36 .1 3.4.9m-2.4 17.4c5.6 2.6 6.3 4.6 6.3 20.9v12.8l-1 .9-1 .9h-42.7c-44 0-44.1 0-45-1.6-1.3-2.2-.7-26.4.6-29.1 3-6 1.7-5.8 46.1-5.8h34.9l1.8 1M45 71.6c.7.8.9 1.5.9 3.1 0 7.9 7.4 8.2 8.2.3.5-4.7-.2-4.5 13-4.6 13.7-.1 14.3.1 14.3 4.8 0 4 3.6 6.8 6.1 4.8 1.4-1.1 1.7-1.9 2.1-5.1.5-4.7-.2-4.4 13.4-4.4 13.5 0 13.4 0 13.9 3.6.5 3.4.6 3.7 1.7 4.8 2.8 3.1 6.3.9 7.1-4.5.6-3.5.6-3.5 8.6-3.8a73 73 0 0 1 16.6.6c1.1.5 1.2 1 1.6 4.3.8 7.2 7.4 7.2 8.2 0 .6-5.2 2-5.6 18.1-5 9.1.3 8.7.2 9.4 4.3 1.3 7.6 7.5 8.1 8.2.7.5-4.9 1-5.1 15.9-5.1 11.3 0 11.4 0 11.9 5.2.9 7.8 7.3 7.2 8.2-.8.5-4.5-.3-4.2 13.7-4.2 13.7.1 12.9-.2 13.3 4 .8 8.3 8.5 8.1 8.5-.3 0-1.3.2-2 .9-2.8l.9-1 11.1.1c14 .1 13.4-.1 14.1 4.2 1.1 6.9 7.4 8 8.2 1.5.7-5.4.9-5.6 8.6-5.6 13.3 0 23.8 5.6 29.8 16 4.5 7.8 4.9 10.4 4.8 29.6 0 6.9.1 14.5.3 17 .5 7-.3 28.7-1.1 29.5-1.1 1.1-3.5 1.2-18.6 1.3-19.1 0-21.3.5-26.7 5.9-5.7 5.6-5.7 5.6-5.7 43.2 0 37.3 0 37.3 5.8 42.9 5.3 5.2 6.7 5.5 27.1 5.7 10.1.1 16.6.3 17.2.5 1.9.7 1.9.6 1.7 29.1l-.1 26.6-.9 2.6a34 34 0 0 1-25.5 23.3c-4.1 1-49.5 1.2-50.7.3-1-.7-1.4-2.3-1.4-5 0-4.4-2.4-7-5.4-6-2 .7-2.5 1.8-2.8 6.3-.4 5.7.7 5.3-13.7 5.3-14.3 0-13.5.3-13.9-5.2-.7-9.2-7.7-9.1-8.4.1-.2 2.8-.4 3.5-1.1 4.3l-.9.9h-23.4l-.9-.9c-.7-.8-.9-1.4-1.1-4.6-.6-9.1-7.5-8.8-8.1.4-.4 5.4.5 5.1-13.5 5.1-14.1 0-13.2.4-13.6-5.8-.5-8.9-8-8-8.1.9 0 2.8-.1 3.2-.9 4l-.9.9h-23.8l-1-.9c-.9-.8-1-1.2-1.3-4.5-.7-9.2-8.6-8.6-8.6.6 0 4.8.3 4.7-13.8 4.7H91.2l-.9-.9c-.7-.8-.9-1.4-1.1-4.6-.3-5.3-2.1-7.3-5.4-5.9-2.1.9-2.6 2-2.8 6.3-.3 5.7 2 5.2-22.4 5.2H38.2l-4.2-1.1a33 33 0 0 1-24.9-26l-.9-4 .1-25 .1-25 1-.9 1-.9h15c17.1 0 20.5-.3 24.3-2.2 4.5-2.2 7.9-6.1 9.8-11.3l1-2.7.1-31.5c.1-37.8.2-37.5-5.1-43.3-5.4-6-7.2-6.4-28.1-6.7-18.2-.2-18.3-.2-19-2.1-.2-.6-.4-12.8-.4-30.9v-29.9L9.1 97a33 33 0 0 1 14.4-20.9c7.7-5 19.1-7.3 21.5-4.5M34.6 84.9c-25.5 6.5-20.8 42.7 5.5 42.1l5.3-.1 3.3-1.6a21.4 21.4 0 0 0 5-35.3c-5-4.6-12.7-6.7-19.1-5.1m271.4 0c-15.3 3.5-21.7 17-14.8 31.3 6.7 13.9 27.9 15 36.7 1.9 10.6-15.7-3.7-37.4-21.9-33.2M44.1 93.7a13.3 13.3 0 0 1 7.2 17.5 13.3 13.3 0 0 1-21.5 3.9C20 105 30.6 89 44.1 93.7m270.4 0c8.4 2.4 11.2 16.2 4.4 22-9.2 7.9-23.9.4-22-11.1 1.6-9.1 8.5-13.4 17.6-10.9m-214 12.1c-8.7 1.8-9 10.5-.6 14 16.2 6.8 18.8 24.6 4.6 31.4-8.9 4.2-19.1-.9-23.4-11.7-4.4-11.2-14.7-8-14.7 4.5 0 20.6 20.3 36.1 42 32.2 2.2-.4 4.2-.6 4.9-.4 1.3.3 32.2 30.9 32.5 32.2.5 1.9-.6 3.1-37.3 39.9-41.6 41.7-39.2 39-39.3 44.6 0 4.9.9 6.4 9.7 15.1 9.4 9.4 12.4 10.9 17.9 9.3 3.7-1.1 3.7-1.1 42-39.2 36.7-36.7 37.1-37.1 38.6-37.1 1.4 0 1.8.3 17.2 15.7 17.9 17.9 16.9 16.5 16 21.9a35 35 0 0 0 .6 17.2 34.2 34.2 0 0 0 32.5 24.9c11.9-.6 14.3-10 3.7-14.5-10.6-4.6-15.6-13.2-12.7-21.9 5-14.7 24.2-14.2 31.2.9l2.1 4.5c2.6 5.3 9.7 4.6 12.2-1.1 1.3-3 1-11.5-.6-16.1a35.1 35.1 0 0 0-39.5-22.7c-4.6 1-5.3 1-6.9 0-1.2-.7-22.3-21.7-28.8-28.6-4.8-5-8.2-.6 29-37.8 21-21 32.1-32.4 32.6-33.4a581.5 581.5 0 0 0 13.2-34.8c3.1-7.3.1-11.1-6.5-8.2l-2.5.9-6.1 2.2a102.6 102.6 0 0 1-10 3.6c-.9.5-2.6 1.1-3.7 1.5-1.1.4-2.8 1-3.7 1.5s-3.7 1.5-6.2 2.2l-4.5 1.4-12.7 12.7c-48.3 48.3-52.2 52.1-53.5 52.1-1.2 0-2.4-1.2-16.7-15.4-18.1-18-16.9-16.4-15.9-22.9a33 33 0 0 0-2.9-22.1c-6-12.5-21.5-21.1-33.8-18.5m16.5 11.8c9.7 4.5 15.1 19.8 11.1 31.4-1.2 3.5-1.2 4.9 0 6.9 1.3 2.1 101.3 102.1 103.1 103 1.7.9 3 .8 8.9-.8 11.6-3.1 24.7 2.4 29.2 12.2 1.6 3.4.6 3.6-3.3.6-12.8-9.7-29.3-7.3-37 5.4-5.1 8.4-4.5 18.2 1.8 27.4 3.9 5.7 3.7 6.6-.8 4-10.1-5.8-13.9-17.7-10.2-31.8 1.4-5.4 3.5-2.7-25.7-32.3-40.8-41.1-76.3-76.2-77.8-76.8s-3.1-.7-4.5-.2l-5.6 1.3-4.6.9-4.4-.8c-9-1.6-17.9-8-18.9-13.6-.4-2.2.1-2.1 4.1.8 8.3 6.1 17.5 7.4 25.9 3.4 14.8-6.9 18.3-24.2 7.7-38.3-3-3.5-2.7-4.4 1-2.7m141.1 5.4c5.4 3.3 6.7 6.3 4.8 11.2-2.4 6.3-2.6 6.3-9.6-.5-7.7-7.5-7.7-8-.7-10.5 3-1.1 4-1.2 5.5-.2m-18.8 9.7c1.3.8 13.6 13.1 14.6 14.7 1.4 2.2 2 1.5-28.3 32a1261.3 1261.3 0 0 1-29.8 29.3c-2.2 1.2-2.8.7-10.8-7.2-7.5-7.5-8.2-8.5-7.5-10.4a2466.2 2466.2 0 0 1 51.4-52c5.7-6.2 8.3-7.8 10.4-6.4m-116.5 28.2c-3.4 2.9-.2 7.9 3.9 6.1 1.8-.8 2.5-3.2 1.5-5.2-1.1-2.1-3.5-2.5-5.4-.9M46 173.7c2.4 1.2 4.5 3.6 5.6 6.2l.9 2.2v61.6l-.9 2.2c-1.1 2.7-4 5.7-6.2 6.5s-32.5 1-34.7.3c-2.6-.9-2.4 1.5-2.4-39.9 0-39.3 0-39 1.6-39.8 1.8-.9 34.1-.3 36.1.7m298.8-.4c1.4 1.1 1.4 2.8 1.4 39.4 0 36.4-.1 38.1-1.4 39.5a162 162 0 0 1-35.5 0 11 11 0 0 1-5.5-5.3l-1-2.1v-31.9c0-35.9-.2-33.3 2.8-36.7s3.9-3.5 22.4-3.6c14.9 0 16 .1 16.8.7m-202.7 7.9c-.8.8-1.1 1.4-1.1 2.5 0 3.7 5.2 5 6.9 1.7 2-3.9-2.7-7.3-5.8-4.2m20.2 19.4c-2 2-1.2 5.6 1.3 6.2 4.2 1 6.6-4.8 2.8-6.7-1.6-.9-2.9-.8-4.1.5m-7.5 16.2c1.7.9 14.9 14.5 15.2 15.7.5 1.9-.5 2.9-28.3 30.7-27.5 27.4-28.2 28.1-30.2 27.6s-16-15.3-16-16.9c0-1.4.4-1.9 28.1-29.5 30.2-30.2 28.7-28.9 31.2-27.6m28.2 2.8c-2.3 1-3.1 4-1.5 5.9 2.3 2.8 6.3 1.1 6.3-2.6 0-2.4-2.6-4.2-4.8-3.3m18.5 20.9c-2.9 2.9.8 7.6 4.5 5.6 3.2-1.7 1.8-6.7-1.9-6.7-1.2 0-1.8.2-2.6 1.1m21 18.9c-2.5 1.1-3 4.6-1 6.2 1.8 1.4 4.8.7 5.7-1.5 1.2-3-1.8-6-4.7-4.7M97.1 289.3c9.5 9.5 9.3 8.9 5 13.4-7.7 8.1-8.4 8.1-18.4-2.2-7.9-8-7.9-8.3-1.5-14.8 6-6 5.1-6.2 14.9 3.6M34.3 295a22 22 0 0 0-16.8 21 21.4 21.4 0 0 0 36.1 15.8c15.8-15 2.2-40.9-19.3-36.8m270.8 0c-9.2 1.6-17.2 11.4-17.2 21.3.1 18.8 23.3 28.5 36.6 15.3 15.3-15.2 2-40.2-19.4-36.6m-260.7 9.2c7.7 3.4 10.1 13 5 20a13.2 13.2 0 0 1-19.7 1.2c-10.3-10.2 1.5-27.1 14.7-21.2m270.5 0c6.6 3 9.7 11.1 6.6 17.4a13 13 0 0 1-21 4c-10.6-10.1 1-27.5 14.4-21.4" style="fill-rule:evenodd;clip-rule:evenodd"/></svg>