<svg xmlns="http://www.w3.org/2000/svg" width="400" height="410.1">
  <path fill-rule="evenodd" d="M146.5 53C19.3 122.4 18 123.2 18.5 127.3c.4 2.8 10.8 9.5 35.8 23.3L89.4 170l.6 38.8.5 38.7 13.4 6c50.5 23 121.8 22.9 172.6-.2l13-5.8v-75.6l15.8-8.6a179 179 0 0 1 17-8.5c4.7 0 1.1 47.8-3.6 49-4 1-5.1 2.9-6.2 10.8-.7 5.2-3 19.7-5.3 32.2-4.9 28.1-6.2 26.6 22.6 26.6 29.3 0 27.7 2.7 21.1-36.4-4.9-29.2-6.7-33.9-12.8-34-2 0-2.4-6.4-2-28.6l.6-28.7 13.5-7c14.2-7.3 17.5-11.1 13.2-15.3-2-1.8-126.8-71-167.6-92.8-3.7-2-10.2 1-49.3 22.3m123.7 31.5c41.4 22.7 75.1 42 74.9 43-.3.9-12.7 8.3-27.6 16.4l-27 14.7-1-12.4-1-12.4-10-4.7c-45-21.3-115.3-22.6-169.4-3-17.5 6.2-18.2 7-19 20.2l-.7 10.4L63 142.1c-14.6-8-26-15-25.1-15.8 3.8-3.6 152.5-84 154.6-83.6 1.3.3 36.3 19 77.8 41.7m-38 43.2a317 317 0 0 1 29.1 7.5l15 4.8.6 50.4.6 50.4L267 245a219.2 219.2 0 0 1-152.8.3l-11.6-4.4V141l10.6-3.8c36.8-13.7 79.7-17 119-9.5m103.6 86.5c0 2 6 40.1 7 44.7 1 4.3.5 4.5-12 4.5-15.3 0-14.6 2.3-9.8-28.6l3.3-21.6h5.7c3.2 0 5.8.4 5.8 1m-155.5 64.6c-.7.8-1.3 3-1.3 5 0 4.6-4.9 4.7-80 1.5L46.3 283l-3.9 4.7c-20 24.4-20.7 54.9-1.6 77l6.5 7.5 49.6-2.2c75.6-3.3 81.7-3.1 82.5 2.4.6 4.3 1.6 4.5 20.2 5l19.6.6v-5c0-6.2-3.8-6 66.4-3l50.2 2.3 4-4.8c20.2-23.5 20.4-54.6.4-79.8l-3.8-4.7-53 2.2c-70.2 3-64.2 3.2-64.2-2.8 0-5-34.3-8.2-38.9-3.7m28.8 49v40.1h-18v-80.4h18v40.2m-63.8-28.9L179 300v55.2l-36.7 1.3-64 2.6-27.5 1.2-5.7-9.8a45.5 45.5 0 0 1 0-45.7l5.7-9.8 30.4 1.2 64.1 2.5m193 8.7c3.7 7.2 5.5 14 5.5 20.2 0 6.2-1.8 13-5.5 20.3l-5.5 10.9-30.2-.5c-16.6-.2-42.1-1-56.8-1.7l-26.6-1.2v-55.9l5.5-.3c34-1.7 75.4-3 90-2.9l18 .2 5.6 10.9"/>
</svg>