<svg id="svg" xmlns="http://www.w3.org/2000/svg" xmlns:xlink="http://www.w3.org/1999/xlink" width="400" height="410.0502512562814" viewBox="0, 0, 400,410.0502512562814" version="1.1"><g id="svgg"><path id="path0" d="M146.531 52.923 C 19.293 122.451,17.893 123.265,18.508 127.382 C 18.925 130.177,29.279 136.913,54.271 150.651 L 89.447 169.986 89.994 208.757 L 90.540 247.528 103.876 253.575 C 154.416 276.491,225.695 276.395,276.535 253.343 L 289.447 247.488 289.449 209.674 L 289.451 171.859 305.276 163.317 C 313.980 158.618,321.668 154.774,322.360 154.774 C 326.988 154.774,323.431 202.626,318.715 203.810 C 314.650 204.830,313.587 206.670,312.496 214.581 C 311.772 219.828,309.409 234.306,307.243 246.755 C 302.344 274.927,301.020 273.367,329.830 273.367 C 359.127 273.367,357.520 276.143,350.912 236.962 C 345.999 207.834,344.223 203.119,338.136 203.046 C 336.147 203.022,335.694 196.553,336.126 174.372 L 336.683 145.729 350.206 138.754 C 364.376 131.446,367.704 127.579,363.390 123.434 C 361.481 121.599,236.631 52.434,195.778 30.579 C 192.118 28.622,185.553 31.601,146.531 52.923 M270.195 84.422 C 311.650 107.085,345.348 126.394,345.081 127.330 C 344.813 128.266,332.412 135.663,317.523 143.768 L 290.452 158.503 289.447 146.104 L 288.442 133.706 278.572 129.031 C 233.452 107.661,163.249 106.373,109.078 125.921 C 91.570 132.239,90.861 132.996,90.070 146.205 L 89.447 156.610 62.901 142.138 C 48.301 134.178,36.994 127.055,37.775 126.310 C 41.609 122.651,190.279 42.254,192.386 42.700 C 193.726 42.984,228.740 61.759,270.195 84.422 M232.161 127.629 C 239.899 129.123,253.015 132.489,261.307 135.108 L 276.382 139.870 276.918 190.291 L 277.455 240.712 266.868 244.969 C 221.084 263.380,162.491 263.495,114.070 245.268 L 102.513 240.917 102.513 190.955 L 102.513 140.992 113.065 137.084 C 149.898 123.443,192.834 120.034,232.161 127.629 M335.678 214.092 C 335.678 216.005,341.749 254.241,342.776 258.794 C 343.752 263.126,343.243 263.317,330.692 263.317 C 315.352 263.317,316.138 265.609,320.870 234.673 L 324.176 213.065 329.927 213.065 C 333.090 213.065,335.678 213.527,335.678 214.092 M180.235 278.727 C 179.497 279.464,178.894 281.725,178.894 283.752 C 178.894 288.286,174.011 288.376,98.985 285.218 L 46.211 282.996 42.305 287.729 C 22.228 312.054,21.609 342.587,40.743 364.722 L 47.247 372.246 96.772 370.043 C 172.366 366.679,178.475 366.851,179.257 372.362 C 179.867 376.652,180.906 376.914,199.497 377.460 L 219.095 378.035 219.095 372.937 C 219.095 366.797,215.323 366.961,285.489 370.050 L 335.714 372.261 339.765 367.537 C 359.941 344.015,360.069 312.886,340.095 287.716 L 336.329 282.970 283.240 285.204 C 213.126 288.156,219.095 288.416,219.095 282.412 C 219.095 277.441,184.775 274.187,180.235 278.727 M209.045 327.638 L 209.045 367.839 200.000 367.839 L 190.955 367.839 190.955 327.638 L 190.955 287.437 200.000 287.437 L 209.045 287.437 209.045 327.638 M145.226 298.736 L 178.894 300.035 178.894 327.629 L 178.894 355.224 142.211 356.542 C 122.035 357.268,93.200 358.418,78.132 359.100 L 50.737 360.339 44.966 350.521 C 36.749 336.540,36.746 318.741,44.960 304.767 L 50.724 294.960 81.141 296.199 C 97.870 296.880,126.709 298.022,145.226 298.736 M338.191 307.396 C 341.860 314.639,343.719 321.446,343.719 327.638 C 343.719 333.830,341.860 340.638,338.191 347.881 L 332.663 358.794 302.513 358.339 C 285.930 358.089,260.377 357.318,245.729 356.625 L 219.095 355.367 219.095 327.432 L 219.095 299.497 224.623 299.219 C 258.538 297.513,299.975 296.174,314.573 296.312 L 332.663 296.482 338.191 307.396 " stroke="none" fill="#000000" fill-rule="evenodd"></path></g></svg>