<?xml version="1.0" encoding="utf-8"?>
<!-- Generator: Adobe Illustrator 25.4.0, SVG Export Plug-In . SVG Version: 6.00 Build 0)  -->
<svg version="1.1" id="svg" xmlns="http://www.w3.org/2000/svg" xmlns:xlink="http://www.w3.org/1999/xlink" x="0px" y="0px"
	 viewBox="0 0 400 381" style="enable-background:new 0 0 400 381;" xml:space="preserve">
<style type="text/css">
	.st0{fill-rule:evenodd;clip-rule:evenodd;}
</style>
<g id="svgg" transform="matrix(1, 0, 0, 1, 65.959167, -0.350846)">
	<path id="path0" class="st0" d="M143.6,5.7c-5.2,1-6.8,7.2-2.7,10.5c3.9,3.2,2.8,9.2-2,11c-1.4,0.5-1.6,0.5-25.4,0.5
		c-27.1,0-29.1,0.1-38,1.9c-40.2,8-71.8,40.2-79,80.3c-2.2,12-2.1,24.6,0.1,40.8c1.1,8.1,3.6,19.4,4.5,20.5c0.2,0.2,0.1,0.5-0.6,1
		c-10,8.3-13.3,21.3-9.8,38.4c6.9,33.8,14.7,49.3,27.1,53.4l2.2,0.7l1.2,3.4c0.7,1.9,2.4,7.3,3.8,12.1
		c13.4,44.9,29.7,69.9,55.3,84.6c25.3,14.5,61.8,15.2,88.2,1.6c26.2-13.5,44.2-39.5,57.4-82.9c1.3-4.2,3.2-10.1,4.1-13.1l1.8-5.4
		l2.5-1.3c10.8-5.3,20.6-18.4,27.9-36.8c8.7-22.2,8.9-37,0.5-45.3l-1.5-1.4l0.3-1c0.2-0.5,0.3-1.5,0.3-2.1c0-0.7,0.1-1,0.2-0.8
		c0.4,0.6,2.3-9.1,3.2-16.4c3.2-24.6,1.4-42.2-6.2-60.5c-7.3-17.5-20.7-34-35.7-44l-1.7-1.1v-2.4c0-12.3-8.3-22.3-20.5-24.8
		c-5.5-1.1-8.9,0.7-9.5,4.9c-0.8,5.9-6.8,5.3-8.4-0.8c-3.1-12.1-12.9-21.8-25.2-25C155.9,5.6,145.9,5.3,143.6,5.7 M158.1,18.4
		c6.7,2.4,12.1,8.6,14,15.9c0.4,1.5,0.7,2.7,0.8,2.8c0.1,0.1,0.2,0.5,0.2,0.8c0,0.7,0.3,1.2,2.2,3.6c6.8,8.4,19.6,8,25.5-0.8l1-1.5
		l1.5,0.8c4.8,2.7,7.5,8.4,6.4,13.8s-0.7,6,5.7,10.2c24.5,16.2,39.9,44.7,39.8,74.1c0,13.6-2.9,33.5-6,41.2
		c-1.6,4.2-0.9,6.7,2.5,8.7c5.8,3.4,6.9,9.9,3.8,22c-5.7,21.9-19.1,42.5-29,44.3c-2.5,0.4-4.3,2.1-4.9,4.6c-0.2,0.8-1.2,3.8-2.1,6.6
		c-0.9,2.9-2.6,8.1-3.6,11.5c-10.6,35.4-21.5,55-38.8,69.9c-25.7,22.1-69.4,23.8-97.3,3.7c-19.8-14.2-32-35.1-43.7-74.6
		c-1.3-4.4-2.7-9-3.1-10.2s-1.3-3.6-1.9-5.5c-1.9-5.7-2.7-6.5-6.9-6.9c-8.8-0.9-15-13.4-21.2-42.2c-3.6-16.8-1.3-26.8,7.2-30.9
		c3.6-1.8,5-4.6,3.8-7.9c-5.7-15-8.6-39.4-6.6-55.2c4.8-37.5,32.8-68,69.8-76c7.9-1.7,7.2-1.7,36.7-1.8l26.8-0.1l2.2-0.9
		c9-3.8,13.6-11.7,11.9-20.4C154.6,17.2,154.8,17.2,158.1,18.4 M105.1,107.7c-4.8,1.1-8.5,3.4-12.2,7.4c-7,7.7-16.9,9.1-28.2,3.9
		c-5.9-2.7-7.5-3.1-12.4-3.1c-10,0-17.9,5.7-21.2,15.5c-1.1,3.1-7.2,33.2-7,34.5c0.4,4.5,6.1,6.7,9.6,3.7c1.4-1.2,1.7-2.2,4.8-17.5
		c4-19.3,3.9-18.9,6.2-21.5c3.6-4,8-4.2,15.5-0.9c15.4,7,30,4.7,40.9-6.4c4.2-4.3,7-5.3,11.3-4c3.8,1.2,4.5,1.7,12.4,10.8
		c8.3,9.5,10.4,11.4,15.3,13.8c8.8,4.3,16.4,3.1,23.2-3.7c5.6-5.6,11-7.5,16.2-5.6c9.1,3.2,21.5,0.9,29.9-5.7
		c3.3-2.6,4.1-2.8,5.5-1.4c2,2.1,2.4,3.5,4.9,17.8c2.3,13.4,2.5,14,3.9,15.4c3.8,3.7,10.3,0.6,9.7-4.7c-0.2-2.3-4-23.8-4.6-26.1
		c-2.3-8.9-8.2-14.9-14.7-14.8c-5.1,0-7.1,0.8-11.8,4.5c-5.5,4.3-14,5.9-19.7,3.8l-2.4-0.9h-4.6c-8.5,0-15.7,3.3-19.2,8.9
		c-0.4,0.7-1.1,1.4-1.4,1.5c-7.3,3.7-10.4,2.1-21.4-10.5c-8.3-9.5-9.6-10.7-14.2-13C115.7,107.7,109,106.8,105.1,107.7 M43.5,175.1
		c-10.7,0.5-20.2,1.7-21.8,2.7c-3.9,2.4-4.5,10.4-1.1,14.6c1.3,1.6,1.7,4,1.9,10.8c0.9,29.1,8.8,41,29.3,43.7
		c16,2.2,34.6,1.4,45.4-1.8c12-3.6,16.8-9.7,21.3-26.8c1.8-7,3.1-11.3,3.5-11.9c0.6-0.8,13.7-1.2,14.6-0.4c0.4,0.4,1.4,3.8,2.9,9.6
		c5,19.1,8.8,24.7,19.7,28.7c14.3,5.3,44.4,5.2,57.9,0c12-4.7,17.7-15.6,18.8-36c0.8-13.8,0.9-14.6,2.2-16c3.8-4,2.4-13.8-2.2-15
		c-7.6-2.1-44.6-3.3-57.4-2c-11.5,1.2-18.9,3.1-24.8,6.3c-4.1,2.2-6.9,3.5-9.3,4.2c-12.1,3.5-28.1,2.2-36.9-2.8
		c-7.5-4.3-14.5-6.3-27.2-7.6C76.8,175,49.4,174.8,43.5,175.1 M63.7,187c17.5,0,31.4,2.6,38.4,7.1c7.7,5,8.4,11.3,3.4,27.4
		c-3.6,11.3-8.5,13.9-28.1,15.1c-22.6,1.4-34.7-1.7-38.8-9.8c-4.3-8.6-5.3-33.9-1.4-36.4c1.9-1.3,12.2-3.1,17.9-3.1
		c0.8,0,1.3-0.1,1.2-0.1c-0.7-0.3-0.3-0.5,0.5-0.3C57.2,186.9,60.3,187,63.7,187 M204,187.3c3.2,0.2,8.9,0.8,10.3,1.1
		c6.6,1.3,7.6,1.8,8.5,4.7c1.8,5.9,0.4,25.8-2.3,32.2c-4,9.4-15.5,12.7-39.4,11.3c-22.2-1.3-25.4-3.7-30.1-21.9
		c-4.7-18.3,3.3-24.9,33.2-27.4C188,187,199.8,187,204,187.3 M97.1,302.1c-4.8,2.2-4.9,7-0.1,11.2c17,15.1,41.7,16.6,60.1,3.4
		c7.9-5.6,9.9-10.3,5.7-13.7c-2.8-2.3-5.4-1.9-9.3,1.5c-14.5,12.8-34.7,12.6-49.3-0.4C101.4,301.6,99.5,301.1,97.1,302.1"/>
</g>
</svg>
