<?xml version="1.0" encoding="utf-8"?>
<!-- Generator: Adobe Illustrator 25.4.0, SVG Export Plug-In . SVG Version: 6.00 Build 0)  -->
<svg version="1.1" id="svg" xmlns="http://www.w3.org/2000/svg" xmlns:xlink="http://www.w3.org/1999/xlink" x="0px" y="0px"
	 viewBox="0 0 400 511.9" style="enable-background:new 0 0 400 511.9;" xml:space="preserve">
<style type="text/css">
	.st0{stroke:#FFFFFF;stroke-width:30;stroke-miterlimit:10;}
	.st1{fill-rule:evenodd;clip-rule:evenodd;fill:#FFFFFF;}
	.st2{fill:#FFFFFF;}
	.st3{fill-rule:evenodd;clip-rule:evenodd;fill:#FFD700;}
</style>
<g id="path0_00000086686347985695423480000008485990595983721093_">
	<path class="st0" d="M213,71.1c-1.8,0-3.2,0.1-4,0.2c-5.2,1-6.8,7.2-2.7,10.5c3.9,3.2,2.8,9.2-2,11c-1.4,0.5-1.6,0.5-25.4,0.5
		c-27.1,0-29.1,0.1-38,1.9c-40.2,8-71.8,40.2-79,80.3c-2.2,12-2.1,24.6,0.1,40.8c1.1,8.1,3.6,19.4,4.5,20.5c0.2,0.2,0.1,0.5-0.6,1
		c-10,8.3-13.3,21.3-9.8,38.4c6.9,33.8,14.7,49.3,27.1,53.4l2.2,0.7l1.2,3.4c0.7,1.9,2.4,7.3,3.8,12.1
		c13.4,44.9,29.7,69.9,55.3,84.6c13.2,7.5,29.4,11.4,45.6,11.4c15,0,29.9-3.2,42.6-9.8c26.2-13.5,44.2-39.5,57.4-82.9
		c1.3-4.2,3.2-10.1,4.1-13.1l1.8-5.4l2.5-1.3c10.8-5.3,20.6-18.4,27.9-36.8c8.7-22.2,8.9-37,0.5-45.3l-1.5-1.4l0.3-1
		c0.2-0.5,0.3-1.5,0.3-2.1s0.1-0.9,0.1-0.9s0,0,0.1,0.1l0,0c0.5,0,2.3-9.3,3.2-16.4c3.2-24.6,1.4-42.2-6.2-60.5
		c-7.3-17.5-20.7-34-35.7-44l-1.7-1.1v-2.4c0-12.3-8.3-22.3-20.5-24.8c-1.1-0.2-2-0.3-2.9-0.3c-3.8,0-6.1,1.8-6.6,5.2
		c-0.4,2.8-1.9,4.1-3.6,4.1c-1.9,0-4-1.7-4.8-4.9c-3.1-12.1-12.9-21.8-25.2-25C222,71.4,216.8,71.1,213,71.1 M213,61.1L213,61.1
		c1.5,0,9.3,0,13,1c12.4,3.3,22.8,11.6,28.6,22.6c2.5-1.5,5.6-2.3,9-2.3c1.6,0,3.2,0.2,4.9,0.5c15.8,3.2,27.1,16,28.4,31.6
		c15.5,11.2,29.1,28.4,36.7,46.7c8.2,19.8,10.3,39.4,6.9,65.6c-0.4,3.5-1.1,7.8-1.8,11.5c-0.4,1.8-0.7,3.4-1,4.5v0.1
		c4.5,5.8,6.7,13.1,6.6,21.8c-0.1,8.8-2.5,19-7.4,31.4c-8.1,20.5-19,34.7-31.5,41.5l-0.5,1.4c-0.5,1.8-1.4,4.4-2.2,7.1
		c-0.6,2-1.3,4.1-1.9,5.9c-13.9,45.9-33.8,74.1-62.4,88.8c-13.8,7.1-30.1,10.9-47.2,10.9c-18.3,0-36.3-4.5-50.6-12.7
		c-27.9-16-45.8-43-59.9-90.4l0,0l0,0c-1.2-4.1-2.5-8.3-3.2-10.5c-17.2-7.4-25-29.4-31.3-59.9c-4.5-22,1.5-35.7,8.9-44
		c-0.2-0.9-0.4-1.8-0.7-2.9c-1-4.5-1.9-9.6-2.5-13.7c-2.4-17.5-2.4-31.1,0-43.9c3.9-21.6,14.2-41.5,29.8-57.4s35.4-26.6,57.1-30.9
		c10-2,13.3-2.1,40-2.1c7.3,0,12.6,0,16.3,0c-1.3-3.1-1.6-6.6-0.8-10c1.5-6.1,6.4-10.6,12.7-11.8h0.1h0.1
		C208.2,61.3,209.6,61.1,213,61.1L213,61.1z"/>
</g>
<g id="svgg" transform="matrix(1, 0, 0, 1, 65.959167, -0.350846)">
	<g>
		<path class="st1" d="M126.3,435.2c20.6,0,40.5-6.9,54.5-18.9c18.1-15.7,29.4-36,40.3-72.3c0.6-2.2,1.6-5.2,2.4-7.8
			c0.4-1.4,0.9-2.7,1.2-3.7l0.8-2.4c0.8-2.5,1.2-3.8,1.4-4.5c0.2-0.7,0.4-0.8,0.8-0.9h0.1c13.4-2.4,27.3-26.3,32.9-48
			c2.5-9.7,4-21.6-6.1-27.6c-0.5-0.3-0.8-0.5-0.8-0.6c0-0.2,0-0.7,0.5-2c3.3-8.2,6.3-28.7,6.3-43c0.1-31.1-16-61.1-42-78.3
			c-1.1-0.7-3.2-2.1-3.9-2.8c0-0.4,0.2-1.2,0.4-2.2c1.5-7.5-2.1-15.4-8.8-19.2l-5.6-3l-3.5,5.3c-2,2.9-5.2,4.6-8.8,4.6
			c-3.4,0-6.5-1.5-8.7-4.2c-0.5-0.7-0.9-1.2-1.2-1.5c-0.1-0.5-0.2-1.2-0.5-1.8c-0.1-0.3-0.2-0.7-0.3-1.2l-0.2-0.8
			c-2.3-9-8.9-16.4-17.1-19.3c-2.4-0.9-3.5-1.3-4.8-1.3c-1.7,0-3.2,0.7-4.2,2c-0.7,0.9-1.4,2.4-0.9,4.6c1.2,6.4-2.1,11.9-9,14.8
			l-1.2,0.5l-25.8,0.1c-28.8,0.1-29.3,0.1-37.2,1.8l-0.5,0.1c-39,8.4-68.6,40.7-73.7,80.3C1,198.6,4,223.9,10,239.6
			c0.2,0.4,0.3,0.8-1.4,1.7c-16,7.7-11.4,29.3-9.9,36.4c6.9,32,14.1,44.9,25.6,46.1c0.7,0.1,1.2,0.1,1.4,0.2
			c0.2,0.4,0.6,1.3,1.3,3.3c0.4,1.2,0.9,2.7,1.3,3.8c0.2,0.7,0.4,1.2,0.6,1.7c0.3,1,1.7,5.4,3,10C44,383.5,56.7,405.2,77.5,420
			C90.7,429.8,108.1,435.2,126.3,435.2z"/>
		<path class="st2" d="M155.4,83c-0.3,0-0.3,0.2-0.2,0.6c1.7,8.7-2.9,16.6-11.9,20.4l-2.2,0.9l-26.8,0.1
			c-29.5,0.1-28.8,0.1-36.7,1.8c-37,8-65,38.5-69.8,76c-2,15.8,0.9,40.2,6.6,55.2c1.2,3.3-0.2,6.1-3.8,7.9
			C2.1,250-0.2,260,3.4,276.8c6.2,28.8,12.4,41.3,21.2,42.2c4.2,0.4,5,1.2,6.9,6.9c0.6,1.9,1.5,4.3,1.9,5.5s1.8,5.8,3.1,10.2
			c11.7,39.4,23.9,60.3,43.7,74.5c13.1,9.4,29.6,14,46.1,14c18.8,0,37.5-6,51.2-17.7c17.3-14.9,28.2-34.5,38.8-69.9
			c1-3.4,2.7-8.6,3.6-11.5c0.9-2.8,1.9-5.8,2.1-6.6c0.6-2.5,2.4-4.2,4.9-4.6c9.9-1.8,23.3-22.4,29-44.3c3.1-12.1,2-18.6-3.8-22
			c-3.4-2-4.1-4.5-2.5-8.7c3.1-7.7,6-27.6,6-41.2c0.1-29.4-15.3-57.9-39.8-74.1c-6.4-4.2-6.8-4.8-5.7-10.2
			c1.1-5.4-1.6-11.1-6.4-13.8l-1.5-0.8l-1,1.5c-3.1,4.6-8,6.9-12.9,6.9c-4.6,0-9.3-2-12.6-6.1c-1.9-2.4-2.2-2.9-2.2-3.6
			c0-0.3-0.1-0.7-0.2-0.8c-0.1-0.1-0.4-1.3-0.8-2.8c-1.9-7.3-7.3-13.5-14-15.9C156.7,83.3,155.8,83,155.4,83 M155.4,73L155.4,73
			L155.4,73c2.2,0,4,0.7,6.5,1.6c9.8,3.4,17.5,12.1,20.3,22.7l0.2,0.8c0.1,0.3,0.2,0.6,0.2,0.8c0.2,0.4,0.3,0.9,0.4,1.3
			c0.1,0.2,0.3,0.4,0.5,0.6c1.7,2,3.7,2.3,4.8,2.3c1.1,0,3.2-0.3,4.6-2.4l1-1.5l5-7.5l8,4.3l1.5,0.8l0.1,0.1l0.1,0.1
			c8.3,4.7,12.9,14.3,11.5,23.6c0.5,0.3,0.9,0.6,1.2,0.8c27.5,17.9,44.4,49.5,44.3,82.2c0,12.5-2.4,32.3-6,42.9
			c11.7,9.1,7.6,25.2,6,31.5c-3,11.7-8.1,23.3-14.2,32.7c-6.6,10.1-13.4,16.2-20.3,18.4c-0.2,0.7-0.5,1.5-0.8,2.6
			c-0.2,0.8-0.5,1.6-0.8,2.4c-0.3,1-0.7,2.3-1.2,3.7c-0.8,2.6-1.7,5.5-2.4,7.6c-11.2,37.4-22.9,58.4-41.9,74.7
			c-14.9,12.8-35.9,20.2-57.7,20.2c-19.2,0-37.7-5.7-51.9-15.9c-21.7-15.6-35-38-47.4-79.9c-1.3-4.4-2.7-8.9-3-9.9
			c-0.1-0.4-0.3-0.9-0.6-1.6c-0.4-1.2-0.9-2.7-1.4-4c0-0.1-0.1-0.2-0.1-0.3c-7.2-1.4-13.2-6.7-17.8-15.9
			c-3.8-7.5-7.1-18.3-10.5-33.9c-2.1-10-2.4-18-0.9-24.6c1.6-7.1,5.5-12.6,11.1-16.1c-5.5-16.6-8.1-40.2-6-56.7
			c5.3-41.7,36.5-75.6,77.6-84.5l0.5-0.1c8.4-1.8,8.9-1.8,38.2-1.9l24.8-0.1l0.3-0.1c2.7-1.1,6.9-3.8,6-9.1
			c-0.9-4.2,0.8-7.2,1.9-8.7C149.3,74.4,152.2,73,155.4,73L155.4,73z M6.3,236.8L6.3,236.8L6.3,236.8L6.3,236.8z"/>
	</g>
	<g id="path0">
		<path class="st3" d="M125.9,446.2c16.3,0,31.8-3.6,44.9-10.3c27.3-14.1,46.4-41.4,59.9-85.9c0.5-1.8,1.2-3.9,1.9-5.9
			c0.9-2.7,1.7-5.4,2.2-7.1l1.1-3.4l0.7-0.3c11.9-5.9,22.4-19.5,30.3-39.4c9.4-23.9,9.3-40.3-0.1-50.2c0-0.2,0-0.4,0-0.5
			c0.7-1.7,1.1-3.8,1.6-6.3c0.7-3.6,1.4-7.8,1.8-11.2c3.3-25.6,1.4-43.8-6.5-63c-7.6-18.2-21.4-35.3-37-45.9
			c-0.1-14.6-9.9-26.4-24.5-29.4c-1.4-0.3-2.7-0.4-3.9-0.4c-5,0-8.9,2.4-10.6,6.4c-4-13.1-14.7-23.2-28.2-26.8
			c-3.1-0.8-11.7-0.9-11.7-0.9c-3.3,0-4.5,0.2-4.8,0.3c-4.4,0.9-7.8,4-8.8,8.2c-1,4.1,0.5,8.4,3.9,11.2c0.4,0.3,0.6,0.7,0.5,1.2
			c-0.1,0.3-0.3,0.9-1.1,1.2h-0.1c-0.9,0.2-7.1,0.2-23.6,0.2c-27.5,0-29.7,0.1-39,2c-42,8.4-75.4,42.3-82.9,84.3
			c-2.3,12.3-2.2,25.4,0.1,42.4c0,0.2,1.7,11.9,3.8,18.7c-12.5,11.9-12.2,29-9.6,41.6c6.2,30.2,13.7,51.5,30.3,57.1l0.4,1.1
			c0.6,1.7,2.2,6.8,3.7,11.8c13.8,46.1,31,72.2,57.6,87.5C91.3,441.9,108.4,446.2,125.9,446.2z M159.9,372.1
			c-0.3,0.6-1.3,2.5-5.7,5.5c-7.4,5.3-16,8.1-24.9,8.1c-10.6,0-20.9-4-29-11.1c-1.4-1.2-1.8-2.1-1.9-2.5c0.1-0.1,0.3-0.2,0.6-0.4
			c0.1,0,0.1,0,0.1,0c0.2,0.1,0.7,0.3,1.6,1.2c8.2,7.1,18.3,11.1,28.5,11.1l0,0c10,0,19.8-3.8,27.6-10.7c1.4-1.2,2.2-1.6,2.4-1.7
			c0.1,0,0.2,0.1,0.4,0.3C159.7,372,159.8,372,159.9,372.1z M234.4,247.1c0.3,0.4,0.8,1.5,0.9,3.3c0.1,1.7-0.4,3-0.8,3.5
			c-2.6,2.8-2.7,4.4-3.6,19.2c-1.2,23-8.6,28.9-15.6,31.6c-5.8,2.2-15.9,3.6-27,3.6c-11,0-21.2-1.4-27.4-3.6
			c-8.6-3.1-11.8-6.8-16.6-25.3c-2.5-9.8-3.1-10.7-4.2-11.9l-0.1-0.1l-0.1-0.1c-1.5-1.3-3.3-1.7-8.3-1.7c-11.5,0-12.5,1.4-13.6,2.8
			l-0.1,0.1l-0.1,0.1c-0.4,0.7-1.2,1.8-4.2,13.4c-4.3,16.5-8.5,20.4-17.9,23.3c-6.1,1.8-15.2,2.8-25.1,2.8c-6.2,0-12.5-0.4-18.2-1.2
			c-20.1-2.6-24.3-15.7-25-38.9c-0.2-7.4-0.7-10.9-3-13.8c-0.9-1.1-1.3-3.1-1-4.9c0.2-1.1,0.5-1.9,0.8-2.1c1.8-0.5,8.8-1.6,19.5-2.1
			c1.7-0.1,5.8-0.1,11.2-0.1c10.9,0,23,0.2,24.8,0.4c12,1.2,18.3,3,25.3,7c6.1,3.5,15,5.4,24.5,5.4l0,0c5.8,0,11.4-0.7,16.3-2.2
			c2.7-0.8,5.6-2.1,10.3-4.6c5.3-2.9,12.2-4.6,23-5.7c3.3-0.3,8.5-0.5,15.2-0.5C210.6,244.8,229.5,245.9,234.4,247.1z M67.7,306.9
			c3.1,0,6.4-0.1,10-0.3c9.8-0.6,16.9-1.5,22.1-4.3c6.3-3.4,8.7-8.8,10.5-14.2c5-16,5.6-26-5.4-33.1c-7.9-5.1-22.5-7.9-41.1-7.9
			c-2.5,0-4.8-0.1-6-0.1c-0.1,0-0.3,0-0.4,0c-0.4-0.1-0.7-0.1-1.1-0.1c-0.8,0-1.6,0.2-2.3,0.5c-5.6,0.2-16.1,1.7-19.4,3.9l0,0
			c-1.5,0.9-5.3,3.4-4.7,20.3c0.3,7.3,1.6,17.1,4.3,22.5C40,305.6,56.1,306.9,67.7,306.9L67.7,306.9z M190.8,306.9
			c13.1,0,28.8-1.7,34.3-14.7c3.2-7.6,4.6-28.5,2.5-35.6c-1.9-6.1-6-6.9-12.3-8.1c-1.8-0.4-7.9-1-11-1.2c-2-0.1-5.9-0.2-10.4-0.2
			c-4.4,0-8.2,0.1-10.1,0.2c-20.3,1.7-30.6,5.3-35.7,12.5c-4.9,6.8-3.4,15.4-1.9,21.2c5.3,20.4,10.4,24.2,34.7,25.6
			C184.4,306.8,187.8,306.9,190.8,306.9z"/>
		<path d="M147.6,70.5c-1.8,0-3.2,0.1-4,0.2c-5.2,1-6.8,7.2-2.7,10.5c3.9,3.2,2.8,9.2-2,11c-1.4,0.5-1.6,0.5-25.4,0.5
			c-27.1,0-29.1,0.1-38,1.9c-40.2,8-71.8,40.2-79,80.3c-2.2,12-2.1,24.6,0.1,40.8c1.1,8.1,3.6,19.4,4.5,20.5c0.2,0.2,0.1,0.5-0.6,1
			c-10,8.3-13.3,21.3-9.8,38.4c6.9,33.8,14.7,49.3,27.1,53.4l2.2,0.7l1.2,3.4c0.7,1.9,2.4,7.3,3.8,12.1
			c13.4,44.9,29.7,69.9,55.3,84.6c13.2,7.5,29.4,11.4,45.6,11.4c15,0,29.9-3.2,42.6-9.8c26.2-13.5,44.2-39.5,57.4-82.9
			c1.3-4.2,3.2-10.1,4.1-13.1l1.8-5.4l2.5-1.3c10.8-5.3,20.6-18.4,27.9-36.8c8.7-22.2,8.9-37,0.5-45.3l-1.5-1.4l0.3-1
			c0.2-0.5,0.3-1.5,0.3-2.1s0.1-0.9,0.1-0.9s0,0,0.1,0.1l0,0c0.5,0,2.3-9.3,3.2-16.4c3.2-24.6,1.4-42.2-6.2-60.5
			c-7.3-17.5-20.7-34-35.7-44l-1.7-1.1v-2.4c0-12.3-8.3-22.3-20.5-24.8c-1.1-0.2-2-0.3-2.9-0.3c-3.8,0-6.1,1.8-6.6,5.2
			c-0.4,2.8-1.9,4.1-3.6,4.1c-1.9,0-4-1.7-4.8-4.9c-3.1-12.1-12.9-21.8-25.2-25C156.6,70.8,151.4,70.5,147.6,70.5 M188.3,313.2
			c-10.9,0-22-1.3-29.1-3.9c-10.9-4-14.7-9.6-19.7-28.7c-1.5-5.8-2.5-9.2-2.9-9.6c-0.3-0.3-2.5-0.4-5-0.4c-4.1,0-9.2,0.3-9.6,0.8
			c-0.4,0.6-1.7,4.9-3.5,11.9c-4.5,17.1-9.3,23.2-21.3,26.8c-6.7,2-16.4,3-26.5,3c-6.3,0-12.8-0.4-18.9-1.2
			c-20.5-2.7-28.4-14.6-29.3-43.7c-0.2-6.8-0.6-9.2-1.9-10.8c-3.4-4.2-2.8-12.2,1.1-14.6c1.6-1,11.1-2.2,21.8-2.7
			c2-0.1,6.3-0.1,11.4-0.1c10.1,0,23.1,0.2,25.4,0.4c12.7,1.3,19.7,3.3,27.2,7.6c5.4,3.1,13.6,4.8,22,4.8c5.1,0,10.3-0.6,14.9-2
			c2.4-0.7,5.2-2,9.3-4.2c5.9-3.2,13.3-5.1,24.8-6.3c3.7-0.4,9.3-0.5,15.7-0.5c15.9,0,36.3,1,41.7,2.5c4.6,1.2,6,11,2.2,15
			c-1.3,1.4-1.4,2.2-2.2,16c-1.1,20.4-6.8,31.3-18.8,36C210.3,311.9,199.3,313.2,188.3,313.2 M129.3,390.7c-11.5,0-23-4.2-32.3-12.4
			c-4.8-4.2-4.7-9,0.1-11.2c0.8-0.3,1.5-0.5,2.2-0.5c1.5,0,3,0.8,4.9,2.5c7.4,6.6,16.2,9.9,25,9.9c8.6,0,17.1-3.2,24.3-9.5
			c2.3-2,4.1-2.9,5.8-2.9c1.2,0,2.3,0.5,3.5,1.4c4.2,3.4,2.2,8.1-5.7,13.7C148.7,387.7,139,390.7,129.3,390.7 M56.2,251.8
			c-0.4,0-0.4,0.2,0.1,0.4c0.1,0-0.4,0.1-1.2,0.1c-5.7,0-16,1.8-17.9,3.1c-3.9,2.5-2.9,27.8,1.4,36.4c3.5,6.9,12.7,10.1,29.1,10.1
			c3,0,6.2-0.1,9.7-0.3c19.6-1.2,24.5-3.8,28.1-15.1c5-16.1,4.3-22.4-3.4-27.4c-7-4.5-20.9-7.1-38.4-7.1c-3.4,0-6.5-0.1-6.9-0.1
			C56.6,251.8,56.4,251.8,56.2,251.8 M194,252.1c-3.9,0-7.9,0.1-9.8,0.2c-29.9,2.5-37.9,9.1-33.2,27.4c4.7,18.2,7.9,20.6,30.1,21.9
			c3.5,0.2,6.7,0.3,9.7,0.3c17.4,0,26.3-3.6,29.7-11.6c2.7-6.4,4.1-26.3,2.3-32.2c-0.9-2.9-1.9-3.4-8.5-4.7
			c-1.4-0.3-7.1-0.9-10.3-1.1C201.9,252.2,197.9,252.1,194,252.1 M147.6,60.5L147.6,60.5c1.5,0,9.3,0,13,1
			c12.4,3.3,22.8,11.6,28.6,22.6c2.5-1.5,5.6-2.3,9-2.3c1.6,0,3.2,0.2,4.9,0.5c15.8,3.2,27.1,16,28.4,31.6
			c15.5,11.2,29.1,28.4,36.7,46.7c8.2,19.8,10.3,39.4,6.9,65.6c-0.4,3.5-1.1,7.8-1.8,11.5c-0.4,1.8-0.7,3.4-1,4.5v0.1
			c4.5,5.8,6.7,13.1,6.6,21.8c-0.1,8.8-2.5,19-7.4,31.4c-8.1,20.5-19,34.7-31.5,41.5l-0.5,1.4c-0.5,1.8-1.4,4.4-2.2,7.1
			c-0.6,2-1.3,4.1-1.9,5.9c-13.9,45.9-33.8,74.1-62.4,88.8c-13.8,7.1-30.1,10.9-47.2,10.9c-18.3,0-36.3-4.5-50.6-12.7
			c-27.9-16-45.8-43-59.9-90.4l0,0l0,0c-1.2-4.1-2.5-8.3-3.2-10.5c-17.2-7.4-25-29.4-31.3-59.9c-4.5-22,1.5-35.7,8.9-44
			c-0.2-0.9-0.4-1.8-0.7-2.9c-1-4.5-1.9-9.6-2.5-13.7c-2.4-17.5-2.4-31.1,0-43.9c3.9-21.6,14.2-41.5,29.8-57.4s35.4-26.6,57.1-30.9
			c10-2,13.3-2.1,40-2.1c7.3,0,12.6,0,16.3,0c-1.3-3.1-1.6-6.6-0.8-10c1.5-6.1,6.4-10.6,12.7-11.8h0.1h0.1
			C142.8,60.7,144.2,60.5,147.6,60.5L147.6,60.5z M118.7,261.9c-0.5-0.1-1.1-0.2-1.6-0.3c0.1,0.3,0.2,0.6,0.3,0.8
			C117.8,262.3,118.2,262.1,118.7,261.9L118.7,261.9z M141.3,262.1c0-0.1,0.1-0.3,0.1-0.4c-0.2,0-0.5,0.1-0.7,0.1
			C140.9,261.9,141.1,262,141.3,262.1L141.3,262.1z"/>
	</g>
</g>
</svg>
