<svg xmlns="http://www.w3.org/2000/svg" width="400" height="396.6"><defs><linearGradient id="a" x1="198.4" x2="198.4" y1="7.7" y2="386" gradientUnits="userSpaceOnUse"><stop offset="0" style="stop-color:#bada55"/><stop offset="1" style="stop-color:#758d29"/></linearGradient></defs><path fill-rule="evenodd" d="M204.4 109.6c.5 1 43.9 91.8 72 145.5 6.2 8 25.6 17.6 32.5 25.5.7 3.2 9.2 52 9 52l-58-.1-70.7-.2H129c-29.6.1-54 0-54.2-.2-.1-.1 7.4-35.2 19.8-79.4 23.4-24.3 25-25.7 49.8-51.4l49.1-91.9m2.3-101c-2.8 1.5-2.7-.2-2.7 41.2 0 33-.1 37.5-.7 38.9l-4.1 7.9-9.8 18.3c-1.8 3.3-23 40-46 83-15.7 17.7-30.7 31.5-49 50.8-10 29-21.4 83.5-21.7 83.8-.5.5-4.4.6-24.9.6-24.2 0-24.2 0-25.4 1C9 335.6 9 335.6 9 359.4c0 24 0 23.7 2.6 25.6 1.3 1 371.7 1.3 373.5.4 2.6-1.4 2.5-1 2.6-26.3v-23l-1.7-1.6-1.7-1.7h-23.9c-18.6 0-29.8.3-30.2 0 0-.2-9.9-53.8-11.2-58.5-5.6-7-26.5-17.7-33-26-12.7-17.6-79.5-158.1-80.3-159.5l-1.6-2.8-.1-8.3-.2-8.3 1.2.3 5.3 1.1c11.6 2.6 22.4 1.5 47.2-4.7 26.3-6.5 36.9-6.8 49.6-1.4 5.3 2.3 7.2 2.2 9.4-.3 2.8-3.4 1.6-5.5-8.8-16-4-4-7.1-7.3-7-7.5.3-.6 6.7-3 10.3-4 8.4-2.4 9.2-8.1 1.7-11.6-15.4-7-27.7-7-57.5.2-19.7 4.8-29.8 6.4-35.5 5.8-4.8-.6-9.7-1.5-12.6-2.5l-3-1-.2-8.5c-.2-9.2-.5-10.1-2.8-11.2a7 7 0 0 0-5.4.1M292.1 31c3.5.4 3.4.6-1.4 3.4-7.4 4.4-7.3 7.1.8 13.8 2.9 2.4 2.9 2.3-3.2 2.3-2.8 0-6.7.1-8.7.3-6.6.8-9 1.3-33 7.1-12.6 3-22 4-29.3 3.3a46.5 46.5 0 0 1-12.8-3.2 99 99 0 0 1-.2-18.7l3.2.8c11.6 3.4 23.6 2.4 49.8-4 20.3-4.9 26.8-5.8 34.8-5M73.2 45.6C60.6 48 51 61.1 52.7 73.2c.4 2.4.2 2.7-1.6 3-17.9 3.5-19.2 29.7-1.9 36.7l2.4 1 40.4.1c43.2.2 43.5.1 47.9-2 15.8-7.7 13.3-31.7-3.8-35.7a21 21 0 0 1-2.8-.7l-1-3a25.6 25.6 0 0 0-30.4-16.2c-1.7.5-2.9.7-3 .4a32 32 0 0 0-4.8-5.4 27 27 0 0 0-20.9-5.7M84 57.5c3.2 1.4 5.6 4 7.3 7.7 2.2 5 5 5.9 9.6 3.4 10-5.3 20.5-.1 22 10.8.8 5.4 2.4 7 7.6 7 9.5 0 13.2 11.6 5 16-1.8.9-69.4 1.7-78.7 1-6.2-.6-9.1-3.3-9.2-8.5 0-5.6 3-8.2 10.7-8.6l4.9-.3 1.4-1.5c1.9-2 1.9-3.5.1-7.6A14.5 14.5 0 0 1 84 57.5M293.4 102a25.4 25.4 0 0 0-19.2 25.7l.2 3.9-2.8 1a19.1 19.1 0 0 0-.4 36.3c2.4.9 3.2.9 44.7.8l42.2-.2 2.8-1.3a19 19 0 0 0-3-35.9l-3.3-.9-.6-2.3c-3.7-12.3-16.1-19.3-29.6-16.7-3.7.7-3.8.7-4.3-.1-4.4-7.8-16.5-12.5-26.7-10.3m19.6 19.6c1.1 2.5 1.5 3 3 3.7 2.5 1.1 2.7 1.1 6.7-.9 9.9-5 20.5.4 21.7 11 .6 5.3 2.6 7 8.2 7a8.5 8.5 0 0 1 4.3 16l-1.8.9-38.2.1c-45.4.2-44.7.2-47-4.8-3.1-6.3 1.2-12.2 8.8-12.2 7.8 0 10.4-3 7.8-9-6-13.4 7-26.4 19.6-19.6M377 359c0 8.5-.1 15.7-.2 16-.2.4-356.8.3-356.8.3v-15.9c0-13.8 0-16 .6-16 1-.4 347.4-.4 352.1 0" style="stroke:url(#a);stroke-width:0"/><circle cx="230.6" cy="271.1" r="15.5" style="stroke:#000;fill:none;stroke-width:10px"/><circle cx="191" cy="185.6" r="15.5" style="stroke:#000;fill:none;stroke-width:10px"/><path d="m198.8 108.7 6.1 35.4-11.2 30.1" style="stroke:#000;stroke-width:10px;fill:none"/><path d="m183.3 176.1 5.5 34.2 23.7 24.6" style="stroke:#000;stroke-width:10px;fill:none" transform="translate(7.3 26.8)"/><path d="m192 175-20 23-6.5 30.6" style="stroke:#000;stroke-width:10px;fill:none" transform="translate(30.2 109.7)"/></svg>