<svg xmlns="http://www.w3.org/2000/svg" version="1.0" viewBox="0 0 708 580"><path d="M619.4 22.5h-.1l-.2-.2c-1.5-1-3.1-2-4.7-2.3a8 8 0 0 0-5.3 1.2l-6.8 3c-12 3.6-23.6 8-35 13l-7 2-11 5-29 10.9-7.3 2.1-81.4 81.4-81.6 79.6c-29.4-27-56.4-54.6-82.9-84.8l2.9-16c1-9.2 1-26.6-1-34a84 84 0 0 0-53.3-58.3l-2.8-1c-3.4-2-15.8-3.1-24.9-3.1-8.2.5-14.3 2-18 4.6-3.8 3-5.4 7.6-5 13.5 0 5 .4 6.8 4.8 10.5l6 4 .4.2.2.2h.6c2.5-.1 12.9 5.7 17.7 9.6h.1l.1.1a32.4 32.4 0 0 1 14.3 16.1C212 86.4 212 87 212 98s.1 11.6-2.8 17a38.7 38.7 0 0 1-30.8 21.3 38.8 38.8 0 0 1-34.9-13.6l-6.7-7.7-1-2.8-4-8c-3-9.1-5.5-12.6-9.8-15-4-2-8.5-2.4-12.3-1.2a18.5 18.5 0 0 0-9.4 8c-2.1 4.4-2.3 8-2.3 18 0 16.2 1.1 20.7 8.2 34.9a82.5 82.5 0 0 0 51.2 42 96 96 0 0 0 53.7-.8c2.4.9 12.5 11.3 43.5 41.3l40.6 41.6-90.6 92.6-96.2 96.1v.2a34.1 34.1 0 0 0-4.4 22.4v.2l3.1 8.2c2.2 5.3 38.8 42 44.2 44.2 7.3 3 19 3 25.6-1.1 5.6-2.6 25.5-21.4 99.5-96.4l93.6-91.6 83.9 84.9-.9 5.9c-4 13.1-5 24.5-3 34.8 3 14.1 5.2 20.4 13.2 35.5 2.2 4.3 10.3 13.5 16.4 19.5l.2.2a112 112 0 0 0 26.6 14.3c6.2 2 12.4 3.1 23.6 3.1 9 0 13.4 0 16.9-2.2 4.3-1.8 7.6-5.3 9-9.1 1.3-4 1-8.7-1.1-12.7-2.4-4.3-6-6.8-15.1-9.9-15.6-5.7-27-18-31.8-33.6-2-8.6-.7-17.4 3-25.4 3.8-8 9.8-14.5 18-18.3a44 44 0 0 1 31.3-2c8 4 9.7 4.8 16.4 10.6a59.3 59.3 0 0 1 13.4 23.9v.4l4.5 7.7.3.2a17 17 0 0 0 4.9 3c1.5.4 3.3.4 6.3.4 5 0 7 0 10.4-3.6 3.2-3.2 4.5-5.8 5.6-13 4-17.5-2.2-41.3-16.5-57.7a87.1 87.1 0 0 0-45-29.6c-7.2-2-23.6-2.1-33.7-1l-17.1 3h-.3l-1-.7c-1.3-1-3.3-2.7-6.5-5.7-6.5-6.1-17.5-17.1-36.5-36.1L423.8 293l79.6-80.6c75-74 82.2-82.3 84.4-86.5v-.2l3-10a654 654 0 0 0 22.1-59l2-6 3-7a46 46 0 0 0 4-13.4c.3-3.4-.8-5.9-2.5-7.7ZM206.5 42a65 65 0 0 1 28 17.4 79 79 0 0 1 12.7 20.5l.1.4.2.1.1.1A80.6 80.6 0 0 1 253 105a94 94 0 0 1-5.7 26.9l-.2.3-1.1 4.6v.2c.3 4.7 1.6 6.4 49.6 55.4l157 156c27.5 27.5 39.8 40.3 47 45.8 3.7 2.9 6.5 4 9 3.9 2.6-.2 5-1.3 8-2.2a76 76 0 0 1 32-4 68 68 0 0 1 42.8 25.4 53 53 0 0 1 12.6 30.6l-.4 2.8-1.8-3.5-2-5.1-.1-.2a70.2 70.2 0 0 0-31-25.7 84.4 84.4 0 0 0-36.2-3.1 63 63 0 0 0-42.4 39.2v.4l-.1.2-1 17.1c0 10.2 1.1 16.6 4.2 23.8v.2l12.2 18.3h.1v.1a82.8 82.8 0 0 0 18.6 13.4l3.9 2.2h-3c-14.7-2-28-7.7-38.7-20.4a65.1 65.1 0 0 1-14.6-66.8c3.1-7.4 3.2-11.1 2.1-14.4-1.2-3.4-253.9-256-257.3-257.3l-.3-.1h-.2c-2.1 0-9.5 1.1-13 3.3-5.7 2.8-21 4.7-32.6 2.7a74.6 74.6 0 0 1-37-19.5A57.6 57.6 0 0 1 116 118v-1.2l2.4 3.3 12.1 18.3.2.1a85.6 85.6 0 0 0 26.7 14.4c7.4 3 27.8 3 34.4 0a60.4 60.4 0 0 0 38-37.2l.2-.2 2-16.4V99c0-19.4-6.4-33.1-20.6-46.4a79.4 79.4 0 0 0-17.5-12.3l2-.3Zm369 26.5 9.2 10-1.6 4.9-7 16.1v.2a29.4 29.4 0 0 1-2.4 7.9l-.5-.4-4.7-4.3a634.5 634.5 0 0 1-32.7-33l2-1 13-5 9.8-3.9 3.7-1c1.2 0 2.3 1.5 11.3 9.5ZM562.3 126 410 278.2 364.8 233 517 80.8ZM332.6 311.4l22.6 22.6-72.6 71.6c-40 41-67.8 68-73.3 72.9l-45.8-44.8c5.3-5.9 35.4-36.3 72.2-73 36.7-36.8 67.2-67 73-72.2Zm-160 160 22.5 22.5-12.5 11.7c-10 10.5-14.3 15.3-18.9 14.9-4.7 0-9.8-5.4-21.3-16.9l-18.7-19.8c-1.9-3.7-2.7-5.6-1-9 2-3.6 21.3-23.2 25.9-26.4Z"/></svg>