<?xml version="1.0" encoding="utf-8"?>
<!-- Generator: Adobe Illustrator 25.4.0, SVG Export Plug-In . SVG Version: 6.00 Build 0)  -->
<svg version="1.2" baseProfile="tiny" id="svg" xmlns="http://www.w3.org/2000/svg" xmlns:xlink="http://www.w3.org/1999/xlink"
	 x="0px" y="0px" viewBox="0 0 400 511.9" overflow="visible" xml:space="preserve">
<g id="svgg" transform="matrix(1, 0, 0, 1, 65.959167, -0.350846)">
	<g>
		<path fill-rule="evenodd" fill="#FFFFFF" d="M131.9,435.2c-20.6,0-40.5-6.9-54.5-18.9C59.3,400.6,48,380.3,37.1,344
			c-0.6-2.2-1.6-5.2-2.4-7.8c-0.4-1.4-0.9-2.7-1.2-3.7l-0.8-2.4c-0.8-2.5-1.2-3.8-1.4-4.5c-0.2-0.7-0.4-0.8-0.8-0.9l-0.1,0
			c-13.4-2.4-27.3-26.3-32.9-48c-2.5-9.7-4-21.6,6.1-27.6c0.5-0.3,0.8-0.5,0.8-0.6c0-0.2,0-0.7-0.5-2c-3.3-8.2-6.3-28.7-6.3-43
			c-0.1-31.1,16-61.1,42-78.3c1.1-0.7,3.2-2.1,3.9-2.8c0-0.4-0.2-1.2-0.4-2.2c-1.5-7.5,2.1-15.4,8.8-19.2l5.6-3l3.5,5.3
			c2,2.9,5.2,4.6,8.8,4.6c3.4,0,6.5-1.5,8.7-4.2c0.5-0.7,0.9-1.2,1.2-1.5c0.1-0.5,0.2-1.2,0.5-1.8c0.1-0.3,0.2-0.7,0.3-1.2l0.2-0.8
			c2.3-9,8.9-16.4,17.1-19.3c2.4-0.9,3.5-1.3,4.8-1.3c1.7,0,3.2,0.7,4.2,2c0.7,0.9,1.4,2.4,0.9,4.6c-1.2,6.4,2.1,11.9,9,14.8
			l1.2,0.5l25.8,0.1c28.8,0.1,29.3,0.1,37.2,1.8l0.5,0.1c39,8.4,68.6,40.7,73.7,80.3c2.1,16.6-0.9,41.9-6.9,57.6
			c-0.2,0.4-0.3,0.8,1.4,1.7c16,7.7,11.4,29.3,9.9,36.4c-6.9,32-14.1,44.9-25.6,46.1c-0.7,0.1-1.2,0.1-1.4,0.2
			c-0.2,0.4-0.6,1.3-1.3,3.3c-0.4,1.2-0.9,2.7-1.3,3.8c-0.2,0.7-0.4,1.2-0.6,1.7c-0.3,1-1.7,5.4-3,10
			c-12.1,40.7-24.8,62.4-45.6,77.2C167.5,429.8,150.1,435.2,131.9,435.2z"/>
		<path fill="#FFFFFF" d="M102.8,83c0.3,0,0.3,0.2,0.2,0.6c-1.7,8.7,2.9,16.6,11.9,20.4l2.2,0.9l26.8,0.1
			c29.5,0.1,28.8,0.1,36.7,1.8c37,8,65,38.5,69.8,76c2,15.8-0.9,40.2-6.6,55.2c-1.2,3.3,0.2,6.1,3.8,7.9c8.5,4.1,10.8,14.1,7.2,30.9
			c-6.2,28.8-12.4,41.3-21.2,42.2c-4.2,0.4-5,1.2-6.9,6.9c-0.6,1.9-1.5,4.3-1.9,5.5c-0.4,1.2-1.8,5.8-3.1,10.2
			C210,381,197.8,401.9,178,416.1c-13.1,9.4-29.6,14-46.1,14c-18.8,0-37.5-6-51.2-17.7c-17.3-14.9-28.2-34.5-38.8-69.9
			c-1-3.4-2.7-8.6-3.6-11.5c-0.9-2.8-1.9-5.8-2.1-6.6c-0.6-2.5-2.4-4.2-4.9-4.6c-9.9-1.8-23.3-22.4-29-44.3c-3.1-12.1-2-18.6,3.8-22
			c3.4-2,4.1-4.5,2.5-8.7c-3.1-7.7-6-27.6-6-41.2c-0.1-29.4,15.3-57.9,39.8-74.1c6.4-4.2,6.8-4.8,5.7-10.2
			c-1.1-5.4,1.6-11.1,6.4-13.8l1.5-0.8l1,1.5c3.1,4.6,8,6.9,12.9,6.9c4.6,0,9.3-2,12.6-6.1c1.9-2.4,2.2-2.9,2.2-3.6
			c0-0.3,0.1-0.7,0.2-0.8c0.1-0.1,0.4-1.3,0.8-2.8c1.9-7.3,7.3-13.5,14-15.9C101.5,83.3,102.4,83,102.8,83 M102.8,73L102.8,73
			L102.8,73c-2.2,0-4,0.7-6.5,1.6C86.5,78,78.8,86.7,76,97.3l-0.2,0.8c-0.1,0.3-0.2,0.6-0.2,0.8c-0.2,0.4-0.3,0.9-0.4,1.3
			c-0.1,0.2-0.3,0.4-0.5,0.6c-1.7,2-3.7,2.3-4.8,2.3c-1.1,0-3.2-0.3-4.6-2.4l-1-1.5l-5-7.5l-8,4.3l-1.5,0.8l-0.1,0.1l-0.1,0.1
			c-8.3,4.7-12.9,14.3-11.5,23.6c-0.5,0.3-0.9,0.6-1.2,0.8C9.4,139.3-7.5,170.9-7.4,203.6c0,12.5,2.4,32.3,6,42.9
			c-11.7,9.1-7.6,25.2-6,31.5c3,11.7,8.1,23.3,14.2,32.7c6.6,10.1,13.4,16.2,20.3,18.4c0.2,0.7,0.5,1.5,0.8,2.6
			c0.2,0.8,0.5,1.6,0.8,2.4c0.3,1,0.7,2.3,1.2,3.7c0.8,2.6,1.7,5.5,2.4,7.6c11.2,37.4,22.9,58.4,41.9,74.7
			c14.9,12.8,35.9,20.2,57.7,20.2c19.2,0,37.7-5.7,51.9-15.9c21.7-15.6,35-38,47.4-79.9c1.3-4.4,2.7-8.9,3-9.9
			c0.1-0.4,0.3-0.9,0.6-1.6c0.4-1.2,0.9-2.7,1.4-4c0-0.1,0.1-0.2,0.1-0.3c7.2-1.4,13.2-6.7,17.8-15.9c3.8-7.5,7.1-18.3,10.5-33.9
			c2.1-10,2.4-18,0.9-24.6c-1.6-7.1-5.5-12.6-11.1-16.1c5.5-16.6,8.1-40.2,6-56.7c-5.3-41.7-36.5-75.6-77.6-84.5l-0.5-0.1
			c-8.4-1.8-8.9-1.8-38.2-1.9l-24.8-0.1l-0.3-0.1c-2.7-1.1-6.9-3.8-6-9.1c0.9-4.2-0.8-7.2-1.9-8.7C108.9,74.4,106,73,102.8,73
			L102.8,73z M251.9,236.8C251.9,236.8,251.9,236.8,251.9,236.8L251.9,236.8L251.9,236.8z"/>
	</g>
	<g id="path0">
		<path fill-rule="evenodd" fill="#035BA9" d="M132.3,446.2c-16.3,0-31.8-3.6-44.9-10.3c-27.3-14.1-46.4-41.4-59.9-85.9
			c-0.5-1.8-1.2-3.9-1.9-5.9c-0.9-2.7-1.7-5.4-2.2-7.1l-1.1-3.4l-0.7-0.3c-11.9-5.9-22.4-19.5-30.3-39.4
			c-9.4-23.9-9.3-40.3,0.1-50.2c0-0.2,0-0.4,0-0.5c-0.7-1.7-1.1-3.8-1.6-6.3c-0.7-3.6-1.4-7.8-1.8-11.2c-3.3-25.6-1.4-43.8,6.5-63
			c7.6-18.2,21.4-35.3,37-45.9c0.1-14.6,9.9-26.4,24.5-29.4c1.4-0.3,2.7-0.4,3.9-0.4c5,0,8.9,2.4,10.6,6.4
			c4-13.1,14.7-23.2,28.2-26.8c3.1-0.8,11.7-0.9,11.7-0.9c3.3,0,4.5,0.2,4.8,0.3c4.4,0.9,7.8,4,8.8,8.2c1,4.1-0.5,8.4-3.9,11.2
			c-0.4,0.3-0.6,0.7-0.5,1.2c0.1,0.3,0.3,0.9,1.1,1.2l0.1,0c0.9,0.2,7.1,0.2,23.6,0.2c27.5,0,29.7,0.1,39,2
			c42,8.4,75.4,42.3,82.9,84.3c2.3,12.3,2.2,25.4-0.1,42.4c0,0.2-1.7,11.9-3.8,18.7c12.5,11.9,12.2,29,9.6,41.6
			c-6.2,30.2-13.7,51.5-30.3,57.1l-0.4,1.1c-0.6,1.7-2.2,6.8-3.7,11.8c-13.8,46.1-31,72.2-57.6,87.5
			C166.9,441.9,149.8,446.2,132.3,446.2z M98.3,372.1c0.3,0.6,1.3,2.5,5.7,5.5c7.4,5.3,16,8.1,24.9,8.1c10.6,0,20.9-4,29-11.1
			c1.4-1.2,1.8-2.1,1.9-2.5c-0.1-0.1-0.3-0.2-0.6-0.4c-0.1,0-0.1,0-0.1,0c-0.2,0.1-0.7,0.3-1.6,1.2C149.3,380,139.2,384,129,384
			c0,0,0,0,0,0c-10,0-19.8-3.8-27.6-10.7c-1.4-1.2-2.2-1.6-2.4-1.7c-0.1,0-0.2,0.1-0.4,0.3C98.5,372,98.4,372,98.3,372.1z
			 M23.8,247.1c-0.3,0.4-0.8,1.5-0.9,3.3c-0.1,1.7,0.4,3,0.8,3.5c2.6,2.8,2.7,4.4,3.6,19.2c1.2,23,8.6,28.9,15.6,31.6
			c5.8,2.2,15.9,3.6,27,3.6c11,0,21.2-1.4,27.4-3.6c8.6-3.1,11.8-6.8,16.6-25.3c2.5-9.8,3.1-10.7,4.2-11.9l0.1-0.1l0.1-0.1
			c1.5-1.3,3.3-1.7,8.3-1.7c11.5,0,12.5,1.4,13.6,2.8l0.1,0.1l0.1,0.1c0.4,0.7,1.2,1.8,4.2,13.4c4.3,16.5,8.5,20.4,17.9,23.3
			c6.1,1.8,15.2,2.8,25.1,2.8c6.2,0,12.5-0.4,18.2-1.2c20.1-2.6,24.3-15.7,25-38.9c0.2-7.4,0.7-10.9,3-13.8c0.9-1.1,1.3-3.1,1-4.9
			c-0.2-1.1-0.5-1.9-0.8-2.1c-1.8-0.5-8.8-1.6-19.5-2.1c-1.7-0.1-5.8-0.1-11.2-0.1c-10.9,0-23,0.2-24.8,0.4c-12,1.2-18.3,3-25.3,7
			c-6.1,3.5-15,5.4-24.5,5.4c0,0,0,0,0,0c-5.8,0-11.4-0.7-16.3-2.2c-2.7-0.8-5.6-2.1-10.3-4.6c-5.3-2.9-12.2-4.6-23-5.7
			c-3.3-0.3-8.5-0.5-15.2-0.5C47.6,244.8,28.7,245.9,23.8,247.1z M190.5,306.9c-3.1,0-6.4-0.1-10-0.3c-9.8-0.6-16.9-1.5-22.1-4.3
			c-6.3-3.4-8.7-8.8-10.5-14.2c-5-16-5.6-26,5.4-33.1c7.9-5.1,22.5-7.9,41.1-7.9c2.5,0,4.8-0.1,6-0.1c0.1,0,0.3,0,0.4,0
			c0.4-0.1,0.7-0.1,1.1-0.1c0.8,0,1.6,0.2,2.3,0.5c5.6,0.2,16.1,1.7,19.4,3.9l0,0c1.5,0.9,5.3,3.4,4.7,20.3
			c-0.3,7.3-1.6,17.1-4.3,22.5C218.2,305.6,202.1,306.9,190.5,306.9C190.5,306.9,190.5,306.9,190.5,306.9z M67.4,306.9
			c-13.1,0-28.8-1.7-34.3-14.7c-3.2-7.6-4.6-28.5-2.5-35.6c1.9-6.1,6-6.9,12.3-8.1c1.8-0.4,7.9-1,11-1.2c2-0.1,5.9-0.2,10.4-0.2
			c4.4,0,8.2,0.1,10.1,0.2c20.3,1.7,30.6,5.3,35.7,12.5c4.9,6.8,3.4,15.4,1.9,21.2c-5.3,20.4-10.4,24.2-34.7,25.6
			C73.8,306.8,70.4,306.9,67.4,306.9z"/>
		<path fill="#FFFFFF" d="M110.6,70.5c1.8,0,3.2,0.1,4,0.2c5.2,1,6.8,7.2,2.7,10.5c-3.9,3.2-2.8,9.2,2,11c1.4,0.5,1.6,0.5,25.4,0.5
			c27.1,0,29.1,0.1,38,1.9c40.2,8,71.8,40.2,79,80.3c2.2,12,2.1,24.6-0.1,40.8c-1.1,8.1-3.6,19.4-4.5,20.5c-0.2,0.2-0.1,0.5,0.6,1
			c10,8.3,13.3,21.3,9.8,38.4c-6.9,33.8-14.7,49.3-27.1,53.4l-2.2,0.7l-1.2,3.4c-0.7,1.9-2.4,7.3-3.8,12.1
			c-13.4,44.9-29.7,69.9-55.3,84.6c-13.2,7.5-29.4,11.4-45.6,11.4c-15,0-29.9-3.2-42.6-9.8c-26.2-13.5-44.2-39.5-57.4-82.9
			c-1.3-4.2-3.2-10.1-4.1-13.1l-1.8-5.4l-2.5-1.3C13.1,323.4,3.3,310.3-4,291.9c-8.7-22.2-8.9-37-0.5-45.3l1.5-1.4l-0.3-1
			c-0.2-0.5-0.3-1.5-0.3-2.1c0-0.6-0.1-0.9-0.1-0.9c0,0,0,0-0.1,0.1c0,0,0,0,0,0c-0.5,0-2.3-9.3-3.2-16.4
			c-3.2-24.6-1.4-42.2,6.2-60.5c7.3-17.5,20.7-34,35.7-44l1.7-1.1v-2.4c0-12.3,8.3-22.3,20.5-24.8c1.1-0.2,2-0.3,2.9-0.3
			c3.8,0,6.1,1.8,6.6,5.2c0.4,2.8,1.9,4.1,3.6,4.1c1.9,0,4-1.7,4.8-4.9c3.1-12.1,12.9-21.8,25.2-25
			C101.6,70.8,106.8,70.5,110.6,70.5 M69.9,313.2c10.9,0,22-1.3,29.1-3.9c10.9-4,14.7-9.6,19.7-28.7c1.5-5.8,2.5-9.2,2.9-9.6
			c0.3-0.3,2.5-0.4,5-0.4c4.1,0,9.2,0.3,9.6,0.8c0.4,0.6,1.7,4.9,3.5,11.9c4.5,17.1,9.3,23.2,21.3,26.8c6.7,2,16.4,3,26.5,3
			c6.3,0,12.8-0.4,18.9-1.2c20.5-2.7,28.4-14.6,29.3-43.7c0.2-6.8,0.6-9.2,1.9-10.8c3.4-4.2,2.8-12.2-1.1-14.6
			c-1.6-1-11.1-2.2-21.8-2.7c-2-0.1-6.3-0.1-11.4-0.1c-10.1,0-23.1,0.2-25.4,0.4c-12.7,1.3-19.7,3.3-27.2,7.6
			c-5.4,3.1-13.6,4.8-22,4.8c-5.1,0-10.3-0.6-14.9-2c-2.4-0.7-5.2-2-9.3-4.2c-5.9-3.2-13.3-5.1-24.8-6.3c-3.7-0.4-9.3-0.5-15.7-0.5
			c-15.9,0-36.3,1-41.7,2.5c-4.6,1.2-6,11-2.2,15c1.3,1.4,1.4,2.2,2.2,16c1.1,20.4,6.8,31.3,18.8,36
			C47.9,311.9,58.9,313.2,69.9,313.2 M128.9,390.7c11.5,0,23-4.2,32.3-12.4c4.8-4.2,4.7-9-0.1-11.2c-0.8-0.3-1.5-0.5-2.2-0.5
			c-1.5,0-3,0.8-4.9,2.5c-7.4,6.6-16.2,9.9-25,9.9c-8.6,0-17.1-3.2-24.3-9.5c-2.3-2-4.1-2.9-5.8-2.9c-1.2,0-2.3,0.5-3.5,1.4
			c-4.2,3.4-2.2,8.1,5.7,13.7C109.5,387.7,119.2,390.7,128.9,390.7 M202,251.8c0.4,0,0.4,0.2-0.1,0.4c-0.1,0,0.4,0.1,1.2,0.1
			c5.7,0,16,1.8,17.9,3.1c3.9,2.5,2.9,27.8-1.4,36.4c-3.5,6.9-12.7,10.1-29.1,10.1c-3,0-6.2-0.1-9.7-0.3
			c-19.6-1.2-24.5-3.8-28.1-15.1c-5-16.1-4.3-22.4,3.4-27.4c7-4.5,20.9-7.1,38.4-7.1c3.4,0,6.5-0.1,6.9-0.1
			C201.6,251.8,201.8,251.8,202,251.8 M64.2,252.1c3.9,0,7.9,0.1,9.8,0.2c29.9,2.5,37.9,9.1,33.2,27.4c-4.7,18.2-7.9,20.6-30.1,21.9
			c-3.5,0.2-6.7,0.3-9.7,0.3c-17.4,0-26.3-3.6-29.7-11.6c-2.7-6.4-4.1-26.3-2.3-32.2c0.9-2.9,1.9-3.4,8.5-4.7
			c1.4-0.3,7.1-0.9,10.3-1.1C56.3,252.2,60.3,252.1,64.2,252.1 M110.6,60.5L110.6,60.5c-1.5,0-9.3,0-13,1
			C85.2,64.8,74.8,73.1,69,84.1c-2.5-1.5-5.6-2.3-9-2.3c-1.6,0-3.2,0.2-4.9,0.5c-15.8,3.2-27.1,16-28.4,31.6
			C11.2,125.1-2.4,142.3-10,160.6c-8.2,19.8-10.3,39.4-6.9,65.6c0.4,3.5,1.1,7.8,1.8,11.5c0.4,1.8,0.7,3.4,1,4.5c0,0,0,0.1,0,0.1
			c-4.5,5.8-6.7,13.1-6.6,21.8c0.1,8.8,2.5,19,7.4,31.4c8.1,20.5,19,34.7,31.5,41.5l0.5,1.4c0.5,1.8,1.4,4.4,2.2,7.1
			c0.6,2,1.3,4.1,1.9,5.9c13.9,45.9,33.8,74.1,62.4,88.8c13.8,7.1,30.1,10.9,47.2,10.9c18.3,0,36.3-4.5,50.6-12.7
			c27.9-16,45.8-43,59.9-90.4l0,0l0,0c1.2-4.1,2.5-8.3,3.2-10.5c17.2-7.4,25-29.4,31.3-59.9c4.5-22-1.5-35.7-8.9-44
			c0.2-0.9,0.4-1.8,0.7-2.9c1-4.5,1.9-9.6,2.5-13.7c2.4-17.5,2.4-31.1,0-43.9c-3.9-21.6-14.2-41.5-29.8-57.4
			c-15.6-15.9-35.4-26.6-57.1-30.9c-10-2-13.3-2.1-40-2.1c-7.3,0-12.6,0-16.3,0c1.3-3.1,1.6-6.6,0.8-10c-1.5-6.1-6.4-10.6-12.7-11.8
			l-0.1,0l-0.1,0C115.4,60.7,114,60.5,110.6,60.5L110.6,60.5z M139.5,261.9c0.5-0.1,1.1-0.2,1.6-0.3c-0.1,0.3-0.2,0.6-0.3,0.8
			C140.4,262.3,140,262.1,139.5,261.9L139.5,261.9z M116.9,262.1c0-0.1-0.1-0.3-0.1-0.4c0.2,0,0.5,0.1,0.7,0.1
			C117.3,261.9,117.1,262,116.9,262.1L116.9,262.1z"/>
	</g>
</g>
</svg>
