<?xml version="1.0" encoding="utf-8"?>
<!-- Generator: Adobe Illustrator 25.4.0, SVG Export Plug-In . SVG Version: 6.00 Build 0)  -->
<svg version="1.1" id="svg" xmlns="http://www.w3.org/2000/svg" xmlns:xlink="http://www.w3.org/1999/xlink" x="0px" y="0px"
	 viewBox="0 0 355.1 352.8" style="enable-background:new 0 0 355.1 352.8;" xml:space="preserve">
<style type="text/css">
	.st0{fill-rule:evenodd;clip-rule:evenodd;}
</style>
<g id="svgg">
	<path id="path0" class="st0" d="M137.5,0.3c-14.8,1-26.9,10.2-31.9,24.3l-1.3,3.8l-0.2,15.9l-0.2,15.9l-0.8,0.8l-0.8,0.8L68.6,62
		l-33.7,0.2l-3.4,1C15.1,68.1,4.3,79.7,0.9,96.1L0,100.6v107v107l0.9,4.4c3.5,17.1,15.4,29.2,32.3,33.1l4,0.9h140.2h140.2l4-0.9
		c17.9-4,30.4-17.6,32.7-35.6c0.9-6.9,1.2-209.3,0.3-216.1c-2.3-18.2-13.3-31.6-29.8-36.4c-5.7-1.7-6.4-1.7-42.4-1.7
		c-21,0-35-0.1-35.5-0.4c-1.9-0.7-1.9-1-2.1-17.7l-0.2-15.7l-1.3-3.8C239,12.4,229.2,3.8,216.5,1C213.1,0.2,147.5-0.4,137.5,0.3
		 M215.7,9.3c10.3,2.8,18,10.5,20.3,20.1c0.7,3.1,0.9,29.6,0.2,31.1c-0.6,1.3-2.2,1.9-4.5,1.6c-3.3-0.3-3.2,0.2-3.4-14.9
		c-0.2-18-1.4-21.6-8.6-26.5c-4.4-3-1.3-2.9-45.3-2.9h-39.1l-2.3,0.9c-9.9,4-12,8.9-12.1,27.8c0,13.1-0.2,14.4-1.8,15.2
		c-1.7,0.8-4.8,0.6-5.8-0.4l-0.9-0.9V45.6V30.9l1-2.9c3.7-11.1,12.4-18.1,24.4-19.5c1.4-0.2,18.7-0.3,38.5-0.2l36,0.1L215.7,9.3
		 M213.3,26.7c5.6,2.6,6.3,4.6,6.3,20.9v12.8l-1,0.9l-1,0.9h-42.7c-44,0-44.1,0-45-1.6c-1.3-2.2-0.7-26.4,0.6-29.1
		c3-6,1.7-5.8,46.1-5.8h34.9L213.3,26.7 M45,71.6c0.7,0.8,0.9,1.5,0.9,3.1c0,7.9,7.4,8.2,8.2,0.3c0.5-4.7-0.2-4.5,13-4.6
		c13.7-0.1,14.3,0.1,14.3,4.8c0,4,3.6,6.8,6.1,4.8c1.4-1.1,1.7-1.9,2.1-5.1c0.5-4.7-0.2-4.4,13.4-4.4c13.5,0,13.4,0,13.9,3.6
		c0.5,3.4,0.6,3.7,1.7,4.8c2.8,3.1,6.3,0.9,7.1-4.5c0.6-3.5,0.6-3.5,8.6-3.8c7.9-0.3,15.5,0,16.6,0.6c1.1,0.5,1.2,1,1.6,4.3
		c0.8,7.2,7.4,7.2,8.2,0c0.6-5.2,2-5.6,18.1-5c9.1,0.3,8.7,0.2,9.4,4.3c1.3,7.6,7.5,8.1,8.2,0.7c0.5-4.9,1-5.1,15.9-5.1
		c11.3,0,11.4,0,11.9,5.2c0.9,7.8,7.3,7.2,8.2-0.8c0.5-4.5-0.3-4.2,13.7-4.2c13.7,0.1,12.9-0.2,13.3,4c0.8,8.3,8.5,8.1,8.5-0.3
		c0-1.3,0.2-2,0.9-2.8l0.9-1l11.1,0.1c14,0.1,13.4-0.1,14.1,4.2c1.1,6.9,7.4,8,8.2,1.5c0.7-5.4,0.9-5.6,8.6-5.6
		c13.3,0,23.8,5.6,29.8,16c4.5,7.8,4.9,10.4,4.8,29.6c0,6.9,0.1,14.5,0.3,17c0.5,7-0.3,28.7-1.1,29.5c-1.1,1.1-3.5,1.2-18.6,1.3
		c-19.1,0-21.3,0.5-26.7,5.9c-5.7,5.6-5.7,5.6-5.7,43.2c0,37.3,0,37.3,5.8,42.9c5.3,5.2,6.7,5.5,27.1,5.7
		c10.1,0.1,16.6,0.3,17.2,0.5c1.9,0.7,1.9,0.6,1.7,29.1l-0.1,26.6l-0.9,2.6c-4.1,12.3-13,20.4-25.5,23.3c-4.1,1-49.5,1.2-50.7,0.3
		c-1-0.7-1.4-2.3-1.4-5c0-4.4-2.4-7-5.4-6c-2,0.7-2.5,1.8-2.8,6.3c-0.4,5.7,0.7,5.3-13.7,5.3c-14.3,0-13.5,0.3-13.9-5.2
		c-0.7-9.2-7.7-9.1-8.4,0.1c-0.2,2.8-0.4,3.5-1.1,4.3l-0.9,0.9h-11.7h-11.7l-0.9-0.9c-0.7-0.8-0.9-1.4-1.1-4.6
		c-0.6-9.1-7.5-8.8-8.1,0.4c-0.4,5.4,0.5,5.1-13.5,5.1c-14.1,0-13.2,0.4-13.6-5.8c-0.5-8.9-8-8-8.1,0.9c0,2.8-0.1,3.2-0.9,4
		l-0.9,0.9h-12h-11.8l-1-0.9c-0.9-0.8-1-1.2-1.3-4.5c-0.7-9.2-8.6-8.6-8.6,0.6c0,4.8,0.3,4.7-13.8,4.7H91.2l-0.9-0.9
		c-0.7-0.8-0.9-1.4-1.1-4.6c-0.3-5.3-2.1-7.3-5.4-5.9c-2.1,0.9-2.6,2-2.8,6.3c-0.3,5.7,2,5.2-22.4,5.2H38.2l-4.2-1.1
		c-13.2-3.5-21.7-12.3-24.9-26l-0.9-4l0.1-25l0.1-25l1-0.9l1-0.9h15c17.1,0,20.5-0.3,24.3-2.2c4.5-2.2,7.9-6.1,9.8-11.3l1-2.7
		l0.1-31.5c0.1-37.8,0.2-37.5-5.1-43.3c-5.4-6-7.2-6.4-28.1-6.7c-18.2-0.2-18.3-0.2-19-2.1C8.2,161.6,8,149.4,8,131.3v-29.9L9.1,97
		c2.3-9.3,7-16.1,14.4-20.9C31.2,71.1,42.6,68.8,45,71.6 M34.6,84.9c-25.5,6.5-20.8,42.7,5.5,42.1l5.3-0.1l3.3-1.6
		c13.8-6.9,16.4-24.8,5-35.3C48.7,85.4,41,83.3,34.6,84.9 M306,84.9c-15.3,3.5-21.7,17-14.8,31.3c6.7,13.9,27.9,15,36.7,1.9
		C338.5,102.4,324.2,80.7,306,84.9 M44.1,93.7c6.6,2.3,10.3,11.1,7.2,17.5c-3.9,8.4-15.1,10.5-21.5,3.9C20,105,30.6,89,44.1,93.7
		 M314.5,93.7c8.4,2.4,11.2,16.2,4.4,22c-9.2,7.9-23.9,0.4-22-11.1C298.5,95.5,305.4,91.2,314.5,93.7 M100.5,105.8
		c-8.7,1.8-9,10.5-0.6,14c16.2,6.8,18.8,24.6,4.6,31.4c-8.9,4.2-19.1-0.9-23.4-11.7c-4.4-11.2-14.7-8-14.7,4.5
		c0,20.6,20.3,36.1,42,32.2c2.2-0.4,4.2-0.6,4.9-0.4c1.3,0.3,32.2,30.9,32.5,32.2c0.5,1.9-0.6,3.1-37.3,39.9
		c-41.6,41.7-39.2,39-39.3,44.6c0,4.9,0.9,6.4,9.7,15.1c9.4,9.4,12.4,10.9,17.9,9.3c3.7-1.1,3.7-1.1,42-39.2
		c36.7-36.7,37.1-37.1,38.6-37.1c1.4,0,1.8,0.3,17.2,15.7c17.9,17.9,16.9,16.5,16,21.9c-1.2,6.8-1.1,9.5,0.6,17.2
		c3.1,13.8,18.5,25.6,32.5,24.9c11.9-0.6,14.3-10,3.7-14.5c-10.6-4.6-15.6-13.2-12.7-21.9c5-14.7,24.2-14.2,31.2,0.9
		c0.9,2,1.9,4,2.1,4.5c2.6,5.3,9.7,4.6,12.2-1.1c1.3-3,1-11.5-0.6-16.1c-5.6-16.1-23.1-26.2-39.5-22.7c-4.6,1-5.3,1-6.9,0
		c-1.2-0.7-22.3-21.7-28.8-28.6c-4.8-5-8.2-0.6,29-37.8c21-21,32.1-32.4,32.6-33.4c1.5-3.1,11.7-30,11.7-30.9c0-0.2,0.7-2,1.5-3.9
		c3.1-7.3,0.1-11.1-6.5-8.2c-1.2,0.5-2.3,0.9-2.5,0.9s-2.9,1-6.1,2.2c-3.1,1.2-6.2,2.3-7,2.5c-0.7,0.1-2.1,0.6-3,1.1
		s-2.6,1.1-3.7,1.5c-1.1,0.4-2.8,1-3.7,1.5s-3.7,1.5-6.2,2.2l-4.5,1.4l-12.7,12.7c-48.3,48.3-52.2,52.1-53.5,52.1
		c-1.2,0-2.4-1.2-16.7-15.4c-18.1-18-16.9-16.4-15.9-22.9c1.4-9.2,0.7-14.4-2.9-22.1C128.3,111.8,112.8,103.2,100.5,105.8
		 M117,117.6c9.7,4.5,15.1,19.8,11.1,31.4c-1.2,3.5-1.2,4.9,0,6.9c1.3,2.1,101.3,102.1,103.1,103c1.7,0.9,3,0.8,8.9-0.8
		c11.6-3.1,24.7,2.4,29.2,12.2c1.6,3.4,0.6,3.6-3.3,0.6c-12.8-9.7-29.3-7.3-37,5.4c-5.1,8.4-4.5,18.2,1.8,27.4
		c3.9,5.7,3.7,6.6-0.8,4c-10.1-5.8-13.9-17.7-10.2-31.8c1.4-5.4,3.5-2.7-25.7-32.3c-40.8-41.1-76.3-76.2-77.8-76.8s-3.1-0.7-4.5-0.2
		c-0.5,0.2-3.1,0.8-5.6,1.3l-4.6,0.9l-4.4-0.8c-9-1.6-17.9-8-18.9-13.6c-0.4-2.2,0.1-2.1,4.1,0.8c8.3,6.1,17.5,7.4,25.9,3.4
		c14.8-6.9,18.3-24.2,7.7-38.3C113,116.8,113.3,115.9,117,117.6 M258.1,123c5.4,3.3,6.7,6.3,4.8,11.2c-2.4,6.3-2.6,6.3-9.6-0.5
		c-7.7-7.5-7.7-8-0.7-10.5C255.6,122.1,256.6,122,258.1,123 M239.3,132.7c1.3,0.8,13.6,13.1,14.6,14.7c1.4,2.2,2,1.5-28.3,32
		c-15.7,15.7-29.1,28.9-29.8,29.3c-2.2,1.2-2.8,0.7-10.8-7.2c-7.5-7.5-8.2-8.5-7.5-10.4c0.3-0.7,40.9-41.8,47.4-47.9
		c1-0.9,2.8-2.8,4-4.1C234.6,132.9,237.2,131.3,239.3,132.7 M122.8,160.9c-3.4,2.9-0.2,7.9,3.9,6.1c1.8-0.8,2.5-3.2,1.5-5.2
		C127.1,159.7,124.7,159.3,122.8,160.9 M46,173.7c2.4,1.2,4.5,3.6,5.6,6.2l0.9,2.2v30.8v30.8l-0.9,2.2c-1.1,2.7-4,5.7-6.2,6.5
		s-32.5,1-34.7,0.3c-2.6-0.9-2.4,1.5-2.4-39.9c0-39.3,0-39,1.6-39.8C11.7,172.1,44,172.7,46,173.7 M344.8,173.3
		c1.4,1.1,1.4,2.8,1.4,39.4c0,36.4-0.1,38.1-1.4,39.5c-1.3,1.3-32.8,1.3-35.5,0c-2.5-1.1-4.3-2.9-5.5-5.3l-1-2.1v-31.9
		c0-35.9-0.2-33.3,2.8-36.7s3.9-3.5,22.4-3.6C342.9,172.6,344,172.7,344.8,173.3 M142.1,181.2c-0.8,0.8-1.1,1.4-1.1,2.5
		c0,3.7,5.2,5,6.9,1.7C149.9,181.5,145.2,178.1,142.1,181.2 M162.3,200.6c-2,2-1.2,5.6,1.3,6.2c4.2,1,6.6-4.8,2.8-6.7
		C164.8,199.2,163.5,199.3,162.3,200.6 M154.8,216.8c1.7,0.9,14.9,14.5,15.2,15.7c0.5,1.9-0.5,2.9-28.3,30.7
		c-27.5,27.4-28.2,28.1-30.2,27.6s-16-15.3-16-16.9c0-1.4,0.4-1.9,28.1-29.5C153.8,214.2,152.3,215.5,154.8,216.8 M183,219.6
		c-2.3,1-3.1,4-1.5,5.9c2.3,2.8,6.3,1.1,6.3-2.6C187.8,220.5,185.2,218.7,183,219.6 M201.5,240.5c-2.9,2.9,0.8,7.6,4.5,5.6
		c3.2-1.7,1.8-6.7-1.9-6.7C202.9,239.4,202.3,239.6,201.5,240.5 M222.5,259.4c-2.5,1.1-3,4.6-1,6.2c1.8,1.4,4.8,0.7,5.7-1.5
		C228.4,261.1,225.4,258.1,222.5,259.4 M97.1,289.3c9.5,9.5,9.3,8.9,5,13.4c-7.7,8.1-8.4,8.1-18.4-2.2c-7.9-8-7.9-8.3-1.5-14.8
		C88.2,279.7,87.3,279.5,97.1,289.3 M34.3,295c-9.3,1.8-16.8,11.2-16.8,21c0.1,19.1,22.3,28.8,36.1,15.8
		C69.4,316.8,55.8,290.9,34.3,295 M305.1,295c-9.2,1.6-17.2,11.4-17.2,21.3c0.1,18.8,23.3,28.5,36.6,15.3
		C339.8,316.4,326.5,291.4,305.1,295 M44.4,304.2c7.7,3.4,10.1,13,5,20c-4.5,6.2-14.2,6.8-19.7,1.2
		C19.4,315.2,31.2,298.3,44.4,304.2 M314.9,304.2c6.6,3,9.7,11.1,6.6,17.4c-4.1,8.4-14.3,10.3-21,4
		C289.9,315.5,301.5,298.1,314.9,304.2"/>
</g>
</svg>
