<svg xmlns="http://www.w3.org/2000/svg" width="24" height="24" fill="none"><path fill="#000" d="M11.875 20.4999c.0833 0 .1792-.0209.2875-.0625.1084-.0416.1958-.0959.2625-.1625l8.425-8.45c.2167-.2167.3791-.4639.4875-.7418.1084-.2776.1625-.5554.1625-.8332 0-.2833-.0541-.5666-.1625-.85s-.2708-.5333-.4875-.75l-4.5-4.5a2.121 2.121 0 0 0-.75-.4875c-.2833-.1083-.5666-.1625-.85-.1625-.2778 0-.5556.0542-.8332.1625-.2779.1083-.5251.2708-.7418.4875l-.45.45 2.025 2.05c.2167.2334.4084.5042.575.8125.1667.3084.25.6459.25 1.0125 0 .6333-.2458 1.1917-.7375 1.675-.4916.4834-1.0541.725-1.6875.725-.4166 0-.7625-.0625-1.0375-.1875-.275-.125-.5266-.3029-.7547-.5335L9.525 8.3249 5 12.8499c-.0833.0833-.1417.1711-.175.2632a.8623.8623 0 0 0-.05.296c0 .2105.0708.3866.2125.5283.1417.1416.3181.2125.5293.2125a.608.608 0 0 0 .2957-.075c.0917-.05.1709-.1084.2375-.175l3.45-3.45 1.05 1.05-3.425 3.425c-.0833.0834-.1416.175-.175.275-.0333.1-.05.2-.05.3 0 .2.075.375.225.525.15.15.325.225.525.225.1 0 .1959-.0208.2875-.0625a.8007.8007 0 0 0 .2375-.1625l3.45-3.45 1.05 1.05-3.425 3.425c-.0666.0667-.1208.1528-.1625.2583a.8583.8583 0 0 0-.0625.3167c0 .2.075.375.225.525.15.15.325.225.525.225.1 0 .1917-.0166.275-.05.0834-.0333.1667-.0916.25-.175l3.45-3.45 1.05 1.05-3.45 3.45c-.0833.0834-.1416.175-.175.275-.0333.1-.05.1916-.05.275 0 .2334.0667.4167.2.55.1334.1333.3167.2.55.2Zm.0015 1.5c-.551 0-1.0432-.2041-1.4765-.6125-.4334-.4083-.6916-.9135-.775-1.5155-.5666-.0814-1.0416-.3136-1.425-.697-.3834-.3834-.6167-.8583-.7-1.425-.5667-.0833-1.0375-.3209-1.4125-.7125s-.6042-.8625-.6875-1.4125c-.6167-.0833-1.125-.3333-1.525-.75-.4-.4166-.6-.9166-.6-1.5 0-.2833.056-.5671.168-.8512a2.2436 2.2436 0 0 1 .482-.7488l5.6-5.6 2.75 2.75c.1333.1334.2777.2375.4332.3125.1557.075.3113.1125.4668.1125.2166 0 .4208-.0958.6125-.2875.1916-.1916.2875-.3971.2875-.6162 0-.0975-.0292-.2088-.0875-.3338s-.1542-.2541-.2875-.3875l-3.575-3.575a2.121 2.121 0 0 0-.75-.4875c-.2834-.1083-.5667-.1625-.85-.1625-.2779 0-.5556.0542-.8333.1625-.2778.1083-.5246.2697-.7402.484L3.15 7.9499c-.2333.2334-.3958.4792-.4875.7375s-.1458.55-.1625.875c-.0167.325.0458.6417.1875.95.1417.3084.3125.5875.5125.8375l-1.075 1.075c-.3333-.3666-.6042-.8084-.8125-1.325C1.1042 10.5832 1 10.0583 1 9.5249c0-.5.0958-.9791.2875-1.4375A3.7373 3.7373 0 0 1 2.1 6.8749l3.775-3.775c.3666-.3667.7816-.6375 1.2448-.8125.4633-.175.9383-.2625 1.425-.2625.4868 0 .9594.0875 1.4177.2625.4583.175.8709.4458 1.2375.8125l.45.45.45-.45c.3666-.3667.7816-.6375 1.2448-.8125.4633-.175.9383-.2625 1.425-.2625.4868 0 .9594.0875 1.4177.2625.4583.175.8709.4458 1.2375.8125l4.475 4.475c.3666.3666.6417.7836.825 1.2507.1833.4674.275.9424.275 1.425 0 .4829-.0917.9534-.275 1.4118-.1834.4583-.4584.8709-.825 1.2375l-8.425 8.425c-.2167.2167-.4628.3834-.7383.5a2.1847 2.1847 0 0 1-.8602.175Z"/></svg>