<svg xmlns="http://www.w3.org/2000/svg" width="1609" height="959" fill="none"><path fill="#000" d="M1231.5 241.5c21.5-10 35.5-9.6 92.5 9 57 18.7 123 42.5 183.4 63.8a167.3 167.3 0 0 1 84 84.1c8.4 18.7 12.6 39 12.6 60.6v334a152 152 0 0 1-12.6 61.4 157.5 157.5 0 0 1-84 84c-18.9 8-39.2 12.1-60.9 12.1H1052c-12.8 0-25-2.5-36.6-7a91.8 91.8 0 0 1-30.6-19.5 81.7 81.7 0 0 1-25.6-58 89.7 89.7 0 0 1 22-62 88.5 88.5 0 0 1-21.6-57.2 89 89 0 0 1 21.4-57.4 85.6 85.6 0 0 1-20.7-57.4 91.8 91.8 0 0 1 21.5-56.7c-114.3 0-219.8 6-251.3-11.7-30.5-22.5-39.5-55-39.5-89 0-34.2 32-64.9 49-77 17-12 46-11.9 58.5-12H1142c23.5-43 68-134 89.5-144Zm57 59c-38.5-15-42.4 13.8-62.5 48.2a793.7 793.7 0 0 0-20 36.8h129.5v64h-.5l-178.7-.9c-2.5.4-5.4.5-8.7.5H777a30.3 30.3 0 0 0-23.2 10 30 30 0 0 0-9.3 21.8c0 8.4 0 14.2 3.2 20.2s13 12.3 17.1 13.5c4.2 1.2 191.6 1.8 195.5 1.8H1084V603h-30.5c-5 0-9.4.9-13.3 2.7-4 1.8-7.4 4-10.4 6.7-5.9 5.4-8.8 12.2-8.8 20.3 0 8 3 14.8 8.8 20.2 3 2.7 6.5 4.7 10.4 6 4 1.4 7.9 2.1 11.8 2.1h32v56.7h-30.5a36.3 36.3 0 0 0-23.7 9.5c-5.9 5.4-8.8 12.1-8.8 20.2s3 14.9 8.8 20.3c3 2.7 6.2 4.7 9.7 6 3.4 1.4 7.6 2.1 12.5 2.1h32v56.7h-32c-5 0-9.3 1-13.3 2.7-4 1.8-7.1 3.8-9.6 6-7 6.4-10.4 13.1-10.4 20.3 0 7.2 3.5 14 10.4 20.3 2.5 2.2 6 4.3 10.4 6 4.4 1.9 8.6 2.8 12.5 2.8l395.2-3c12.9 0 25-2.4 36.4-7.4a95.4 95.4 0 0 0 57.6-86.4V458.3c0-12.8-2.6-25-7.8-36.6a95.3 95.3 0 0 0-49.8-49.8c-64.6-23.2-156.6-56.4-195.1-71.4Z"/><path fill="#000" d="M376.5 6.5C355-3.5 341-3 284 15.5 227 34.2 161 58 100.7 79.3a167.4 167.4 0 0 0-84.1 84C8.2 182.2 4 202.4 4 224v334c0 21.7 4.2 42.2 12.6 61.4a157.7 157.7 0 0 0 84 84c18.9 8 39.2 12.1 61 12.1H556c12.8 0 25-2.5 36.6-7a91.8 91.8 0 0 0 30.7-19.5 81.8 81.8 0 0 0 25.5-58 89.7 89.7 0 0 0-21.9-62 88.4 88.4 0 0 0 21.5-57.2 89 89 0 0 0-21.4-57.4 85.6 85.6 0 0 0 20.7-57.4 91.8 91.8 0 0 0-21.4-56.7c114.2 0 219.7 6 251.2-11.7 30.5-22.5 39.6-55 39.6-89 0-34.2-32-64.9-49-77-17-12-46-11.9-58.6-12H466c-23.5-43-68-134-89.5-144Zm-57 59c38.5-15 42.5 13.8 62.5 48.2a795.2 795.2 0 0 1 20 36.8H272.5v64h.5l178.8-.9c2.5.4 5.3.5 8.6.5H831a30.3 30.3 0 0 1 23.2 10 30 30 0 0 1 9.4 21.8c0 8.4 0 14.2-3.2 20.2-3.3 6-13 12.3-17.2 13.5-4.2 1.2-191.6 1.8-195.5 1.8H524V368h30.5c5 0 9.4.9 13.3 2.7 4 1.8 7.4 4 10.4 6.7 5.9 5.4 8.9 12.2 8.9 20.3 0 8-3 14.8-9 20.2-2.9 2.7-6.3 4.7-10.3 6-4 1.4-7.9 2.1-11.8 2.1h-32v56.7h30.5c4 0 8.1.9 12.5 2.6 4.3 1.7 8 4 11.2 6.9 5.9 5.4 8.9 12.1 8.9 20.2s-3 14.9-9 20.3a31 31 0 0 1-9.5 6c-3.5 1.4-7.7 2-12.6 2h-32v56.8h32c5 0 9.4 1 13.3 2.7 4 1.8 7.2 3.8 9.6 6 7 6.4 10.4 13.1 10.4 20.3 0 7.2-3.5 14-10.4 20.3-2.4 2.2-5.9 4.3-10.3 6a33.5 33.5 0 0 1-12.6 2.8l-395.2-3c-12.8 0-25-2.4-36.4-7.4A95.3 95.3 0 0 1 67 558.8V223.3c0-12.8 2.5-25 7.7-36.6a95.3 95.3 0 0 1 49.8-49.8C189 113.7 281 80.5 319.5 65.5Z"/></svg>