<svg id="svg" xmlns="http://www.w3.org/2000/svg" xmlns:xlink="http://www.w3.org/1999/xlink" width="400" height="390.00000000000006" viewBox="0, 0, 400,390.00000000000006" version="1.1"><g id="svgg"><path id="path0" d="M155.833 28.545 C 143.917 35.072,125.542 45.052,115.000 50.722 C 49.329 86.046,30.312 96.960,29.584 99.744 C 28.943 102.197,33.709 105.399,54.813 116.689 C 69.124 124.346,83.646 132.357,87.083 134.492 L 93.333 138.375 93.333 171.470 L 93.333 204.564 103.638 209.034 C 148.629 228.545,212.602 227.680,255.000 206.985 L 260.833 204.138 261.285 171.360 L 261.736 138.581 272.951 132.403 C 279.120 129.006,286.604 124.764,289.583 122.977 L 295.000 119.728 295.000 143.166 L 295.000 166.603 290.819 167.653 C 288.424 168.254,286.287 170.225,285.818 172.268 C 284.103 179.723,278.333 218.468,278.333 222.524 L 278.333 226.769 298.750 226.301 C 317.993 225.860,319.153 225.642,318.926 222.500 C 317.037 196.397,310.863 169.546,306.389 167.987 L 301.667 166.341 301.667 141.574 L 301.667 116.807 309.583 112.306 C 333.245 98.853,336.461 103.151,279.167 71.669 C 190.077 22.716,182.265 18.459,179.910 17.579 C 178.585 17.083,167.750 22.018,155.833 28.545 M207.321 39.822 C 222.086 47.974,252.167 64.520,274.167 76.592 C 296.167 88.664,314.701 99.066,315.354 99.708 C 316.007 100.350,312.257 103.104,307.021 105.827 C 301.784 108.551,289.840 115.104,280.477 120.389 C 271.115 125.675,263.085 130.000,262.634 130.000 C 262.182 130.000,261.592 124.563,261.323 117.917 L 260.833 105.833 246.635 100.545 C 203.234 84.382,147.336 84.695,105.000 101.339 C 91.903 106.488,91.724 106.722,91.692 118.750 C 91.678 124.021,91.383 128.333,91.036 128.333 C 90.689 128.333,84.127 124.858,76.453 120.611 C 68.779 116.364,57.039 110.077,50.365 106.640 L 38.230 100.392 48.698 94.967 C 54.456 91.984,65.027 86.229,72.189 82.179 C 79.351 78.129,90.601 71.914,97.189 68.369 C 103.777 64.823,124.167 53.636,142.500 43.507 C 182.411 21.458,174.840 21.888,207.321 39.822 M341.190 104.123 L 330.000 126.579 330.000 212.539 C 330.000 286.331,330.360 299.195,332.543 303.416 L 335.086 308.333 321.709 308.333 C 306.671 308.333,306.809 308.442,312.452 301.045 C 329.920 278.142,318.036 236.100,293.093 232.560 C 275.923 230.124,39.167 232.377,39.167 234.977 C 39.167 236.696,41.860 237.842,47.965 238.720 C 83.152 243.784,83.797 306.667,48.662 306.667 C 44.934 306.667,39.941 307.405,37.566 308.308 L 33.248 309.950 33.708 336.225 L 34.167 362.500 208.242 362.924 C 321.496 363.201,382.894 362.772,383.968 361.699 C 386.183 359.484,387.150 315.684,385.071 311.798 C 384.139 310.057,381.600 308.750,379.150 308.750 C 373.356 308.750,372.273 307.267,375.480 303.724 C 377.869 301.084,378.176 291.270,378.288 213.854 L 378.414 126.947 367.656 104.307 C 361.646 91.657,355.902 81.667,354.639 81.667 C 353.397 81.667,347.345 91.772,341.190 104.123 M358.333 101.152 C 358.333 102.368,356.489 103.333,354.167 103.333 C 349.363 103.333,349.340 103.272,352.000 97.434 C 354.085 92.859,358.333 95.353,358.333 101.152 M215.000 99.359 C 221.875 100.757,233.500 103.928,240.833 106.406 L 254.167 110.912 254.610 155.176 L 255.053 199.441 250.782 201.387 C 245.196 203.932,245.000 203.889,245.000 200.136 C 245.000 195.169,243.203 191.667,240.655 191.667 C 238.516 191.667,238.055 193.295,237.599 202.467 C 237.441 205.635,231.434 209.924,227.083 209.975 C 225.801 209.991,225.000 207.711,225.000 204.044 C 225.000 194.776,219.344 196.754,218.654 206.264 C 218.248 211.862,217.496 213.333,215.040 213.333 C 213.335 213.333,210.753 213.789,209.303 214.345 C 207.328 215.103,206.667 214.301,206.667 211.148 C 206.667 199.916,200.472 197.791,199.679 208.750 L 199.167 215.833 191.356 216.337 L 183.545 216.841 183.022 210.504 C 182.669 206.214,181.692 204.167,180.000 204.167 C 178.308 204.167,177.331 206.214,176.978 210.504 L 176.455 216.841 168.644 216.337 L 160.833 215.833 160.321 208.750 C 159.537 197.914,153.333 199.885,153.333 210.970 C 153.333 215.437,150.000 216.185,142.608 213.375 C 138.979 211.995,138.333 210.717,138.333 204.919 C 138.333 195.672,132.772 195.945,131.995 205.231 L 131.489 211.267 124.998 209.620 C 118.896 208.071,118.477 207.559,118.004 201.084 C 117.364 192.342,111.667 189.759,111.667 198.211 C 111.667 203.845,108.036 205.088,102.790 201.250 C 100.208 199.361,99.984 195.045,100.388 155.006 L 100.833 110.845 110.833 107.202 C 142.765 95.567,181.867 92.623,215.000 99.359 M366.633 116.600 C 368.485 120.230,370.000 123.605,370.000 124.100 C 370.000 124.595,363.250 125.000,355.000 125.000 C 338.796 125.000,338.552 124.817,342.809 115.890 C 347.290 106.491,361.695 106.921,366.633 116.600 M371.667 136.556 C 371.667 140.647,370.920 141.531,367.098 141.973 C 360.282 142.759,359.797 148.333,366.544 148.333 C 371.409 148.333,371.667 148.668,371.667 155.000 C 371.667 158.667,371.104 161.578,370.417 161.469 C 365.821 160.744,361.667 162.024,361.667 164.167 C 361.667 165.833,363.333 166.667,366.667 166.667 C 371.389 166.667,371.667 167.037,371.667 173.333 C 371.667 179.665,371.409 180.000,366.544 180.000 C 359.797 180.000,360.282 185.574,367.098 186.361 C 373.969 187.154,373.969 197.846,367.098 198.639 C 360.282 199.426,359.797 205.000,366.544 205.000 C 371.409 205.000,371.667 205.335,371.667 211.667 C 371.667 217.963,371.389 218.333,366.667 218.333 C 363.333 218.333,361.667 219.167,361.667 220.833 C 361.667 223.152,364.557 224.110,369.583 223.458 C 370.951 223.280,371.667 225.502,371.667 229.927 C 371.667 236.304,371.398 236.667,366.667 236.667 C 362.778 236.667,361.667 237.407,361.667 240.000 C 361.667 242.593,362.778 243.333,366.667 243.333 C 373.970 243.333,374.371 254.466,367.098 255.306 C 360.282 256.093,359.797 261.667,366.544 261.667 C 371.125 261.667,371.667 262.196,371.667 266.667 L 371.667 271.667 354.167 271.667 L 336.667 271.667 336.667 201.667 L 336.667 131.667 354.167 131.667 L 371.667 131.667 371.667 136.556 M305.035 174.583 C 305.054 175.271,306.553 184.833,308.367 195.833 C 310.182 206.833,311.666 216.771,311.666 217.917 C 311.667 219.410,307.889 220.000,298.333 220.000 C 291.000 220.000,285.000 219.521,285.000 218.935 C 285.000 216.824,291.783 177.451,292.497 175.417 C 293.269 173.218,304.975 172.440,305.035 174.583 M90.000 245.122 C 90.000 254.535,95.571 253.978,96.356 244.486 L 96.878 238.166 105.522 238.667 L 114.167 239.167 114.684 245.417 C 115.011 249.368,116.047 251.667,117.500 251.667 C 118.953 251.667,119.989 249.368,120.316 245.417 L 120.833 239.167 129.478 238.667 L 138.122 238.166 138.644 244.486 C 139.429 253.978,145.000 254.535,145.000 245.122 L 145.000 238.333 154.066 238.333 L 163.132 238.333 163.649 244.569 C 164.431 253.992,170.000 254.476,170.000 245.122 L 170.000 238.333 179.167 238.333 L 188.333 238.333 188.333 245.122 C 188.333 254.476,193.902 253.992,194.684 244.569 L 195.201 238.333 204.267 238.333 L 213.333 238.333 213.333 245.122 C 213.333 254.535,218.905 253.978,219.689 244.486 L 220.211 238.166 228.856 238.667 C 236.767 239.124,237.517 239.520,237.706 243.333 C 238.086 251.014,238.323 251.667,240.733 251.667 C 242.302 251.667,243.311 249.505,243.649 245.417 L 244.167 239.167 252.811 238.667 L 261.456 238.166 261.978 244.486 C 262.762 253.978,268.333 254.535,268.333 245.122 L 268.333 238.333 276.667 238.333 L 285.000 238.333 285.000 260.000 L 285.000 281.667 275.833 281.667 C 268.796 281.667,266.667 282.247,266.667 284.167 C 266.667 286.086,268.796 286.667,275.833 286.667 L 285.000 286.667 285.000 296.667 L 285.000 306.667 176.582 306.667 L 68.164 306.667 72.593 300.860 L 77.022 295.053 122.239 294.610 C 163.774 294.203,167.501 293.929,168.017 291.250 C 168.540 288.531,165.571 288.333,124.289 288.333 C 89.959 288.333,80.004 287.865,80.018 286.250 C 80.028 285.104,80.502 281.354,81.070 277.917 L 82.103 271.667 91.174 271.667 C 104.612 271.667,103.477 266.064,89.893 265.343 L 80.652 264.853 78.691 257.520 C 77.612 253.487,74.388 247.521,71.526 244.261 L 66.321 238.333 78.161 238.333 L 90.000 238.333 90.000 245.122 M304.171 245.504 C 317.943 259.276,317.879 287.010,304.043 300.846 C 292.293 312.596,291.667 311.205,291.667 273.333 C 291.667 235.553,292.458 233.792,304.171 245.504 M365.417 279.988 L 371.667 280.000 371.667 290.575 C 371.667 304.768,368.926 307.380,354.550 306.891 C 340.424 306.410,336.667 302.440,336.667 287.999 L 336.667 277.851 347.917 278.914 C 354.104 279.498,361.979 279.982,365.417 279.988 M184.490 282.732 C 181.521 285.702,187.189 286.667,207.598 286.667 C 226.400 286.667,230.000 286.265,230.000 284.167 C 230.000 281.575,187.002 280.220,184.490 282.732 M378.220 316.008 C 378.616 316.399,378.991 325.519,379.054 336.276 L 379.167 355.833 368.855 356.327 L 358.544 356.820 358.022 350.493 C 357.305 341.806,352.700 341.747,351.983 350.417 L 351.465 356.667 341.667 356.667 L 331.868 356.667 331.351 350.417 C 331.002 346.202,330.019 344.167,328.333 344.167 C 326.648 344.167,325.665 346.202,325.316 350.417 L 324.799 356.667 315.000 356.667 L 305.201 356.667 304.684 350.417 C 304.335 346.202,303.352 344.167,301.667 344.167 C 299.981 344.167,298.998 346.202,298.649 350.417 L 298.132 356.667 288.333 356.667 L 278.535 356.667 278.017 350.417 C 277.668 346.202,276.686 344.167,275.000 344.167 C 273.314 344.167,272.332 346.202,271.983 350.417 L 271.465 356.667 261.667 356.667 L 251.868 356.667 251.351 350.417 C 251.002 346.202,250.019 344.167,248.333 344.167 C 246.648 344.167,245.665 346.202,245.316 350.417 L 244.799 356.667 235.000 356.667 L 225.201 356.667 224.684 350.417 C 224.335 346.202,223.352 344.167,221.667 344.167 C 219.981 344.167,218.998 346.202,218.649 350.417 L 218.132 356.667 208.333 356.667 L 198.535 356.667 198.017 350.417 C 197.668 346.202,196.686 344.167,195.000 344.167 C 193.314 344.167,192.332 346.202,191.983 350.417 L 191.465 356.667 181.667 356.667 L 171.868 356.667 171.351 350.417 C 171.002 346.202,170.019 344.167,168.333 344.167 C 166.648 344.167,165.665 346.202,165.316 350.417 L 164.799 356.667 155.000 356.667 L 145.201 356.667 144.684 350.417 C 144.335 346.202,143.352 344.167,141.667 344.167 C 139.981 344.167,138.998 346.202,138.649 350.417 L 138.132 356.667 128.333 356.667 L 118.535 356.667 118.017 350.417 C 117.668 346.202,116.686 344.167,115.000 344.167 C 113.314 344.167,112.332 346.202,111.983 350.417 L 111.465 356.667 101.667 356.667 L 91.868 356.667 91.351 350.417 C 91.002 346.202,90.019 344.167,88.333 344.167 C 86.648 344.167,85.665 346.202,85.316 350.417 L 84.799 356.667 75.000 356.667 L 65.201 356.667 64.684 350.417 C 64.335 346.202,63.352 344.167,61.667 344.167 C 59.981 344.167,58.998 346.202,58.649 350.417 L 58.132 356.667 49.066 356.667 L 40.000 356.667 40.000 335.844 L 40.000 315.020 169.583 314.476 C 295.161 313.948,376.740 314.547,378.220 316.008 " stroke="none" fill="#000000" fill-rule="evenodd"></path></g></svg>