<?xml version="1.0" encoding="utf-8"?>
<!-- Generator: Adobe Illustrator 25.4.0, SVG Export Plug-In . SVG Version: 6.00 Build 0)  -->
<svg version="1.1" id="svg" xmlns="http://www.w3.org/2000/svg" xmlns:xlink="http://www.w3.org/1999/xlink" x="0px" y="0px"
	 viewBox="0 0 400 390" style="enable-background:new 0 0 400 390;" xml:space="preserve">
<style type="text/css">
	.st0{fill-rule:evenodd;clip-rule:evenodd;}
</style>
<g id="svgg">
	<path id="path0" class="st0" d="M142.8,15.4c-13.3,7.3-33.9,18.5-45.7,24.8C23.7,79.7,2.4,91.9,1.6,95c-0.7,2.7,4.6,6.3,28.2,18.9
		c16,8.6,32.2,17.5,36.1,19.9l7,4.3v37v37l11.5,5c50.3,21.8,121.8,20.8,169.2-2.3l6.5-3.2l0.5-36.6l0.5-36.7l12.5-6.9
		c6.9-3.8,15.3-8.5,18.6-10.5l6.1-3.6v26.2v26.2l-4.7,1.2c-2.7,0.7-5.1,2.9-5.6,5.2c-1.9,8.3-8.4,51.7-8.4,56.2v4.7l22.8-0.5
		c21.5-0.5,22.8-0.7,22.6-4.2c-2.1-29.2-9-59.2-14-61l-5.3-1.8v-27.7v-27.7l8.9-5c26.5-15,30.1-10.2-34-45.4
		C181,8.9,172.3,4.1,169.7,3.1C168.2,2.6,156.1,8.1,142.8,15.4 M200.3,28c16.5,9.1,50.1,27.6,74.7,41.1
		c24.6,13.5,45.3,25.1,46.1,25.8c0.7,0.7-3.5,3.8-9.3,6.8c-5.9,3-19.2,10.4-29.7,16.3c-10.5,5.9-19.4,10.7-20,10.7
		c-0.5,0-1.2-6.1-1.5-13.5l-0.5-13.5l-15.9-5.9c-48.5-18.1-111-17.7-158.4,0.9c-14.6,5.8-14.8,6-14.9,19.5c0,5.9-0.3,10.7-0.7,10.7
		c-0.4,0-7.7-3.9-16.3-8.6c-8.6-4.7-21.7-11.8-29.2-15.6l-13.6-7L23,89.6c6.4-3.3,18.3-9.8,26.3-14.3c8-4.5,20.6-11.5,28-15.4
		c7.4-4,30.2-16.5,50.7-27.8C172.5,7.4,164,7.9,200.3,28 M350,99.9L337.5,125v96.1c0,82.5,0.4,96.9,2.8,101.6l2.8,5.5h-15
		c-16.8,0-16.7,0.1-10.4-8.1c19.5-25.6,6.2-72.6-21.6-76.6c-19.2-2.7-283.9-0.2-283.9,2.7c0,1.9,3,3.2,9.8,4.2
		c39.3,5.7,40.1,76,0.8,76c-4.2,0-16.3,0-16.3,0l0.1,62.4l194.6,0.5c126.6,0.3,184.8,0.7,197.8,0.1c0.2-23.4,0.1-44.2,0.1-60.6
		c-4.5,0-3-0.1-5.7,0c-1.2,0-8.3-0.2-8.3-0.2s2.6-3.4,3.6-5.1c1.5-2.9,2.5-14.3,2.6-100.8l0.1-97.2l-12-25.3
		c-6.7-14.1-13.1-25.3-14.6-25.3C363.6,74.8,356.9,86.1,350,99.9 M369.7,97.9c0,1.4-2.6,1.1-5.2,1.1c-5.4,0-5.4-0.1-2.4-6.6
		c2.3-5.1,4.9-4.6,6.9,2 M208.9,94.5c7.7,1.6,20.7,5.1,28.9,7.9l14.9,5l0.5,49.5l0.5,49.5l-4.8,2.2c-6.2,2.8-6.5,2.8-6.5-1.4
		c0-5.6-2-9.5-4.9-9.5c-2.4,0-2.9,1.8-3.4,12.1c-0.2,3.5-6.9,8.3-11.8,8.4c-1.4,0-2.3-2.5-2.3-6.6c0-10.4-6.3-8.2-7.1,2.5
		c-0.5,6.3-1.4,7-4,7.9c-2,0.7-3.1,0.9-6,1.4c-3.5,1-3.4-0.3-3.4-3.9c0-12.6-6.9-14.9-7.8-2.7l-0.6,7.9l-8.7,0.6l-8.7,0.6l-0.6-7.1
		c-0.4-4.8-1.5-7.1-3.4-7.1s-3,2.3-3.4,7.1l-0.6,7.1l-8.7-0.6l-8.7-0.6l-0.6-7.9c-0.9-12.1-7.8-9.9-7.8,2.5c0,5-3.7,5.8-12,2.7
		c-4.1-1.5-4.8-3-4.8-9.5c0-10.3-6.2-10-7.1,0.3l-0.6,6.7l-7.3-1.8c-6.8-1.7-7.3-2.3-7.8-9.5c-0.7-9.8-7.1-12.7-7.1-3.2
		c0,6.3-4.1,7.7-9.9,3.4c-2.9-2.1-3.1-6.9-2.7-51.7l0.5-49.4l11.2-4.1C128.1,90.3,171.9,87,208.9,94.5 M378.4,113.8
		c2.1,4.1,3.4,6.1,2.3,7.5c-1.8,2.2-6.1,1.9-15.3,1.9c-18.1,0-18.4-0.2-13.6-10.2C356.8,102.5,372.9,103,378.4,113.8 M384.1,136.1
		c0,4.6-0.8,5.6-5.1,6.1c-7.6,0.9-8.2,7.1-0.6,7.1c5.4,0,5.7,0.4,5.7,7.5c0,4.1-0.6,7.4-1.4,7.2c-5.1-0.8-9.8,0.6-9.8,3
		c0,1.9,1.9,2.8,5.6,2.8c5.3,0,5.6,0.4,5.6,7.5c0,7.1-0.3,7.5-5.7,7.5c-7.5,0-7,6.2,0.6,7.1c7.7,0.9,7.7,12.8,0,13.7
		c-7.6,0.9-8.2,7.1-0.6,7.1c5.4,0,5.7,0.4,5.7,7.5c0,7-0.3,7.5-5.6,7.5c-3.7,0-5.6,0.9-5.6,2.8c0,2.6,3.2,3.7,8.9,2.9
		c1.5-0.2,2.3,2.3,2.3,7.2c0,7.1-0.3,7.5-5.6,7.5c-4.3,0-5.6,0.8-5.6,3.7c0,2.9,1.2,3.7,5.6,3.7c8.2,0,8.6,12.4,0.5,13.4
		c-7.6,0.9-8.2,7.1-0.6,7.1c5.1,0,5.7,0.6,5.7,5.6v5.6h-19.6h-19.6v-78.3v-78.3h19.6h19.6V136.1 M309.6,178.7
		c0,0.8,1.7,11.5,3.7,23.8c2,12.3,3.7,23.4,3.7,24.7c0,1.7-4.2,2.3-14.9,2.3c-8.2,0-14.9-0.5-14.9-1.2c0-2.4,7.6-46.4,8.4-48.7
		C296.4,177.1,309.5,176.3,309.6,178.7 M69.1,257.5c0,10.5,6.2,9.9,7.1-0.7l0.5-6.4l19.4,0.4l0.6,7c0.4,4.4,1.5,7,3.1,7
		c1.6,0,2.8-2.6,3.1-7l0.6-7l19.3-1.1l0.6,7.1c0.9,10.6,7.1,11.2,7.1,0.7v-7.6h20.3l0.6,7c0.9,10.5,7.1,11.1,7.1,0.6v-7.6h20.5v7.6
		c0,10.5,6.2,9.9,7.1-0.6l0.6-7H207v7.6c0,10.5,6.2,9.9,7.1-0.7l0.6-7.1l9.7,0.6c8.8,0.5,9.7,1,9.9,5.2c0.4,8.6,0.7,9.3,3.4,9.3
		c1.8,0,2.9-2.4,3.3-7l0.6-7l19.3-1.1l0.6,7.1c0.9,10.6,7.1,11.2,7.1,0.7v-7.6h18.6v24.2v24.2h-10.2c-7.9,0-10.2,0.6-10.2,2.8
		c0,2.1,2.4,2.8,10.2,2.8h10.2v11.2v11.2H166H44.7l5-6.5l5-6.5l50.6-0.5c46.4-0.5,50.6-0.8,51.2-3.8c0.6-3-2.7-3.3-48.9-3.3
		c-38.4,0-49.5-0.5-49.5-2.3c0-1.3,0.5-5.5,1.2-9.3l1.2-7h10.1c15,0,13.8-6.3-1.4-7.1l-10.3-0.5l-2.2-8.2c-1.2-4.5-4.8-11.2-8-14.8
		l-5.8-6.6h13.2h13.2V257.5 M308.6,258c15.4,15.4,15.3,46.4-0.1,61.9c-13.1,13.1-13.8,11.6-13.8-30.8
		C294.6,246.8,295.5,244.9,308.6,258 M377.1,296.5l7,0v11.8c0,15.9-3.1,18.8-19.1,18.2c-15.8-0.5-20-5-20-21.1v-11.3l12.6,1.2
		C364.4,296,373.2,296.5,377.1,296.5 M174.8,299.6c-3.3,3.3,3,4.4,25.8,4.4c21,0,25-0.4,25-2.8C225.7,298.3,177.6,296.8,174.8,299.6
		 M392.4,335.1c0.4,0.4,0,47.3,0,47.3h-23.1l-0.6-7.1c-0.8-9.7-6-9.8-6.8-0.1l-0.6,7h-21.9l-0.6-7c-0.4-4.7-1.5-7-3.4-7
		c-1.9,0-3,2.3-3.4,7l-0.6,7h-21.9l-0.6-7c-0.4-4.7-1.5-7-3.4-7c-1.9,0-3,2.3-3.4,7l-0.6,7h-21.9l-0.6-7c-0.4-4.7-1.5-7-3.4-7
		c-1.9,0-3,2.3-3.4,7l-0.6,7h-21.9l-0.6-7c-0.4-4.7-1.5-7-3.4-7c-1.9,0-3,2.3-3.4,7l-0.6,7h-21.9l-0.6-7c-0.4-4.7-1.5-7-3.4-7
		c-1.9,0-3,2.3-3.4,7l-0.6,7h-21.9l-0.6-7c-0.4-4.7-1.5-7-3.4-7c-1.9,0-3,2.3-3.4,7l-0.6,7h-21.9l-0.6-7c-0.4-4.7-1.5-7-3.4-7
		c-1.9,0-3,2.3-3.4,7l-0.6,7h-21.9l-0.6-7c-0.4-4.7-1.5-7-3.4-7c-1.9,0-3,2.3-3.4,7l-0.6,7h-21.9l-0.6-7c-0.4-4.7-1.5-7-3.4-7
		c-1.9,0-3,2.3-3.4,7l-0.6,7H71.2l-0.6-7c-0.4-4.7-1.5-7-3.4-7c-1.9,0-3,2.3-3.4,7l-0.6,7H41.4l-0.6-7c-0.4-4.7-1.5-7-3.4-7
		c-1.9,0-3,2.3-3.4,7l-0.6,7H13.2v-46.6l144.9-0.6C298.5,334.5,392.4,335.1,392.4,335.1z"/>
</g>
</svg>
