<?xml version="1.0" encoding="utf-8"?>
<!-- Generator: Adobe Illustrator 25.4.0, SVG Export Plug-In . SVG Version: 6.00 Build 0)  -->
<svg version="1.1" id="icon" xmlns="http://www.w3.org/2000/svg" xmlns:xlink="http://www.w3.org/1999/xlink" x="0px" y="0px"
	 viewBox="0 0 32 32" style="enable-background:new 0 0 32 32;" xml:space="preserve">
<style type="text/css">
	.st0{stroke:#000000;stroke-width:0.75;stroke-miterlimit:10;}
	.st1{fill:none;}
</style>
<polygon class="st0" points="30,25 28.6,23.6 26,26.2 26,18 24,18 24,26.2 21.4,23.6 20,25 25,30 "/>
<path class="st0" d="M18,28H8V4h8v6c0,1.1,0.9,2,2,2h6v3h2v-5c0-0.3-0.1-0.5-0.3-0.7l-7-7C18.5,2.1,18.3,2,18,2H8C6.9,2,6,2.9,6,4
	v24c0,1.1,0.9,2,2,2h10V28z M18,4.4l5.6,5.6H18V4.4z"/>
<rect id="_Transparent_Rectangle_" class="st1" width="32" height="32"/>
</svg>
