<svg id="svg" version="1.1" xmlns="http://www.w3.org/2000/svg" xmlns:xlink="http://www.w3.org/1999/xlink" width="400" height="511.9476268412439" viewBox="0, 0, 400,511.9476268412439"><g id="svgg"><path id="path0" d="M220.734 14.431 C 213.819 15.722,211.747 23.876,217.200 28.344 C 222.358 32.571,220.931 40.471,214.581 42.847 C 212.758 43.529,212.454 43.535,181.084 43.535 C 145.306 43.536,142.725 43.664,130.933 46.022 C 77.907 56.626,36.222 99.025,26.693 152.046 C 23.837 167.935,23.889 184.479,26.860 205.892 C 28.351 216.636,31.618 231.553,32.790 232.965 C 33.047 233.275,32.859 233.611,32.050 234.285 C 18.900 245.229,14.528 262.345,19.113 284.943 C 28.161 329.550,38.508 349.962,54.854 355.455 L 57.735 356.423 59.327 360.945 C 60.204 363.432,62.452 370.622,64.324 376.923 C 81.944 436.236,103.496 469.206,137.306 488.565 C 170.762 507.722,218.847 508.577,253.686 490.635 C 288.254 472.833,312.060 438.461,329.497 381.178 C 331.196 375.597,333.656 367.802,334.963 363.855 L 337.340 356.678 340.609 355.017 C 354.722 347.841,367.663 330.638,377.194 306.383 C 388.697 277.106,388.903 257.538,377.822 246.587 L 375.893 244.681 376.301 243.372 C 376.526 242.651,376.723 241.399,376.739 240.589 C 376.758 239.667,376.872 239.277,377.042 239.547 C 377.527 240.312,380.037 227.544,381.310 217.840 C 385.567 185.369,383.172 162.094,373.094 137.971 C 363.425 114.829,345.816 93.124,325.951 79.864 L 323.752 78.396 323.742 75.247 C 323.689 59.016,312.754 45.772,296.727 42.525 C 289.510 41.062,284.957 43.429,284.240 49.017 C 283.245 56.756,275.217 56.034,273.185 48.024 C 269.147 32.105,256.196 19.274,239.887 15.032 C 236.962 14.271,223.804 13.859,220.734 14.431 M239.797 31.154 C 248.646 34.321,255.825 42.478,258.257 52.128 C 258.746 54.068,259.243 55.751,259.361 55.869 C 259.478 55.987,259.575 56.463,259.577 56.929 C 259.579 57.885,259.972 58.517,262.520 61.668 C 271.520 72.793,288.377 72.247,296.170 60.577 L 297.453 58.656 299.425 59.767 C 305.823 63.373,309.316 70.874,307.916 78.000 C 306.528 85.064,307.024 85.956,315.393 91.432 C 347.866 112.679,368.080 150.273,367.951 189.177 C 367.892 207.089,364.087 233.332,360.073 243.515 C 357.913 248.996,358.885 252.369,363.397 255.049 C 371.045 259.592,372.497 268.073,368.370 284.089 C 360.909 313.041,343.134 340.197,330.115 342.531 C 326.857 343.115,324.469 345.313,323.587 348.538 C 323.306 349.567,322.051 353.502,320.799 357.283 C 319.547 361.064,317.398 367.913,316.023 372.504 C 302.034 419.215,287.681 445.061,264.812 464.720 C 230.877 493.892,173.245 496.090,136.357 469.620 C 110.270 450.900,94.095 423.280,78.716 371.195 C 76.989 365.344,75.127 359.304,74.580 357.774 C 74.033 356.244,72.921 353.003,72.110 350.573 C 69.616 343.100,68.494 341.973,62.972 341.403 C 51.418 340.211,43.145 323.716,35.055 285.737 C 30.328 263.548,33.402 250.322,44.534 244.954 C 49.347 242.633,51.184 238.821,49.556 234.534 C 42.031 214.727,38.216 182.571,40.905 161.626 C 47.266 112.086,84.202 71.899,133.061 61.358 C 143.474 59.111,142.586 59.156,181.506 58.946 L 216.858 58.756 219.714 57.533 C 231.584 52.452,237.629 42.146,235.466 30.674 C 235.261 29.588,235.496 29.614,239.797 31.154 M169.885 149.057 C 163.505 150.544,158.636 153.490,153.758 158.817 C 144.468 168.961,131.467 170.776,116.567 164.007 C 108.723 160.444,106.677 159.933,100.164 159.916 C 86.940 159.880,76.523 167.503,72.223 180.365 C 70.836 184.512,62.759 224.130,62.931 225.939 C 63.497 231.893,70.974 234.787,75.641 230.860 C 77.457 229.332,77.830 227.978,82.013 207.755 C 87.275 182.310,87.118 182.852,90.205 179.419 C 94.933 174.161,100.827 173.832,110.634 178.280 C 131.015 187.522,150.294 184.510,164.648 169.841 C 170.201 164.167,173.913 162.864,179.595 164.594 C 184.616 166.123,185.504 166.898,195.979 178.887 C 206.889 191.374,209.738 193.937,216.181 197.063 C 227.842 202.721,237.820 201.120,246.825 192.146 C 254.254 184.743,261.332 182.283,268.181 184.724 C 280.189 189.004,296.546 185.883,307.601 177.202 C 311.970 173.772,313.075 173.499,314.886 175.402 C 317.557 178.210,318.050 180.011,321.301 198.831 C 324.365 216.564,324.543 217.264,326.491 219.158 C 331.542 224.071,340.021 219.964,339.331 212.938 C 339.030 209.880,334.023 181.508,333.253 178.502 C 330.254 166.790,322.427 158.873,313.912 158.939 C 307.144 158.991,304.577 159.966,298.363 164.844 C 291.165 170.496,279.927 172.672,272.340 169.883 L 269.231 168.740 263.175 168.757 C 251.923 168.790,242.515 173.158,237.855 180.513 C 237.288 181.407,236.457 182.325,236.007 182.552 C 226.417 187.400,222.215 185.352,207.702 168.753 C 196.774 156.255,194.970 154.603,188.968 151.596 C 183.864 149.039,175.013 147.862,169.885 149.057 M88.543 237.988 C 74.444 238.690,61.875 240.251,59.751 241.563 C 54.590 244.753,53.771 255.242,58.248 260.814 C 59.909 262.880,60.457 266.040,60.730 275.123 C 61.885 313.563,72.357 329.222,99.345 332.864 C 120.509 335.720,145.055 334.722,159.296 330.426 C 175.186 325.633,181.509 317.677,187.407 295.057 C 189.821 285.797,191.479 280.098,191.979 279.334 C 192.713 278.213,210.109 277.789,211.227 278.864 C 211.712 279.330,213.110 283.900,215.086 291.478 C 221.663 316.701,226.765 324.140,241.085 329.388 C 259.994 336.318,299.751 336.294,317.522 329.342 C 333.406 323.128,340.903 308.807,342.391 281.833 C 343.396 263.609,343.538 262.576,345.277 260.779 C 350.350 255.536,348.461 242.552,342.388 240.916 C 332.323 238.206,283.525 236.507,266.612 238.278 C 251.481 239.863,241.637 242.357,233.879 246.572 C 228.507 249.491,224.828 251.137,221.604 252.065 C 205.700 256.641,184.493 255.025,172.916 248.355 C 162.969 242.625,153.774 240.045,136.989 238.276 C 132.560 237.809,96.444 237.594,88.543 237.988 M115.238 253.658 C 138.299 253.638,156.739 257.026,165.931 262.972 C 176.041 269.512,177.072 277.931,170.365 299.182 C 165.655 314.108,159.212 317.571,133.224 319.146 C 103.404 320.953,87.439 316.918,82.075 306.219 C 76.385 294.870,75.139 261.442,80.282 258.131 C 82.854 256.475,96.409 254.100,103.928 253.987 C 105.008 253.971,105.708 253.884,105.483 253.793 C 104.612 253.441,105.128 253.089,106.105 253.369 C 106.672 253.532,110.782 253.662,115.238 253.658 M300.430 254.019 C 304.651 254.315,312.194 255.125,314.075 255.484 C 322.846 257.161,324.168 257.893,325.354 261.734 C 327.765 269.539,325.900 295.775,322.332 304.255 C 317.107 316.673,301.889 321.036,270.376 319.150 C 241.044 317.395,236.822 314.320,230.621 290.193 C 224.407 266.021,234.925 257.350,274.468 254.046 C 279.258 253.646,294.868 253.630,300.430 254.019 M159.411 405.591 C 153.019 408.484,152.942 414.806,159.229 420.397 C 181.705 440.384,214.255 442.249,238.608 424.947 C 249.004 417.560,251.611 411.342,246.195 406.853 C 242.484 403.778,239.106 404.334,233.969 408.868 C 214.892 425.704,188.149 425.480,168.877 408.323 C 165.064 404.928,162.506 404.190,159.411 405.591 " stroke="none" fill="#000000" fill-rule="evenodd"></path></g></svg>