<?xml version="1.0" encoding="utf-8"?>
<!-- Generator: Adobe Illustrator 25.4.0, SVG Export Plug-In . SVG Version: 6.00 Build 0)  -->
<svg version="1.2" baseProfile="tiny" id="svg" xmlns="http://www.w3.org/2000/svg" xmlns:xlink="http://www.w3.org/1999/xlink"
	 x="0px" y="0px" viewBox="0 0 400 511.9" overflow="visible" xml:space="preserve">
<g id="svgg" transform="matrix(1, 0, 0, 1, 65.959167, -0.350846)">
	<path id="path0" fill-rule="evenodd" d="M114.6,70.7c5.2,1,6.8,7.2,2.7,10.5c-3.9,3.2-2.8,9.2,2,11c1.4,0.5,1.6,0.5,25.4,0.5
		c27.1,0,29.1,0.1,38,1.9c40.2,8,71.8,40.2,79,80.3c2.2,12,2.1,24.6-0.1,40.8c-1.1,8.1-3.6,19.4-4.5,20.5c-0.2,0.2-0.1,0.5,0.6,1
		c10,8.3,13.3,21.3,9.8,38.4c-6.9,33.8-14.7,49.3-27.1,53.4l-2.2,0.7l-1.2,3.4c-0.7,1.9-2.4,7.3-3.8,12.1
		c-13.4,44.9-29.7,69.9-55.3,84.6c-25.3,14.5-61.8,15.2-88.2,1.6c-26.2-13.5-44.2-39.5-57.4-82.9c-1.3-4.2-3.2-10.1-4.1-13.1
		l-1.8-5.4l-2.5-1.3C13.1,323.4,3.3,310.3-4,291.9c-8.7-22.2-8.9-37-0.5-45.3l1.5-1.4l-0.3-1c-0.2-0.5-0.3-1.5-0.3-2.1
		c0-0.7-0.1-1-0.2-0.8c-0.4,0.6-2.3-9.1-3.2-16.4c-3.2-24.6-1.4-42.2,6.2-60.5c7.3-17.5,20.7-34,35.7-44l1.7-1.1l0-2.4
		c0-12.3,8.3-22.3,20.5-24.8c5.5-1.1,8.9,0.7,9.5,4.9c0.8,5.9,6.8,5.3,8.4-0.8c3.1-12.1,12.9-21.8,25.2-25
		C102.3,70.6,112.3,70.3,114.6,70.7 M100.1,83.4c-6.7,2.4-12.1,8.6-14,15.9c-0.4,1.5-0.7,2.7-0.8,2.8c-0.1,0.1-0.2,0.5-0.2,0.8
		c0,0.7-0.3,1.2-2.2,3.6c-6.8,8.4-19.6,8-25.5-0.8l-1-1.5l-1.5,0.8c-4.8,2.7-7.5,8.4-6.4,13.8c1.1,5.4,0.7,6-5.7,10.2
		C18.3,145.2,2.9,173.7,3,203.1c0,13.6,2.9,33.5,6,41.2c1.6,4.2,0.9,6.7-2.5,8.7c-5.8,3.4-6.9,9.9-3.8,22
		c5.7,21.9,19.1,42.5,29,44.3c2.5,0.4,4.3,2.1,4.9,4.6c0.2,0.8,1.2,3.8,2.1,6.6c0.9,2.9,2.6,8.1,3.6,11.5
		c10.6,35.4,21.5,55,38.8,69.9c25.7,22.1,69.4,23.8,97.3,3.7c19.8-14.2,32-35.1,43.7-74.6c1.3-4.4,2.7-9,3.1-10.2s1.3-3.6,1.9-5.5
		c1.9-5.7,2.7-6.5,6.9-6.9c8.8-0.9,15-13.4,21.2-42.2c3.6-16.8,1.3-26.8-7.2-30.9c-3.6-1.8-5-4.6-3.8-7.9c5.7-15,8.6-39.4,6.6-55.2
		c-4.8-37.5-32.8-68-69.8-76c-7.9-1.7-7.2-1.7-36.7-1.8l-26.8-0.1l-2.2-0.9c-9-3.8-13.6-11.7-11.9-20.4
		C103.6,82.2,103.4,82.2,100.1,83.4 M153.1,172.7c4.8,1.1,8.5,3.4,12.2,7.4c7,7.7,16.9,9.1,28.2,3.9c5.9-2.7,7.5-3.1,12.4-3.1
		c10,0,17.9,5.7,21.2,15.5c1.1,3.1,7.2,33.2,7,34.5c-0.4,4.5-6.1,6.7-9.6,3.7c-1.4-1.2-1.7-2.2-4.8-17.5c-4-19.3-3.9-18.9-6.2-21.5
		c-3.6-4-8-4.2-15.5-0.9c-15.4,7-30,4.7-40.9-6.4c-4.2-4.3-7-5.3-11.3-4c-3.8,1.2-4.5,1.7-12.4,10.8c-8.3,9.5-10.4,11.4-15.3,13.8
		c-8.8,4.3-16.4,3.1-23.2-3.7c-5.6-5.6-11-7.5-16.2-5.6c-9.1,3.2-21.5,0.9-29.9-5.7c-3.3-2.6-4.1-2.8-5.5-1.4
		c-2,2.1-2.4,3.5-4.9,17.8c-2.3,13.4-2.5,14-3.9,15.4c-3.8,3.7-10.3,0.6-9.7-4.7c0.2-2.3,4-23.8,4.6-26.1
		c2.3-8.9,8.2-14.9,14.7-14.8c5.1,0,7.1,0.8,11.8,4.5c5.5,4.3,14,5.9,19.7,3.8l2.4-0.9l4.6,0c8.5,0,15.7,3.3,19.2,8.9
		c0.4,0.7,1.1,1.4,1.4,1.5c7.3,3.7,10.4,2.1,21.4-10.5c8.3-9.5,9.6-10.7,14.2-13C142.5,172.7,149.2,171.8,153.1,172.7 M214.7,240.1
		c10.7,0.5,20.2,1.7,21.8,2.7c3.9,2.4,4.5,10.4,1.1,14.6c-1.3,1.6-1.7,4-1.9,10.8c-0.9,29.1-8.8,41-29.3,43.7
		c-16,2.2-34.6,1.4-45.4-1.8c-12-3.6-16.8-9.7-21.3-26.8c-1.8-7-3.1-11.3-3.5-11.9c-0.6-0.8-13.7-1.2-14.6-0.4
		c-0.4,0.4-1.4,3.8-2.9,9.6c-5,19.1-8.8,24.7-19.7,28.7c-14.3,5.3-44.4,5.2-57.9,0c-12-4.7-17.7-15.6-18.8-36
		c-0.8-13.8-0.9-14.6-2.2-16c-3.8-4-2.4-13.8,2.2-15c7.6-2.1,44.6-3.3,57.4-2c11.5,1.2,18.9,3.1,24.8,6.3c4.1,2.2,6.9,3.5,9.3,4.2
		c12.1,3.5,28.1,2.2,36.9-2.8c7.5-4.3,14.5-6.3,27.2-7.6C181.4,240,208.8,239.8,214.7,240.1 M194.5,252c-17.5,0-31.4,2.6-38.4,7.1
		c-7.7,5-8.4,11.3-3.4,27.4c3.6,11.3,8.5,13.9,28.1,15.1c22.6,1.4,34.7-1.7,38.8-9.8c4.3-8.6,5.3-33.9,1.4-36.4
		c-1.9-1.3-12.2-3.1-17.9-3.1c-0.8,0-1.3-0.1-1.2-0.1c0.7-0.3,0.3-0.5-0.5-0.3C201,251.9,197.9,252,194.5,252 M54.2,252.3
		c-3.2,0.2-8.9,0.8-10.3,1.1c-6.6,1.3-7.6,1.8-8.5,4.7c-1.8,5.9-0.4,25.8,2.3,32.2c4,9.4,15.5,12.7,39.4,11.3
		c22.2-1.3,25.4-3.7,30.1-21.9c4.7-18.3-3.3-24.9-33.2-27.4C70.2,252,58.4,252,54.2,252.3 M161.1,367.1c4.8,2.2,4.9,7,0.1,11.2
		c-17,15.1-41.7,16.6-60.1,3.4c-7.9-5.6-9.9-10.3-5.7-13.7c2.8-2.3,5.4-1.9,9.3,1.5c14.5,12.8,34.7,12.6,49.3-0.4
		C156.8,366.6,158.7,366.1,161.1,367.1"/>
</g>
</svg>
