<svg version="1.2" baseProfile="tiny" xmlns="http://www.w3.org/2000/svg" x="0px" y="0px" viewBox="0 0 400 512">
<path fill-rule="evenodd" fill="#FFD700" stroke="#FFFFFF" stroke-width="20" stroke-miterlimit="10" d="M194.8,489
	c-23.2,0-44.1-4.6-60.4-15.1c-33.7-19.7-54.6-52.3-70.9-106.9L60,356.6c-22.1-10.5-30.2-40.7-37.2-70.9v-1.2
	c-2.3-16.3-3.5-36,10.5-52.3c-5.8-23.2-7-46.5-3.5-69.7c4.6-26.7,16.3-49.9,36-68.5c18.6-19.7,41.8-32.5,67.4-37.2
	c11.6-2.3,15.1-2.3,47.6-2.3l13.9-1.2v-8.1c2.3-8.1,9.3-13.9,17.4-16.3h23.2c15.1,4.6,26.7,13.9,34.8,25.6l8.1-1.2
	c22.1,1.2,39.5,17.4,43,38.3c17.4,13.9,32.5,33.7,41.8,54.6c10.5,23.2,11.6,45.3,8.1,77.8l-2.3,17.4c9.3,13.9,9.3,36-1.2,65.1
	l-1.3,3.6c-9.3,22.1-21.9,35.9-35.8,45.2l-2.3,8.1l-2.3,7c-17.4,53.4-40.7,87.1-74.3,105.7h-1.2C233.1,484.4,213.4,489,194.8,489z"
	/>
<path class="contour" d="M215.7,42.9c-7,1.2-8.1,9.3-3.5,12.8c4.6,3.5,3.5,10.5-2.3,12.8h-30.2c-31.4,0-33.7,0-44.1,2.3
	C72.1,84,31.3,146.1,44.5,209.6c0.1,0.6,0.3,1.2,0.4,1.8l4.6,24.4l-1.2,1.2c-11.6,9.3-15.1,24.4-10.5,44.1
	c8.1,39.5,16.3,58.1,31.4,62.7h2.3l1.2,4.6l4.6,13.9c15.1,52.3,34.8,81.3,63.9,97.6c15.1,9.3,34.8,13.9,53.4,13.9
	c17.4,0,34.8-3.5,48.8-11.6c31.4-15.1,52.3-45.3,67.4-96.4l4.6-15.1l2.3-5.8l2.3-2.3c12.8-5.8,24.4-20.9,32.5-41.8
	c10.5-26.7,10.5-43,1.2-53.4l-2.3-2.3l1.2-3.5l3.5-18.6c3.5-29,2.3-49.9-7-70.9c-8.1-19.7-24.4-39.5-41.8-51.1l-1.2-1.2v-2.3
	c1.2-16.3-11.6-29-27.9-30.2c-4.6,0-7,2.3-7,7c-1.2,2.3-2.3,4.6-4.6,4.6c-2.3,0-4.6-2.3-5.8-5.8c-3.5-13.9-21.9-27.1-27.9-29
	C226.5,42,223.4,41.8,215.7,42.9z M222.7,31.3c6.5,0,12.8,2.3,12.8,2.3c5.8,1.2,25.6,12.8,32.5,25.6l10.5-2.3h7
	c17.4,5.8,30.2,18.6,31.4,37.2c40.7,30.2,60.4,80.2,51.1,130.1l-2.3,12.8l-1.2,5.8c5.8,7,8.1,15.1,8.1,25.6c0,10.5-3.5,22.1-9.3,36
	c-9.3,24.4-22.1,40.7-36,48.8l-1.2,1.2l-2.3,8.1l-2.3,7c-16.3,53.4-38.3,86-72,103.4c-36,18.1-78.6,17.2-113.8-2.3
	c-32.5-18.6-53.4-49.9-69.7-104.5l-3.5-12.8c-19.7-8.1-29-33.7-36-69.7c-5.8-25.6,1.2-40.7,10.5-51.1l-1.2-3.5l-3.5-15.1
	c-2.3-20.9-2.3-36,0-51.1c9.3-52.3,48.8-92.9,101.1-103.4c11.6-2.3,16.3-2.3,46.5-2.3h19.7c-2.3-3.5-2.3-7-1.2-11.6
	c1.2-7,8.1-10.5,15.1-12.8C213.4,32.5,216.2,31.3,222.7,31.3z"/>
<g class="features">
	<path d="M233.3,387c-3.5,0-6.9,4-6.9,4c-8.1,7-17.6,11.3-28.1,11.3s-19.9-4.5-29.2-11.5c0,0-2.9-2.5-4.5-2.8
		c-1.6-0.3-3.5,0.3-3.5,0.3c-5.8,2.3-5.8,8.1,0,12.8c10.5,9.3,24.4,13.9,37.2,13.9c11.6,0,23.2-3.5,32.5-10.5
		c9.3-5.8,10.8-11.5,7.2-15.6C238.1,389.1,235.7,387,233.3,387z"/>
	<path d="M322.6,243.2c-7-2.3-32.8-3.5-47.5-3.5c-14.7,0-27.7,2.2-27.7,2.2c-12,1.8-17.7,5.9-24.7,9.4c-16.3,5.5-34,5.1-49.9-1.2
		c-8.1-5.8-16.3-8.1-31.4-9.3h-43L74,243.2c-4.6,3.5-5.8,12.8-1.2,17.4l1.2,12.8c1.2,33.7,10.5,47.6,34.8,51.1
		c17.4,2.3,34.8,1.2,52.3-2.3c13.9-4.6,19.7-11.6,24.4-31.4l4.6-13.9h17.4l2.3,10.5c5.8,22.1,10.5,29,23.2,33.7
		c8.1,3.5,20.9,4.6,33.7,4.6s25.6-1.2,33.7-4.6c13.9-5.8,20.9-18.6,22.1-41.8l2.3-18.6C329.6,255.9,327.2,244.3,322.6,243.2z
		 M170.4,294.3c-3.5,12.8-9.3,17.4-32.5,18.6h-10.5c-19.7,0-30.2-4.6-33.7-12.8c-5.8-9.3-7-38.3-2.3-41.8l20.9-3.5h1.2h1.2h8.1
		c19.7,0,36,2.3,44.1,8.1C176.2,268.7,176.2,275.7,170.4,294.3z M304,298.9c-3.5,9.3-13.9,13.9-33.7,13.9h-11.6
		c-25.6-1.2-29-4.6-34.8-26.7c-5.8-20.9,3.5-29,38.3-31.4h11.6l23.2,1.2c8.1,1.2,9.3,2.3,10.5,5.8
		C309.8,268.7,307.5,291.9,304,298.9z"/>
</g>
</svg>
