<?xml version="1.0" encoding="utf-8"?>
<!-- Generator: Adobe Illustrator 25.4.0, SVG Export Plug-In . SVG Version: 6.00 Build 0)  -->
<svg version="1.1" id="Layer_1" xmlns="http://www.w3.org/2000/svg" xmlns:xlink="http://www.w3.org/1999/xlink" x="0px" y="0px"
	 viewBox="0 0 323 324" style="enable-background:new 0 0 323 324;" xml:space="preserve">
<g>
	<path d="M162,32c34.7,0,67.4,13.5,91.9,38.1C278.5,94.6,292,127.3,292,162s-13.5,67.4-38.1,91.9C229.4,278.5,196.7,292,162,292
		s-67.4-13.5-91.9-38.1C45.5,229.4,32,196.7,32,162s13.5-67.4,38.1-91.9C94.6,45.5,127.3,32,162,32 M162,12C79.2,12,12,79.2,12,162
		s67.2,150,150,150s150-67.2,150-150S244.8,12,162,12L162,12z"/>
</g>
<path d="M162,142c-8.3,0-15,6.7-15,15v90.1c0,8.3,6.7,15,15,15s15-6.7,15-15V157C177,148.7,170.3,142,162,142z"/>
<circle cx="161.5" cy="111.5" r="17.5"/>
</svg>
