<?xml version="1.0" encoding="utf-8"?>
<!-- Generator: Adobe Illustrator 25.4.0, SVG Export Plug-In . SVG Version: 6.00 Build 0)  -->
<svg version="1.2" baseProfile="tiny" id="Layer_1" xmlns="http://www.w3.org/2000/svg" xmlns:xlink="http://www.w3.org/1999/xlink"
	 x="0px" y="0px" viewBox="0 0 20 20" overflow="visible" xml:space="preserve">
<g>
	<path fill="none" d="M-2.3-2.3h24v24h-24V-2.3z"/>
	<path d="M9.7,7.3c0.9-0.9,2.1-1.6,3.5-1.6c3,0,5.5,2.5,5.5,5.5v7.5h-2v-7.5c0-1.9-1.6-3.5-3.5-3.5s-3.5,1.6-3.5,3.5v7.5h-2V6.2h2
		V7.3z M2.7,4.2c-0.8,0-1.5-0.7-1.5-1.5s0.7-1.5,1.5-1.5s1.5,0.7,1.5,1.5S3.5,4.2,2.7,4.2z M1.7,6.2h2v12.5h-2V6.2z"/>
</g>
</svg>
