<?xml version="1.0" encoding="utf-8"?>
<!-- Generator: Adobe Illustrator 25.4.0, SVG Export Plug-In . SVG Version: 6.00 Build 0)  -->
<svg version="1.1" id="Layer_1" xmlns="http://www.w3.org/2000/svg" xmlns:xlink="http://www.w3.org/1999/xlink" x="0px" y="0px"
	 viewBox="0 0 261 178" style="enable-background:new 0 0 261 178;" xml:space="preserve">
<g>
	<g>
		<path d="M0.5,177.5V0.5h82.8C50.7,18.1,30.5,51.8,30.5,89s20.2,70.9,52.8,88.5H0.5z"/>
		<path d="M81.4,1C66.7,9.3,54.2,21.2,45.2,35.6C35.3,51.6,30,70.1,30,89c0,18.9,5.3,37.4,15.2,53.4c9,14.4,21.4,26.3,36.2,34.6H1V1
			H81.4 M85.4,0H0v178h85.4C53.1,161.4,31,127.8,31,89C31,50.2,53.1,16.6,85.4,0L85.4,0z"/>
	</g>
	<g>
		<path d="M178.7,177.5c32.6-17.6,52.8-51.3,52.8-88.5s-20.2-70.9-52.8-88.5h81.8v177H178.7z"/>
		<path d="M260,1v176h-79.4c14.7-8.3,27.2-20.2,36.2-34.6c10-16,15.2-34.4,15.2-53.4c0-18.9-5.3-37.4-15.2-53.4
			c-9-14.4-21.4-26.3-36.2-34.6H260 M261,0h-84.4C208.9,16.6,231,50.2,231,89c0,38.8-22.1,72.4-54.4,89H261V0L261,0z"/>
	</g>
</g>
</svg>
