<?xml version="1.0" encoding="utf-8"?>
<svg id="svg" width="400" height="400" viewBox="4.79 5.256 383.246 393.19" version="1.1" xmlns="http://www.w3.org/2000/svg">
  <g id="svgg">
    <path id="path0" d="M 195.595 19.427 C 193.469 20.723 193.587 18.435 193.581 58.575 L 193.576 95.449 L 191.812 98.853 C 190.841 100.725 148.897 185.133 142.796 193.574 C 135.953 203.764 81.732 273.67 80.837 275.342 C 75.703 293.461 64.576 336.624 64.5 336.719 C 64.227 337.058 59.328 337.153 42.122 337.153 C 26.582 337.153 19.87 337.267 19.335 337.541 C 17.281 338.591 17.377 337.482 17.369 360.265 L 17.361 381.12 L 18.426 382.14 L 19.49 383.16 L 196.172 383.248 C 389.209 383.344 375.003 383.502 376.128 381.25 C 377.13 379.243 376.961 339.733 375.951 338.076 C 374.84 336.254 330.819 337.016 330.819 337.016 C 330.759 336.921 329.001 320.371 328.028 312.654 C 321.899 302.013 294.848 278.067 292.416 272.196 C 283.759 260.513 201.215 94.271 201.215 94.271 L 201.113 85.015 L 201.01 75.758 L 203.543 76.562 C 216.43 80.654 228.661 79.913 254.34 73.482 C 270.927 69.328 274.343 68.735 283.041 68.5 C 292.524 68.244 298.138 69.259 305.376 72.542 C 311.057 75.117 314.654 71.367 310.909 66.774 C 307.252 62.291 299.957 54.997 295.472 51.342 L 293.924 50.081 L 297.917 48.173 C 301.654 46.388 303.982 45.544 308.716 44.259 C 313.202 43.041 313.688 38.83 309.584 36.735 C 302.146 32.939 292.089 30.962 282.292 31.369 C 274.299 31.701 267.932 32.881 249.346 37.477 C 226.249 43.189 214.752 43.564 203.212 38.982 L 201.042 38.121 L 201.042 29.981 C 201.042 20.858 200.887 20.127 198.773 19.243 C 197.237 18.602 196.918 18.62 195.595 19.427 M 119.904 26.949 C 117.052 28.355 116.597 41.932 119.33 44.081 C 121.087 45.464 123.933 44.825 124.959 42.818 C 125.627 41.512 125.477 29.159 124.781 28.166 C 123.684 26.599 121.645 26.09 119.904 26.949 M 15.822 33.012 C 14.14 34.489 14.046 36.669 15.598 38.221 L 16.613 39.236 L 33.403 39.236 C 51.785 39.236 51.193 39.302 52.075 37.172 C 52.657 35.768 52.28 33.986 51.182 32.955 L 50.292 32.118 L 33.676 32.022 L 17.06 31.925 L 15.822 33.012 M 330.531 32.732 C 328.504 34.098 328.304 36.733 330.099 38.398 L 331.004 39.236 L 352.778 39.236 L 374.551 39.236 L 375.447 38.406 C 376.632 37.307 376.967 35.481 376.24 34.076 C 375.107 31.886 375.759 31.944 352.673 31.944 L 331.7 31.944 L 330.531 32.732 M 294.881 39.583 C 296.935 40.086 296.799 40.306 293.375 42.028 C 281.931 47.782 281.282 49.528 288.43 55.328 C 290.688 57.16 293.238 59.307 294.097 60.099 L 295.66 61.539 L 294.097 61.325 C 283.485 59.873 274.047 60.958 253.531 65.988 C 226.603 72.591 216.95 73.178 204.514 68.97 L 201.215 67.854 L 201.134 57.625 C 201.04 45.854 200.95 46.251 203.503 47.178 C 205.991 48.081 208.278 48.53 213.523 49.143 C 224.64 50.444 231.964 49.47 256.771 43.393 C 274.596 39.026 287.389 37.747 294.881 39.583 M 84.137 41.48 C 82.857 42.037 81.944 43.577 81.944 45.182 C 81.944 47.135 91.274 56.25 93.274 56.25 C 96.079 56.25 97.978 53.48 96.756 51.171 C 95.992 49.726 87.85 41.767 86.696 41.337 C 85.496 40.889 85.497 40.889 84.137 41.48 M 155.382 41.512 C 154.085 42.179 146.657 49.49 145.983 50.764 C 144.532 53.503 146.32 56.25 149.552 56.25 C 150.874 56.25 159.055 48.777 160.272 46.458 C 161.926 43.306 158.544 39.886 155.382 41.512 M 118.75 49.326 C 93.317 51.63 81.491 82.538 98.931 101.123 C 118.238 121.698 152.431 108.331 152.431 80.208 C 152.431 61.801 137.02 47.671 118.75 49.326 M 126.494 57.149 C 143.567 60.922 150.816 81.262 139.924 94.833 C 129.679 107.599 109.643 106.118 101.293 91.978 C 91.095 74.708 106.928 52.826 126.494 57.149 M 69.925 76.939 C 67.813 77.98 67.368 80.963 69.071 82.666 L 70.085 83.681 L 77.246 83.681 C 84.332 83.681 84.415 83.672 85.236 82.851 C 86.959 81.128 86.671 78.321 84.644 77.085 C 83.124 76.158 71.736 76.045 69.925 76.939 M 159.163 76.729 C 156.863 77.658 156.204 80.91 157.959 82.666 L 158.974 83.681 L 166.135 83.681 C 173.242 83.681 173.302 83.674 174.134 82.842 C 175.858 81.118 175.63 78.521 173.635 77.176 C 172.394 76.34 160.998 75.988 159.163 76.729 M 16.237 81.446 C 13.566 82.895 13.728 86.888 16.505 88.048 C 18.455 88.863 42.436 88.763 44.097 87.933 C 46.881 86.543 46.659 82.349 43.75 81.356 C 41.79 80.688 17.488 80.767 16.237 81.446 M 228.566 94.959 C 225.933 96.104 225.49 98.924 227.624 100.955 L 228.809 102.083 L 244.971 102.083 C 258.154 102.083 261.351 101.992 262.314 101.59 C 265.426 100.29 265.153 95.715 261.91 94.815 C 259.751 94.215 229.981 94.344 228.566 94.959 M 93.086 104.073 C 92.18 104.242 85.257 110.77 83.632 112.986 C 81.548 115.828 83.035 119.072 86.428 119.09 C 88.124 119.098 96.347 111.66 97.432 109.136 C 98.229 107.284 96.887 104.167 95.294 104.167 C 95.049 104.167 94.64 104.11 94.386 104.042 C 94.132 103.973 93.546 103.987 93.086 104.073 M 147.679 104.328 C 146.399 104.884 145.486 106.425 145.486 108.029 C 145.486 109.982 154.816 119.097 156.816 119.097 C 159.621 119.097 161.52 116.328 160.298 114.018 C 159.534 112.573 151.392 104.614 150.238 104.184 C 149.037 103.736 149.039 103.736 147.679 104.328 M 210.736 127.951 C 214.61 135.208 217.431 141.707 217.603 141.889 C 218.34 142.668 218.054 142.361 211.66 142.361 C 203.557 142.361 204.4 142.653 201.349 138.791 L 198.855 135.633 L 199.605 124.327 C 200.018 118.109 200.357 112.005 200.358 110.764 L 200.361 108.507 L 202.027 111.632 C 202.943 113.351 206.862 120.694 210.736 127.951 M 292.545 110.79 C 281.913 112.406 274.03 120.689 272.745 131.597 C 272.554 133.219 272.673 134.783 273.34 139.386 C 273.422 139.952 273.087 140.128 271.181 140.516 C 257.666 143.268 252.601 159.647 262.219 169.495 C 267.628 175.034 264.073 174.678 312.872 174.57 C 355.398 174.232 354.689 174.512 358.046 172.969 C 361.635 171.319 363.336 167.177 364.748 163.427 C 368.701 152.924 361.315 141.542 349.679 140.201 C 348.955 140.118 348.77 139.813 348.37 138.044 C 345.601 125.809 331.774 118.025 319.312 121.687 C 317.615 122.185 316.2 122.549 316.166 122.494 C 314.234 119.408 313.42 118.382 311.523 116.643 C 306.628 112.158 299.009 109.808 292.545 110.79 M 192.582 117.274 C 192.457 119.518 192.107 124.965 191.803 129.379 C 191.156 138.801 190.892 137.764 195.342 143.296 C 198.804 147.6 198.715 146.665 196.384 154.181 C 195.35 157.515 193.539 163.924 192.358 168.424 L 190.212 176.604 L 187.39 177.016 C 181.401 177.889 176.275 181.567 173.6 186.912 C 172.842 188.425 172.174 191.334 172.174 191.656 C 170.358 191.892 152.164 192.051 152.055 191.874 C 154.338 187.239 192.014 114.37 192.014 113.778 C 192.014 113.457 192.193 113.194 192.412 113.194 C 192.702 113.194 192.748 114.305 192.582 117.274 M 120.252 115.783 C 118.191 116.682 117.894 117.598 117.776 123.421 C 117.605 131.821 118.285 133.681 121.524 133.681 C 124.965 133.681 125.347 132.742 125.347 124.296 L 125.347 117.655 L 124.332 116.64 C 123.774 116.082 123.084 115.625 122.798 115.625 C 122.513 115.625 122.071 115.553 121.817 115.464 C 121.562 115.376 120.858 115.519 120.252 115.783 M 299.814 118.588 C 304.579 119.829 307.891 122.706 310.287 127.685 C 312.39 132.056 314.089 132.738 317.58 130.612 C 327.317 124.684 340.308 130.743 341.484 141.761 C 342.014 146.736 342.583 147.319 347.172 147.602 C 353.742 148.007 357.452 151.017 358.184 156.536 C 358.485 158.803 357.354 162.766 356.422 163.987 C 355.908 164.661 355.226 165.681 354.329 166.347 C 352.885 167.42 352.206 167.054 349.979 167.166 L 346.947 167.086 L 346.824 163.896 C 346.677 160.067 345.675 158.681 343.056 158.681 C 340.445 158.681 339.434 160.07 339.288 163.86 L 339.167 167.014 L 333.16 167.014 L 327.152 167.014 L 327.031 163.86 C 326.885 160.07 325.875 158.681 323.264 158.681 C 320.653 158.681 319.643 160.07 319.497 163.86 L 319.375 167.014 L 313.368 167.014 L 307.361 167.014 L 307.239 163.86 C 307.094 160.07 306.083 158.681 303.472 158.681 C 300.862 158.681 299.851 160.07 299.705 163.86 L 299.584 167.014 L 293.229 167.014 L 286.875 167.014 L 286.753 163.86 C 286.607 160.07 285.597 158.681 282.986 158.681 C 280.375 158.681 279.365 160.07 279.219 163.86 L 279.098 167.014 L 275.055 167.014 L 271.013 167.014 L 269.221 165.78 C 264.051 162.219 263.202 155.421 267.363 150.906 C 269.67 148.404 271.237 147.831 276.422 147.596 C 282.732 147.311 284.141 145.785 282.121 141.427 C 276.091 128.421 286.414 115.097 299.814 118.588 M 55.208 120.469 C 40.413 122.481 30.924 136.468 34.209 151.423 C 34.392 152.255 34.317 152.431 33.781 152.431 C 30.349 152.431 24.727 155.177 21.793 158.287 C 12.24 168.414 16.645 184.713 30.035 188.777 C 32.002 189.374 34.527 189.41 75.347 189.41 L 118.576 189.41 L 121.049 188.632 C 139.394 182.862 137.652 156.561 118.678 152.843 L 115.745 152.268 L 115.314 150.353 C 112.293 136.939 96.648 127.987 83.934 132.397 C 80.436 133.611 80.58 133.641 79.167 131.384 C 74.558 124.024 64.1 119.259 55.208 120.469 M 64.318 128.812 C 69.031 130.582 72.822 134.293 74.59 138.868 C 76.158 142.922 78.074 143.552 82.094 141.333 C 93.822 134.859 106.279 141.249 108.471 154.863 C 109.212 159.469 109.63 159.806 114.931 160.071 C 130.412 160.846 130.527 181.242 115.053 181.876 L 111.53 182.021 L 111.407 178.829 C 111.107 171.019 103.819 171.667 103.819 179.503 L 103.819 181.944 L 96.562 181.944 L 89.305 181.944 L 89.184 178.791 C 89.038 175.001 88.027 173.611 85.417 173.611 C 82.806 173.611 81.795 175.001 81.649 178.791 L 81.528 181.944 L 74.306 181.944 L 67.083 181.944 L 66.962 178.791 C 66.816 175.001 65.805 173.611 63.194 173.611 C 60.584 173.611 59.573 175.001 59.427 178.791 L 59.306 181.944 L 52.083 181.944 L 44.861 181.944 L 44.739 178.791 C 44.594 175.001 43.583 173.611 40.972 173.611 C 38.351 173.611 37.351 174.997 37.203 178.834 L 37.08 182.031 L 34.599 181.865 C 26.53 181.325 21.777 173.345 25.283 166.223 C 27.493 161.735 30.618 160.069 36.83 160.069 C 41.469 160.069 42.677 159.658 43.571 157.774 C 44.276 156.289 44.313 156.461 42.18 151.404 C 36.553 138.067 50.652 123.679 64.318 128.812 M 261.316 231.289 C 260.899 231.707 205.064 231.926 204.804 231.505 C 204.66 231.272 198.611 212.283 198.611 211.889 C 198.611 211.688 199.299 211.121 200.14 210.628 C 210.747 204.412 211.001 186.787 200.579 180.189 C 197.419 178.189 197.583 178.488 198.175 175.806 C 199.006 172.036 200.708 165.714 201.786 162.393 C 202.331 160.712 202.778 159.112 202.778 158.84 C 202.778 158.567 203.325 156.709 203.993 154.711 C 204.661 152.714 205.208 150.758 205.208 150.366 C 205.208 149.666 205.365 149.653 213.811 149.653 L 221.286 149.653 M 195.001 185.52 C 202.862 189.504 202.841 200.95 194.965 204.948 C 187.339 208.819 178.738 203.092 179.236 194.475 C 179.691 186.625 187.937 181.941 195.001 185.52 M 172.386 200.781 C 174.726 207.996 180.952 212.901 188.542 213.507 L 191.146 213.715 L 198.729 235.662 C 198.729 235.662 193.629 256.003 193.532 256.337 C 193.391 256.825 192.962 256.944 191.352 256.944 C 183.669 256.944 176.327 262.212 173.806 269.532 L 173.059 271.701 C 173.059 271.701 91.16 272.771 91.16 272.657 C 91.16 272.543 148.49 198.77 148.49 198.77 L 172.01 198.815 L 172.386 200.781 M 18.403 215.166 C 16.291 216.627 15.971 219.15 17.682 220.86 L 18.697 221.875 L 34.445 221.875 C 51.685 221.875 51.197 221.932 52.075 219.811 C 52.657 218.406 52.28 216.625 51.182 215.594 L 50.292 214.757 L 34.781 214.661 C 20.552 214.574 19.199 214.615 18.403 215.166 M 52.917 238.681 C 51.568 240.029 51.371 241.462 52.314 243.059 C 53.344 244.802 53.211 244.792 75.217 244.792 L 95.887 244.792 L 96.902 243.777 C 97.733 242.946 97.917 242.469 97.917 241.146 C 97.917 239.823 97.733 239.346 96.902 238.515 L 95.887 237.5 L 74.992 237.5 L 54.097 237.5 L 52.917 238.681 M 281.181 271.439 C 281.181 271.594 209.574 271.701 209.574 271.701 L 208.67 269.252 C 207.327 265.613 205.462 263.096 202.102 260.387 L 200.559 259.143 C 200.559 259.143 205.467 239.907 205.653 239.668 C 205.921 239.323 251.336 239.024 264.334 238.8 M 196.292 265.753 C 206.425 270.711 202.649 286.297 191.319 286.275 C 179.06 286.252 176.265 269.358 187.806 265.042 C 189.851 264.277 193.984 264.624 196.292 265.753 M 173.63 280.642 C 175.158 286.391 180.309 291.406 186.546 293.219 C 187.979 293.636 188.572 293.995 188.748 294.551 C 188.88 294.97 191.387 299.75 194.32 305.173 C 198.81 313.475 199.585 315.121 199.222 315.589 C 198.985 315.895 198.228 316.849 197.541 317.708 C 191.923 324.73 184.138 334.756 183.589 335.677 L 182.918 336.806 C 182.918 336.806 73.264 336.747 73.264 336.675 C 73.264 336.449 86.919 280.081 86.919 280.081 L 173.237 279.167 L 173.63 280.642 M 316.638 310.448 C 316.638 310.448 206.769 311.815 206.192 311.114 C 205.874 310.727 203.939 307.248 201.893 303.383 C 199.846 299.517 197.802 295.772 197.35 295.06 C 196.288 293.387 196.214 293.549 198.547 292.419 C 203.9 289.826 207.251 286.126 208.851 281.039 L 209.44 279.167 L 285.317 278.637 M 320.971 318.23 C 321.41 318.768 322.17 336.773 322.357 337.011 C 322.642 337.373 192.736 337.273 192.063 336.913 C 191.995 336.876 192.554 336.095 193.307 335.176 C 194.059 334.258 197.069 330.46 199.995 326.736 C 202.921 323.012 205.556 319.769 205.852 319.529 M 369.097 375.694 L 361.136 375.694 L 353.175 375.694 L 353.063 370.457 L 352.951 365.219 L 351.817 364.207 C 350.534 363.061 349.143 362.901 347.562 363.719 C 346 364.527 345.833 365.194 345.833 370.637 L 345.833 375.694 L 332.465 375.694 L 319.097 375.694 L 319.097 371.169 C 319.097 364.622 317.815 362.517 314.36 363.393 C 312.026 363.984 311.648 364.954 311.52 370.684 L 311.407 375.694 L 298.065 375.694 L 284.722 375.694 L 284.722 370.563 C 284.722 364.151 283.852 362.694 280.409 363.34 C 277.903 363.81 277.431 364.975 277.431 370.686 L 277.431 375.694 L 264.063 375.694 L 250.694 375.694 L 250.694 370.85 C 250.694 365.541 250.429 364.476 248.908 363.689 C 247.27 362.842 245.899 363.06 244.583 364.375 L 243.403 365.556 L 243.403 370.625 L 243.403 375.694 L 230.06 375.694 L 216.717 375.694 L 216.605 370.457 L 216.493 365.219 L 215.359 364.207 C 214.001 362.995 212.488 362.887 210.851 363.885 L 209.722 364.573 L 209.722 370.134 L 209.722 375.694 L 196.212 375.694 L 182.703 375.694 L 182.584 370.457 L 182.465 365.22 L 181.331 364.207 C 179.929 362.955 178.348 362.88 176.705 363.987 C 175.265 364.957 175.048 365.941 175.02 371.615 L 175 375.694 L 161.632 375.694 L 148.264 375.694 L 148.264 370.637 C 148.264 365.194 148.097 364.527 146.535 363.719 C 144.841 362.843 143.481 363.046 142.153 364.375 L 140.972 365.556 L 140.972 370.625 L 140.972 375.694 L 127.604 375.694 L 114.236 375.694 L 114.236 370.637 C 114.236 365.194 114.069 364.527 112.507 363.719 C 110.813 362.843 109.454 363.046 108.125 364.375 L 106.944 365.556 L 106.944 370.625 L 106.944 375.694 L 93.601 375.694 L 80.258 375.694 L 80.147 370.457 L 80.035 365.219 L 78.901 364.207 C 77.679 363.116 76.342 362.914 74.848 363.595 C 73.266 364.316 73.012 365.157 72.741 370.587 L 72.485 375.694 L 59.358 375.694 L 46.231 375.694 L 46.119 370.457 L 46.007 365.219 L 44.873 364.207 C 41.227 360.952 38.542 363.905 38.542 371.169 L 38.542 375.694 L 31.597 375.694 L 24.653 375.694 L 24.653 360.243 L 24.653 344.792 C 24.653 344.792 367.886 344.578 368.316 344.531 L 369.097 344.444" stroke="none" fill="#000000" fill-rule="evenodd" style=""/>
    <path style="fill: rgb(216, 216, 216); stroke: rgb(0, 0, 0);" d="M 362.253 177.147"/>
    <path style="fill: rgb(216, 216, 216); stroke: rgb(0, 0, 0);" d="M 360.57 196.05"/>
    <path style="fill: rgb(216, 216, 216); stroke: rgb(0, 0, 0);" d="M 303.24 230.306"/>
  </g>
  <line style="stroke: rgb(0, 0, 0); stroke-linecap: round; stroke-width: 7px;" x1="345.29" y1="72.591" x2="373.29" y2="72.591"/>
  <line style="stroke: rgb(0, 0, 0); stroke-linecap: round; stroke-width: 7px;" x1="351.851" y1="114.977" x2="375.305" y2="114.977"/>
  <line style="stroke: rgb(0, 0, 0); stroke-linecap: round; stroke-width: 8px;" x1="288.85" y1="209.895" x2="312.304" y2="209.895"/>
  <line style="stroke: rgb(0, 0, 0); stroke-linecap: round; stroke-width: 8px;" x1="315.788" y1="246.796" x2="360.587" y2="246.796"/>
</svg>