<?xml version="1.0" encoding="utf-8"?>
<svg id="svg" width="400" height="396.5811965811966" viewBox="0, 0, 400,396.5811965811966" version="1.1" xmlns="http://www.w3.org/2000/svg">
  <g id="svgg">
    <path id="path0" d="M 195.821 8.335 C 193.008 9.864 193.118 8.201 193.089 49.573 C 193.067 82.638 192.986 87.141 192.391 88.478 C 192.02 89.309 190.177 92.867 188.294 96.384 C 186.411 99.9 181.987 108.162 178.463 114.744 C 176.737 117.967 155.421 154.766 132.459 197.703 C 116.783 215.36 101.809 229.243 83.584 248.543 C 73.502 277.412 62.14 331.961 61.805 332.296 C 61.291 332.81 57.375 332.906 36.925 332.906 C 12.674 332.906 12.653 332.907 11.476 333.832 C 9.123 335.683 9.12 335.717 9.12 359.495 C 9.121 383.506 9.095 383.242 11.684 385.113 C 13.001 386.065 383.411 386.421 385.185 385.472 C 387.787 384.079 387.749 384.467 387.751 359.245 L 387.752 336.224 L 386.093 334.565 L 384.434 332.906 L 360.504 332.906 C 341.87 332.906 330.66 333.231 330.332 332.815 C 330.258 332.722 320.41 279.071 319.112 274.419 C 313.472 267.459 292.623 256.721 286.009 248.492 C 273.391 230.838 206.551 90.304 205.759 88.889 L 204.205 86.111 L 204.058 77.823 L 203.911 69.535 L 205.126 69.8 C 205.795 69.946 208.169 70.46 210.402 70.943 C 222.009 73.453 232.826 72.375 257.624 66.239 C 283.904 59.735 294.473 59.438 307.219 64.842 C 312.512 67.087 314.446 67.01 316.584 64.469 C 319.383 61.143 318.198 59 307.786 48.553 C 303.83 44.585 300.685 41.189 300.798 41.008 C 301.146 40.443 307.453 37.954 311.078 36.95 C 319.492 34.62 320.349 28.876 312.796 25.434 C 297.39 18.413 285.059 18.459 255.274 25.648 C 235.646 30.384 225.49 32.029 219.803 31.392 C 214.964 30.849 210.063 29.888 207.181 28.917 L 204.205 27.914 L 203.991 19.406 C 203.76 10.177 203.529 9.252 201.188 8.186 C 199.728 7.521 197.189 7.591 195.821 8.335 M 292.133 31.048 C 295.599 31.375 295.526 31.552 290.747 34.374 C 283.287 38.779 283.443 41.533 291.536 48.229 C 294.351 50.559 294.384 50.537 288.309 50.469 C 285.535 50.438 281.63 50.603 279.632 50.835 C 272.953 51.611 270.666 52.099 246.513 57.913 C 234.032 60.918 224.627 61.969 217.325 61.177 C 212.804 60.687 205.602 58.915 204.526 58.028 C 203.929 57.536 203.722 39.316 204.313 39.316 C 204.49 39.316 205.931 39.687 207.514 40.139 C 219.148 43.467 231.053 42.514 257.332 36.153 C 277.648 31.236 284.1 30.289 292.133 31.048 M 73.222 45.7 C 60.592 48.041 50.856 61.081 52.695 73.195 C 53.056 75.573 52.907 75.854 51.098 76.206 C 33.233 79.682 31.882 105.904 49.209 112.906 L 51.641 113.889 L 92.026 114.017 C 135.182 114.154 135.544 114.139 139.863 112.032 C 155.703 104.302 153.175 80.312 136.1 76.328 C 134.611 75.981 133.349 75.636 133.296 75.562 C 133.243 75.488 132.758 74.177 132.217 72.65 C 127.845 60.295 114.209 53.004 101.889 56.432 C 100.156 56.915 99.019 57.051 98.926 56.788 C 98.691 56.121 95.691 52.753 94.102 51.372 C 88.879 46.833 80.048 44.434 73.222 45.7 M 83.927 57.523 C 87.077 58.936 89.538 61.531 91.162 65.15 C 93.385 70.106 96.148 71.098 100.822 68.618 C 110.771 63.338 121.282 68.465 122.829 79.35 C 123.61 84.845 125.218 86.325 130.411 86.325 C 139.929 86.325 143.585 98.039 135.402 102.312 C 133.604 103.251 65.996 104.128 56.682 103.333 C 50.489 102.805 47.571 100.138 47.497 94.937 C 47.417 89.273 50.557 86.748 58.227 86.31 L 63.105 86.031 L 64.531 84.475 C 66.361 82.478 66.378 80.99 64.616 76.861 C 59.183 64.131 71.397 51.899 83.927 57.523 M 293.426 101.928 C 282.089 104.391 273.557 115.764 274.174 127.588 L 274.376 131.458 L 271.56 132.441 C 254.073 138.544 253.833 162.71 271.199 168.805 C 273.618 169.654 274.444 169.668 315.857 169.557 L 358.051 169.444 L 360.906 168.092 C 377.306 160.322 375.37 137.273 357.894 132.233 L 354.65 131.297 L 353.963 129.003 C 350.276 116.686 337.866 109.668 324.353 112.258 C 320.664 112.965 320.558 112.962 320.108 112.159 C 315.749 104.37 303.609 99.715 293.426 101.928 M 189.303 127.698 L 202.613 145.384 L 190.227 168.728 L 187.642 169.183 C 174.355 171.524 167.01 185.956 172.864 198.222 C 175.622 204.001 183.133 209.379 188.487 209.408 C 190.419 209.419 190.701 209.873 191.818 214.772 C 192.403 217.342 194.033 224.541 195.439 230.769 C 196.844 236.998 198.817 242.72 198.941 243.19 C 199.079 243.717 197.737 245.115 196.602 247.222 L 194.76 250.641 L 191.149 250.922 C 169.198 252.628 165.061 283.231 185.755 290.724 L 188.303 291.646 L 199.253 307.243 C 201.641 309.948 202.255 310.35 199.328 313.455 L 182.811 332.265 L 129.001 332.373 C 99.406 332.433 75.034 332.325 74.842 332.133 C 74.704 331.995 82.174 296.858 94.59 252.716 C 118.029 228.358 119.513 226.981 144.357 201.262 C 170.247 152.787 193.472 109.402 193.512 109.402 M 205.804 111.538 C 206.381 112.596 248.294 201.357 276.337 255.121 C 282.596 263.024 301.993 272.745 308.888 280.567 C 309.584 283.774 318.058 332.542 317.828 332.577 C 317.163 332.677 294.999 332.479 259.981 332.479 L 195.678 332.352 C 195.678 332.352 208.322 317.774 212.495 312.322 C 213.345 311.211 213.255 310.795 212.523 309.764 C 208.9 304.661 198.424 292.122 198.011 290.4 C 213.789 284.94 216.159 266.697 207.124 257.225 C 205.041 255.042 204.743 254.537 205.151 253.883 C 210.287 245.66 210.45 248.464 202.915 215.598 L 201.053 207.479 L 202.629 206.213 C 214.184 196.931 214.394 180.91 203.066 172.771 C 201.791 171.855 201 170.963 201 170.441 C 201 169.12 213.483 146.51 213.777 145.238 C 214.162 143.571 199.773 124.09 199.773 124.09 C 199.773 124.09 204.244 109.062 204.64 109.49 C 204.704 109.559 205.228 110.481 205.804 111.538 M 306.057 113.672 C 309.241 115.369 311.179 117.573 312.979 121.542 C 314.102 124.02 314.531 124.529 316.081 125.233 C 318.515 126.338 318.665 126.317 322.657 124.321 C 332.557 119.371 343.198 124.721 344.406 135.256 C 345.017 140.585 347.027 142.308 352.634 142.308 C 361.809 142.308 364.888 153.935 356.851 158.23 L 355.06 159.188 L 316.884 159.31 C 271.544 159.455 272.243 159.526 269.818 154.518 C 266.78 148.241 271.071 142.311 278.657 142.305 C 286.526 142.3 289.109 139.346 286.482 133.36 C 280.562 119.873 293.424 106.937 306.057 113.672 M 193.872 180.201 C 203.786 182.982 202.87 196.48 192.621 198.648 C 183.229 200.635 177.288 187.672 184.922 181.849 C 187.979 179.517 190.065 179.133 193.872 180.201 M 196.94 262.857 C 200.759 264.701 202.965 269.381 201.893 273.363 C 198.926 284.379 182.876 282.514 182.876 271.154 C 182.876 265.129 190.011 259.511 196.94 262.857 M 372.835 343.434 L 377.282 343.706 L 377.169 359.139 C 377.107 367.628 376.969 374.813 376.862 375.107 C 376.707 375.534 20.079 375.427 20.079 375.427 L 20.048 359.519 C 20.021 345.724 20.102 343.588 20.658 343.436 C 21.729 343.144 368.059 343.142 372.835 343.434" stroke="none" fill="#000000" fill-rule="evenodd"/>
  </g>
</svg>