<?xml version="1.0" encoding="iso-8859-1"?>
<!-- Generator: Adobe Illustrator 19.0.0, SVG Export Plug-In . SVG Version: 6.00 Build 0)  -->
<svg version="1.1" id="Layer_1" xmlns="http://www.w3.org/2000/svg" xmlns:xlink="http://www.w3.org/1999/xlink" x="0px" y="0px"
	 viewBox="0 0 512.027 512.027" style="enable-background:new 0 0 512.027 512.027;" xml:space="preserve">
<g>
	<g>
		<g>
			<path d="M466.358,413.68c-21.867,5.867-44.373,8.853-66.987,8.853c-137.493,0-249.387-107.307-249.387-239.253
				c0-61.76,24.533-120.32,68.907-165.12c4.16-4.16,4.16-10.987-0.107-15.04c-2.667-2.667-6.613-3.733-10.24-2.773
				C91.958,31.6,10.464,134.747,10.464,251.44c0,143.68,121.387,260.587,270.72,260.587c74.453,0,143.893-28.587,195.52-80.533
				c4.16-4.16,4.16-10.88,0-15.04C473.931,413.787,469.984,412.72,466.358,413.68z M281.611,490.694
				c-137.493,0-249.387-107.307-249.387-239.253c0-94.4,58.347-179.307,145.92-217.707c-31.893,43.307-48.96,95.68-48.96,149.44
				c0,143.68,121.387,260.587,270.72,260.587c10.88,0,21.867-0.64,32.64-1.92C389.344,473.627,336.971,490.694,281.611,490.694z"/>
			<path d="M501.024,167.494c-1.387-4.48-5.547-7.467-10.133-7.467h-45.227l-13.973-42.24c-1.813-5.547-7.893-8.64-13.44-6.827
				c-3.2,1.067-5.76,3.627-6.827,6.827l-13.973,42.24h-45.227c-5.867,0-10.667,4.8-10.667,10.667c0,3.52,1.707,6.827,4.587,8.747
				l36.267,24.96l-13.76,40.853c-1.92,5.547,1.067,11.627,6.72,13.547c3.2,1.067,6.827,0.533,9.6-1.387l36.587-26.027l36.693,26.453
				c4.8,3.413,11.413,2.347,14.933-2.453c2.027-2.773,2.56-6.4,1.493-9.6L460.811,204.4l36.267-24.853
				C500.811,176.774,502.518,171.974,501.024,167.494z M437.558,203.547l5.867,17.6l-16-11.52c-3.733-2.667-8.747-2.667-12.373,0
				l-16,11.413l5.867-17.28c1.493-4.48-0.107-9.493-4.053-12.16l-14.613-10.027h18.667c4.587,0,8.64-2.987,10.133-7.36l6.187-18.88
				l6.293,18.88c1.493,4.373,5.547,7.36,10.133,7.36h18.667L441.824,191.6C437.664,194.054,436.064,199.067,437.558,203.547z"/>
			<path d="M249.504,83.014l17.493,14.08l-6.72,22.08c-1.707,5.653,1.387,11.627,7.04,13.333c3.2,0.96,6.827,0.427,9.493-1.6
				l16.853-12.48l16.747,11.733c4.8,3.413,11.52,2.24,14.827-2.56c1.92-2.667,2.453-6.187,1.493-9.28l-6.613-21.227l17.493-14.08
				c4.587-3.733,5.333-10.453,1.6-15.04c-2.027-2.453-5.12-3.947-8.32-3.947h-20.8l-6.4-19.733c-1.813-5.547-7.893-8.64-13.44-6.827
				c-3.2,1.067-5.76,3.627-6.827,6.827l-6.4,19.733h-20.587c-4.48,0-8.64,2.667-10.24,6.827
				C244.491,75.334,245.984,80.24,249.504,83.014z M293.558,80.667c1.707,2.453,4.373,4.16,7.36,4.587
				c-2.88,2.453-4.267,6.187-3.627,9.92c-2.453-0.853-5.12-0.853-7.467,0c0.64-3.733-0.64-7.467-3.413-9.92
				C289.291,84.827,291.851,83.12,293.558,80.667z"/>
			<path d="M394.358,327.387c-1.387-4.373-5.547-7.36-10.133-7.36h-20.587l-6.507-21.547c-1.707-5.653-7.68-8.853-13.333-7.147
				c-3.413,1.067-6.08,3.733-7.147,7.147l-6.507,21.547h-20.587c-5.867,0-10.667,4.8-10.667,10.667c0,3.413,1.6,6.613,4.373,8.64
				l16.96,12.48l-6.507,20.8c-1.707,5.653,1.387,11.627,7.04,13.333c3.307,1.067,6.933,0.427,9.707-1.707l16.427-12.8l16.533,13.12
				c4.587,3.627,11.307,2.88,14.933-1.707c2.133-2.773,2.88-6.4,1.813-9.707l-6.613-21.333l16.96-12.373
				C394.251,336.56,395.744,331.76,394.358,327.387z M350.518,347.867c-2.347-0.853-4.907-0.853-7.147,0
				c0-2.56-0.747-4.907-2.347-6.933c2.453-0.64,4.587-2.133,5.973-4.267c1.387,2.027,3.52,3.627,5.867,4.267
				C351.264,342.96,350.411,345.414,350.518,347.867z"/>
		</g>
	</g>
</g>
<g>
</g>
<g>
</g>
<g>
</g>
<g>
</g>
<g>
</g>
<g>
</g>
<g>
</g>
<g>
</g>
<g>
</g>
<g>
</g>
<g>
</g>
<g>
</g>
<g>
</g>
<g>
</g>
<g>
</g>
</svg>
