<?xml version="1.0" encoding="utf-8"?>
<!-- Generator: Adobe Illustrator 25.4.0, SVG Export Plug-In . SVG Version: 6.00 Build 0)  -->
<svg version="1.1" id="svg" xmlns="http://www.w3.org/2000/svg" xmlns:xlink="http://www.w3.org/1999/xlink" x="0px" y="0px"
	 viewBox="0 0 400 400" style="enable-background:new 0 0 400 400;" xml:space="preserve">
<style type="text/css">
	.st0{fill-rule:evenodd;clip-rule:evenodd;}
	.st1{fill:#D8D8D8;stroke:#000000;stroke-width:1.0173;stroke-miterlimit:4.0693;}
	.st2{fill:none;stroke:#000000;stroke-width:7.1212;stroke-linecap:round;stroke-miterlimit:4.0693;}
	.st3{fill:none;stroke:#000000;stroke-width:8.1386;stroke-linecap:round;stroke-miterlimit:4.0693;}
</style>
<g id="svgg">
	<path id="path0" class="st0" d="M199.1,2.7c-2.3,1.4-2.2-1.1-2.2,42.5l0,40.1L195,89c-1.1,2-46.6,93.8-53.3,102.9
		c-7.4,11.1-66.4,87-67.3,88.9c-5.6,19.7-17.7,66.6-17.8,66.7c-0.3,0.4-5.6,0.5-24.3,0.5c-16.9,0-24.2,0.1-24.8,0.4
		c-2.2,1.1-2.1-0.1-2.1,24.7l0,22.7l1.2,1.1l1.2,1.1l192,0.1c209.8,0.1,194.4,0.3,195.6-2.2c1.1-2.2,0.9-45.1-0.2-46.9
		c-1.2-2-49-1.2-49-1.2c-0.1-0.1-2-18.1-3-26.5c-6.7-11.6-36.1-37.6-38.7-44C294.9,264.7,205.2,84,205.2,84L205.1,74L205,63.9
		l2.8,0.9c14,4.4,27.3,3.6,55.2-3.3c18-4.5,21.7-5.2,31.2-5.4c10.3-0.3,16.4,0.8,24.3,4.4c6.2,2.8,10.1-1.3,6-6.3
		c-4-4.9-11.9-12.8-16.8-16.8l-1.7-1.4l4.3-2.1c4.1-1.9,6.6-2.9,11.7-4.3c4.9-1.3,5.4-5.9,0.9-8.2c-8.1-4.1-19-6.3-29.7-5.8
		c-8.7,0.4-15.6,1.6-35.8,6.6c-25.1,6.2-37.6,6.6-50.1,1.6L205,23v-8.8c0-9.9-0.2-10.7-2.5-11.7C200.9,1.8,200.5,1.8,199.1,2.7
		 M116.8,10.9c-3.1,1.5-3.6,16.3-0.6,18.6c1.9,1.5,5,0.8,6.1-1.4c0.7-1.4,0.6-14.8-0.2-15.9C120.9,10.5,118.7,9.9,116.8,10.9
		 M3.7,17.5c-1.8,1.6-1.9,4-0.2,5.7l1.1,1.1h18.2c20,0,19.3,0.1,20.3-2.2c0.6-1.5,0.2-3.5-1-4.6l-1-0.9l-18.1-0.1L5,16.3L3.7,17.5
		 M345.7,17.2c-2.2,1.5-2.4,4.3-0.5,6.2l1,0.9h23.7h23.7l1-0.9c1.3-1.2,1.7-3.2,0.9-4.7c-1.2-2.4-0.5-2.3-25.6-2.3H347L345.7,17.2
		 M307,24.6c2.2,0.5,2.1,0.8-1.6,2.7c-12.4,6.3-13.1,8.2-5.4,14.5c2.5,2,5.2,4.3,6.2,5.2l1.7,1.6l-1.7-0.2
		c-11.5-1.6-21.8-0.4-44.1,5.1c-29.3,7.2-39.8,7.8-53.3,3.2l-3.6-1.2l-0.1-11.1c-0.1-12.8-0.2-12.4,2.6-11.4c2.7,1,5.2,1.5,10.9,2.1
		c12.1,1.4,20,0.4,47-6.2C284.9,24,298.8,22.6,307,24.6 M77.9,26.7c-1.4,0.6-2.4,2.3-2.4,4c0,2.1,10.1,12,12.3,12c3,0,5.1-3,3.8-5.5
		C90.8,35.6,82,27,80.7,26.5C79.4,26,79.4,26,77.9,26.7 M155.4,26.7c-1.4,0.7-9.5,8.7-10.2,10.1c-1.6,3,0.4,6,3.9,6
		c1.4,0,10.3-8.1,11.7-10.6C162.5,28.6,158.8,24.9,155.4,26.7 M115.6,35.2C87.9,37.7,75.1,71.3,94,91.5c21,22.4,58.1,7.8,58.1-22.7
		C152.2,48.7,135.4,33.4,115.6,35.2 M124,43.7c18.6,4.1,26.4,26.2,14.6,41c-11.1,13.9-32.9,12.3-42-3.1C85.5,62.8,102.7,39,124,43.7
		 M62.5,65.2c-2.3,1.1-2.8,4.4-0.9,6.2l1.1,1.1h7.8c7.7,0,7.8,0,8.7-0.9c1.9-1.9,1.6-4.9-0.6-6.3C76.8,64.3,64.5,64.2,62.5,65.2
		 M159.5,65c-2.5,1-3.2,4.5-1.3,6.5l1.1,1.1h7.8c7.7,0,7.8,0,8.7-0.9c1.9-1.9,1.6-4.7-0.5-6.2C173.9,64.5,161.5,64.2,159.5,65
		 M4.1,70.1c-2.9,1.6-2.7,5.9,0.3,7.2c2.1,0.9,28.2,0.8,30-0.1c3-1.5,2.8-6.1-0.4-7.1C31.9,69.3,5.5,69.4,4.1,70.1 M234.9,84.8
		c-2.9,1.2-3.3,4.3-1,6.5l1.3,1.2h17.6c14.3,0,17.8-0.1,18.8-0.5c3.4-1.4,3.1-6.4-0.4-7.4C268.8,84,236.4,84.1,234.9,84.8
		 M87.7,94.7c-1,0.2-8.5,7.3-10.3,9.7c-2.3,3.1-0.6,6.6,3,6.6c1.8,0,10.8-8.1,12-10.8c0.9-2-0.6-5.4-2.3-5.4c-0.3,0-0.7-0.1-1-0.1
		C88.8,94.6,88.2,94.6,87.7,94.7 M147,95c-1.4,0.6-2.4,2.3-2.4,4c0,2.1,10.1,12,12.3,12c3,0,5.1-3,3.8-5.5
		c-0.8-1.6-9.7-10.2-10.9-10.7C148.5,94.3,148.5,94.3,147,95 M215.5,120.6c4.2,7.9,7.3,14.9,7.5,15.1c0.8,0.8,0.5,0.5-6.5,0.5
		c-8.8,0-7.9,0.3-11.2-3.9l-2.7-3.4l0.8-12.3c0.4-6.8,0.8-13.4,0.8-14.7l0-2.5l1.8,3.4C207.1,104.8,211.3,112.7,215.5,120.6
		 M304.4,102c-11.6,1.8-20.1,10.8-21.5,22.6c-0.2,1.8-0.1,3.5,0.6,8.5c0.1,0.6-0.3,0.8-2.3,1.2c-14.7,3-20.2,20.8-9.7,31.5
		c5.9,6,2,5.6,55,5.5c46.2-0.4,45.4-0.1,49.1-1.7c3.9-1.8,5.7-6.3,7.3-10.4c4.3-11.4-3.7-23.8-16.4-25.2c-0.8-0.1-1-0.4-1.4-2.3
		c-3-13.3-18-21.8-31.6-17.8c-1.8,0.5-3.4,0.9-3.4,0.9c-2.1-3.4-3-4.5-5-6.4C319.7,103.5,311.5,100.9,304.4,102 M195.8,109
		c-0.1,2.4-0.5,8.4-0.8,13.2c-0.7,10.2-1,9.1,3.8,15.1c3.8,4.7,3.7,3.7,1.1,11.8c-1.1,3.6-3.1,10.6-4.4,15.5l-2.3,8.9l-3.1,0.4
		c-6.5,0.9-12.1,4.9-15,10.8c-0.8,1.6-1.5,4.8-1.5,5.2c-2,0.3-21.7,0.4-21.9,0.2c2.5-5,43.4-84.2,43.4-84.9c0-0.3,0.2-0.6,0.4-0.6
		C195.9,104.6,196,105.8,195.8,109 M117.2,107.4c-2.2,1-2.6,2-2.7,8.3c-0.2,9.1,0.6,11.2,4.1,11.2c3.7,0,4.2-1,4.2-10.2v-7.2
		l-1.1-1.1c-0.6-0.6-1.4-1.1-1.7-1.1c-0.3,0-0.8-0.1-1.1-0.2C118.6,107,117.8,107.1,117.2,107.4 M312.3,110.5
		c5.2,1.3,8.8,4.5,11.4,9.9c2.3,4.8,4.1,5.5,7.9,3.2c10.6-6.4,24.7,0.1,26,12.1c0.6,5.4,1.2,6,6.2,6.3c7.1,0.4,11.2,3.7,12,9.7
		c0.3,2.5-0.9,6.8-1.9,8.1c-0.6,0.7-1.3,1.8-2.3,2.6c-1.6,1.2-2.3,0.8-4.7,0.9l-3.3-0.1l-0.1-3.5c-0.2-4.2-1.2-5.7-4.1-5.7
		c-2.8,0-3.9,1.5-4.1,5.6l-0.1,3.4h-6.5H342l-0.1-3.4c-0.2-4.1-1.3-5.6-4.1-5.6c-2.8,0-3.9,1.5-4.1,5.6l-0.1,3.4h-6.5h-6.5l-0.1-3.4
		c-0.2-4.1-1.3-5.6-4.1-5.6c-2.8,0-3.9,1.5-4.1,5.6l-0.1,3.4h-6.9h-6.9l-0.1-3.4c-0.2-4.1-1.3-5.6-4.1-5.6c-2.8,0-3.9,1.5-4.1,5.6
		l-0.1,3.4h-4.4H281l-1.9-1.3c-5.6-3.9-6.5-11.3-2-16.2c2.5-2.7,4.2-3.3,9.8-3.6c6.9-0.3,8.4-2,6.2-6.7
		C286.6,121.1,297.8,106.7,312.3,110.5 M46.5,112.5c-16.1,2.2-26.4,17.4-22.8,33.6c0.2,0.9,0.1,1.1-0.5,1.1c-3.7,0-9.8,3-13,6.4
		c-10.4,11-5.6,28.7,9,33.1c2.1,0.6,4.9,0.7,49.2,0.7h47l2.7-0.8c19.9-6.3,18-34.9-2.6-38.9l-3.2-0.6l-0.5-2.1
		c-3.3-14.6-20.3-24.3-34.1-19.5c-3.8,1.3-3.6,1.4-5.2-1.1C67.5,116.4,56.2,111.2,46.5,112.5 M56.4,121.6c5.1,1.9,9.2,6,11.2,10.9
		c1.7,4.4,3.8,5.1,8.2,2.7c12.7-7,26.3-0.1,28.7,14.7c0.8,5,1.3,5.4,7,5.7c16.8,0.8,16.9,23,0.1,23.7l-3.8,0.2l-0.1-3.5
		c-0.3-8.5-8.2-7.8-8.2,0.7v2.7h-7.9h-7.9l-0.1-3.4c-0.2-4.1-1.3-5.6-4.1-5.6c-2.8,0-3.9,1.5-4.1,5.6l-0.1,3.4h-7.8h-7.8l-0.1-3.4
		c-0.2-4.1-1.3-5.6-4.1-5.6c-2.8,0-3.9,1.5-4.1,5.6l-0.1,3.4h-7.8h-7.8l-0.1-3.4c-0.2-4.1-1.3-5.6-4.1-5.6c-2.8,0-3.9,1.5-4.1,5.7
		l-0.1,3.5l-2.7-0.2c-8.8-0.6-13.9-9.3-10.1-17c2.4-4.9,5.8-6.7,12.5-6.7c5,0,6.4-0.4,7.3-2.5c0.8-1.6,0.8-1.4-1.5-6.9
		C26.2,131.6,41.5,116,56.4,121.6 M270.5,232.9c-0.5,0.5-61.1,0.7-61.4,0.2c-0.2-0.3-6.7-20.9-6.7-21.3c0-0.2,0.7-0.8,1.7-1.4
		c11.5-6.8,11.8-25.9,0.5-33.1c-3.4-2.2-3.3-1.8-2.6-4.8c0.9-4.1,2.8-11,3.9-14.6c0.6-1.8,1.1-3.6,1.1-3.9c0-0.3,0.6-2.3,1.3-4.5
		c0.7-2.2,1.3-4.3,1.3-4.7c0-0.8,0.2-0.8,9.3-0.8h8.1 M198.4,183.2c8.5,4.3,8.5,16.8,0,21.1c-8.3,4.2-17.6-2-17.1-11.4
		C181.8,184.4,190.7,179.3,198.4,183.2 M173.8,199.8c2.5,7.8,9.3,13.2,17.6,13.8l2.8,0.2l8.2,23.9c0,0-5.5,22.1-5.6,22.5
		c-0.2,0.5-0.6,0.7-2.4,0.7c-8.3,0-16.3,5.7-19.1,13.7l-0.8,2.4c0,0-89,1.2-89,1c0-0.1,62.3-80.3,62.3-80.3l25.6,0L173.8,199.8
		 M6.5,215.4c-2.3,1.6-2.6,4.3-0.8,6.2l1.1,1.1h17.1c18.7,0,18.2,0.1,19.2-2.2c0.6-1.5,0.2-3.5-1-4.6l-1-0.9l-16.9-0.1
		C8.8,214.8,7.4,214.8,6.5,215.4 M44,241c-1.5,1.5-1.7,3-0.7,4.8c1.1,1.9,1,1.9,24.9,1.9h22.5l1.1-1.1c0.9-0.9,1.1-1.4,1.1-2.9
		s-0.2-2-1.1-2.9l-1.1-1.1H68H45.3L44,241 M292.1,276.6c0,0.2-77.8,0.3-77.8,0.3l-1-2.7c-1.5-4-3.5-6.7-7.1-9.6l-1.7-1.4
		c0,0,5.3-20.9,5.5-21.2c0.3-0.4,49.6-0.7,63.8-0.9 M199.8,270.4c11,5.4,6.9,22.3-5.4,22.3c-13.3,0-16.4-18.4-3.8-23.1
		C192.8,268.8,197.3,269.2,199.8,270.4 M175.2,286.6c1.7,6.2,7.3,11.7,14,13.7c1.6,0.5,2.2,0.8,2.4,1.4c0.1,0.5,2.9,5.7,6.1,11.5
		c4.9,9,5.7,10.8,5.3,11.3c-0.3,0.3-1.1,1.4-1.8,2.3c-6.1,7.6-14.6,18.5-15.2,19.5l-0.7,1.2c0,0-119.2-0.1-119.2-0.1
		C66.1,347.2,81,286,81,286l93.8-1L175.2,286.6 M330.6,319c0,0-119.4,1.5-120,0.7c-0.3-0.4-2.4-4.2-4.7-8.4c-2.2-4.2-4.4-8.3-4.9-9
		c-1.2-1.8-1.2-1.6,1.3-2.9c5.8-2.8,9.5-6.8,11.2-12.4l0.6-2l82.5-0.6 M335.3,327.4c0.5,0.6,1.3,20.2,1.5,20.4
		c0.3,0.4-140.9,0.3-141.6-0.1c-0.1,0,0.5-0.9,1.4-1.9c0.8-1,4.1-5.1,7.3-9.2c3.2-4,6-7.6,6.4-7.8 M387.6,389.9H379h-8.7l-0.1-5.7
		l-0.1-5.7l-1.2-1.1c-1.4-1.2-2.9-1.4-4.6-0.5c-1.7,0.9-1.9,1.6-1.9,7.5v5.5h-14.5h-14.5V385c0-7.1-1.4-9.4-5.1-8.5
		c-2.5,0.6-2.9,1.7-3.1,7.9l-0.1,5.4h-14.5h-14.5v-5.6c0-7-0.9-8.6-4.7-7.8c-2.7,0.5-3.2,1.8-3.2,8v5.4h-14.5H259v-5.3
		c0-5.8-0.3-6.9-1.9-7.8c-1.8-0.9-3.3-0.7-4.7,0.7l-1.3,1.3v5.5v5.5h-14.5H222l-0.1-5.7l-0.1-5.7l-1.2-1.1c-1.5-1.3-3.1-1.4-4.9-0.3
		l-1.2,0.7v6v6h-14.7h-14.7l-0.1-5.7l-0.1-5.7l-1.2-1.1c-1.5-1.4-3.2-1.4-5-0.2c-1.6,1.1-1.8,2.1-1.8,8.3l0,4.4h-14.5h-14.5v-5.5
		c0-5.9-0.2-6.6-1.9-7.5c-1.8-1-3.3-0.7-4.8,0.7l-1.3,1.3v5.5v5.5h-14.5h-14.5v-5.5c0-5.9-0.2-6.6-1.9-7.5c-1.8-1-3.3-0.7-4.8,0.7
		l-1.3,1.3v5.5v5.5H88.2H73.7l-0.1-5.7l-0.1-5.7l-1.2-1.1c-1.3-1.2-2.8-1.4-4.4-0.7c-1.7,0.8-2,1.7-2.3,7.6l-0.3,5.6H51H36.7
		l-0.1-5.7l-0.1-5.7l-1.2-1.1c-4-3.5-6.9-0.3-6.9,7.6v4.9h-7.5h-7.5v-16.8v-16.8c0,0,373-0.2,373.5-0.3l0.8-0.1"/>
	<path class="st1" d="M380.2,174.1"/>
	<path class="st1" d="M378.4,194.6"/>
	<path class="st1" d="M316.1,231.9"/>
</g>
<line class="st2" x1="351.5" y1="68.5" x2="379.9" y2="68.5"/>
<line class="st2" x1="358.1" y1="111.6" x2="382" y2="111.6"/>
<line class="st3" x1="294" y1="208.2" x2="317.9" y2="208.2"/>
<line class="st3" x1="321.4" y1="245.7" x2="367" y2="245.7"/>
</svg>
