<svg xmlns="http://www.w3.org/2000/svg" xmlns:xlink="http://www.w3.org/1999/xlink" version="1.1" x="0px" y="0px" viewBox="0 0 64 80" style="enable-background:new 0 0 64 64;" xml:space="preserve"><g><g><path d="M13.92,39.14c-0.05,0-0.09-0.01-0.14-0.02C5.67,36.76,0,29.2,0,20.74C0,10.18,8.59,1.59,19.15,1.59    c4.95,0,9.63,1.88,13.2,5.28c0.1,0.09,0.15,0.22,0.15,0.36c0,0.14-0.06,0.26-0.15,0.36c-3.65,3.45-5.65,8.12-5.65,13.15    c0,1.51,0.19,3.01,0.56,4.48c0.07,0.26-0.08,0.52-0.34,0.59c-6.15,1.79-10.95,6.75-12.52,12.95c-0.03,0.13-0.12,0.24-0.23,0.31    C14.08,39.12,14,39.14,13.92,39.14z M19.15,2.58c-10.01,0-18.16,8.15-18.16,18.16c0,7.86,5.15,14.89,12.59,17.29    c1.74-6.16,6.51-11.08,12.62-13.02c-0.32-1.4-0.48-2.83-0.48-4.27c0-5.05,2.03-9.94,5.58-13.5C27.96,4.23,23.67,2.58,19.15,2.58z"/></g><g><path d="M44.85,39.89c-4.78,0-9.33-1.76-12.85-4.96c-3.52,3.21-8.07,4.96-12.86,4.96c-1.84,0-3.65-0.26-5.37-0.77    c-0.26-0.08-0.41-0.35-0.33-0.61c0.08-0.26,0.35-0.41,0.61-0.33c1.63,0.48,3.35,0.73,5.09,0.73c4.69,0,9.14-1.78,12.52-5.01    c0.19-0.18,0.49-0.18,0.68,0c3.38,3.23,7.82,5.01,12.51,5.01c1.59,0,3.15-0.2,4.63-0.6c-1.7-5.99-6.4-10.74-12.38-12.47    c-0.25-0.07-0.41-0.34-0.34-0.59c0.37-1.48,0.56-2.99,0.56-4.49c0-5.03-2.01-9.7-5.65-13.15c-0.2-0.19-0.21-0.5-0.02-0.7    c0.19-0.2,0.5-0.21,0.7-0.02c3.79,3.59,5.96,8.64,5.96,13.87c0,1.43-0.16,2.87-0.48,4.28c6.25,1.98,11.11,7.11,12.74,13.5    c0.07,0.26-0.08,0.52-0.33,0.59C48.52,39.62,46.71,39.89,44.85,39.89z"/></g><g><path d="M50.08,39.13c-0.21,0-0.41-0.14-0.47-0.36c-0.08-0.26,0.08-0.53,0.34-0.61c7.69-2.23,13.07-9.4,13.07-17.43    c0-10.01-8.15-18.16-18.16-18.16c-4.68,0-9.13,1.78-12.51,5.01c-0.2,0.19-0.51,0.18-0.7-0.02c-0.19-0.2-0.18-0.51,0.02-0.7    c3.57-3.41,8.25-5.28,13.19-5.28C55.41,1.59,64,10.18,64,20.74c0,8.46-5.67,16.02-13.78,18.37    C50.18,39.12,50.13,39.13,50.08,39.13z"/></g><g><path d="M32.01,62.41c-10.56,0-19.16-8.59-19.16-19.16c0-1.59,0.2-3.18,0.59-4.72c0.07-0.26,0.32-0.42,0.6-0.36    c0.26,0.07,0.42,0.33,0.36,0.6c-0.37,1.47-0.56,2.98-0.56,4.48c0,10.02,8.15,18.17,18.17,18.17c10.01,0,18.16-8.15,18.16-18.17    c0-1.52-0.19-3.03-0.56-4.49c-0.07-0.26,0.09-0.53,0.36-0.6c0.27-0.07,0.53,0.09,0.6,0.36c0.39,1.54,0.59,3.14,0.59,4.73    C51.15,53.81,42.56,62.41,32.01,62.41z"/></g><g><path d="M28.04,13.16c-0.22,0-0.42-0.15-0.48-0.38c-0.06-0.26,0.1-0.53,0.36-0.59l7-1.7c0.27-0.06,0.53,0.1,0.59,0.36    c0.06,0.26-0.1,0.53-0.36,0.59l-7,1.7C28.12,13.15,28.08,13.16,28.04,13.16z"/></g><g><path d="M26.56,17.58c-0.22,0-0.42-0.15-0.48-0.38c-0.06-0.26,0.1-0.53,0.36-0.59l10.21-2.48c0.27-0.06,0.53,0.1,0.59,0.36    c0.06,0.26-0.1,0.53-0.36,0.59l-10.21,2.48C26.64,17.57,26.6,17.58,26.56,17.58z"/></g><g><path d="M26.22,21.73c-0.22,0-0.42-0.15-0.48-0.38c-0.06-0.26,0.1-0.53,0.36-0.59l11.44-2.78c0.27-0.06,0.53,0.1,0.6,0.36    c0.06,0.26-0.1,0.53-0.36,0.59l-11.44,2.78C26.3,21.73,26.26,21.73,26.22,21.73z"/></g><g><path d="M26.74,25.67c-0.22,0-0.42-0.15-0.48-0.38c-0.06-0.26,0.1-0.53,0.36-0.59l10.97-2.66c0.27-0.06,0.53,0.1,0.6,0.36    c0.06,0.26-0.1,0.53-0.36,0.59l-10.97,2.66C26.82,25.67,26.78,25.67,26.74,25.67z"/></g><g><path d="M17.53,31.99c-0.22,0-0.42-0.15-0.48-0.38c-0.06-0.26,0.1-0.53,0.36-0.59l21.95-5.34c0.27-0.06,0.53,0.1,0.59,0.36    c0.06,0.26-0.1,0.53-0.36,0.59l-21.95,5.34C17.6,31.99,17.57,31.99,17.53,31.99z"/></g><g><path d="M14.7,36.74c-0.22,0-0.42-0.15-0.48-0.38c-0.06-0.26,0.1-0.53,0.36-0.59l29.43-7.16c0.27-0.06,0.53,0.1,0.59,0.36    c0.06,0.26-0.1,0.53-0.36,0.59l-29.43,7.16C14.78,36.74,14.74,36.74,14.7,36.74z"/></g><g><path d="M33.72,36.18c-0.27,0-0.5-0.22-0.5-0.49c0-0.25,0.18-0.46,0.42-0.49l13.43-3.26c0.27-0.07,0.53,0.1,0.6,0.36    c0.06,0.26-0.1,0.53-0.36,0.59l-13.47,3.27C33.8,36.17,33.76,36.18,33.72,36.18z"/></g><g><path d="M39.05,38.95c-0.27,0-0.5-0.22-0.5-0.49c0-0.25,0.18-0.46,0.42-0.49l10.1-2.45c0.27-0.07,0.53,0.1,0.6,0.36    c0.06,0.26-0.1,0.53-0.36,0.59l-10.14,2.46C39.13,38.94,39.09,38.95,39.05,38.95z"/></g></g><text x="0" y="79" fill="#000000" font-size="5px" font-weight="bold" font-family="'Helvetica Neue', Helvetica, Arial-Unicode, Arial, Sans-serif">Created by Rank Sol</text><text x="0" y="84" fill="#000000" font-size="5px" font-weight="bold" font-family="'Helvetica Neue', Helvetica, Arial-Unicode, Arial, Sans-serif">from the Noun Project</text></svg>