<?xml version="1.0" encoding="utf-8"?>
<!-- Generator: Adobe Illustrator 25.4.0, SVG Export Plug-In . SVG Version: 6.00 Build 0)  -->
<svg version="1.1" id="svg" xmlns="http://www.w3.org/2000/svg" xmlns:xlink="http://www.w3.org/1999/xlink" x="0px" y="0px"
	 viewBox="0 0 355.1 352.8" style="enable-background:new 0 0 355.1 352.8;" xml:space="preserve">
<style type="text/css">
	.st0{fill-rule:evenodd;clip-rule:evenodd;fill:#080808;}
	.st1{fill-rule:evenodd;clip-rule:evenodd;fill:#FAFAFA;}
</style>
<g id="svgg">
	<path id="path0" class="st0" d="M137.5,0.3c-14.8,1-26.9,10.2-31.9,24.3l-1.3,3.8l-0.2,15.9l-0.2,15.9l-0.8,0.8l-0.8,0.8l-33.7,0.2
		l-33.7,0.2l-3.4,1C15.1,68.1,4.3,79.7,0.9,96.1L0,100.6v107v107l0.9,4.4c3.5,17.1,15.4,29.2,32.3,33.1l4,0.9h140.2h140.2l4-0.9
		c17.9-4,30.4-17.6,32.7-35.6c0.9-6.9,1.2-209.3,0.3-216.1c-2.3-18.2-13.3-31.6-29.8-36.4c-5.7-1.7-6.4-1.7-42.4-1.7
		c-21,0-35-0.1-35.5-0.4c-1.9-0.7-1.9-1-2.1-17.7l-0.2-15.7l-1.3-3.8C239,12.4,229.2,3.8,216.5,1C213.1,0.2,147.5-0.4,137.5,0.3
		 M215.7,9.3c10.3,2.8,18,10.5,20.3,20.1c0.7,3.1,0.9,29.6,0.2,31.1c-0.6,1.3-2.2,1.9-4.5,1.6c-3.3-0.3-3.2,0.2-3.4-14.9
		c-0.2-18-1.4-21.6-8.6-26.5c-4.4-3-1.3-2.9-45.3-2.9l-39.1,0l-2.3,0.9c-9.9,4-12,8.9-12.1,27.8c0,13.1-0.2,14.4-1.8,15.2
		c-1.7,0.8-4.8,0.6-5.8-0.4l-0.9-0.9V45.6V30.9l1-2.9c3.7-11.1,12.4-18.1,24.4-19.5c1.4-0.2,18.7-0.3,38.5-0.2l36,0.1L215.7,9.3
		 M213.3,26.7c5.6,2.6,6.3,4.6,6.3,20.9v12.8l-1,0.9l-1,0.9h-42.7c-44,0-44.1,0-45-1.6c-1.3-2.2-0.7-26.4,0.6-29.1
		c3-6,1.7-5.8,46.1-5.8l34.9,0L213.3,26.7 M45,71.6c0.7,0.8,0.9,1.5,0.9,3.1c0,7.9,7.4,8.2,8.2,0.3c0.5-4.7-0.2-4.5,13-4.6
		c13.7-0.1,14.3,0.1,14.3,4.8c0,4,3.6,6.8,6.1,4.8c1.4-1.1,1.7-1.9,2.1-5.1c0.5-4.7-0.2-4.4,13.4-4.4c13.5,0,13.4,0,13.9,3.6
		c0.5,3.4,0.6,3.7,1.7,4.8c2.8,3.1,6.3,0.9,7.1-4.5c0.6-3.5,0.6-3.5,8.6-3.8c7.9-0.3,15.5,0,16.6,0.6c1.1,0.5,1.2,1,1.6,4.3
		c0.8,7.2,7.4,7.2,8.2,0c0.6-5.2,2-5.6,18.1-5c9.1,0.3,8.7,0.2,9.4,4.3c1.3,7.6,7.5,8.1,8.2,0.7c0.5-4.9,1-5.1,15.9-5.1
		c11.3,0,11.4,0,11.9,5.2c0.9,7.8,7.3,7.2,8.2-0.8c0.5-4.5-0.3-4.2,13.7-4.2c13.7,0.1,12.9-0.2,13.3,4c0.8,8.3,8.5,8.1,8.5-0.3
		c0-1.3,0.2-2,0.9-2.8l0.9-1l11.1,0.1c14,0.1,13.4-0.1,14.1,4.2c1.1,6.9,7.4,8,8.2,1.5c0.7-5.4,0.9-5.6,8.6-5.6
		c13.3,0,23.8,5.6,29.8,16c4.5,7.8,4.9,10.4,4.8,29.6c0,6.9,0.1,14.5,0.3,17c0.5,7-0.3,28.7-1.1,29.5c-1.1,1.1-3.5,1.2-18.6,1.3
		c-19.1,0-21.3,0.5-26.7,5.9c-5.7,5.6-5.7,5.6-5.7,43.2c0,37.3,0,37.3,5.8,42.9c5.3,5.2,6.7,5.5,27.1,5.7
		c10.1,0.1,16.6,0.3,17.2,0.5c1.9,0.7,1.9,0.6,1.7,29.1l-0.1,26.6l-0.9,2.6c-4.1,12.3-13,20.4-25.5,23.3c-4.1,1-49.5,1.2-50.7,0.3
		c-1-0.7-1.4-2.3-1.4-5c0-4.4-2.4-7-5.4-6c-2,0.7-2.5,1.8-2.8,6.3c-0.4,5.7,0.7,5.3-13.7,5.3c-14.3,0-13.5,0.3-13.9-5.2
		c-0.7-9.2-7.7-9.1-8.4,0.1c-0.2,2.8-0.4,3.5-1.1,4.3l-0.9,0.9h-11.7h-11.7l-0.9-0.9c-0.7-0.8-0.9-1.4-1.1-4.6
		c-0.6-9.1-7.5-8.8-8.1,0.4c-0.4,5.4,0.5,5.1-13.5,5.1c-14.1,0-13.2,0.4-13.6-5.8c-0.5-8.9-8-8-8.1,0.9c0,2.8-0.1,3.2-0.9,4
		l-0.9,0.9H139h-11.8l-1-0.9c-0.9-0.8-1-1.2-1.3-4.5c-0.7-9.2-8.6-8.6-8.6,0.6c0,4.8,0.3,4.7-13.8,4.7H91.2l-0.9-0.9
		c-0.7-0.8-0.9-1.4-1.1-4.6c-0.3-5.3-2.1-7.3-5.4-5.9c-2.1,0.9-2.6,2-2.8,6.3c-0.3,5.7,2,5.2-22.4,5.2l-20.4,0l-4.2-1.1
		c-13.2-3.5-21.7-12.3-24.9-26l-0.9-4l0.1-25l0.1-25l1-0.9l1-0.9l15,0c17.1,0,20.5-0.3,24.3-2.2c4.5-2.2,7.9-6.1,9.8-11.3l1-2.7
		l0.1-31.5c0.1-37.8,0.2-37.5-5.1-43.3c-5.4-6-7.2-6.4-28.1-6.7c-18.2-0.2-18.3-0.2-19-2.1c-0.2-0.6-0.4-12.8-0.4-30.9l0-29.9
		l1.1-4.4c2.3-9.3,7-16.1,14.4-20.9C31.2,71.1,42.6,68.8,45,71.6 M34.6,84.9c-25.5,6.5-20.8,42.7,5.5,42.1l5.3-0.1l3.3-1.6
		c13.8-6.9,16.4-24.8,5-35.3C48.7,85.4,41,83.3,34.6,84.9 M306,84.9c-15.3,3.5-21.7,17-14.8,31.3c6.7,13.9,27.9,15,36.7,1.9
		C338.5,102.4,324.2,80.7,306,84.9 M44.1,93.7c6.6,2.3,10.3,11.1,7.2,17.5c-3.9,8.4-15.1,10.5-21.5,3.9C20,105,30.6,89,44.1,93.7
		 M314.5,93.7c8.4,2.4,11.2,16.2,4.4,22c-9.2,7.9-23.9,0.4-22-11.1C298.5,95.5,305.4,91.2,314.5,93.7 M100.5,105.8
		c-8.7,1.8-9,10.5-0.6,14c16.2,6.8,18.8,24.6,4.6,31.4c-8.9,4.2-19.1-0.9-23.4-11.7c-4.4-11.2-14.7-8-14.7,4.5
		c0,20.6,20.3,36.1,42,32.2c2.2-0.4,4.2-0.6,4.9-0.4c1.3,0.3,32.2,30.9,32.5,32.2c0.5,1.9-0.6,3.1-37.3,39.9
		c-41.6,41.7-39.2,39-39.3,44.6c0,4.9,0.9,6.4,9.7,15.1c9.4,9.4,12.4,10.9,17.9,9.3c3.7-1.1,3.7-1.1,42-39.2
		c36.7-36.7,37.1-37.1,38.6-37.1c1.4,0,1.8,0.3,17.2,15.7c17.9,17.9,16.9,16.5,16,21.9c-1.2,6.8-1.1,9.5,0.6,17.2
		c3.1,13.8,18.5,25.6,32.5,24.9c11.9-0.6,14.3-10,3.7-14.5c-10.6-4.6-15.6-13.2-12.7-21.9c5-14.7,24.2-14.2,31.2,0.9
		c0.9,2,1.9,4,2.1,4.5c2.6,5.3,9.7,4.6,12.2-1.1c1.3-3,1-11.5-0.6-16.1c-5.6-16.1-23.1-26.2-39.5-22.7c-4.6,1-5.3,1-6.9,0
		c-1.2-0.7-22.3-21.7-28.8-28.6c-4.8-5-8.2-0.6,29-37.8c21-21,32.1-32.4,32.6-33.4c1.5-3.1,11.7-30,11.7-30.9c0-0.2,0.7-2,1.5-3.9
		c3.1-7.3,0.1-11.1-6.5-8.2c-1.2,0.5-2.3,0.9-2.5,0.9c-0.2,0-2.9,1-6.1,2.2c-3.1,1.2-6.2,2.3-7,2.5c-0.7,0.1-2.1,0.6-3,1.1
		c-0.9,0.5-2.6,1.1-3.7,1.5c-1.1,0.4-2.8,1-3.7,1.5c-0.9,0.5-3.7,1.5-6.2,2.2l-4.5,1.4l-12.7,12.7c-48.3,48.3-52.2,52.1-53.5,52.1
		c-1.2,0-2.4-1.2-16.7-15.4c-18.1-18-16.9-16.4-15.9-22.9c1.4-9.2,0.7-14.4-2.9-22.1C128.3,111.8,112.8,103.2,100.5,105.8
		 M117,117.6c9.7,4.5,15.1,19.8,11.1,31.4c-1.2,3.5-1.2,4.9,0,6.9c1.3,2.1,101.3,102.1,103.1,103c1.7,0.9,3,0.8,8.9-0.8
		c11.6-3.1,24.7,2.4,29.2,12.2c1.6,3.4,0.6,3.6-3.3,0.6c-12.8-9.7-29.3-7.3-37,5.4c-5.1,8.4-4.5,18.2,1.8,27.4
		c3.9,5.7,3.7,6.6-0.8,4c-10.1-5.8-13.9-17.7-10.2-31.8c1.4-5.4,3.5-2.7-25.7-32.3c-40.8-41.1-76.3-76.2-77.8-76.8
		c-1.5-0.6-3.1-0.7-4.5-0.2c-0.5,0.2-3.1,0.8-5.6,1.3l-4.6,0.9l-4.4-0.8c-9-1.6-17.9-8-18.9-13.6c-0.4-2.2,0.1-2.1,4.1,0.8
		c8.3,6.1,17.5,7.4,25.9,3.4c14.8-6.9,18.3-24.2,7.7-38.3C113,116.8,113.3,115.9,117,117.6 M258.1,123c5.4,3.3,6.7,6.3,4.8,11.2
		c-2.4,6.3-2.6,6.3-9.6-0.5c-7.7-7.5-7.7-8-0.7-10.5C255.6,122.1,256.6,122,258.1,123 M239.3,132.7c1.3,0.8,13.6,13.1,14.6,14.7
		c1.4,2.2,2,1.5-28.3,32c-15.7,15.7-29.1,28.9-29.8,29.3c-2.2,1.2-2.8,0.7-10.8-7.2c-7.5-7.5-8.2-8.5-7.5-10.4
		c0.3-0.7,40.9-41.8,47.4-47.9c1-0.9,2.8-2.8,4-4.1C234.6,132.9,237.2,131.3,239.3,132.7 M122.8,160.9c-3.4,2.9-0.2,7.9,3.9,6.1
		c1.8-0.8,2.5-3.2,1.5-5.2C127.1,159.7,124.7,159.3,122.8,160.9 M46,173.7c2.4,1.2,4.5,3.6,5.6,6.2l0.9,2.2v30.8v30.8l-0.9,2.2
		c-1.1,2.7-4,5.7-6.2,6.5c-2.2,0.8-32.5,1-34.7,0.3c-2.6-0.9-2.4,1.5-2.4-39.9c0-39.3,0-39,1.6-39.8C11.7,172.1,44,172.7,46,173.7
		 M344.8,173.3c1.4,1.1,1.4,2.8,1.4,39.4c0,36.4-0.1,38.1-1.4,39.5c-1.3,1.3-32.8,1.3-35.5,0c-2.5-1.1-4.3-2.9-5.5-5.3l-1-2.1v-31.9
		c0-35.9-0.2-33.3,2.8-36.7c3-3.4,3.9-3.5,22.4-3.6C342.9,172.6,344,172.7,344.8,173.3 M142.1,181.2c-0.8,0.8-1.1,1.4-1.1,2.5
		c0,3.7,5.2,5,6.9,1.7C149.9,181.5,145.2,178.1,142.1,181.2 M162.3,200.6c-2,2-1.2,5.6,1.3,6.2c4.2,1,6.6-4.8,2.8-6.7
		C164.8,199.2,163.5,199.3,162.3,200.6 M154.8,216.8c1.7,0.9,14.9,14.5,15.2,15.7c0.5,1.9-0.5,2.9-28.3,30.7
		c-27.5,27.4-28.2,28.1-30.2,27.6c-2-0.5-16-15.3-16-16.9c0-1.4,0.4-1.9,28.1-29.5C153.8,214.2,152.3,215.5,154.8,216.8 M183,219.6
		c-2.3,1-3.1,4-1.5,5.9c2.3,2.8,6.3,1.1,6.3-2.6C187.8,220.5,185.2,218.7,183,219.6 M201.5,240.5c-2.9,2.9,0.8,7.6,4.5,5.6
		c3.2-1.7,1.8-6.7-1.9-6.7C202.9,239.4,202.3,239.6,201.5,240.5 M222.5,259.4c-2.5,1.1-3,4.6-1,6.2c1.8,1.4,4.8,0.7,5.7-1.5
		C228.4,261.1,225.4,258.1,222.5,259.4 M97.1,289.3c9.5,9.5,9.3,8.9,5,13.4c-7.7,8.1-8.4,8.1-18.4-2.2c-7.9-8-7.9-8.3-1.5-14.8
		C88.2,279.7,87.3,279.5,97.1,289.3 M34.3,295c-9.3,1.8-16.8,11.2-16.8,21c0.1,19.1,22.3,28.8,36.1,15.8
		C69.4,316.8,55.8,290.9,34.3,295 M305.1,295c-9.2,1.6-17.2,11.4-17.2,21.3c0.1,18.8,23.3,28.5,36.6,15.3
		C339.8,316.4,326.5,291.4,305.1,295 M44.4,304.2c7.7,3.4,10.1,13,5,20c-4.5,6.2-14.2,6.8-19.7,1.2
		C19.4,315.2,31.2,298.3,44.4,304.2 M314.9,304.2c6.6,3,9.7,11.1,6.6,17.4c-4.1,8.4-14.3,10.3-21,4
		C289.9,315.5,301.5,298.1,314.9,304.2"/>
	<path id="path1" class="st1" d="M-21.6,181.2v186.6h200h200V181.2V-5.4h-200h-200V181.2 M216.5,1c12.7,2.9,22.5,11.5,26.7,23.6
		l1.3,3.8l0.2,15.7c0.2,16.8,0.2,17,2.1,17.7c0.6,0.2,14.5,0.4,35.5,0.4c36,0,36.7,0,42.4,1.7c16.4,4.8,27.4,18.2,29.8,36.4
		c0.9,6.8,0.6,209.2-0.3,216.1c-2.3,18-14.8,31.6-32.7,35.6l-4,0.9H177.4H37.3l-4-0.9c-16.9-3.8-28.8-16-32.3-33.1L0,314.5v-107
		v-107l0.9-4.4c3.4-16.4,14.2-28,30.5-32.7l3.4-1l33.7-0.2l33.7-0.2l0.8-0.8l0.8-0.8l0.2-15.9l0.2-15.9l1.3-3.8
		c5-14.1,17.1-23.4,31.9-24.3C147.5-0.4,213.1,0.2,216.5,1 M137.6,8.4c-12,1.4-20.7,8.4-24.4,19.5l-1,2.9v14.7v14.7l0.9,0.9
		c1,1,4.1,1.3,5.8,0.4c1.7-0.8,1.8-2.2,1.8-15.2c0-18.9,2.2-23.8,12.1-27.8l2.3-0.9l39.1,0c44,0,40.9-0.2,45.3,2.9
		c7.2,4.9,8.3,8.5,8.6,26.5c0.2,15.1,0.1,14.6,3.4,14.9c2.3,0.2,3.9-0.4,4.5-1.6c0.7-1.5,0.6-28-0.2-31.1
		c-2.2-9.6-10-17.3-20.3-20.1l-3.6-1l-36-0.1C156.3,8.2,139,8.3,137.6,8.4 M139,26c-6,0.6-8.9,3.8-9.6,10.5
		c-0.5,5.3-0.3,23,0.4,24.1c0.9,1.6,1,1.6,45,1.6h42.7l1-0.9l1-0.9V47.6c0-16.3-0.6-18.3-6.3-20.9l-2-0.9l-34.9,0
		C157.3,25.7,140.4,25.8,139,26 M34.5,71.3C21.1,74.8,12.6,83.4,9.3,96.7l-1.1,4.4l0,29.9c0,18,0.1,30.3,0.4,30.9
		c0.7,1.9,0.9,1.9,19,2.1c20.8,0.2,22.7,0.7,28.1,6.7c5.2,5.8,5.2,5.6,5.1,43.3l-0.1,31.5l-1,2.7c-1.9,5.2-5.3,9.1-9.8,11.3
		c-3.9,1.9-7.2,2.2-24.3,2.2l-15,0l-1,0.9l-1,0.9l-0.1,25l-0.1,25l0.9,4c3.2,13.7,11.7,22.5,24.9,26l4.2,1.1l20.4,0
		c24.3,0,22,0.5,22.4-5.2c0.3-4.3,0.8-5.4,2.8-6.3c3.3-1.4,5.1,0.6,5.4,5.9c0.2,3.1,0.3,3.8,1.1,4.6l0.9,0.9h11.5
		c14,0,13.8,0.1,13.8-4.7c0-5.1,2.5-8,5.8-6.7c1.9,0.8,2.4,2,2.8,6c0.2,3.3,0.4,3.7,1.3,4.5l1,0.9H139h11.8l0.9-0.9
		c0.8-0.8,0.9-1.2,0.9-4c0.1-8.9,7.6-9.8,8.1-0.9c0.4,6.2-0.6,5.8,13.6,5.8c14,0,13.2,0.3,13.5-5.1c0.3-5.3,2.2-7.5,5.4-6.4
		c2,0.7,2.5,1.8,2.8,6c0.2,3.1,0.3,3.8,1.1,4.6l0.9,0.9h11.7h11.7l0.9-0.9c0.7-0.7,0.9-1.4,1.1-4.3c0.7-9.2,7.7-9.3,8.4-0.1
		c0.4,5.5-0.4,5.2,13.9,5.2c14.3,0,13.3,0.4,13.7-5.3c0.3-4.4,0.8-5.6,2.8-6.3c3-1,5.4,1.7,5.4,6c0,2.7,0.4,4.3,1.4,5
		c1.2,0.9,46.6,0.7,50.7-0.3c12.6-2.9,21.4-11,25.5-23.3l0.9-2.6l0.1-26.6c0.1-28.5,0.1-28.4-1.7-29.1c-0.6-0.2-7.1-0.4-17.2-0.5
		c-20.4-0.2-21.8-0.5-27.1-5.7c-5.8-5.7-5.8-5.6-5.8-42.9c0-37.7,0-37.6,5.7-43.2c5.4-5.4,7.6-5.8,26.7-5.9
		c15.1,0,17.6-0.2,18.6-1.3c0.8-0.8,1.6-22.5,1.1-29.5c-0.2-2.5-0.3-10.1-0.3-17c0.1-19.2-0.3-21.8-4.8-29.6
		c-5.9-10.3-16.4-16-29.8-16c-7.7,0-7.9,0.1-8.6,5.6c-0.8,6.5-7.1,5.4-8.2-1.5c-0.7-4.3-0.1-4.1-14.1-4.2l-11.1-0.1l-0.9,1
		c-0.7,0.8-0.9,1.5-0.9,2.8c0,8.3-7.7,8.6-8.5,0.3c-0.4-4.2,0.5-3.9-13.3-4c-14-0.1-13.2-0.3-13.7,4.2c-0.9,8-7.3,8.6-8.2,0.8
		c-0.6-5.2-0.6-5.2-11.9-5.2c-14.9,0-15.4,0.2-15.9,5.1c-0.7,7.4-6.9,6.9-8.2-0.7c-0.7-4.2-0.3-4-9.4-4.3c-16-0.6-17.5-0.2-18.1,5
		c-0.8,7.2-7.4,7.2-8.2,0c-0.4-3.3-0.6-3.8-1.6-4.3c-1.2-0.6-8.7-0.8-16.6-0.6c-8.1,0.3-8.1,0.3-8.6,3.8c-0.9,5.5-4.3,7.6-7.1,4.5
		c-1.1-1.2-1.1-1.4-1.7-4.8c-0.6-3.6-0.4-3.6-13.9-3.6c-13.7,0-12.9-0.3-13.4,4.4c-0.4,3.2-0.7,4-2.1,5.1c-2.6,2-6.1-0.8-6.1-4.8
		c0-4.7-0.6-4.9-14.3-4.8c-13.2,0.1-12.5-0.1-13,4.6c-0.8,7.9-8.2,7.6-8.2-0.3C45.9,70.4,42.1,69.3,34.5,71.3 M44.6,85.1
		c19.4,5.1,22.1,31.2,4.1,40.2l-3.3,1.6l-5.3,0.1c-8.7,0.2-14.3-2.5-18.8-9.3C10.5,101.6,25.8,80.2,44.6,85.1 M313.4,84.7
		c21.8,3.6,24.6,33.7,3.9,41.5c-2.9,1.1-10.7,1.3-13.6,0.4c-13-3.9-19.1-18.8-12.8-31C295,87.7,304.3,83.2,313.4,84.7 M35.8,93.3
		c-6.3,1.8-10.9,8.8-9.7,14.5c2.8,13.1,19.7,15.4,25.3,3.4C55.9,101.5,46.2,90.3,35.8,93.3 M307.5,93.1c-11.1,2-14.6,17.6-5.3,23.5
		c7,4.4,16.2,2.2,19.4-4.6C326.1,102,318.1,91.2,307.5,93.1 M113.5,106.7c17,5,26.5,21.1,23.6,39.9c-1,6.5-2.1,4.9,15.9,22.9
		c14.2,14.2,15.5,15.4,16.7,15.4c1.3,0,5.2-3.8,53.5-52.1l12.7-12.7l4.5-1.4c2.5-0.8,5.2-1.8,6.2-2.2c0.9-0.5,2.6-1.1,3.7-1.5
		c1.1-0.4,2.8-1,3.7-1.5c0.9-0.5,2.3-1,3-1.1c0.7-0.1,3.9-1.3,7-2.5c3.1-1.2,5.8-2.2,6.1-2.2c0.2,0,1.3-0.4,2.5-0.9
		c6.6-2.9,9.6,0.8,6.5,8.2c-0.8,1.9-1.5,3.7-1.5,3.9c0,0.9-10.1,27.7-11.7,30.9c-0.5,1-11.6,12.4-32.6,33.4
		c-37.1,37.2-33.7,32.8-29,37.8c6.5,6.9,27.6,27.8,28.8,28.6c1.6,1,2.3,1,6.9,0c16.3-3.5,33.8,6.6,39.5,22.7
		c1.6,4.6,1.9,13,0.6,16.1c-2.5,5.7-9.6,6.4-12.2,1.1c-0.2-0.5-1.2-2.5-2.1-4.5c-7-15.1-26.2-15.6-31.2-0.9
		c-2.9,8.7,2.1,17.3,12.7,21.9c10.6,4.5,8.2,13.9-3.7,14.5c-14,0.7-29.4-11.1-32.5-24.9c-1.7-7.7-1.8-10.4-0.6-17.2
		c1-5.4,2-4-16-21.9c-15.4-15.4-15.8-15.7-17.2-15.7c-1.5,0-1.9,0.4-38.6,37.1c-38.2,38.1-38.2,38.2-42,39.2
		c-5.6,1.6-8.6,0.1-17.9-9.3c-8.8-8.8-9.7-10.2-9.7-15.1c0-5.5-2.3-2.8,39.3-44.6c36.7-36.8,37.8-37.9,37.3-39.9
		c-0.3-1.3-31.2-31.9-32.5-32.2c-0.7-0.2-2.6,0-4.9,0.4c-21.7,3.9-42-11.6-42-32.2c0-12.5,10.3-15.7,14.7-4.5
		c4.3,10.8,14.5,15.9,23.4,11.7c14.2-6.7,11.6-24.6-4.6-31.4c-6.2-2.6-7.9-7.1-4.3-11.2C98.5,105.3,106,104.5,113.5,106.7
		 M114,117.2c-0.1,0.4,0.6,1.6,1.9,3.4c6.8,9,8.1,19.6,3.5,27.8c-7.6,13.6-23.9,16.7-37.1,7c-4-3-4.5-3.1-4.1-0.8
		c1.1,5.7,9.9,12,18.9,13.6l4.4,0.8l4.6-0.9c2.6-0.5,5.1-1.1,5.6-1.3c1.4-0.5,3-0.5,4.5,0.2c1.5,0.6,37,35.7,77.8,76.8
		c29.3,29.5,27.1,26.9,25.7,32.3c-3.7,14.1,0.1,26,10.2,31.8c4.5,2.6,4.7,1.6,0.8-4C214,279,242.1,252.8,266,270.9
		c3.9,2.9,4.8,2.8,3.3-0.6c-4.5-9.7-17.7-15.2-29.2-12.2c-5.9,1.6-7.2,1.7-8.9,0.8c-1.8-0.9-101.8-100.8-103.1-103
		c-1.2-2-1.2-3.4,0-6.9c3.6-10.5,0.4-22.2-8.1-29.3C117.2,117.3,114.3,116.2,114,117.2 M252.6,123.1c-7,2.5-7,3.1,0.7,10.5
		c7,6.9,7.1,6.9,9.6,0.5c1.7-4.5,1.6-5.2-1.3-8.2C257.6,122,256.7,121.7,252.6,123.1 M233.9,134.3c-1.5,1.3-3.7,3.4-5,4.7
		c-1.2,1.3-3,3.2-4,4.1c-6.5,6.1-47.2,47.2-47.4,47.9c-0.7,1.8,0.1,2.9,7.5,10.4c7.9,7.9,8.6,8.4,10.8,7.2
		c2.2-1.2,58.2-57.7,58.5-59.1c0.4-1.6-0.1-2.2-7.4-9.7C237.8,130.7,238,130.8,233.9,134.3 M126.9,160.3c1.6,0.9,2.2,3.4,1.3,5.2
		c-1.3,2.6-5.4,2.4-6.5-0.3C120.4,162.1,123.9,158.7,126.9,160.3 M9.8,173c-1.6,0.8-1.6,0.5-1.6,39.8c0,41.5-0.1,39.1,2.4,39.9
		c2.2,0.7,32.5,0.4,34.7-0.3c2.2-0.8,5.1-3.8,6.2-6.5l0.9-2.2v-30.8v-30.8l-0.9-2.2c-1.1-2.7-3.2-5.1-5.6-6.2
		C44,172.7,11.7,172.1,9.8,173 M310.6,173.1c-3.4,1.1-5.6,2.9-7,6.2c-0.8,1.7-0.8,1.9-0.8,33.6v31.9l1,2.1c1.2,2.4,3,4.2,5.5,5.3
		c2.7,1.2,34.3,1.2,35.5,0c1.3-1.3,1.4-3,1.4-39.5c0-36.6-0.1-38.3-1.4-39.4C343.7,172.4,313.3,172.3,310.6,173.1 M147.5,181.2
		c1.1,1.3,1.2,2.5,0.4,4.1c-1.7,3.3-6.9,2-6.9-1.7C141,180.4,145.4,178.7,147.5,181.2 M166.4,200c3.8,2,1.4,7.8-2.8,6.7
		c-2.6-0.6-3.4-4.2-1.3-6.2C163.5,199.3,164.8,199.2,166.4,200 M123.6,244.4c-27.7,27.7-28.1,28.1-28.1,29.5c0,1.6,14,16.4,16,16.9
		c2,0.5,2.7-0.1,30.2-27.6c27.9-27.8,28.8-28.8,28.3-30.7c-0.3-1.2-13.5-14.8-15.2-15.7C152.3,215.5,153.8,214.2,123.6,244.4
		 M186.9,220.5c1.7,1.7,1,5.1-1.2,6c-1.6,0.7-3.1,0.3-4.2-1C178.5,221.9,183.6,217.2,186.9,220.5 M206.7,240.5
		c1.2,1.2,1.4,2.5,0.5,4.1c-1.7,3.3-6.9,2-6.9-1.7c0-2,1.6-3.5,3.7-3.5C205.3,239.4,205.9,239.6,206.7,240.5 M226.1,259.9
		c2.8,2,1.1,6.4-2.5,6.4c-3.7,0-4.5-5.4-1.1-6.9C223.8,258.8,224.7,258.9,226.1,259.9 M82.2,285.8c-6.4,6.5-6.4,6.7,1.5,14.8
		c10.1,10.2,10.7,10.3,18.4,2.2c4.2-4.4,4.4-3.9-5-13.4C87.3,279.5,88.2,279.7,82.2,285.8 M43,295c5.7,0.9,12,5.6,14.9,11
		c11.5,22.1-17.1,42.9-34.4,25C9,316,22.2,291.6,43,295 M313.8,295c9.7,1.8,17.1,11,17.1,21.3c0,18.7-22.2,28.4-36,15.7
		C279.1,317.2,292.4,291.1,313.8,295 M36.3,303.2c-10.1,2.1-14,14.9-6.7,22.2c7,7,18.5,4.3,21.8-5.3C54.7,311,46,301.2,36.3,303.2
		 M306.8,303.2c-7.9,1.7-12.8,11.2-9.3,18.3c5,10.2,19,10.3,24,0C326.1,312.2,317.2,301.1,306.8,303.2"/>
</g>
</svg>
