<?xml version="1.0" encoding="utf-8"?>
<!-- Generator: Adobe Illustrator 25.4.0, SVG Export Plug-In . SVG Version: 6.00 Build 0)  -->
<svg version="1.1" id="Layer_1" xmlns="http://www.w3.org/2000/svg" xmlns:xlink="http://www.w3.org/1999/xlink" x="0px" y="0px"
	 viewBox="0 0 261 197" style="enable-background:new 0 0 261 197;" xml:space="preserve">
<g>
	<path d="M178.7,196.5c32.6-17.6,52.8-51.3,52.8-88.5C231.5,52.6,186.4,7.5,131,7.5S30.5,52.6,30.5,108c0,37.2,20.2,70.9,52.8,88.5
		H0.5V0.5h260v196H178.7z"/>
	<path d="M260,1v195h-79.4c14.7-8.3,27.2-20.2,36.2-34.6c10-16,15.2-34.4,15.2-53.4C232,52.3,186.7,7,131,7S30,52.3,30,108
		c0,18.9,5.3,37.4,15.2,53.4c9,14.4,21.4,26.3,36.2,34.6H1V1H260 M261,0H0v197h85.4C53.1,180.4,31,146.8,31,108
		C31,52.8,75.8,8,131,8s100,44.8,100,100c0,38.8-22.1,72.4-54.4,89H261V0L261,0z"/>
</g>
</svg>
