<svg id="svg" xmlns="http://www.w3.org/2000/svg" xmlns:xlink="http://www.w3.org/1999/xlink" width="400" height="350.6666666666667" viewBox="0, 0, 400,350.6666666666667" version="1.1"><g id="svgg"><path id="path0" d="M142.963 35.409 C 140.008 37.479,140.000 37.600,140.000 79.314 C 140.000 130.136,137.633 125.333,162.683 125.333 C 174.236 125.333,181.503 125.862,182.047 126.742 C 183.939 129.804,181.205 134.856,176.619 136.772 C 173.547 138.056,172.000 139.590,172.000 141.351 C 172.000 143.955,170.976 144.000,112.025 144.000 L 52.051 144.000 51.303 147.000 C 50.892 148.650,50.731 156.300,50.945 164.000 L 51.333 178.000 71.667 178.368 C 82.850 178.570,92.012 179.170,92.026 179.701 C 92.041 180.232,83.555 210.759,73.168 247.538 C 62.781 284.318,54.650 315.368,55.100 316.538 C 56.146 319.264,76.181 319.661,78.390 317.000 C 79.150 316.083,81.838 308.133,84.361 299.333 L 88.949 283.333 110.371 282.967 L 131.792 282.602 133.978 290.301 C 135.181 294.535,137.498 302.500,139.128 308.000 L 142.092 318.000 152.841 318.384 C 169.187 318.968,169.574 324.631,148.074 248.691 C 137.767 212.286,129.333 181.637,129.333 180.583 C 129.333 178.941,139.192 178.667,198.090 178.667 C 262.943 178.667,266.808 178.799,266.164 181.000 C 252.804 226.685,229.276 312.912,229.583 315.068 C 229.967 317.766,230.840 318.031,240.540 318.393 C 253.522 318.877,252.844 319.580,258.610 299.657 L 263.334 283.333 284.667 283.333 L 306.000 283.333 308.222 290.667 C 309.444 294.700,311.844 302.500,313.555 308.000 L 316.667 318.000 327.592 318.386 C 343.348 318.943,343.711 323.904,322.542 249.333 C 312.446 213.767,303.832 183.317,303.400 181.667 L 302.616 178.667 322.499 178.667 C 339.399 178.667,342.503 178.350,343.191 176.558 C 344.243 173.815,344.243 148.852,343.191 146.109 C 342.470 144.230,335.943 144.000,283.283 144.000 L 224.185 144.000 223.759 141.014 C 223.512 139.278,222.217 137.824,220.667 137.543 C 216.417 136.770,213.333 133.231,213.333 129.127 L 213.333 125.333 232.460 125.333 C 249.296 125.333,251.851 125.041,253.793 122.895 C 257.515 118.782,257.097 39.764,253.333 36.000 C 249.670 32.337,148.126 31.793,142.963 35.409 M248.000 79.333 L 248.000 117.333 197.333 117.333 L 146.667 117.333 146.667 80.222 C 146.667 59.811,147.067 42.711,147.556 42.222 C 148.044 41.733,170.844 41.333,198.222 41.333 L 248.000 41.333 248.000 79.333 M205.672 131.416 C 206.099 135.203,207.511 138.727,209.411 140.750 L 212.465 144.000 198.232 144.000 C 182.923 144.000,182.721 143.928,186.531 139.838 C 187.923 138.344,189.460 134.469,189.946 131.227 L 190.830 125.333 197.908 125.333 L 204.987 125.333 205.672 131.416 M336.000 161.333 L 336.000 170.667 197.333 170.667 L 58.667 170.667 58.667 161.333 L 58.667 152.000 197.333 152.000 L 336.000 152.000 336.000 161.333 M120.198 181.114 C 120.674 181.601,129.007 210.200,138.717 244.667 C 148.427 279.133,156.652 308.083,156.995 309.000 C 157.421 310.138,156.112 310.667,152.866 310.667 C 147.690 310.667,147.179 309.588,140.873 285.333 C 132.226 252.077,113.947 191.030,112.224 189.654 C 110.530 188.300,109.786 188.309,108.397 189.698 C 106.670 191.425,87.965 255.149,74.356 305.667 C 73.164 310.091,64.000 313.885,64.000 309.954 C 64.000 308.993,100.197 180.861,100.726 179.948 C 101.303 178.953,119.131 180.020,120.198 181.114 M297.227 189.113 C 305.257 216.498,330.667 307.703,330.667 309.140 C 330.667 310.246,329.180 310.690,326.389 310.418 C 322.196 310.008,322.041 309.750,318.543 297.333 C 306.625 255.034,290.267 197.377,289.164 193.785 C 287.787 189.294,285.443 187.618,282.814 189.242 C 281.326 190.162,270.602 226.287,254.542 284.486 C 250.926 297.587,247.640 308.837,247.239 309.486 C 246.104 311.322,238.663 310.898,238.693 309.000 C 238.750 305.430,274.620 180.852,275.804 180.116 C 276.495 179.685,281.011 179.534,285.841 179.779 L 294.621 180.226 297.227 189.113 M117.853 232.952 C 125.922 261.330,126.750 258.667,109.857 258.667 C 99.118 258.667,95.856 258.266,96.304 257.000 C 96.627 256.083,99.806 244.978,103.368 232.322 C 106.929 219.665,110.262 209.765,110.774 210.322 C 111.286 210.878,114.472 221.062,117.853 232.952 M292.527 234.544 C 295.904 246.577,298.667 256.927,298.667 257.544 C 298.667 258.162,292.367 258.667,284.667 258.667 C 276.967 258.667,270.667 258.216,270.667 257.665 C 270.667 257.114,273.667 246.165,277.333 233.333 C 281.000 220.502,284.018 209.703,284.041 209.335 C 284.200 206.699,287.275 215.832,292.527 234.544 M128.033 270.087 C 128.748 271.968,129.333 273.768,129.333 274.087 C 129.333 274.406,120.933 274.667,110.667 274.667 C 100.400 274.667,92.008 274.217,92.018 273.667 C 92.141 266.902,92.752 266.667,110.189 266.667 C 126.721 266.667,126.734 266.669,128.033 270.087 M301.857 268.776 C 304.045 274.477,303.492 274.667,284.667 274.667 C 265.841 274.667,265.288 274.477,267.476 268.776 C 268.153 267.011,270.959 266.667,284.667 266.667 C 298.374 266.667,301.180 267.011,301.857 268.776 " stroke="none" fill="#000000" fill-rule="evenodd"></path></g></svg>