<?xml version="1.0" encoding="utf-8"?>
<svg id="svg" width="400" height="350.6666666666667" viewBox="43.225 17.236 307.533 310.046" version="1.1" xmlns="http://www.w3.org/2000/svg">
  <g id="svgg">
    <path id="path0" d="M 124.933 19.662 C 124.933 19.662 126.402 120.702 126.563 126.516 C 126.563 126.516 181.335 126.382 181.27 126.593 C 182.144 127.809 181.812 129.994 180.883 131.711 C 179.936 133.46 178.374 134.99 176.233 135.849 C 174.63 136.526 173.306 137.327 172.453 138.172 C 171.561 139.058 171 140.258 171 141.351 C 171 141.649 170.947 142.752 170.915 142.808 C 170.863 142.898 141.5 143 112.025 143 L 57.484 142.883 C 57.484 142.883 52.821 142.573 51.525 143.619 C 50.101 144.767 50.193 146.815 50.193 146.815 L 50.307 175.161 C 50.307 175.161 50.095 178.343 50.771 179.166 C 51.447 179.989 53.032 179.85 54.253 179.876 C 66.569 180.136 90.728 180.353 90.965 180.411 C 91.068 180.437 82.592 210.489 72.206 247.266 C 61.816 284.055 54.074 316.687 54.538 318.17 C 55.093 319.142 77.721 319.147 79.159 317.639 C 80.008 316.563 82.792 308.431 85.322 299.609 L 89.706 284.32 L 131.04 283.615 L 133.016 290.574 C 134.22 294.811 136.538 302.782 138.169 308.284 L 141.133 318.284 L 141.338 318.974 L 142.056 318.999 C 142.056 318.999 165.512 319.477 166.054 318.284 C 166.561 317.169 159.784 286.381 149.036 248.419 C 138.73 212.017 130.226 180.507 130.187 180.549 C 130.191 180.545 265.364 180.187 265.204 180.459 C 251.842 226.153 228.299 312.851 228.593 315.209 C 228.698 315.931 228.882 316.69 229.274 317.249 C 229.666 317.808 230.401 318.297 231.278 318.563 C 232.868 319.046 235.642 319.211 240.503 319.392 C 246.964 319.632 250.555 319.908 253.001 317.372 C 255.344 314.942 256.691 309.885 259.571 299.935 L 264.086 284.333 L 305.258 284.333 L 307.265 290.957 C 308.488 294.992 310.889 302.796 312.6 308.297 L 315.712 318.297 L 315.923 318.974 L 316.632 318.999 L 327.557 319.385 C 331.444 319.52 338.422 319.396 340.548 318.707 C 341.681 318.34 304.798 183.057 304.367 181.414 L 303.911 179.667 L 322.499 179.667 C 330.957 179.667 336.009 179.587 339.026 179.279 C 342.197 178.956 343.557 178.07 344.125 176.916 C 345.21 173.994 345.21 148.673 344.125 145.751 C 343.757 145.046 342.846 144.326 341.114 144.004 C 339.528 143.708 336.924 143.497 332.749 143.35 C 324.429 143.058 309.615 143 283.283 143 L 225.052 143 L 224.749 140.873 C 224.581 139.858 224.088 138.786 223.448 138.068 C 222.803 137.343 221.792 136.765 220.846 136.559 C 218.885 136.233 217.358 135.302 216.16 133.927 C 214.965 132.556 214.297 130.992 214.333 129.127 L 214.333 126.333 C 214.333 126.333 267.644 125.865 267.922 125.479 C 268.212 125.076 266.867 19.86 266.745 19.41 M 256.779 113.642 L 138.099 114.036 C 138.099 114.036 137.259 31.306 137.602 31.158 C 137.745 30.816 255.874 30.525 255.874 30.525 M 204.678 131.528 C 205.138 135.445 206.683 139.255 208.682 141.435 L 210.153 143 L 198.232 143 C 190.58 143 185.48 142.934 185.553 142.781 C 185.768 142.33 186.314 141.538 187.263 140.52 C 188.754 138.869 190.419 134.728 190.935 131.375 L 191.691 126.333 L 197.908 126.333 L 204.093 126.333 L 204.678 131.528 M 335 161.333 L 335 169.667 L 197.333 169.667 L 59.667 169.667 L 59.667 161.333 L 59.667 153 L 197.333 153 L 335 153 L 335 161.333 M 137.754 244.938 C 147.465 279.405 155.703 308.395 156.058 309.351 C 156.133 309.456 156.109 309.261 156.107 309.264 C 156.09 309.295 156.149 309.246 155.933 309.333 C 155.376 309.558 154.431 309.667 152.866 309.667 C 151.606 309.667 150.866 309.622 150.177 309.243 C 149.462 308.85 148.925 308.205 148.197 306.668 C 146.672 303.447 144.993 297.205 141.841 285.081 C 133.189 251.808 114.738 190.497 112.848 188.873 C 111.931 188.149 111.002 187.638 110.185 187.647 C 109.344 187.657 108.456 188.224 107.69 188.991 C 105.793 190.887 86.83 259.147 73.218 309.676 C 72.794 311.626 66.304 310.679 65.595 310.575 C 65.285 310.53 65.237 310.512 65.118 310.388 C 64.998 310.263 65 310.265 65 309.954 C 65 309.129 101.101 181.281 101.591 180.45 C 101.361 180.557 101.329 180.716 101.801 180.661 C 102.312 180.601 119.656 180.658 119.656 180.658 M 296.267 189.394 C 304.296 216.773 329.667 307.837 329.667 309.14 C 329.667 309.233 329.72 309.099 329.666 309.156 C 329.587 309.239 329.547 309.26 329.288 309.338 C 328.686 309.517 327.813 309.557 326.486 309.423 C 324.417 309.221 323.865 309.202 323.063 307.864 C 322.129 306.306 321.254 303.267 319.506 297.062 C 307.587 254.762 291.226 197.094 290.12 193.492 C 289.382 191.135 288.288 189.3 287.04 188.407 C 286.379 187.934 285.492 187.634 284.72 187.635 C 283.961 187.637 283.059 187.934 282.288 188.391 C 280.584 189.594 269.641 226.012 253.578 284.22 C 249.964 297.314 246.735 308.432 246.388 308.96 C 246.165 309.648 244.475 309.752 242.586 309.645 C 241.647 309.591 240.841 309.446 240.22 309.203 C 239.93 309.09 239.805 309.02 239.688 308.911 C 239.605 308.833 239.631 309.012 239.693 309.016 C 239.732 305.572 275.448 180.88 276.415 180.43 C 276.858 180.075 294 180.309 294 180.309 L 296.267 189.394 M 122.261 256.154 C 122.094 256.69 121.936 256.878 121.463 257.133 C 120.95 257.411 120.302 257.552 119.279 257.644 C 117.178 257.831 101.063 257.569 99.007 257.316 C 98.013 257.193 97.49 257.068 97.187 256.909 C 97.092 256.859 97.194 256.954 97.208 256.981 C 97.241 257.046 97.22 257.317 97.247 257.332 C 97.579 256.387 110.049 210.042 110.48 209.017 M 297.977 256.871 C 298.002 256.852 298.062 256.821 298.018 256.838 C 297.888 256.889 297.701 256.936 297.377 256.998 C 296.7 257.125 295.725 257.24 294.475 257.34 C 291.959 257.542 277.369 257.555 274.851 257.375 C 273.599 257.286 272.618 257.183 271.938 257.068 C 271.61 257.013 271.416 256.969 271.281 256.922 C 271.234 256.905 271.289 256.931 271.313 256.947 C 271.399 257.008 271.667 257.407 271.667 257.665 C 271.667 257.246 284.247 210.191 284.287 209.719 C 284.29 209.613 284.71 212.125 285.426 214.253 M 128.133 273.376 C 128.186 273.344 92.401 273.146 92.404 273.148 C 92.482 273.189 93.101 270.892 93.399 270.055 C 93.678 269.273 93.996 268.939 94.97 268.563 C 97.156 267.721 122.495 267.667 124.635 268.077 C 125.618 268.266 125.948 268.161 126.27 268.512 C 126.425 268.681 126.535 269.11 126.67 269.391 M 300.923 269.134 C 301.465 270.545 301.772 271.421 301.742 272.055 C 301.73 272.319 301.727 272.332 301.595 272.482 C 301.438 272.659 301.273 272.757 300.818 272.913 C 298.749 273.622 270.585 273.622 268.515 272.913 C 268.06 272.757 267.895 272.659 267.738 272.482 C 267.606 272.332 267.603 272.319 267.591 272.055 C 267.561 271.421 267.868 270.544 268.41 269.134 C 268.54 268.5 269.01 268.334 271.307 268.052 C 273.756 267.752 295.577 267.752 298.026 268.052 C 299.217 268.198 299.896 268.366 300.373 268.6 C 300.583 268.703 300.655 268.755 300.759 268.865 C 300.852 268.964 301.13 269.462 301.13 269.462" stroke="none" fill="#000000" fill-rule="evenodd"/>
  </g>
</svg>