<svg id="svg" xmlns="http://www.w3.org/2000/svg" xmlns:xlink="http://www.w3.org/1999/xlink" width="400" height="372.9729729729729" viewBox="0, 0, 400,372.9729729729729" version="1.1"><g id="svgg"><path id="path0" d="M159.142 5.654 C 144.346 6.621,132.257 15.848,127.270 29.978 L 125.933 33.769 125.746 49.710 L 125.560 65.652 124.710 66.501 L 123.860 67.351 90.195 67.551 L 56.530 67.751 53.094 68.752 C 36.761 73.511,25.956 85.098,22.558 101.499 L 21.642 105.923 21.642 212.873 L 21.642 319.824 22.558 324.247 C 26.094 341.311,38.002 353.489,54.880 357.299 L 58.911 358.209 199.067 358.209 L 339.224 358.209 343.264 357.297 C 361.199 353.248,373.630 339.713,375.977 321.677 C 376.869 314.822,377.128 112.385,376.253 105.597 C 373.910 87.413,362.928 74.001,346.481 69.234 C 340.735 67.569,340.080 67.543,304.035 67.540 C 283.049 67.538,269.084 67.398,268.517 67.182 C 266.649 66.472,266.618 66.204,266.416 49.440 L 266.228 33.769 264.879 29.939 C 260.598 17.790,250.888 9.218,238.141 6.336 C 234.756 5.570,169.093 5.004,159.142 5.654 M237.343 14.620 C 247.646 17.435,255.387 25.097,257.631 34.701 C 258.350 37.776,258.483 64.289,257.787 65.815 C 257.209 67.085,255.598 67.668,253.284 67.446 C 249.982 67.129,250.104 67.670,249.905 52.525 C 249.667 34.476,248.525 30.936,241.346 25.996 C 236.915 22.947,240.016 23.146,195.999 23.100 L 156.887 23.059 154.592 23.991 C 144.676 28.021,142.549 32.924,142.516 51.832 C 142.494 64.887,142.332 66.218,140.672 67.056 C 138.997 67.901,135.920 67.670,134.871 66.621 L 133.955 65.706 133.955 50.992 L 133.955 36.279 134.929 33.345 C 138.623 22.217,147.301 15.255,159.281 13.810 C 160.641 13.646,177.957 13.542,197.761 13.578 L 233.769 13.643 237.343 14.620 M234.973 32.039 C 240.616 34.590,241.231 36.642,241.231 52.924 L 241.231 65.736 240.184 66.636 L 239.137 67.537 196.459 67.537 C 152.444 67.537,152.314 67.533,151.422 65.969 C 150.166 63.768,150.699 39.592,152.064 36.887 C 155.090 30.886,153.791 31.049,198.134 31.109 L 233.022 31.157 234.973 32.039 M66.637 76.980 C 67.352 77.811,67.537 78.448,67.537 80.070 C 67.537 88.003,74.973 88.310,75.746 80.409 C 76.206 75.713,75.527 75.954,88.699 75.823 C 102.422 75.688,102.985 75.876,102.985 80.600 C 102.985 84.626,106.538 87.429,109.094 85.419 C 110.504 84.310,110.820 83.542,111.178 80.352 C 111.701 75.682,110.939 75.933,124.611 75.933 C 138.157 75.933,138.002 75.893,138.552 79.515 C 139.067 82.905,139.161 83.178,140.213 84.332 C 143.045 87.439,146.493 85.257,147.362 79.807 C 147.924 76.284,147.938 76.278,155.999 76.013 C 163.923 75.752,171.476 76.007,172.648 76.574 C 173.701 77.083,173.890 77.586,174.279 80.923 C 175.118 88.102,181.722 88.103,182.501 80.924 C 183.060 75.769,184.523 75.365,200.553 75.937 C 209.615 76.261,209.244 76.090,209.946 80.251 C 211.227 87.835,217.398 88.329,218.129 80.906 C 218.615 75.976,219.129 75.810,233.993 75.769 C 245.323 75.738,245.354 75.752,245.936 80.936 C 246.810 88.735,253.237 88.126,254.111 80.161 C 254.602 75.694,253.858 75.919,267.829 76.011 C 281.539 76.102,280.697 75.846,281.089 80.040 C 281.866 88.361,289.540 88.124,289.550 79.778 C 289.552 78.466,289.778 77.764,290.454 76.980 L 291.355 75.933 302.475 76.006 C 316.454 76.098,315.914 75.937,316.597 80.224 C 317.692 87.085,323.968 88.213,324.794 81.697 C 325.484 76.253,325.690 76.119,333.385 76.120 C 346.710 76.120,357.190 81.740,363.135 92.072 C 367.594 99.822,368.025 102.469,367.942 121.642 C 367.912 128.517,368.037 136.157,368.218 138.619 C 368.734 145.595,367.916 167.321,367.107 168.128 C 366.029 169.205,363.580 169.370,348.474 169.387 C 329.364 169.408,327.159 169.891,321.731 175.246 C 316.055 180.846,316.061 180.801,316.054 218.470 C 316.048 255.781,316.040 255.725,321.806 261.381 C 327.119 266.592,328.466 266.874,348.881 267.049 C 359.029 267.136,365.485 267.336,366.106 267.582 C 367.968 268.317,367.960 268.192,367.827 296.676 L 367.703 323.321 366.831 325.933 C 362.726 338.223,353.849 346.324,341.295 349.236 C 337.160 350.195,291.820 350.423,290.593 349.491 C 289.613 348.747,289.179 347.208,289.179 344.472 C 289.178 340.083,286.817 337.427,283.801 338.422 C 281.804 339.081,281.289 340.237,281.014 344.681 C 280.660 350.394,281.674 350.000,267.330 350.000 C 253.004 350.000,253.810 350.303,253.387 344.763 C 252.684 335.558,245.685 335.652,244.955 344.876 C 244.730 347.713,244.547 348.397,243.816 349.129 L 242.944 350.000 231.239 350.000 L 219.533 350.000 218.663 349.074 C 217.916 348.279,217.763 347.633,217.572 344.486 C 217.020 335.360,210.023 335.704,209.428 344.886 C 209.076 350.322,209.927 350.000,195.912 350.000 C 181.786 350.000,182.712 350.399,182.349 344.153 C 181.834 335.291,174.336 336.145,174.275 345.073 C 174.256 347.847,174.159 348.263,173.338 349.084 L 172.422 350.000 160.672 350.000 L 148.922 350.000 147.912 349.131 C 146.989 348.337,146.878 347.948,146.628 344.654 C 145.933 335.460,138.071 336.017,138.062 345.261 C 138.057 350.095,138.335 350.000,124.288 350.000 L 112.817 350.000 111.947 349.074 C 111.200 348.279,111.046 347.633,110.856 344.486 C 110.534 339.166,108.746 337.202,105.471 338.570 C 103.414 339.429,102.895 340.580,102.643 344.838 C 102.305 350.529,104.597 350.000,80.276 349.998 L 59.888 349.995 55.682 348.889 C 42.448 345.409,34.003 336.610,30.772 322.935 L 29.835 318.971 29.936 293.968 L 30.037 268.965 31.084 268.065 L 32.131 267.164 47.129 267.162 C 64.252 267.159,67.592 266.855,71.460 264.951 C 75.960 262.736,79.351 258.824,81.271 253.631 L 82.269 250.933 82.380 219.403 C 82.513 181.651,82.542 181.893,77.312 176.070 C 71.956 170.107,70.098 169.667,49.254 169.418 C 31.092 169.202,30.921 169.183,30.206 167.304 C 29.992 166.740,29.852 154.498,29.854 136.450 L 29.857 106.530 30.957 102.091 C 33.259 92.812,37.937 86.036,45.354 81.241 C 52.806 76.423,64.196 74.142,66.637 76.980 M56.258 90.292 C 30.734 96.776,35.486 133.034,61.777 132.403 L 67.037 132.276 70.334 130.642 C 84.157 123.789,86.707 105.889,75.357 95.381 C 70.325 90.722,62.632 88.672,56.258 90.292 M327.612 90.255 C 312.324 93.738,305.897 107.299,312.783 121.546 C 319.504 135.452,340.684 136.561,349.502 123.468 C 360.106 107.723,345.853 86.099,327.612 90.255 M65.778 99.087 C 72.402 101.384,76.031 110.159,73.022 116.604 C 69.091 125.025,57.886 127.066,51.532 120.518 C 41.671 110.357,52.275 94.405,65.778 99.087 M336.164 99.115 C 344.571 101.482,347.324 115.301,340.545 121.104 C 331.364 128.962,316.616 121.527,318.587 110.034 C 320.163 100.843,327.067 96.555,336.164 99.115 M122.137 111.186 C 113.473 113.034,113.116 121.645,121.558 125.175 C 137.740 131.944,140.375 149.819,126.185 156.566 C 117.299 160.791,107.071 155.674,102.764 144.847 C 98.318 133.673,88.060 136.804,88.060 149.336 C 88.060 169.913,108.326 185.448,130.037 181.514 C 132.285 181.107,134.214 180.948,134.888 181.114 C 136.232 181.446,167.062 212.000,167.404 213.340 C 167.892 215.252,166.803 216.416,130.120 253.202 C 88.526 294.911,90.873 292.247,90.864 297.761 C 90.855 302.677,91.787 304.132,100.558 312.904 C 109.931 322.278,112.914 323.826,118.501 322.213 C 122.217 321.140,122.242 321.117,160.454 282.968 C 197.190 246.292,197.603 245.896,199.063 245.896 C 200.510 245.896,200.850 246.205,216.299 261.639 C 234.223 279.545,233.233 278.186,232.271 283.552 C 231.051 290.356,231.148 293.044,232.886 300.746 C 236.005 314.561,251.362 326.337,265.379 325.663 C 277.264 325.090,279.639 315.699,269.049 311.155 C 258.419 306.595,253.428 297.985,256.368 289.280 C 261.338 274.563,280.571 275.124,287.545 290.190 C 288.475 292.199,289.427 294.235,289.661 294.714 C 292.223 299.971,299.394 299.320,301.852 293.606 C 303.159 290.568,302.839 282.097,301.245 277.542 C 295.612 261.441,278.115 251.363,261.788 254.815 C 257.184 255.789,256.474 255.788,254.863 254.805 C 253.661 254.073,232.524 233.140,226.015 226.236 C 221.259 221.193,217.856 225.631,255.002 188.438 C 276.021 167.393,287.118 156.022,287.597 155.037 C 289.121 151.910,299.254 125.086,299.254 124.180 C 299.254 123.963,299.925 122.213,300.746 120.291 C 303.882 112.952,300.890 109.191,294.252 112.127 C 293.092 112.640,291.964 113.060,291.746 113.060 C 291.527 113.060,288.804 114.055,285.693 115.272 C 282.582 116.489,279.450 117.602,278.731 117.744 C 278.013 117.886,276.670 118.378,275.746 118.838 C 274.823 119.297,273.144 119.971,272.015 120.336 C 270.886 120.700,269.207 121.374,268.284 121.833 C 267.360 122.292,264.590 123.302,262.127 124.078 L 257.649 125.489 244.927 138.211 C 196.637 186.498,192.731 190.299,191.398 190.299 C 190.229 190.299,188.959 189.126,174.727 174.909 C 156.662 156.864,157.782 158.476,158.789 151.963 C 160.206 142.792,159.529 137.572,155.921 129.851 C 149.977 117.133,134.458 108.558,122.137 111.186 M138.621 122.988 C 148.350 127.477,153.765 142.771,149.752 154.427 C 148.563 157.880,148.562 159.283,149.747 161.284 C 151.018 163.431,251.002 263.352,252.804 264.276 C 254.527 265.160,255.770 265.049,261.700 263.482 C 273.257 260.429,286.441 265.915,290.938 275.648 C 292.498 279.024,291.547 279.205,287.675 276.272 C 274.883 266.581,258.414 268.988,250.719 281.674 C 245.623 290.076,246.257 299.890,252.486 309.045 C 256.357 314.733,256.166 315.690,251.679 313.092 C 241.606 307.259,237.806 295.418,241.474 281.297 C 242.878 275.894,245.002 278.556,215.731 249.036 C 174.942 207.902,139.417 172.822,137.912 172.194 C 136.369 171.549,134.780 171.488,133.380 172.021 C 132.832 172.229,130.293 172.823,127.739 173.340 L 123.096 174.280 118.731 173.510 C 109.686 171.915,100.852 165.555,99.786 159.872 C 99.370 157.655,99.866 157.758,103.886 160.721 C 112.220 166.864,121.389 168.080,129.811 164.159 C 144.625 157.263,148.079 140.005,137.465 125.903 C 134.639 122.148,134.973 121.305,138.621 122.988 M279.750 128.350 C 285.102 131.613,286.412 134.691,284.527 139.573 C 282.080 145.908,281.975 145.902,274.931 139.048 C 267.248 131.574,267.211 131.012,274.237 128.509 C 277.245 127.438,278.209 127.410,279.750 128.350 M260.963 138.038 C 262.310 138.877,274.542 151.185,275.525 152.690 C 276.937 154.852,277.542 154.169,247.176 184.676 C 231.505 200.419,218.115 213.607,217.420 213.981 C 215.237 215.157,214.594 214.728,206.650 206.783 C 199.160 199.293,198.404 198.253,199.107 196.407 C 199.377 195.697,240.029 154.630,246.531 148.499 C 247.515 147.570,249.328 145.722,250.560 144.391 C 256.228 138.265,258.804 136.693,260.963 138.038 M144.459 166.241 C 141.037 169.121,144.257 174.172,148.331 172.315 C 150.174 171.476,150.840 169.150,149.810 167.157 C 148.734 165.077,146.331 164.666,144.459 166.241 M67.614 179.044 C 69.966 180.214,72.094 182.604,73.177 185.291 L 74.067 187.500 74.067 218.284 L 74.067 249.067 73.180 251.306 C 72.122 253.977,69.215 257.025,66.978 257.810 C 64.819 258.568,34.451 258.857,32.286 258.140 C 29.718 257.289,29.862 259.666,29.856 218.208 C 29.850 178.905,29.837 179.226,31.479 178.412 C 33.331 177.493,65.631 178.059,67.614 179.044 M366.425 178.662 C 367.804 179.779,367.866 181.464,367.866 218.097 C 367.866 254.546,367.806 256.241,366.462 257.584 C 365.210 258.836,333.650 258.859,330.951 257.610 C 328.469 256.461,326.661 254.708,325.481 252.307 L 324.440 250.187 324.440 218.284 C 324.440 182.426,324.244 184.998,327.240 181.585 C 330.229 178.182,331.124 178.039,349.679 178.010 C 364.513 177.987,365.646 178.031,366.425 178.662 M163.777 186.538 C 162.970 187.346,162.687 187.983,162.687 188.993 C 162.687 192.678,167.894 193.951,169.586 190.679 C 171.574 186.834,166.850 183.466,163.777 186.538 M183.927 205.941 C 181.913 207.955,182.682 211.513,185.272 212.163 C 189.446 213.211,191.863 207.377,188.067 205.414 C 186.406 204.555,185.153 204.715,183.927 205.941 M176.418 222.169 C 178.148 223.076,191.335 236.666,191.632 237.849 C 192.104 239.732,191.172 240.743,163.314 268.571 C 135.842 296.013,135.144 296.650,133.116 296.137 C 131.136 295.637,117.164 280.866,117.164 279.273 C 117.164 277.825,117.563 277.405,145.245 249.723 C 175.398 219.570,173.931 220.867,176.418 222.169 M204.622 224.978 C 202.304 225.957,201.560 228.986,203.168 230.897 C 205.512 233.683,209.430 232.030,209.430 228.254 C 209.430 225.830,206.820 224.051,204.622 224.978 M223.106 245.867 C 220.162 248.811,223.918 253.469,227.633 251.481 C 230.831 249.770,229.427 244.776,225.746 244.776 C 224.531 244.776,223.961 245.011,223.106 245.867 M244.147 264.728 C 241.694 265.789,241.133 269.284,243.161 270.879 C 244.985 272.314,247.996 271.540,248.878 269.408 C 250.091 266.480,247.051 263.473,244.147 264.728 M118.740 294.693 C 128.190 304.143,127.998 303.632,123.787 308.079 C 116.077 316.223,115.413 316.145,105.348 305.908 C 97.469 297.894,97.443 297.631,103.857 291.158 C 109.862 285.097,108.921 284.873,118.740 294.693 M55.970 300.405 C 46.659 302.200,39.162 311.570,39.188 321.381 C 39.239 340.486,61.492 350.199,75.296 337.142 C 91.077 322.215,77.428 296.270,55.970 300.405 M326.769 300.387 C 317.519 301.943,309.538 311.820,309.596 321.641 C 309.705 340.472,332.881 350.176,346.157 336.950 C 361.416 321.748,348.179 296.784,326.769 300.387 M66.045 309.566 C 73.736 313.009,76.122 322.588,71.034 329.599 C 66.541 335.791,56.878 336.375,51.296 330.793 C 41.072 320.569,52.827 303.650,66.045 309.566 M336.567 309.556 C 343.198 312.556,346.263 320.639,343.164 326.955 C 339.067 335.305,328.869 337.243,322.204 330.939 C 311.531 320.845,323.181 303.500,336.567 309.556 " stroke="none" fill="#080808" fill-rule="evenodd"></path><path id="path1" d="M0.000 186.567 L 0.000 373.134 200.000 373.134 L 400.000 373.134 400.000 186.567 L 400.000 0.000 200.000 0.000 L 0.000 0.000 0.000 186.567 M238.141 6.336 C 250.888 9.218,260.598 17.790,264.879 29.939 L 266.228 33.769 266.416 49.440 C 266.618 66.204,266.649 66.472,268.517 67.182 C 269.084 67.398,283.049 67.538,304.035 67.540 C 340.080 67.543,340.735 67.569,346.481 69.234 C 362.928 74.001,373.910 87.413,376.253 105.597 C 377.128 112.385,376.869 314.822,375.977 321.677 C 373.630 339.713,361.199 353.248,343.264 357.297 L 339.224 358.209 199.067 358.209 L 58.911 358.209 54.880 357.299 C 38.002 353.489,26.094 341.311,22.558 324.247 L 21.642 319.824 21.642 212.873 L 21.642 105.923 22.558 101.499 C 25.956 85.098,36.761 73.511,53.094 68.752 L 56.530 67.751 90.195 67.551 L 123.860 67.351 124.710 66.501 L 125.560 65.652 125.746 49.710 L 125.933 33.769 127.270 29.978 C 132.257 15.848,144.346 6.621,159.142 5.654 C 169.093 5.004,234.756 5.570,238.141 6.336 M159.281 13.810 C 147.301 15.255,138.623 22.217,134.929 33.345 L 133.955 36.279 133.955 50.992 L 133.955 65.706 134.871 66.621 C 135.920 67.670,138.997 67.901,140.672 67.056 C 142.332 66.218,142.494 64.887,142.516 51.832 C 142.549 32.924,144.676 28.021,154.592 23.991 L 156.887 23.059 195.999 23.100 C 240.016 23.146,236.915 22.947,241.346 25.996 C 248.525 30.936,249.667 34.476,249.905 52.525 C 250.104 67.670,249.982 67.129,253.284 67.446 C 255.598 67.668,257.209 67.085,257.787 65.815 C 258.483 64.289,258.350 37.776,257.631 34.701 C 255.387 25.097,247.646 17.435,237.343 14.620 L 233.769 13.643 197.761 13.578 C 177.957 13.542,160.641 13.646,159.281 13.810 M160.634 31.322 C 154.652 31.919,151.734 35.123,151.061 41.835 C 150.528 47.160,150.792 64.866,151.422 65.969 C 152.314 67.533,152.444 67.537,196.459 67.537 L 239.137 67.537 240.184 66.636 L 241.231 65.736 241.231 52.924 C 241.231 36.642,240.616 34.590,234.973 32.039 L 233.022 31.157 198.134 31.109 C 178.946 31.083,162.071 31.179,160.634 31.322 M56.157 76.635 C 42.777 80.169,34.260 88.773,30.957 102.091 L 29.857 106.530 29.854 136.450 C 29.852 154.498,29.992 166.740,30.206 167.304 C 30.921 169.183,31.092 169.202,49.254 169.418 C 70.098 169.667,71.956 170.107,77.312 176.070 C 82.542 181.893,82.513 181.651,82.380 219.403 L 82.269 250.933 81.271 253.631 C 79.351 258.824,75.960 262.736,71.460 264.951 C 67.592 266.855,64.252 267.159,47.129 267.162 L 32.131 267.164 31.084 268.065 L 30.037 268.965 29.936 293.968 L 29.835 318.971 30.772 322.935 C 34.003 336.610,42.448 345.409,55.682 348.889 L 59.888 349.995 80.276 349.998 C 104.597 350.000,102.305 350.529,102.643 344.838 C 102.895 340.580,103.414 339.429,105.471 338.570 C 108.746 337.202,110.534 339.166,110.856 344.486 C 111.046 347.633,111.200 348.279,111.947 349.074 L 112.817 350.000 124.288 350.000 C 138.335 350.000,138.057 350.095,138.062 345.261 C 138.067 340.137,140.597 337.239,143.873 338.608 C 145.778 339.404,146.322 340.597,146.628 344.654 C 146.878 347.948,146.989 348.337,147.912 349.131 L 148.922 350.000 160.672 350.000 L 172.422 350.000 173.338 349.084 C 174.159 348.263,174.256 347.847,174.275 345.073 C 174.336 336.145,181.834 335.291,182.349 344.153 C 182.712 350.399,181.786 350.000,195.912 350.000 C 209.927 350.000,209.076 350.322,209.428 344.886 C 209.772 339.578,211.590 337.394,214.784 338.448 C 216.770 339.103,217.319 340.291,217.572 344.486 C 217.763 347.633,217.916 348.279,218.663 349.074 L 219.533 350.000 231.239 350.000 L 242.944 350.000 243.816 349.129 C 244.547 348.397,244.730 347.713,244.955 344.876 C 245.685 335.652,252.684 335.558,253.387 344.763 C 253.810 350.303,253.004 350.000,267.330 350.000 C 281.674 350.000,280.660 350.394,281.014 344.681 C 281.289 340.237,281.804 339.081,283.801 338.422 C 286.817 337.427,289.178 340.083,289.179 344.472 C 289.179 347.208,289.613 348.747,290.593 349.491 C 291.820 350.423,337.160 350.195,341.295 349.236 C 353.849 346.324,362.726 338.223,366.831 325.933 L 367.703 323.321 367.827 296.676 C 367.960 268.192,367.968 268.317,366.106 267.582 C 365.485 267.336,359.029 267.136,348.881 267.049 C 328.466 266.874,327.119 266.592,321.806 261.381 C 316.040 255.725,316.048 255.781,316.054 218.470 C 316.061 180.801,316.055 180.846,321.731 175.246 C 327.159 169.891,329.364 169.408,348.474 169.387 C 363.580 169.370,366.029 169.205,367.107 168.128 C 367.916 167.321,368.734 145.595,368.218 138.619 C 368.037 136.157,367.912 128.517,367.942 121.642 C 368.025 102.469,367.594 99.822,363.135 92.072 C 357.190 81.740,346.710 76.120,333.385 76.120 C 325.690 76.119,325.484 76.253,324.794 81.697 C 323.968 88.213,317.692 87.085,316.597 80.224 C 315.914 75.937,316.454 76.098,302.475 76.006 L 291.355 75.933 290.454 76.980 C 289.778 77.764,289.552 78.466,289.550 79.778 C 289.540 88.124,281.866 88.361,281.089 80.040 C 280.697 75.846,281.539 76.102,267.829 76.011 C 253.858 75.919,254.602 75.694,254.111 80.161 C 253.237 88.126,246.810 88.735,245.936 80.936 C 245.354 75.752,245.323 75.738,233.993 75.769 C 219.129 75.810,218.615 75.976,218.129 80.906 C 217.398 88.329,211.227 87.835,209.946 80.251 C 209.244 76.090,209.615 76.261,200.553 75.937 C 184.523 75.365,183.060 75.769,182.501 80.924 C 181.722 88.103,175.118 88.102,174.279 80.923 C 173.890 77.586,173.701 77.083,172.648 76.574 C 171.476 76.007,163.923 75.752,155.999 76.013 C 147.938 76.278,147.924 76.284,147.362 79.807 C 146.493 85.257,143.045 87.439,140.213 84.332 C 139.161 83.178,139.067 82.905,138.552 79.515 C 138.002 75.893,138.157 75.933,124.611 75.933 C 110.939 75.933,111.701 75.682,111.178 80.352 C 110.820 83.542,110.504 84.310,109.094 85.419 C 106.538 87.429,102.985 84.626,102.985 80.600 C 102.985 75.876,102.422 75.688,88.699 75.823 C 75.527 75.954,76.206 75.713,75.746 80.409 C 74.973 88.310,67.537 88.003,67.537 80.070 C 67.537 75.763,63.766 74.624,56.157 76.635 M66.231 90.476 C 85.654 95.550,88.327 121.722,70.334 130.642 L 67.037 132.276 61.777 132.403 C 53.031 132.613,47.465 129.866,42.958 123.117 C 32.154 106.937,47.398 85.556,66.231 90.476 M335.075 90.090 C 356.849 93.689,359.669 123.761,338.964 131.554 C 336.105 132.630,328.311 132.865,325.339 131.964 C 312.363 128.032,306.255 113.195,312.581 100.975 C 316.686 93.046,325.922 88.576,335.075 90.090 M57.463 98.643 C 51.157 100.482,46.516 107.414,47.746 113.154 C 50.559 126.268,67.436 128.572,73.022 116.604 C 77.555 106.894,67.796 95.630,57.463 98.643 M329.104 98.494 C 318.045 100.461,314.487 116.138,323.763 122.021 C 330.736 126.442,340.009 124.261,343.120 117.468 C 347.736 107.385,339.767 96.596,329.104 98.494 M135.189 112.097 C 152.173 117.121,161.689 133.197,158.789 151.963 C 157.782 158.476,156.662 156.864,174.727 174.909 C 188.959 189.126,190.229 190.299,191.398 190.299 C 192.731 190.299,196.637 186.498,244.927 138.211 L 257.649 125.489 262.127 124.078 C 264.590 123.302,267.360 122.292,268.284 121.833 C 269.207 121.374,270.886 120.700,272.015 120.336 C 273.144 119.971,274.823 119.297,275.746 118.838 C 276.670 118.378,278.013 117.886,278.731 117.744 C 279.450 117.602,282.582 116.489,285.693 115.272 C 288.804 114.055,291.527 113.060,291.746 113.060 C 291.964 113.060,293.092 112.640,294.252 112.127 C 300.890 109.191,303.882 112.952,300.746 120.291 C 299.925 122.213,299.254 123.963,299.254 124.180 C 299.254 125.086,289.121 151.910,287.597 155.037 C 287.118 156.022,276.021 167.393,255.002 188.438 C 217.856 225.631,221.259 221.193,226.015 226.236 C 232.524 233.140,253.661 254.073,254.863 254.805 C 256.474 255.788,257.184 255.789,261.788 254.815 C 278.115 251.363,295.612 261.441,301.245 277.542 C 302.839 282.097,303.159 290.568,301.852 293.606 C 299.394 299.320,292.223 299.971,289.661 294.714 C 289.427 294.235,288.475 292.199,287.545 290.190 C 280.571 275.124,261.338 274.563,256.368 289.280 C 253.428 297.985,258.419 306.595,269.049 311.155 C 279.639 315.699,277.264 325.090,265.379 325.663 C 251.362 326.337,236.005 314.561,232.886 300.746 C 231.148 293.044,231.051 290.356,232.271 283.552 C 233.233 278.186,234.223 279.545,216.299 261.639 C 200.850 246.205,200.510 245.896,199.063 245.896 C 197.603 245.896,197.190 246.292,160.454 282.968 C 122.242 321.117,122.217 321.140,118.501 322.213 C 112.914 323.826,109.931 322.278,100.558 312.904 C 91.787 304.132,90.855 302.677,90.864 297.761 C 90.873 292.247,88.526 294.911,130.120 253.202 C 166.803 216.416,167.892 215.252,167.404 213.340 C 167.062 212.000,136.232 181.446,134.888 181.114 C 134.214 180.948,132.285 181.107,130.037 181.514 C 108.326 185.448,88.060 169.913,88.060 149.336 C 88.060 136.804,98.318 133.673,102.764 144.847 C 107.071 155.674,117.299 160.791,126.185 156.566 C 140.375 149.819,137.740 131.944,121.558 125.175 C 115.336 122.573,113.610 118.097,117.236 113.967 C 120.160 110.638,127.628 109.859,135.189 112.097 M135.595 122.543 C 135.456 122.904,136.162 124.172,137.465 125.903 C 144.220 134.877,145.550 145.481,140.957 153.731 C 133.368 167.363,117.067 170.437,103.886 160.721 C 99.866 157.758,99.370 157.655,99.786 159.872 C 100.852 165.555,109.686 171.915,118.731 173.510 L 123.096 174.280 127.739 173.340 C 130.293 172.823,132.832 172.229,133.380 172.021 C 134.780 171.488,136.369 171.549,137.912 172.194 C 139.417 172.822,174.942 207.902,215.731 249.036 C 245.002 278.556,242.878 275.894,241.474 281.297 C 237.806 295.418,241.606 307.259,251.679 313.092 C 256.166 315.690,256.357 314.733,252.486 309.045 C 235.679 284.345,263.782 258.171,287.675 276.272 C 291.547 279.205,292.498 279.024,290.938 275.648 C 286.441 265.915,273.257 260.429,261.700 263.482 C 255.770 265.049,254.527 265.160,252.804 264.276 C 251.002 263.352,151.018 163.431,149.747 161.284 C 148.562 159.283,148.563 157.880,149.752 154.427 C 153.380 143.888,150.148 132.199,141.641 125.092 C 138.797 122.717,135.983 121.530,135.595 122.543 M274.237 128.509 C 267.211 131.012,267.248 131.574,274.931 139.048 C 281.975 145.902,282.080 145.908,284.527 139.573 C 286.267 135.068,286.152 134.362,283.188 131.352 C 279.256 127.358,278.312 127.058,274.237 128.509 M255.529 139.643 C 254.027 140.924,251.791 143.060,250.560 144.391 C 249.328 145.722,247.515 147.570,246.531 148.499 C 240.029 154.630,199.377 195.697,199.107 196.407 C 198.404 198.253,199.160 199.293,206.650 206.783 C 214.594 214.728,215.237 215.157,217.420 213.981 C 219.657 212.776,275.630 156.232,275.927 154.876 C 276.287 153.240,275.868 152.696,268.496 145.221 C 259.488 136.087,259.627 136.147,255.529 139.643 M148.528 165.683 C 150.139 166.545,150.774 169.038,149.841 170.841 C 148.500 173.436,144.419 173.264,143.301 170.565 C 142.010 167.447,145.585 164.108,148.528 165.683 M31.479 178.412 C 29.837 179.226,29.850 178.905,29.856 218.208 C 29.862 259.666,29.718 257.289,32.286 258.140 C 34.451 258.857,64.819 258.568,66.978 257.810 C 69.215 257.025,72.122 253.977,73.180 251.306 L 74.067 249.067 74.067 218.284 L 74.067 187.500 73.177 185.291 C 72.094 182.604,69.966 180.214,67.614 179.044 C 65.631 178.059,33.331 177.493,31.479 178.412 M332.276 178.507 C 328.847 179.591,326.719 181.456,325.226 184.683 C 324.447 186.367,324.440 186.633,324.440 218.284 L 324.440 250.187 325.481 252.307 C 326.661 254.708,328.469 256.461,330.951 257.610 C 333.650 258.859,365.210 258.836,366.462 257.584 C 367.806 256.241,367.866 254.546,367.866 218.097 C 367.866 181.464,367.804 179.779,366.425 178.662 C 365.355 177.796,334.961 177.658,332.276 178.507 M169.183 186.596 C 170.282 187.902,170.400 189.104,169.586 190.679 C 167.894 193.951,162.687 192.678,162.687 188.993 C 162.687 185.726,167.086 184.103,169.183 186.596 M188.067 205.414 C 191.863 207.377,189.446 213.211,185.272 212.163 C 182.682 211.513,181.913 207.955,183.927 205.941 C 185.153 204.715,186.406 204.555,188.067 205.414 M145.245 249.723 C 117.563 277.405,117.164 277.825,117.164 279.273 C 117.164 280.866,131.136 295.637,133.116 296.137 C 135.144 296.650,135.842 296.013,163.314 268.571 C 191.172 240.743,192.104 239.732,191.632 237.849 C 191.335 236.666,178.148 223.076,176.418 222.169 C 173.931 220.867,175.398 219.570,145.245 249.723 M208.540 225.908 C 210.237 227.604,209.562 230.972,207.339 231.901 C 205.735 232.571,204.282 232.221,203.168 230.897 C 200.151 227.312,205.227 222.597,208.540 225.908 M228.387 245.867 C 229.613 247.093,229.773 248.347,228.914 250.007 C 227.222 253.280,222.015 252.007,222.015 248.321 C 222.015 246.335,223.656 244.776,225.746 244.776 C 226.962 244.776,227.532 245.011,228.387 245.867 M247.758 265.274 C 250.593 267.287,248.856 271.642,245.218 271.642 C 241.534 271.642,240.695 266.221,244.147 264.728 C 245.470 264.156,246.377 264.293,247.758 265.274 M103.857 291.158 C 97.443 297.631,97.469 297.894,105.348 305.908 C 115.413 316.145,116.077 316.223,123.787 308.079 C 127.998 303.632,128.190 304.143,118.740 294.693 C 108.921 284.873,109.862 285.097,103.857 291.158 M64.684 300.362 C 70.401 301.298,76.729 305.991,79.543 311.381 C 91.065 333.450,62.489 354.238,45.175 336.382 C 30.614 321.365,43.838 296.948,64.684 300.362 M335.490 300.371 C 345.193 302.161,352.607 311.378,352.599 321.642 C 352.585 340.381,330.436 350.036,316.648 337.313 C 300.721 322.616,314.081 296.421,335.490 300.371 M57.968 308.584 C 47.821 310.676,43.977 323.474,51.296 330.793 C 58.337 337.834,69.754 335.054,73.135 325.477 C 76.360 316.342,67.610 306.596,57.968 308.584 M328.441 308.587 C 320.494 310.246,315.656 319.768,319.134 326.907 C 324.119 337.138,338.154 337.166,343.164 326.955 C 347.763 317.581,338.817 306.420,328.441 308.587 " stroke="none" fill="#fafafa" fill-rule="evenodd"></path></g></svg>