<svg version="1.0" xmlns="http://www.w3.org/2000/svg" viewBox="0 0 708 580">
  <path d="M610 23l-7 3a323 323 0 00-35 13l-7 2-11 5-29 11-7 2-81 81-83 81a1103 1103 0 01-85-87l3-17c1-9 1-26-1-33a81 81 0 00-52-57l-3-1c-2-2-15-3-24-3-16 1-22 5-21 16 0 5 0 6 4 9l6 4c3 0 14 6 19 10 8 5 11 9 15 17 3 7 3 8 3 19s0 12-3 18a42 42 0 01-69 8l-7-8-1-3-4-8c-3-9-5-12-9-14-7-4-15-1-19 6-2 4-2 7-2 17 0 16 1 20 8 34 10 20 27 34 50 41a93 93 0 0053-1c2 0 14 12 45 42l42 43-92 94-96 96c-4 6-5 14-4 21l3 8c2 5 38 41 43 43 7 3 18 3 24-1 5-2 25-21 99-96l95-93 86 87-1 7c-4 13-5 24-3 34 3 14 5 20 13 35 2 4 10 13 16 19 5 4 19 12 26 14 6 2 12 3 23 3 9 0 13 0 16-2 8-3 11-12 7-19-2-4-5-6-14-9-16-6-28-19-33-35-4-18 5-38 22-46 9-5 25-5 33-2 8 4 10 5 17 11 6 7 13 18 14 25l4 7c4 3 4 3 10 3 5 0 6 0 9-3s4-5 5-12c4-17-2-40-16-56a84 84 0 00-44-29c-7-2-23-2-33-1l-17 3c-2 1-8-5-46-43l-43-43 81-82c75-74 82-82 84-86l3-10a651 651 0 0022-59l2-6 3-7c5-12 5-16 2-19-3-2-5-3-8-1zM207 40c10 3 22 10 29 18a79 79 0 0113 21c2 2 6 20 6 26 0 7-4 25-6 28l-1 4c0 4 1 5 49 54l157 156c55 55 49 51 62 47 12-4 23-5 33-4 19 4 33 12 44 26 8 10 12 20 13 32l-1 7-2-1-3-6-2-5a67 67 0 00-30-25c-7-3-27-5-35-3-19 5-34 19-41 38l-1 17c0 10 1 16 4 23l12 18c4 4 13 11 18 13l7 4c1 2 1 2-7 2-15-2-29-8-40-21-8-8-15-21-17-31-3-11-2-30 2-38 3-7 3-10 2-13S219 172 216 171c-2 0-9 1-12 3-6 3-22 5-34 3-15-3-27-10-38-20a61 61 0 01-18-39c0-7 0-7 1-6l5 7 12 18c6 5 18 12 26 14 7 3 27 3 33 0 19-7 30-18 37-36l2-16c0-19-6-32-20-45-5-5-17-13-20-13l-1-2 7-1 11 2zm370 27l10 11-2 6-7 16c-1 6-3 10-4 10-1 1-41-39-41-41l4-2 13-5 10-4 4-1c2 0 4 2 13 10zm-36 35l24 24-155 155-48-48L517 78l24 24zM334 310l24 24-74 73c-40 41-74 74-75 74l-48-47c0-2 146-148 148-148l25 24zM174 470l24 24-14 13c-20 21-20 21-43-2l-19-20c-2-4-3-7-1-11s26-28 28-28l25 24z"/>
</svg>
