<?xml version="1.0" encoding="utf-8"?>
<svg version="1.1" x="0px" y="0px" viewBox="2.284 4.27 94.63 91.044" enable-background="new 0 0 100 100" xmlns="http://www.w3.org/2000/svg">
  <defs>
    <linearGradient gradientUnits="userSpaceOnUse" x1="50" y1="8.2" x2="50" y2="91.8" id="gradient-0">
      <stop offset="0" style="stop-color: #bada55"/>
      <stop offset="1" style="stop-color: #758d29"/>
    </linearGradient>
  </defs>
  <path d="M 89.749 49.174 C 86.333 44.627 82.231 41.392 76.479 39.719 C 76.842 37.944 77 36.45 77 34.4 C 77 26.995 73.882 20.068 69.007 15.193 C 64.132 10.318 57.205 7.2 49.8 7.2 C 42.395 7.2 35.468 10.318 30.593 15.193 C 25.718 20.068 22.6 26.995 22.6 34.4 C 22.6 36.471 22.71 37.788 23.22 39.839 C 17.945 41.693 13.538 44.858 10.174 49.364 C 6.809 53.871 4.8 59.584 4.8 65.5 C 4.8 72.953 7.89 79.904 12.754 84.793 C 17.617 89.682 24.545 92.8 32 92.8 C 38.991 92.8 44.949 90.643 50 85.945 C 54.97 90.269 61.112 92.8 68 92.8 C 75.455 92.8 82.382 89.682 87.246 84.806 C 92.109 79.93 95.2 73.004 95.2 65.6 C 95.2 59.535 93.165 53.72 89.749 49.174 Z M 39.76 55.426 C 39.652 55.373 39.687 55.387 39.764 55.421 Z M 40.055 55.559 L 40.056 55.558 C 40.065 55.562 40.066 55.563 40.055 55.559 Z M 56.116 53.099 L 55.794 52.453 C 56.076 53.019 55.935 52.73 56.008 52.871 L 66.599 42.2 C 66.599 42.2 67.351 42.247 66.936 42.279 Z M 54.057 49.586 L 54.271 49.942 C 54.248 49.904 54.198 49.82 54.057 49.586 Z M 52.297 47.489 C 52.231 47.418 52.3 47.486 52.3 47.486 Z M 52.157 61.657 L 52.371 61.443 C 53.144 61.358 52.157 61.657 52.157 61.657 Z M 45.017 68.797 L 45.052 68.762 C 45.052 68.762 45.066 69.258 45.017 68.797 Z M 55.093 63.321 C 55.093 63.324 55.093 63.324 55.093 63.321 Z M 55.11 63.441 L 55.093 63.321 L 55.093 63.321 C 55.098 63.356 55.104 63.396 55.11 63.441 Z M 71.8 41.9 C 71.814 41.876 71.826 41.854 71.836 41.836 C 71.804 41.907 71.756 42.028 71.7 42.2 L 71.793 41.912 Z M 44.753 46.161 C 44.998 46.342 44.709 46.206 44.709 46.206 Z M 41.69 44.396 C 41.69 44.396 42.215 44.732 41.923 44.591 L 34.49 52.024 L 33.807 51.293 C 34.111 51.618 34.131 51.589 34.337 51.749 Z M 38.471 43.343 C 38.893 43.481 38.447 43.367 38.447 43.367 Z M 30.284 46.93 L 30.285 46.93 C 30.335 47.002 30.36 47.039 30.284 46.93 Z M 43.379 56.835 C 43.379 56.835 42.322 56.413 42.484 56.475 C 42.788 55.655 43.379 56.835 43.379 56.835 Z M 47.672 61.643 C 48.338 61.698 47.614 61.7 47.614 61.7 Z M 48.457 77.986 L 48.671 78.341 C 48.649 78.305 48.601 78.225 48.457 77.986 Z M 50.151 80.443 C 50.411 80.743 50.048 80.624 50.048 80.624 Z M 49.8 11.2 C 56.245 11.2 61.918 13.757 66.18 18.02 C 70.443 22.282 73 27.955 73 34.4 C 73 36.145 72.874 37.238 72.611 38.722 C 70.758 38.313 69.855 38.3 68.1 38.3 C 61.116 38.3 55.062 40.741 50.093 45.149 C 45.042 40.452 39.091 38.3 32.1 38.3 C 30.148 38.3 28.791 38.452 27.077 38.8 C 26.681 36.921 26.6 36.218 26.6 34.4 C 26.6 27.954 29.134 22.28 33.383 18.019 C 37.633 13.757 43.305 11.2 49.8 11.2 Z M 32 88.8 C 25.505 88.8 19.833 86.243 15.583 81.981 C 11.334 77.72 8.8 72.046 8.8 65.6 C 8.8 60.465 10.442 55.776 13.366 51.833 C 16.29 47.89 19.794 45.307 24.282 43.751 C 27.295 51.808 33.266 57.602 41.423 60.371 C 41.059 62.148 40.9 63.65 40.9 65.6 C 40.9 72.381 43.212 78.256 47.295 83.111 C 42.843 87.217 38.012 88.8 32 88.8 Z M 68 88.8 C 61.982 88.8 57.017 86.896 52.791 83.127 C 57.289 78.167 59.2 72.278 59.2 65.6 C 59.2 63.55 59.041 62.044 58.675 60.263 C 66.676 57.448 72.551 51.576 75.431 43.64 C 80.432 45.068 83.619 47.724 86.615 51.679 C 89.612 55.634 91.328 60.365 91.3 65.595 C 91.293 72.043 88.693 77.718 84.43 81.98 C 80.168 86.243 74.495 88.8 68 88.8 Z" style="paint-order: stroke; stroke-dashoffset: -2px; stroke-dasharray: 8px; stroke-width: 0px; stroke: url(#gradient-0);"/>
</svg>