<svg xmlns="http://www.w3.org/2000/svg" xmlns:xlink="http://www.w3.org/1999/xlink" version="1.1" x="0px" y="0px" viewBox="0 0 60 75" enable-background="new 0 0 60 60" xml:space="preserve"><rect x="-330" y="-91" display="none" fill="#000000" width="802" height="805"/><path d="M19.1679688,58.0449219c0.0004883,0,0.0004883,0,0.0009766,0c3.2539062,0,6.472168-0.8652344,9.3066406-2.5014648  C28.9675903,55.2592773,29.4729614,54.9217529,30,54.5420532c0.5270386,0.3796997,1.0324097,0.7172241,1.5244141,1.0014038  c2.8339844,1.6362305,6.0527344,2.5014648,9.3071289,2.5014648c0.0004883,0,0.0009766,0,0.0014648,0  c6.6499023,0,12.84375-3.5737305,16.1655273-9.3271484c2.4907227-4.3139648,3.1523438-9.3393555,1.862793-14.1503906  c-1.2890625-4.8115234-4.3745117-8.8325195-8.6879883-11.3227539c-0.4873047-0.2820435-1.0332642-0.5515137-1.6303101-0.8201294  c0.0656128-0.6503296,0.1054077-1.2575684,0.1054077-1.8214722c0-10.2827148-8.3657227-18.6479492-18.6484375-18.6479492  s-18.6484375,8.3652344-18.6484375,18.6479492c0,0.5638428,0.0397949,1.1711426,0.1054077,1.8214722  c-0.5970459,0.2686157-1.1429443,0.5380249-1.6298218,0.8196411c-4.3139648,2.4907227-7.3994141,6.5117188-8.6884766,11.3232422  c-1.2895508,4.8110352-0.6279297,9.8364258,1.862793,14.1503906C6.3227539,54.4707031,12.5175781,58.0449219,19.1679688,58.0449219z   M29.2549438,52.6813354c-0.1506958-0.1313477-0.2960815-0.2675781-0.4417114-0.4036255  c-0.1347656-0.1259155-0.2704468-0.2509766-0.4008179-0.3807373c-0.1416016-0.1409302-0.2774658-0.2866211-0.4138184-0.4318848  c-0.1245728-0.1327515-0.2503662-0.2644653-0.3704834-0.4006958c-0.1322632-0.1500244-0.2583008-0.3047485-0.3851318-0.4588623  c-0.1148071-0.1395264-0.2311401-0.277771-0.3414307-0.4205322c-0.1221924-0.1581421-0.2376099-0.3209229-0.354187-0.4828491  c-0.1046753-0.1455078-0.2113647-0.2897339-0.3114624-0.4381714c-0.1115723-0.1654053-0.2159424-0.335083-0.3217163-0.5040283  c-0.0950928-0.1517944-0.1924438-0.3023071-0.2827759-0.4567871c-0.1004639-0.1716919-0.1931763-0.3475342-0.2877197-0.5224609  c-0.085022-0.1572266-0.1727295-0.3131104-0.2528687-0.4727783c-0.0899048-0.1790771-0.1715698-0.3619995-0.2553101-0.5439453  c-0.0739746-0.1607056-0.151001-0.3198853-0.2201538-0.4827271c-0.0792236-0.1866455-0.1496582-0.3768921-0.2224731-0.5661011  c-0.0626831-0.1629028-0.1289062-0.3242798-0.1867676-0.4890137c-0.067627-0.1924438-0.1258545-0.3882446-0.1868286-0.5830688  c-0.0519409-0.1660156-0.1080322-0.3308105-0.1550903-0.4984131c-0.055603-0.1977539-0.1011353-0.3984375-0.1498413-0.5982666  c-0.0408936-0.1678467-0.0863647-0.3345337-0.1223755-0.5037231c-0.0437012-0.2050171-0.0766602-0.4125366-0.1130981-0.6193237  c-0.0294189-0.1669922-0.0637817-0.3328247-0.0883789-0.5007935c-0.03125-0.213562-0.0510864-0.4292603-0.074585-0.6442871  c-0.0178223-0.1635742-0.0413208-0.3262329-0.0545654-0.4906006c-0.0181274-0.2242432-0.0241089-0.4501343-0.0336304-0.6755371  c-0.0066528-0.1570435-0.0194092-0.3133545-0.0218506-0.4708252c-0.0039062-0.2543945,0.0054932-0.5099487,0.0126953-0.7652588  c0.0036621-0.1293335,0.0006104-0.2581177,0.0071411-0.3876343c0.008667-0.1726685,0.0293579-0.3457642,0.0432129-0.5186157  C25.4202271,38.8062134,27.6775513,39.2514648,30,39.2514648s4.5797729-0.4452515,6.7310791-1.2816772  c0.013855,0.1728516,0.0345459,0.3459473,0.0432129,0.5186157c0.0065308,0.1295166,0.003479,0.2583008,0.0071411,0.3876343  c0.0072021,0.2553101,0.0166016,0.5108643,0.0126953,0.7652588c-0.0024414,0.1574707-0.0151978,0.3137817-0.0218506,0.4708252  c-0.0095215,0.2254028-0.0155029,0.4512939-0.0336304,0.6755371c-0.0132446,0.1643677-0.0367432,0.3270264-0.0545654,0.4906006  c-0.0234985,0.2150269-0.043335,0.4307251-0.074585,0.6442871c-0.0245972,0.1679688-0.05896,0.3338013-0.0883789,0.5007935  c-0.036438,0.2067871-0.069397,0.4143066-0.1130981,0.6193237c-0.0360107,0.1691895-0.0814819,0.3358765-0.1223755,0.5037231  c-0.0487061,0.1998291-0.0942383,0.4005127-0.1498413,0.5982666c-0.0470581,0.1676025-0.1031494,0.3323975-0.1550903,0.4984131  c-0.0609741,0.1948242-0.1192017,0.390625-0.1868286,0.5830688c-0.0578613,0.1647339-0.1240845,0.3261108-0.1867676,0.4890137  c-0.0728149,0.189209-0.1432495,0.3794556-0.2224731,0.5661011c-0.0691528,0.1628418-0.1461792,0.3220215-0.2201538,0.4827271  c-0.0837402,0.1819458-0.1654053,0.3648682-0.2553101,0.5439453c-0.0801392,0.159668-0.1678467,0.3155518-0.2528687,0.4727783  c-0.0945435,0.1749268-0.1872559,0.350769-0.2877197,0.5224609c-0.090332,0.15448-0.1876831,0.3049927-0.2827759,0.4567871  c-0.1057739,0.1689453-0.210144,0.338623-0.3217163,0.5040283c-0.1000977,0.1484375-0.2067871,0.2926636-0.3114624,0.4381714  c-0.1165771,0.1619263-0.2319946,0.324707-0.354187,0.4828491c-0.1102905,0.1427612-0.2266235,0.2810059-0.3414307,0.4205322  c-0.1268311,0.1541138-0.2528687,0.3088379-0.3851318,0.4588623c-0.1201172,0.1362305-0.2459106,0.2679443-0.3704834,0.4006958  c-0.1363525,0.1452637-0.2722168,0.2909546-0.4138184,0.4318848c-0.1303711,0.1297607-0.2660522,0.2548218-0.4008179,0.3807373  c-0.1456299,0.1360474-0.2910156,0.2722778-0.4417114,0.4036255c-0.1396484,0.1217651-0.2840576,0.2388306-0.4280396,0.3564453  C30.2124634,53.12323,30.1068115,53.2075195,30,53.2907715c-0.1068115-0.083252-0.2124634-0.1675415-0.3170166-0.2529907  C29.5390015,52.920166,29.3945923,52.8031006,29.2549438,52.6813354z M21.6362305,36.1317749  c-0.2260132-0.1220703-0.453186-0.2424316-0.6727295-0.3737793c-0.1329956-0.0795288-0.2598267-0.1673584-0.3904419-0.2501831  c-0.192688-0.1222534-0.3875732-0.2418213-0.5748291-0.3710938c-0.1352539-0.0933838-0.2640381-0.1947021-0.3963623-0.291687  c-0.1746826-0.1279907-0.3516846-0.2531738-0.5212402-0.387207c-0.1340332-0.105957-0.2612915-0.2194214-0.3920898-0.3291016  c-0.1599121-0.1341553-0.3222656-0.265686-0.4770508-0.4052124c-0.1299438-0.1171265-0.2529907-0.2411499-0.3793335-0.3619385  c-0.1471558-0.140686-0.2965698-0.2789917-0.4385986-0.4244995c-0.1248169-0.1279297-0.2425537-0.2620239-0.3634033-0.3935547  c-0.1344604-0.1463623-0.2713013-0.2907104-0.4007568-0.4414062c-0.1182861-0.1377563-0.2293701-0.28125-0.3433228-0.4225464  c-0.1229858-0.1524048-0.24823-0.3030396-0.3660889-0.4594727c-0.1099854-0.1459351-0.2127075-0.2971191-0.3181152-0.4463501  c-0.1121826-0.1587524-0.2263794-0.31604-0.333252-0.4784546c-0.1017456-0.1546631-0.1962891-0.3140869-0.2932129-0.4718628  c-0.1004028-0.1635132-0.2026978-0.3256836-0.2977905-0.4924316c-0.0925903-0.1624146-0.1779175-0.3288574-0.2653809-0.4942627  C14.322937,28.6679077,14.2319336,28.5,14.1480103,28.328186c-0.0820923-0.1680908-0.1569214-0.3399048-0.2337036-0.5106812  c-0.0785522-0.1748047-0.1585693-0.348877-0.2315063-0.5264282c-0.0714722-0.1740112-0.1358643-0.3511963-0.2017822-0.52771  c-0.0669556-0.1790771-0.1350098-0.357666-0.196167-0.5392456c-0.060791-0.1804199-0.114502-0.3635864-0.1694946-0.5463257  c-0.0549316-0.1824951-0.1107788-0.3647461-0.1598511-0.5494385c-0.0490112-0.1846924-0.0912476-0.3717041-0.1343384-0.5584717  c-0.0432739-0.1875-0.0870972-0.3747559-0.1242676-0.56427c-0.0368652-0.1878662-0.0670166-0.3776245-0.0977783-0.5672607  c-0.0206299-0.1269531-0.039856-0.2541504-0.0576782-0.3817749c0.3990479-0.1621094,0.7996826-0.3180542,1.2064209-0.4497681  c0.12677-0.0407715,0.2549438-0.0751343,0.3823242-0.1129761c0.3806763-0.1137695,0.7647095-0.2127075,1.1513062-0.3000488  c0.1521606-0.0341187,0.3035278-0.0732422,0.4562378-0.1032715c0.4547119-0.0898438,0.9135742-0.1578369,1.3751221-0.2112427  c0.1866455-0.0216064,0.3735352-0.0374146,0.5605469-0.0530396c0.3924561-0.0327148,0.7868042-0.0533447,1.1832275-0.0597534  c0.2840576-0.0046387,0.567688-0.0005493,0.8513794,0.0084839c0.2196655,0.0072021,0.4395752,0.0114136,0.6586914,0.0268555  c0.2006836,0.013855,0.4003906,0.0369873,0.6004028,0.0576172c0.2416992,0.0253906,0.4830322,0.0529175,0.7233276,0.0882568  c0.1703491,0.0247192,0.3403931,0.0519409,0.5100098,0.081604c0.3065796,0.0542603,0.6115723,0.1164551,0.9147949,0.1866455  c0.1048584,0.0241089,0.2103271,0.0450439,0.3147583,0.0709839c0.8633423,0.2163696,1.7099609,0.49646,2.5311279,0.838501  c0.0684814,0.0285034,0.1359253,0.0599976,0.2040405,0.0894165c0.3344116,0.1442261,0.6640015,0.2990723,0.9888916,0.463562  c0.0976562,0.0495605,0.1950073,0.0994263,0.2918091,0.1508789c0.2996216,0.1586914,0.5934448,0.3280029,0.8834839,0.5038452  c0.0950928,0.0578003,0.1916504,0.1124268,0.2858276,0.1721191c0.189209,0.119751,0.3703613,0.2519531,0.5548706,0.3790283  c-1.7984009,1.4447021-3.3111572,3.1759644-4.4713135,5.1855469c-1.1610107,2.0114136-1.9042358,4.1886597-2.2558594,6.4695435  c-0.1567383-0.0744629-0.3170166-0.1431885-0.4709473-0.2219849C21.8577271,36.2589111,21.7488403,36.192627,21.6362305,36.1317749z   M31.6711426,24.3328247c0.2897339-0.1756592,0.583252-0.3447266,0.8825684-0.5032959  c0.0970459-0.0515137,0.1947021-0.1016235,0.2925415-0.1512451c0.3249512-0.1644897,0.654541-0.319397,0.9889526-0.463623  c0.0679932-0.0293579,0.1351929-0.0606689,0.2034302-0.0891113c0.8220215-0.3424683,1.6696777-0.6229858,2.5340576-0.8394165  c0.1008911-0.0250854,0.2026978-0.0452881,0.3039551-0.0685425c0.3076782-0.0713501,0.6172485-0.1344604,0.9284058-0.1893921  c0.1655273-0.0288696,0.3313599-0.055481,0.4975586-0.0796509c0.246582-0.0363159,0.4942017-0.0646362,0.7421875-0.0905762  c0.1942139-0.0199585,0.3881836-0.0423584,0.5829468-0.0559082c0.236145-0.0166626,0.4729004-0.0219116,0.7097168-0.0289917  c0.2609863-0.0076294,0.5218506-0.0116577,0.7831421-0.0077515c0.4077759,0.0060425,0.8133545,0.0275879,1.21698,0.0614624  c0.180542,0.0151978,0.3610229,0.0305176,0.5412598,0.0512695c0.4665527,0.053772,0.930542,0.1224976,1.3900757,0.213501  c0.1461182,0.0287476,0.2908936,0.0662231,0.4364014,0.0988159c0.3942871,0.0886841,0.7860107,0.1896973,1.1741943,0.3059692  c0.1229858,0.0366211,0.246582,0.0697632,0.3690186,0.1091309c0.407959,0.1320801,0.8098145,0.2885132,1.210022,0.4511108  c-0.0178223,0.1276245-0.0370483,0.2548218-0.0576782,0.3817749c-0.0307617,0.1896362-0.0609131,0.3793945-0.0977783,0.5672607  c-0.0371704,0.1895142-0.0809937,0.37677-0.1242676,0.56427c-0.0430908,0.1867676-0.0853271,0.3737793-0.1343384,0.5584717  c-0.0490723,0.1846924-0.1049194,0.3669434-0.1598511,0.5494385c-0.0549927,0.1827393-0.1087036,0.3659058-0.1694946,0.5463257  c-0.0611572,0.1815796-0.1292114,0.3601685-0.196167,0.5392456c-0.065918,0.1765137-0.1303101,0.3536987-0.2017822,0.52771  c-0.072937,0.1775513-0.1529541,0.3516235-0.2315063,0.5264282c-0.0767822,0.1707764-0.1516113,0.3425903-0.2337036,0.5106812  C45.7680664,28.5,45.677063,28.6679077,45.5877686,28.836731c-0.0874634,0.1654053-0.1727905,0.3318481-0.2653809,0.4942627  c-0.0950928,0.166748-0.1973877,0.3289185-0.2977905,0.4924316c-0.0969238,0.1577759-0.1914673,0.3171997-0.2932129,0.4718628  c-0.1068726,0.1624146-0.2210693,0.3197021-0.333252,0.4784546c-0.1054077,0.149231-0.2081299,0.300415-0.3181152,0.4463501  c-0.1178589,0.1564331-0.243103,0.3070679-0.3660889,0.4594727c-0.1139526,0.1412964-0.2250366,0.28479-0.3433228,0.4225464  c-0.1294556,0.1506958-0.2662964,0.2950439-0.4007568,0.4414062c-0.1208496,0.1315308-0.2385864,0.265625-0.3634033,0.3935547  c-0.1420288,0.1455078-0.2914429,0.2838135-0.4385986,0.4244995c-0.1263428,0.1207886-0.2493896,0.244812-0.3793335,0.3619385  c-0.1547852,0.1395264-0.3171387,0.2710571-0.4770508,0.4052124c-0.1307983,0.1096802-0.2580566,0.2231445-0.3920898,0.3291016  c-0.1695557,0.1340332-0.3465576,0.2592163-0.5212402,0.387207c-0.1323242,0.0969849-0.2611084,0.1983032-0.3963623,0.291687  c-0.1872559,0.1292725-0.3821411,0.2488403-0.5748291,0.3710938c-0.1306152,0.0828247-0.2574463,0.1706543-0.3904419,0.2501831  c-0.2195435,0.1313477-0.4467163,0.251709-0.6727295,0.3737793c-0.1126099,0.0608521-0.2214966,0.1271362-0.3356934,0.1856079  c-0.1539307,0.0787964-0.3143311,0.147522-0.4710083,0.2219849c-0.2694092-1.7466431-0.7703247-3.4299316-1.5158691-5.0244751  c-0.0043335-0.008606-0.0040894-0.0181274-0.0089722-0.0266113c-0.0029297-0.0050659-0.0080566-0.0076294-0.0111084-0.0125732  c-0.2234497-0.4749756-0.4550171-0.9470215-0.7198486-1.4058838c-0.8110352-1.4047241-1.8041992-2.664978-2.9321899-3.7995605  c-0.0203857-0.020813-0.0373535-0.0448608-0.0606079-0.0615234c-0.4676514-0.4659424-0.9598999-0.9078369-1.4785156-1.3244629  c0.1845093-0.1270752,0.3656006-0.2592163,0.5548096-0.3789673C31.479126,24.4454956,31.5758667,24.390686,31.6711426,24.3328247z   M36.6298828,36.9580078c-1.581665,0.6430664-3.2463989,1.0449219-4.9318848,1.2062378l4.6538086-2.6870117  C36.4624634,35.9657593,36.5606079,36.4580078,36.6298828,36.9580078z M30,25.4746094  c0.4190063,0.3259888,0.8175659,0.6726074,1.2026978,1.0319824l-4.8118286,2.7783203  C27.3981934,27.8413696,28.6032715,26.5612793,30,25.4746094z M25.3103638,31.0636597l6.6155396-3.8197021  c0.4940796,0.519104,0.9610596,1.0623779,1.3887939,1.6397705l-9.3376465,5.3907471  C24.3128052,33.166687,24.756958,32.0944214,25.3103638,31.0636597z M23.6177368,35.6364746  c0.0003052-0.0001831,0.0006104-0.000061,0.0009155-0.0002441l10.2640991-5.9255981  c0.1866455,0.2844238,0.3810425,0.562561,0.5523071,0.8591919c0.1835938,0.3180542,0.3391113,0.6471558,0.501709,0.9734497  l-10.2047119,5.8916016c-0.4588013-0.1432495-0.9154663-0.295166-1.3624268-0.4768677  C23.4313965,36.5118408,23.5228882,36.0736084,23.6177368,35.6364746z M35.3626099,32.4522705  c0.2833862,0.6605225,0.5194092,1.3372803,0.7189941,2.026062l-6.4909058,3.7478027  c-1.1716919-0.0269775-2.3378296-0.1720581-3.4841309-0.4299316L35.3626099,32.4522705z M57.8955078,34.8261719  c1.2202148,4.5532227,0.5942383,9.309082-1.7631836,13.3916016c-3.1435547,5.4453125-9.0063477,8.8276367-15.300293,8.8271484  c-3.0795898,0-6.1254883-0.8188477-8.8076172-2.3676758c-0.3867188-0.2231445-0.7792969-0.4741211-1.1894531-0.7607422  c0.0783081-0.0629272,0.1509399-0.1313477,0.2280884-0.1954346c0.1397095-0.1160278,0.2769775-0.2339478,0.4128418-0.3536987  c0.1654663-0.145813,0.3276978-0.2941895,0.4873047-0.4453125c0.1303101-0.1234131,0.2590942-0.2479858,0.385498-0.3748779  c0.1561279-0.1566772,0.3081665-0.3164062,0.4581299-0.4781494c0.119873-0.1292114,0.2388916-0.258728,0.3547363-0.3910522  c0.1471558-0.1679688,0.2892456-0.3394165,0.4299316-0.512207c0.1090088-0.1339111,0.2181396-0.2675171,0.3232422-0.4042358  c0.1373291-0.1785278,0.2686768-0.3608398,0.3991699-0.5440063c0.0984497-0.1381226,0.197876-0.2752686,0.2924194-0.4158936  c0.1279907-0.1903076,0.2489624-0.3847046,0.3696899-0.5793457c0.0865479-0.1395264,0.1751099-0.2775269,0.2578735-0.4191895  c0.1192627-0.2041016,0.2304077-0.4124756,0.3417969-0.6207886c0.0739746-0.1382446,0.1508789-0.2747192,0.2213135-0.4147339  c0.1113892-0.2214966,0.2133789-0.4472656,0.3158569-0.6729126c0.0598755-0.1318359,0.1239624-0.2617188,0.1807861-0.3949585  c0.1070557-0.2509155,0.2032471-0.5061035,0.2992554-0.7614746c0.0422363-0.1123657,0.0895386-0.2227173,0.1295776-0.3359375  c0.1191406-0.3364258,0.2269287-0.6769409,0.3267822-1.0199585c0.0100708-0.0345459,0.0227661-0.0682373,0.0325928-0.1028442  c0.1087646-0.381897,0.2052612-0.7675781,0.2897339-1.1564331c0.0169067-0.0779419,0.0280151-0.1572266,0.0439453-0.2354126  c0.0627441-0.3079834,0.1221924-0.6167603,0.1694336-0.9282837c0.0202637-0.133667,0.0323486-0.2687378,0.0497437-0.4030151  c0.0333862-0.2579956,0.0672607-0.5157471,0.0898438-0.7755737c0.0134888-0.1551514,0.0186768-0.3114624,0.0283203-0.4672241  c0.0148926-0.2407837,0.0304565-0.4812622,0.0359497-0.7231445c0.0037842-0.1668091-0.0003052-0.3341675-0.0010376-0.5014648  c-0.0010376-0.2322998-0.00177-0.4643555-0.0115356-0.6973267c-0.0073242-0.173584-0.0217285-0.3473511-0.0339355-0.5211792  c-0.0114746-0.1630249-0.0160522-0.3257446-0.0318604-0.4888916c0.1526489-0.069458,0.2992554-0.1485596,0.4495239-0.2218628  c0.1520386-0.0742188,0.3051758-0.1463623,0.4546509-0.2244873c0.2110596-0.1102295,0.4168701-0.2280884,0.6227417-0.3459473  c0.1411133-0.0807495,0.2840576-0.1585693,0.4226685-0.2428589c0.2110596-0.1282349,0.4157104-0.2646484,0.6207886-0.4007568  c0.1260986-0.0836792,0.2548218-0.1637573,0.3786011-0.2503052c0.2161255-0.151123,0.4247437-0.3109741,0.633667-0.4707031  c0.1057739-0.0808716,0.2149658-0.1575317,0.3189087-0.2405396c0.2424316-0.1936646,0.4763794-0.3965454,0.708313-0.6016235  c0.0636597-0.0563354,0.1308594-0.1088257,0.1937866-0.1659546c0.2936401-0.2667847,0.5785522-0.5423584,0.854126-0.8266602  c0.0372314-0.0383911,0.071167-0.0795898,0.1080322-0.1182861c0.2341919-0.2457886,0.4639282-0.4956055,0.6842041-0.75354  c0.0858765-0.1005859,0.1652222-0.2062378,0.2489624-0.3085327c0.1647339-0.2012939,0.329895-0.4021606,0.486084-0.6100464  c0.0936279-0.1246948,0.1804199-0.2542114,0.2709351-0.3811646c0.1372681-0.1925049,0.2753296-0.3842163,0.4052124-0.5817871  c0.0916748-0.1394043,0.1766357-0.282959,0.2645264-0.4248047c0.1188354-0.1918335,0.2382202-0.3831177,0.3502197-0.5792236  c0.0861206-0.1508789,0.1660767-0.3052979,0.2480469-0.4586182c0.1032104-0.1930542,0.2062988-0.3858032,0.3027344-0.5825806  c0.0786133-0.1604004,0.1514282-0.3233643,0.2254639-0.486084c0.0892334-0.196228,0.1778564-0.3926392,0.260376-0.5921631  c0.0690918-0.1669922,0.1331177-0.3359375,0.1973877-0.505127c0.0761719-0.2004395,0.1507568-0.4012451,0.2200317-0.6046143  c0.0591431-0.1735229,0.1139526-0.3483887,0.1680298-0.5238647c0.0627441-0.2037354,0.1229858-0.4082031,0.178772-0.614502  c0.0485229-0.1793213,0.0936279-0.3596191,0.1368408-0.5408325c0.0493774-0.2070312,0.0951538-0.4150391,0.1375122-0.6243896  c0.0371094-0.1837769,0.0718384-0.367981,0.1034546-0.5534058c0.0162964-0.0957031,0.0385742-0.1896973,0.0534058-0.2858276  c0.4570312,0.2133789,0.8710938,0.4282227,1.2543945,0.6499023C53.7553711,26.4672852,56.6757812,30.2729492,57.8955078,34.8261719z   M30,2.9550781c9.7314453,0,17.6484375,7.9169922,17.6484375,17.6479492c0,0.4433594-0.0214844,0.9091797-0.0644531,1.4111328  c-0.0678711-0.0264282-0.1380005-0.0438843-0.2061157-0.069519c-0.3911133-0.1466064-0.7852173-0.2797241-1.1826782-0.3987427  c-0.102478-0.0308838-0.2034302-0.0679932-0.3063354-0.0970459c-0.4538574-0.1273804-0.9116821-0.2321777-1.3712769-0.3242188  c-0.2058716-0.0414429-0.4129028-0.0750122-0.6201782-0.109436c-0.2958984-0.0488281-0.5922241-0.0898438-0.8894043-0.1242676  c-0.2086182-0.024231-0.4165039-0.0516357-0.6263428-0.0687866c-0.4518433-0.0369263-0.9041138-0.0583496-1.3564453-0.0623779  c-0.0568848-0.0004883-0.112793-0.0078125-0.1697388-0.0078125c-0.1945801,0-0.3883667,0.0169067-0.5827026,0.0230713  c-0.1898193,0.0059204-0.3795166,0.0108032-0.5689697,0.0224609c-0.2348022,0.0147705-0.4685059,0.0360107-0.7025146,0.0596924  c-0.2268066,0.022583-0.4526978,0.0494995-0.6785278,0.0803223c-0.1986084,0.0274658-0.3966675,0.055481-0.5942383,0.0892944  c-0.2941284,0.0498047-0.5861816,0.1096191-0.8778076,0.1734619c-0.1323853,0.0292358-0.2654419,0.0541382-0.3970947,0.0861206  c-0.8924561,0.2156372-1.7699585,0.4971313-2.6259155,0.843689c-0.0491943,0.0199585-0.0970459,0.0428467-0.1460571,0.0631714  c-0.3659668,0.1518555-0.7276001,0.3151245-1.0846558,0.4907837c-0.1069946,0.0525513-0.2119751,0.1084595-0.3179932,0.1630859  c-0.2918091,0.1505737-0.5801392,0.3082886-0.8648071,0.4749146c-0.1298828,0.0758057-0.2587891,0.152771-0.3867798,0.2318115  c-0.2562866,0.1585083-0.5080566,0.3250732-0.7575684,0.4967651C30.1811523,24.1115723,30.0875854,24.164978,30,24.2275391  c-0.0875244-0.062439-0.1809692-0.1158447-0.2695312-0.1767578c-0.249939-0.1719971-0.5021973-0.3388672-0.7589111-0.4976196  c-0.1269531-0.0783081-0.2546387-0.1547241-0.3834229-0.2299194c-0.2875366-0.168396-0.5787354-0.3276367-0.8735962-0.4796753  c-0.102417-0.0526733-0.2037964-0.1068726-0.307251-0.1576538c-0.362793-0.1785889-0.7303467-0.3447266-1.102417-0.4987793  c-0.0432739-0.0178833-0.0853882-0.0380859-0.1287231-0.0556641c-0.8589478-0.3480225-1.739624-0.6306152-2.6353149-0.8466797  c-0.1239014-0.0300903-0.2490845-0.0534058-0.3735962-0.0809937c-0.3000488-0.065918-0.600647-0.1274414-0.9032593-0.1785278  c-0.1916504-0.0327148-0.3837891-0.0597534-0.576416-0.0865479c-0.2324219-0.0318604-0.4649658-0.0595703-0.6983643-0.0826416  c-0.2287598-0.0230713-0.4571533-0.0438232-0.6867676-0.0583496c-0.1963501-0.012207-0.3928833-0.017334-0.5895996-0.0233154  c-0.1895752-0.0059204-0.378479-0.0224609-0.5682983-0.0224609c-0.0557251,0-0.1104736,0.0071411-0.1661377,0.0076294  c-0.4546509,0.0040283-0.9092407,0.0254517-1.3634033,0.0627441c-0.206604,0.0169067-0.4112549,0.0440063-0.6166992,0.067749  c-0.3005981,0.034729-0.6004028,0.0761108-0.8997192,0.1256714c-0.2052612,0.0340576-0.4104004,0.0674438-0.6143188,0.1084595  c-0.4606934,0.0922241-0.9196777,0.1971436-1.3745728,0.3249512c-0.100708,0.0285034-0.1995239,0.0648193-0.2998657,0.0950317  c-0.399353,0.1195679-0.7954102,0.2533569-1.1883545,0.4006958c-0.0678711,0.0255127-0.1377563,0.0429077-0.2054443,0.0692749  c-0.0429688-0.5019531-0.0644531-0.9677734-0.0644531-1.4111328C12.3515625,10.8720703,20.2685547,2.9550781,30,2.9550781z   M2.1044922,34.8261719c1.2197266-4.5532227,4.1401367-8.3588867,8.2231445-10.7163086  c0.3828125-0.2211914,0.796875-0.4360352,1.2539062-0.6494141c0.0148315,0.0961304,0.0371094,0.1901245,0.0534058,0.2858276  c0.0316162,0.1854248,0.0663452,0.3696289,0.1034546,0.5534058c0.0423584,0.2093506,0.0881348,0.4173584,0.1375122,0.6243896  c0.0432129,0.1812134,0.0883179,0.3615112,0.1368408,0.5408325c0.0557861,0.2062988,0.1160278,0.4107666,0.178772,0.614502  c0.0540771,0.1754761,0.1088867,0.3503418,0.1680298,0.5238647c0.0692749,0.2033691,0.1438599,0.4041748,0.2200317,0.6046143  c0.06427,0.1691895,0.1282959,0.3381348,0.1973877,0.505127c0.0825195,0.1995239,0.1711426,0.3959351,0.260376,0.5921631  c0.0740356,0.1627197,0.1468506,0.3256836,0.2254639,0.486084c0.0964355,0.1967773,0.1995239,0.3895264,0.3027344,0.5825806  c0.0819702,0.1533203,0.1619263,0.3077393,0.2480469,0.4586182c0.1119995,0.196106,0.2313843,0.3873901,0.3502197,0.5792236  c0.0878906,0.1418457,0.1728516,0.2854004,0.2645264,0.4248047c0.1298828,0.1975708,0.2679443,0.3892822,0.4052124,0.5817871  c0.0905151,0.1269531,0.1773071,0.2564697,0.2709351,0.3811646c0.156189,0.2078857,0.3213501,0.4087524,0.486084,0.6100464  c0.0837402,0.1022949,0.1630859,0.2079468,0.2489624,0.3085327c0.2202759,0.2579346,0.4500122,0.5077515,0.6842041,0.75354  c0.0368652,0.0386963,0.0708008,0.079895,0.1080322,0.1182861c0.2755737,0.2843018,0.5604858,0.5598755,0.854126,0.8266602  c0.0629272,0.0571289,0.130127,0.1096191,0.1937866,0.1659546c0.2319336,0.2050781,0.4658813,0.407959,0.708313,0.6016235  c0.1039429,0.0830078,0.2131348,0.159668,0.3189087,0.2405396c0.2089233,0.159729,0.4175415,0.3195801,0.633667,0.4707031  c0.1237793,0.0865479,0.2525024,0.166626,0.3786011,0.2503052c0.2050781,0.1361084,0.409729,0.272522,0.6207886,0.4007568  c0.1386108,0.0842896,0.2815552,0.1621094,0.4226685,0.2428589c0.2058716,0.1178589,0.4116821,0.2357178,0.6227417,0.3459473  c0.1494751,0.078125,0.3026123,0.1502686,0.4546509,0.2244873c0.1502686,0.0733032,0.296875,0.1524048,0.4495239,0.2218628  c-0.0158081,0.163147-0.0203857,0.3258667-0.0318604,0.4888916c-0.012207,0.1738281-0.0266113,0.3475952-0.0339355,0.5211792  c-0.0097656,0.2329712-0.010498,0.4650269-0.0115356,0.6973267c-0.0007324,0.1672974-0.0048218,0.3346558-0.0010376,0.5014648  c0.0054932,0.2418823,0.0210571,0.4823608,0.0359497,0.7231445c0.0096436,0.1557617,0.0148315,0.3120728,0.0283203,0.4672241  c0.022583,0.2598267,0.0564575,0.5175781,0.0898438,0.7755737c0.017395,0.1342773,0.02948,0.2693481,0.0497437,0.4030151  c0.0472412,0.3115234,0.1066895,0.6203003,0.1694336,0.9282837c0.0159302,0.078186,0.0270386,0.1574707,0.0439453,0.2354126  c0.0844727,0.388855,0.1809692,0.7745361,0.2897339,1.1564331c0.0098267,0.0346069,0.022522,0.0682983,0.0325928,0.1028442  c0.0998535,0.3430176,0.2076416,0.6835327,0.3267822,1.0199585c0.0400391,0.1132202,0.0873413,0.2235718,0.1295776,0.3359375  c0.0960083,0.2553711,0.1921997,0.5105591,0.2992554,0.7614746c0.0568237,0.1332397,0.1209106,0.2631226,0.1807861,0.3949585  c0.102478,0.225647,0.2044678,0.451416,0.3158569,0.6729126c0.0704346,0.1400146,0.1473389,0.2764893,0.2213135,0.4147339  c0.1113892,0.208313,0.2225342,0.416687,0.3417969,0.6207886c0.0827637,0.1416626,0.1713257,0.2796631,0.2578735,0.4191895  c0.1207275,0.1946411,0.2416992,0.3890381,0.3696899,0.5793457c0.0945435,0.140625,0.1939697,0.277771,0.2924194,0.4158936  c0.1304932,0.1831665,0.2618408,0.3654785,0.3991699,0.5440063c0.1051025,0.1367188,0.2142334,0.2703247,0.3232422,0.4042358  c0.140686,0.1727905,0.2827759,0.3442383,0.4299316,0.512207c0.1158447,0.1323242,0.2348633,0.2618408,0.3547363,0.3910522  c0.1499634,0.1617432,0.302002,0.3214722,0.4581299,0.4781494c0.1264038,0.1268921,0.255188,0.2514648,0.385498,0.3748779  c0.1596069,0.151123,0.3218384,0.2994995,0.4873047,0.4453125c0.1358643,0.119751,0.2731323,0.2376709,0.4128418,0.3536987  c0.0771484,0.0640869,0.1497803,0.1325073,0.2280884,0.1954346c-0.4101562,0.2866211-0.8027344,0.5375977-1.1894531,0.7607422  c-2.6826172,1.5488281-5.7280273,2.3676758-8.8066406,2.3676758c-0.0004883,0-0.0004883,0-0.0004883,0  c-6.2949219,0-12.1577148-3.3828125-15.3007812-8.8271484C1.5102539,44.1352539,0.8842773,39.3793945,2.1044922,34.8261719z"/><text x="0" y="75" fill="#000000" font-size="5px" font-weight="bold" font-family="'Helvetica Neue', Helvetica, Arial-Unicode, Arial, Sans-serif">Created by Josh Sorosky</text><text x="0" y="80" fill="#000000" font-size="5px" font-weight="bold" font-family="'Helvetica Neue', Helvetica, Arial-Unicode, Arial, Sans-serif">from the Noun Project</text></svg>