<?xml version="1.0" encoding="utf-8"?>
<svg version="1.1" x="0px" y="0px" viewBox="4.406 6.304 91.075 87.055" style="enable-background:new 0 0 100 100;" xmlns="http://www.w3.org/2000/svg">
  <path d="M80,37.2c0,0-0.1,0-0.1-0.1c0-2.6-0.3-5.3-1-7.9C76.8,21.5,71.9,15,65,11C50.7,2.8,32.3,7.7,24.1,22c-2.7,4.8-4,10-4,15.1  c-4.5,2.5-8.3,6.3-11.1,11C5,55,4,63.1,6,70.8C8.1,78.5,13,85,20,89c4.7,2.7,9.8,4,14.9,4c5.3,0,10.5-1.4,15.1-4.1  c0,0,0.1,0.1,0.1,0.1c4.7,2.7,9.8,4,14.9,4C75.4,93,85.4,87.6,91,78c4-6.9,5.1-15,3-22.7C91.9,47.6,87,41.2,80,37.2z M92.3,55.8  c0.2,0.6,0.3,1.1,0.4,1.7l-15.2-8.8c0.2-0.4,0.4-0.9,0.5-1.3l14.2,8.2C92.3,55.7,92.3,55.7,92.3,55.8z M93.2,64.2L74.8,53.6  c0.3-0.4,0.5-0.8,0.7-1.2l17.7,10.2C93.3,63.1,93.3,63.6,93.2,64.2z M89.1,77.7l-24.3-14c0-0.3,0-0.5,0-0.8c0.2-0.1,0.5-0.3,0.7-0.4  l24.3,14c-0.1,0.2-0.2,0.4-0.3,0.6C89.4,77.3,89.2,77.5,89.1,77.7z M22.4,31.4c0.2-0.1,0.3-0.3,0.3-0.5c0-0.1-0.1-0.3-0.1-0.4  c0.1-0.5,0.3-1,0.4-1.5c0.1,0.1,0.2,0.1,0.3,0.1c0.3,0,0.6-0.3,0.6-0.6c0-0.3-0.3-0.6-0.6-0.6c0.2-0.5,0.4-1.1,0.6-1.6  c0.1,0.3,0.3,0.4,0.6,0.4c0.3,0,0.6-0.3,0.6-0.6c0-0.3-0.3-0.6-0.6-0.6c-0.1,0-0.2,0-0.3,0.1c0.3-0.6,0.6-1.2,0.9-1.8  c0,0.3,0.3,0.6,0.6,0.6c0.3,0,0.6-0.3,0.6-0.6c0-0.3-0.3-0.6-0.6-0.6c-0.1,0-0.2,0-0.3,0.1c0.1-0.2,0.2-0.4,0.3-0.5  c0.2-0.4,0.4-0.7,0.7-1c0.1,0.2,0.3,0.3,0.5,0.3c0.3,0,0.6-0.3,0.6-0.6c0-0.3-0.2-0.6-0.5-0.6c0.3-0.4,0.6-0.8,0.9-1.2  c0.1,0,0.1,0,0.2,0c0.3,0,0.6-0.3,0.6-0.6c0-0.1-0.1-0.2-0.1-0.3c1.2-1.4,2.5-2.7,3.9-3.8c0.1,0.1,0.2,0.1,0.3,0.1  c0.3,0,0.6-0.3,0.6-0.6c0-0.1,0-0.1,0-0.2c0.8-0.6,1.7-1.2,2.6-1.7c0.1,0.1,0.2,0.1,0.4,0.1c0.3,0,0.6-0.3,0.6-0.6c0,0,0-0.1,0-0.1  c1.5-0.8,3.1-1.5,4.7-2c0.1,0.2,0.3,0.3,0.5,0.3c0.3,0,0.6-0.3,0.6-0.6c0,0,0-0.1,0-0.1c0.1,0,0.2-0.1,0.3-0.1  c0.4-0.1,0.8-0.2,1.2-0.3c-0.2,0.1-0.3,0.3-0.3,0.5c0,0.3,0.3,0.6,0.6,0.6c0.3,0,0.6-0.3,0.6-0.6c0-0.3-0.2-0.5-0.5-0.6  C46.2,9,48.1,8.8,50,8.8c1.9,0,3.8,0.2,5.7,0.6c-0.3,0-0.5,0.3-0.5,0.6c0,0.3,0.3,0.6,0.6,0.6c0.3,0,0.6-0.3,0.6-0.6  c0-0.2-0.1-0.4-0.3-0.5c0.5,0.1,1,0.2,1.5,0.4c0,0,0,0.1,0,0.1c0,0.3,0.3,0.6,0.6,0.6c0.2,0,0.5-0.2,0.5-0.4c1.6,0.5,3.2,1.2,4.7,2  c0,0,0,0.1,0,0.1c0,0.3,0.3,0.6,0.6,0.6c0.1,0,0.3-0.1,0.4-0.1c0.9,0.5,1.7,1.1,2.6,1.7c0,0.1,0,0.1,0,0.2c0,0.3,0.3,0.6,0.6,0.6  c0.1,0,0.2,0,0.3-0.1c1.4,1.2,2.7,2.4,3.9,3.8c-0.1,0.1-0.1,0.2-0.1,0.3c0,0.3,0.3,0.6,0.6,0.6c0.1,0,0.2,0,0.2-0.1  c0.3,0.4,0.6,0.8,0.9,1.2c-0.3,0-0.5,0.3-0.5,0.6c0,0.3,0.3,0.6,0.6,0.6c0.2,0,0.4-0.1,0.5-0.3c0.3,0.5,0.6,1,0.9,1.5  c-0.1,0-0.2-0.1-0.2-0.1c-0.3,0-0.6,0.3-0.6,0.6c0,0.3,0.3,0.6,0.6,0.6c0.3,0,0.5-0.2,0.6-0.5c0.3,0.6,0.6,1.1,0.8,1.7  c-0.1,0-0.1,0-0.2,0c-0.3,0-0.6,0.3-0.6,0.6c0,0.3,0.3,0.6,0.6,0.6c0.2,0,0.5-0.2,0.5-0.4c0.2,0.5,0.4,1,0.6,1.5  c-0.3,0-0.5,0.3-0.5,0.6c0,0.3,0.3,0.6,0.6,0.6c0.1,0,0.2,0,0.3-0.1c0.1,0.2,0.1,0.4,0.2,0.6c0.1,0.3,0.1,0.6,0.2,0.9  c-0.1,0.1-0.1,0.2-0.1,0.3c0,0.2,0.1,0.4,0.3,0.5c0.2,1.2,0.4,2.4,0.5,3.6c-0.1,0-0.1,0-0.2,0c-0.3,0-0.6,0.3-0.6,0.6  c0,0.1,0,0.2,0.1,0.3c-0.4-0.2-0.9-0.4-1.3-0.6c-0.1-0.2-0.3-0.3-0.5-0.3c-0.1,0-0.2,0-0.2,0.1c-1.7-0.6-3.4-1.1-5.2-1.4  c0.1-0.1,0.2-0.3,0.2-0.4c0-0.3-0.3-0.6-0.6-0.6c-0.3,0-0.6,0.3-0.6,0.6c0,0.1,0,0.2,0.1,0.3c-0.4-0.1-0.8-0.1-1.3-0.1  c0,0,0-0.1,0-0.1c0-0.3-0.3-0.6-0.6-0.6c-0.3,0-0.6,0.3-0.6,0.6c0,0,0,0,0,0c-0.4,0-0.8,0-1.2,0c0-0.3-0.3-0.6-0.6-0.6  c-0.3,0-0.6,0.3-0.6,0.6c-0.4,0-0.8,0-1.2,0c0,0,0,0,0,0c0-0.3-0.3-0.6-0.6-0.6c-0.3,0-0.6,0.3-0.6,0.6c0,0,0,0.1,0,0.1  c-0.4,0-0.9,0.1-1.3,0.2c0.1-0.1,0.1-0.2,0.1-0.3c0-0.3-0.3-0.6-0.6-0.6c-0.3,0-0.6,0.3-0.6,0.6c0,0.2,0.1,0.3,0.2,0.4  c-0.9,0.2-1.8,0.4-2.7,0.6c-0.8,0.2-1.7,0.5-2.5,0.8c-0.1,0-0.2-0.1-0.2-0.1c-0.2,0-0.4,0.1-0.5,0.3c-0.4,0.2-0.9,0.4-1.3,0.6  c0.1-0.1,0.1-0.2,0.1-0.3c0-0.3-0.3-0.6-0.6-0.6c-0.3,0-0.6,0.3-0.6,0.6c0,0.3,0.2,0.5,0.5,0.6c-0.8,0.4-1.5,0.8-2.3,1.2  c0,0-0.1-0.1-0.1-0.1c-0.7-0.4-1.4-0.8-2.1-1.1c0.3,0,0.5-0.3,0.5-0.6c0-0.3-0.3-0.6-0.6-0.6c-0.3,0-0.6,0.3-0.6,0.6  c0,0.1,0,0.2,0.1,0.3c-0.4-0.2-0.9-0.4-1.3-0.6c-0.1-0.2-0.3-0.3-0.5-0.3c-0.1,0-0.2,0-0.2,0.1c-1.7-0.6-3.4-1.1-5.2-1.4  c0.1-0.1,0.2-0.3,0.2-0.4c0-0.3-0.3-0.6-0.6-0.6c-0.3,0-0.6,0.3-0.6,0.6c0,0.1,0,0.2,0.1,0.3c-0.4-0.1-0.9-0.1-1.3-0.1  c0,0,0-0.1,0-0.1c0-0.3-0.3-0.6-0.6-0.6c-0.3,0-0.6,0.3-0.6,0.6c0,0,0,0,0,0.1c-0.4,0-0.8,0-1.2,0c0,0,0,0,0,0  c0-0.3-0.3-0.6-0.6-0.6c-0.3,0-0.6,0.3-0.6,0.6c0,0,0,0,0,0c-0.4,0-0.8,0-1.2,0.1c0,0,0,0,0-0.1c0-0.3-0.3-0.6-0.6-0.6  c-0.3,0-0.6,0.3-0.6,0.6c0,0.1,0,0.1,0,0.2c-0.4,0-0.9,0.1-1.3,0.2c0.1-0.1,0.1-0.2,0.1-0.3c0-0.3-0.3-0.6-0.6-0.6  c-0.3,0-0.6,0.3-0.6,0.6c0,0.2,0.1,0.3,0.2,0.4c-1.8,0.3-3.5,0.8-5.2,1.4c-0.1,0-0.2-0.1-0.3-0.1c-0.2,0-0.5,0.2-0.5,0.4  c-0.4,0.2-0.9,0.4-1.3,0.6c0.1-0.1,0.1-0.2,0.1-0.4c0-0.3-0.3-0.6-0.6-0.6c-0.1,0-0.2,0-0.2,0.1C22,33.7,22.2,32.5,22.4,31.4z   M85.7,43.9l-6-3.5c0.1-0.4,0.1-0.9,0.1-1.3C82,40.5,84,42.1,85.7,43.9z M79.2,43.3c0.1-0.5,0.2-1,0.3-1.4l8.6,5  c0.6,0.8,1.1,1.6,1.6,2.5L79.2,43.3z M38,75.7c0.1,0.3,0.2,0.5,0.4,0.8v0.6V91c-0.1,0-0.2,0-0.4,0V77.1V75.7z M36.9,91.1  c-0.1,0-0.2,0-0.4,0v-14V72c0.1,0.4,0.2,0.7,0.4,1.1v4.1V91.1z M35.8,77.1v-7.9c0.1,0.5,0.2,1,0.4,1.5v6.4v14.1c-0.1,0-0.2,0-0.4,0  V77.1z M34.7,77.1v14.1c-0.1,0-0.2,0-0.4,0V77.1V62.4c0.1,0.1,0.2,0.1,0.4,0.2V77.1z M32.9,77.1V61.5c0.1,0.1,0.2,0.2,0.4,0.2v15.4  v14c-0.1,0-0.2,0-0.4,0V77.1z M31.8,77.1V91c-0.1,0-0.2,0-0.4,0V77.1V60.4c0.1,0.1,0.2,0.2,0.4,0.3V77.1z M11.5,47.4v7.9v21.8v1.6  c-0.1-0.2-0.2-0.3-0.4-0.5v-1V55.4V48C11.3,47.8,11.4,47.6,11.5,47.4z M10.5,49c0.1-0.1,0.2-0.3,0.3-0.4v6.8v21.8v0.4  c-0.1-0.2-0.2-0.4-0.4-0.7V55.4v-6.2C10.5,49.1,10.5,49,10.5,49z M10.1,49.8v5.5v20.9c-0.1-0.2-0.3-0.4-0.4-0.7V55.4v-4.8  C9.8,50.3,9.9,50.1,10.1,49.8z M9.3,51.3v4.1v19.4c-0.1-0.3-0.2-0.6-0.4-0.8V55.4v-3.2C9.1,51.8,9.2,51.6,9.3,51.3z M7.7,70.4  c-0.1-0.3-0.1-0.5-0.2-0.8v-13c0.1-0.5,0.2-0.9,0.4-1.4v0.2v15.5C7.8,70.7,7.8,70.5,7.7,70.4z M6.8,64.6v-3.2  c0.1-1.1,0.2-2.1,0.4-3.2v9.5C7,66.7,6.9,65.7,6.8,64.6z M8.2,55.4V54c0.1-0.3,0.2-0.7,0.4-1v2.3v17.8c-0.1-0.4-0.2-0.7-0.4-1.1  V55.4z M11.9,79.2v-2.1V55.4v-8.5c0.1-0.2,0.2-0.3,0.4-0.5v9v21.8v2.6C12.1,79.6,12,79.4,11.9,79.2z M12.6,77.1V55.4v-9.5  c0.1-0.2,0.2-0.3,0.4-0.4v9.9v21.8v3.6c-0.1-0.1-0.2-0.3-0.4-0.4V77.1z M14.4,55.4v21.8v5.3c-0.1-0.1-0.2-0.3-0.4-0.4v-4.8V55.4  V44.2c0.1-0.1,0.2-0.3,0.4-0.4V55.4z M13.7,55.4v21.8v4.4c-0.1-0.1-0.2-0.3-0.4-0.4v-4V55.4V45c0.1-0.1,0.2-0.3,0.4-0.4V55.4z   M14.8,77.1V55.4v-12c0.1-0.1,0.2-0.3,0.4-0.4v12.3v21.8v6c-0.1-0.1-0.2-0.2-0.4-0.4V77.1z M15.5,77.1V55.4V42.7  c0.1-0.1,0.2-0.2,0.4-0.3v13v21.8v6.7c-0.1-0.1-0.2-0.2-0.4-0.4V77.1z M16.2,77.1V55.4V42c0.1-0.1,0.2-0.2,0.4-0.3v13.7v21.8v7.3  c-0.1-0.1-0.2-0.2-0.4-0.3V77.1z M17,77.1V55.4v-14c0.1-0.1,0.2-0.2,0.4-0.3v14.3v21.8V85c-0.1-0.1-0.2-0.2-0.4-0.3V77.1z   M17.7,77.1V55.4V40.8c0.1-0.1,0.2-0.2,0.4-0.3v14.8v21.8v8.5c-0.1-0.1-0.2-0.2-0.4-0.3V77.1z M78.2,36.2c-0.1,0-0.2-0.1-0.2-0.1  c0.1,0,0.2,0,0.2-0.1C78.1,36.1,78.2,36.1,78.2,36.2z M68.5,58.1c-0.2,0-0.4,0.2-0.5,0.4c-0.2,0.1-0.3,0.2-0.5,0.4l-0.8-0.5  c-0.1-0.2-0.3-0.3-0.5-0.3c0,0,0,0-0.1,0L64.2,57c-0.1-0.6-0.3-1.2-0.4-1.9l1.3,0.7c-0.3,0.1-0.5,0.3-0.5,0.6c0,0.3,0.3,0.6,0.6,0.6  c0.3,0,0.6-0.3,0.6-0.6c0-0.1,0-0.1,0-0.2l3,1.8C68.6,58,68.6,58.1,68.5,58.1z M20.9,55.4v21.8v10.4c0,0-0.1,0-0.1-0.1  c-0.1-0.1-0.2-0.1-0.3-0.2V77.1V55.4V42.2c0.1,0.6,0.2,1.1,0.4,1.7V55.4z M58.1,43c0.3,0,0.5-0.2,0.5-0.4l2.8,1.6  c-0.2,0.1-0.4,0.3-0.4,0.5c0,0.3,0.3,0.6,0.6,0.6c0.3,0,0.6-0.3,0.6-0.6c0,0,0-0.1,0-0.1l4.2,2.4l0.6,0.3c0.1,0.2,0.3,0.3,0.5,0.3  l2.9,1.7c0,0,0,0,0,0.1c0,0.3,0.3,0.6,0.6,0.6c0.1,0,0.2,0,0.3-0.1l2.7,1.5c-0.1,0.1-0.1,0.2-0.1,0.3c0,0.1,0,0.1,0,0.2  c-0.2,0.3-0.3,0.5-0.5,0.8l-0.9-0.5c0.1-0.1,0.2-0.3,0.2-0.4c0-0.3-0.3-0.6-0.6-0.6c-0.3,0-0.5,0.2-0.6,0.5L68.7,50  c0.3,0,0.5-0.3,0.5-0.6c0-0.3-0.3-0.6-0.6-0.6c-0.3,0-0.6,0.3-0.6,0.6c0,0.1,0,0.2,0,0.2l-2.4-1.4l-2.3-1.3  c-0.1-0.2-0.3-0.4-0.5-0.4c0,0-0.1,0-0.1,0l-2.8-1.6c0,0,0-0.1,0-0.1c0-0.3-0.3-0.6-0.6-0.6c-0.2,0-0.3,0.1-0.4,0.2l-1.3-0.7  c-0.4-0.5-0.8-0.9-1.3-1.4c-0.1-0.1-0.2-0.2-0.3-0.3c-0.4-0.4-0.9-0.8-1.3-1.2c0.1,0,0.2-0.1,0.3-0.1l2.6,1.5  c-0.1,0.1-0.1,0.2-0.1,0.4C57.6,42.8,57.8,43,58.1,43z M28.2,35.7v1.6c-0.1,0-0.2-0.1-0.3-0.1c0,0-0.1,0-0.1,0v-1.4  C28,35.8,28.1,35.8,28.2,35.7z M60.5,74v-1.6l0.4,0.2V74c0,0.1,0,0.1-0.1,0.2L60.5,74z M59.1,73.1v-1.6l0.4,0.2v1.6L59.1,73.1z   M59.4,74.9v1.6l-0.4-0.2v-1.6L59.4,74.9z M55.1,77.2L54.7,77v-1.6l0.4,0.2V77.2L55.1,77.2z M40.9,77.1V77l0.4,0.2v0.9  c-0.1-0.2-0.2-0.4-0.4-0.6V77.1z M32.2,42.9c0.1,0.1,0.2,0.1,0.4,0.2v3.5c-0.1,0-0.3,0.1-0.4,0.2V42.9z M32.2,47.5  c0.1,0.1,0.2,0.1,0.4,0.2v3.5c-0.1,0-0.3,0.1-0.4,0.2V47.5z M32.2,52.2c0.1,0.1,0.2,0.1,0.4,0.2v3v0.5c-0.1,0-0.3,0.1-0.4,0.2v-0.6  V52.2z M32.6,41.9c-0.1,0-0.3,0.1-0.4,0.2v-3.8c0.1,0.1,0.2,0.1,0.4,0.2V41.9z M31.5,36.1c0.1,0,0.3-0.1,0.4-0.2v3.8  c-0.1-0.1-0.2-0.1-0.4-0.2V36.1z M31.5,40.7c0.1,0,0.3-0.1,0.4-0.2v3.8c-0.1-0.1-0.2-0.1-0.4-0.2V40.7z M31.5,45.3  c0.1,0,0.3-0.1,0.4-0.2V49c-0.1-0.1-0.2-0.1-0.4-0.2V45.3z M31.5,50c0.1,0,0.3-0.1,0.4-0.2v3.8c-0.1-0.1-0.2-0.1-0.4-0.2V50z   M31.5,54.6c0.1,0,0.3-0.1,0.4-0.2v0.9v2.9c-0.1-0.1-0.2-0.1-0.4-0.2v-2.8V54.6z M32.2,56.8c0.1,0.1,0.2,0.1,0.4,0.2v2  c-0.1-0.1-0.2-0.2-0.4-0.3V56.8z M35.8,36c0.1,0,0.2,0.1,0.3,0.1c0,0,0.1,0,0.1,0v3.5c0,0-0.1,0-0.1,0c-0.1,0-0.2,0-0.3,0.1V36z   M38,35.9c0.1,0.1,0.2,0.1,0.4,0.2v3.5c-0.1,0-0.3,0.1-0.4,0.2V35.9z M42.7,36v3.6c-0.2,0.1-0.3,0.3-0.3,0.5s0.1,0.4,0.3,0.5v2.6  c-0.1,0.1-0.2,0.3-0.4,0.4v-0.9c0.1-0.1,0.1-0.2,0.1-0.3c0-0.1,0-0.2-0.1-0.3v-4c0.1-0.1,0.1-0.2,0.1-0.3c0-0.1,0-0.2-0.1-0.3v-1.6  C42.5,35.9,42.6,36,42.7,36z M43.8,38.2c0.1,0.1,0.2,0.1,0.4,0.2v3.3c-0.1,0.1-0.2,0.2-0.3,0.3c0,0,0,0,0,0V38.2z M43.8,80.3v-1.6  l0.4,0.2v1.6L43.8,80.3z M39.5,71.4v-1.6l0.4,0.2v1.6L39.5,71.4z M39.8,73.2v1.6l-0.4-0.2V73L39.8,73.2z M34.4,42.6  c0.1,0.2,0.2,0.3,0.4,0.4v3.6c-0.2,0.1-0.3,0.2-0.4,0.4V42.6z M35.5,46.9c-0.1-0.2-0.2-0.3-0.4-0.4V43c0.2-0.1,0.3-0.2,0.4-0.4V46.9  z M35.5,51.6c-0.1-0.2-0.2-0.3-0.4-0.4v-3.6c0.2-0.1,0.3-0.2,0.4-0.4V51.6z M37.6,42.9v3.8c-0.1-0.1-0.2-0.1-0.4-0.2V43  C37.4,43,37.5,43,37.6,42.9z M40.2,40.3c0.1,0.2,0.2,0.3,0.4,0.4v3.6c-0.2,0.1-0.3,0.2-0.4,0.4V40.3z M40.9,36  c0.2-0.1,0.3-0.2,0.4-0.4V40c-0.1-0.2-0.2-0.3-0.4-0.4V36z M43.1,40.7c0.1,0,0.3-0.1,0.4-0.2v1.9c-0.1,0.1-0.2,0.3-0.4,0.4V40.7z   M46,38c0.1,0.2,0.2,0.3,0.4,0.4v1.4c-0.1,0.1-0.2,0.2-0.4,0.3V38z M62.9,65.8l-0.3-0.1v-1.6l0.4,0.2C63,64.8,63,65.3,62.9,65.8z   M62,65.2v-0.9c0.1-0.1,0.2-0.1,0.4-0.2v1.3L62,65.2z M61.6,68.2L61.2,68v-1.6l0.4,0.2V68.2z M56.5,68.5l-0.4-0.2v-1.6l0.4,0.2V68.5  z M51.4,78.3l-0.4-0.2v-0.9v-0.6l0.4,0.2v0.4V78.3z M47.4,79.2v-1.6l0.4,0.2v1.6l-0.1,0L47.4,79.2z M43.1,76.7v-1.6l0.4,0.2v1.6  L43.1,76.7z M43.1,73.5v-1.6l0.4,0.2v1.6L43.1,73.5z M38,49.8c0.1,0.1,0.1,0.1,0.2,0.1c-0.1,0.1-0.1,0.3-0.2,0.4V49.8z M40.9,40.7  c0.2-0.1,0.3-0.2,0.4-0.4v4.3c-0.1-0.2-0.2-0.3-0.4-0.4V40.7z M55.1,67.6l-0.4-0.2v-1c0.1,0,0.2,0,0.4-0.1V67.6z M47.4,72.8v-1.6  l0.4,0.2V73L47.4,72.8z M47.8,74.6v1.6L47.4,76v-1.6L47.8,74.6z M38.7,67.8v-1.6l0.4,0.2V68L38.7,67.8z M41.2,45  C41.2,45,41.3,45,41.2,45L41.2,45C41.3,45,41.2,45,41.2,45z M54.3,67.2L54,67v-0.4c0.1,0,0.2,0,0.4-0.1V67.2z M52.2,69.1l-0.4-0.2  v-1.6l0.4,0.2V69.1z M42.4,65.9c0.1,0,0.2,0.1,0.4,0.1v0.9l-0.4-0.2V65.9z M39.8,65.2L39.5,65v-0.1c0.1,0,0.2,0.1,0.4,0.1V65.2z   M43.1,67.1V66c0.1,0,0.2,0.1,0.4,0.1v1.2L43.1,67.1z M49.3,67.5l-0.4-0.2v-0.4c0.1,0,0.2,0,0.4,0V67.5z M48.2,66.8L48.2,66.8  c0.1,0,0.2,0,0.4,0V67L48.2,66.8z M43.8,66.2c0.1,0,0.2,0.1,0.4,0.1v1.4l-0.4-0.2V66.2z M50,67.9l-0.4-0.2v-0.8c0.1,0,0.2,0,0.3,0  c0,0,0,0,0,0V67.9z M39.1,64.8L39.1,64.8L39.1,64.8C39,64.7,39.1,64.8,39.1,64.8z M44.5,67.9v-1.6c0,0,0,0,0,0l0.4,0.2v1.6  L44.5,67.9z M45.3,68.3v-1.6l0.4,0.2v1.6L45.3,68.3z M46,67.2l0.4,0.2V69L46,68.8V67.2z M46.7,67.6l0.4,0.2v1.6l-0.4-0.2V67.6z   M47.4,68l0.4,0.2v1.6l-0.4-0.2V68z M48.2,68.4l0.4,0.2v1.6L48.2,70V68.4z M48.9,68.8l0.4,0.2v1.6l-0.4-0.2V68.8z M49.6,69.3  l0.4,0.2v1.6l-0.4-0.2V69.3z M50.3,68.1v-1.3c0.1,0,0.2,0,0.3,0c0,0,0,0,0.1,0v1.5L50.3,68.1z M51.1,66.9l0.4,0.2v1.6l-0.4-0.2V66.9  z M53.6,66.6v0.2l-0.3-0.2C53.4,66.6,53.5,66.6,53.6,66.6z M40.2,65.2c0.1,0,0.2,0.1,0.4,0.1v0.3l-0.4-0.2V65.2z M40.9,65.4  c0.1,0,0.2,0.1,0.4,0.1V66l-0.4-0.2V65.4z M41.6,65.6c0.1,0,0.2,0.1,0.4,0.1v0.7l-0.4-0.2V65.6z M43.4,68.9v1.6l-0.4-0.2v-1.6  L43.4,68.9z M43.8,69.1l0.4,0.2v1.6l-0.4-0.2V69.1z M44.5,69.5l0.4,0.2v1.6l-0.4-0.2V69.5z M45.3,69.9l0.4,0.2v1.6l-0.4-0.2V69.9z   M46,70.4l0.4,0.2v1.6L46,72V70.4z M46.7,70.8l0.4,0.2v1.6l-0.4-0.2V70.8z M48.2,71.6l0.4,0.2v1.6l-0.4-0.2V71.6z M48.9,72l0.4,0.2  v1.6l-0.4-0.2V72z M49.6,72.5l0.4,0.2v1.6L49.6,74V72.5z M50.3,74.5v-1.6l0.4,0.2v1.6l-0.2-0.1L50.3,74.5z M50.3,71.3v-1.6l0.4,0.2  v1.6L50.3,71.3z M51.1,70.1l0.4,0.2v1.6l-0.4-0.2V70.1z M51.8,72.1v-1.6l0.4,0.2v1.6L51.8,72.1L51.8,72.1z M52.5,70.9L52.5,70.9  l0.4,0.2v1.6l-0.4-0.2V70.9z M52.5,69.4v-1.6l0.4,0.2v1.6L52.5,69.4z M59.1,66.7v-1.3c0.1,0,0.2-0.1,0.3-0.1l0.1,0V67L59.1,66.7z   M40.9,45.3c0.1,0,0.1-0.1,0.2-0.1c-0.1,0.1-0.1,0.2-0.2,0.3V45.3z M35.1,56.9c0.2-0.1,0.3-0.2,0.4-0.4v2.3  c-0.1,0.6-0.1,1.1-0.2,1.7c-0.1,0-0.1-0.1-0.2-0.1V56.9z M37.3,65.3l0.4,0.2v1.6l-0.4-0.2V65.3z M38,65.8l0.4,0.2v1.6L38,67.3V65.8z   M39.5,66.6l0.4,0.2v1.6l-0.4-0.2V66.6z M40.2,67l0.4,0.2v1.6l-0.4-0.2V67z M40.9,67.4l0.4,0.2v1.6L40.9,69V67.4z M41.6,67.8  l0.4,0.2v1.6l-0.4-0.2V67.8z M42.4,68.3l0.4,0.2v1.6l-0.4-0.2V68.3z M42.7,71.7v1.6L42.4,73v-1.6L42.7,71.7z M43.8,72.3l0.4,0.2v1.6  l-0.4-0.2V72.3z M44.5,72.7l0.4,0.2v1.6l-0.4-0.2V72.7z M45.3,73.1l0.4,0.2v1.6l-0.4-0.2V73.1z M46,73.5l0.4,0.2v1.6L46,75.1V73.5z   M46.7,74l0.4,0.2v1.6l-0.4-0.2V74z M48.2,74.8l0.4,0.2v1.6l-0.4-0.2V74.8z M48.9,76.8v-1.6l0.4,0.2V77l-0.1-0.1L48.9,76.8z   M49.6,77.1v-1.5l0.2,0.1l0.2,0.1v1.3v0.3l-0.4-0.2V77.1z M50.3,77.1v-1.1l0.4,0.2v0.9v0.7l-0.4-0.2V77.1z M51.1,74.9v-1.6l0.1,0.1  l0.3,0.1v1.6L51.1,74.9z M51.8,73.7l0.4,0.2v1.6l-0.4-0.2V73.7z M52.5,74.1l0.4,0.2v1.6l-0.4-0.2V74.1z M53.2,74.5l0.4,0.2v1.6  l-0.4-0.2V74.5z M53.2,73v-1.6l0.4,0.2v1.6L53.2,73z M53.2,69.8L53.2,69.8l0-1.6l0.4,0.2V70L53.2,69.8z M55.4,67.8v-1.5  c0,0,0.1,0,0.1,0l0.2,0.1V68L55.4,67.8z M57.6,65.9c0,0,0.1,0,0.1,0c0.1,0,0.1,0,0.2-0.1v0.4L57.6,65.9L57.6,65.9z M58.3,65.6  c0.1,0,0.2-0.1,0.4-0.1v1l-0.4-0.2V65.6z M59.8,67.2v-1.6l0.4,0.2v1.6L59.8,67.2z M60.5,66l0.4,0.2v1.6l-0.4-0.2V66z M61.2,64.8  v-0.2c0.1,0,0.2-0.1,0.4-0.1V65L61.2,64.8z M47.1,39.2c-0.1,0.1-0.2,0.2-0.4,0.3v-1.1c0.2-0.1,0.3-0.2,0.4-0.4V39.2z M41.6,44.5V43  c0.1,0,0.2,0.1,0.3,0.1c0,0,0.1,0,0.1,0v1.1C41.9,44.2,41.8,44.4,41.6,44.5z M42,41.9c0,0-0.1,0-0.1,0c-0.1,0-0.2,0-0.3,0.1v-3.6  c0.1,0,0.2,0.1,0.3,0.1c0,0,0.1,0,0.1,0V41.9z M40.5,45.3V46c-0.1,0.2-0.2,0.4-0.4,0.5V45C40.2,45.1,40.4,45.3,40.5,45.3z   M37.6,47.5v3.7c0,0,0,0.1,0,0.1c-0.1-0.1-0.2-0.1-0.3-0.1v-3.5C37.4,47.7,37.5,47.6,37.6,47.5z M36.2,55.4L36.2,55.4  c-0.1,0.5-0.3,1-0.4,1.5v-1.5v-0.8c0.1,0,0.2,0.1,0.3,0.1c0,0,0.1,0,0.1,0V55.4z M35.5,55.4v0.9c-0.1-0.2-0.2-0.3-0.4-0.4v-0.5v-3.1  c0.2-0.1,0.3-0.2,0.4-0.4V55.4z M34.4,47.3c0.1,0.2,0.2,0.3,0.4,0.4v3.6c-0.2,0.1-0.3,0.2-0.4,0.4V47.3z M34.4,51.9  c0.1,0.2,0.2,0.3,0.4,0.4v3.1v0.5c-0.2,0.1-0.3,0.2-0.4,0.4v-0.8V51.9z M34.4,56.6c0.1,0.2,0.2,0.3,0.4,0.4v3.6c0,0,0,0-0.1,0  c-0.1-0.1-0.2-0.1-0.3-0.2V56.6z M38.4,69.1v1.6L38,70.5v-1.6L38.4,69.1z M38.7,69.4l0.4,0.2v1.6l-0.4-0.2V69.4z M40.2,70.2l0.4,0.2  V72l-0.4-0.2V70.2z M40.9,70.6l0.4,0.2v1.6l-0.4-0.2V70.6z M41.6,71l0.4,0.2v1.6l-0.4-0.2V71z M42,74.4V76l-0.4-0.2v-1.6L42,74.4z   M42.4,74.6l0.4,0.2v1.6l-0.4-0.2V74.6z M43.4,78.5V80l-0.4-0.2v-1.6L43.4,78.5z M43.8,77.1v-1.6l0.4,0.2v1.4v0.2L43.8,77.1z   M44.5,77.1v-1.2l0.4,0.2v1v0.6l-0.4-0.2V77.1z M45.3,77.1v-0.8l0.4,0.2v0.6v1l-0.4-0.2V77.1z M46,77.1v-0.4l0.4,0.2v0.2v1.4  L46,78.3V77.1z M46.7,77.2l0.4,0.2V79l-0.4-0.2V77.2z M47,80.5L47,80.5l0,1.6l-0.4-0.2v-1.6L47,80.5z M47.4,80.8l0.4,0.2v1.6  l-0.4-0.2V80.8z M48.2,81.2l0.4,0.2V83l-0.4-0.2V81.2z M48.2,79.6V78l0.3,0.1l0.1,0.1v1.6L48.2,79.6z M48.9,78.4l0.4,0.2v1.6  L48.9,80V78.4z M49.6,78.8L50,79v1.6l-0.4-0.2V78.8z M50.3,79.2l0.4,0.2v1.6l-0.4-0.2V79.2z M51.1,79.7l0.4,0.2v1.6l-0.4-0.2V79.7z   M51.8,80.1l0.4,0.2v1.6l-0.4-0.2V80.1z M51.8,78.5v-1.4v-0.2l0.4,0.2v0v1.6L51.8,78.5z M52.5,77.3l0.4,0.2v1.6l-0.4-0.2V77.3z   M53.2,77.7l0.4,0.2v1.6l-0.4-0.2V77.7z M54,75l0.4,0.2v1.6L54,76.6V75z M54,73.4v-1.6l0.4,0.2v1.6L54,73.4z M54,70.2v-1.6l0.4,0.2  v1.6L54,70.2z M54.7,69l0.4,0.2v1.6l-0.4-0.2V69z M55.4,69.4l0.4,0.2v1.6L55.4,71V69.4z M56.1,69.9l0.4,0.2v1.6l-0.4-0.2V69.9z   M56.9,70.3l0.4,0.2v1.6l-0.4-0.2V70.3z M56.9,68.7v-1.6l0.4,0.2v1.6L56.9,68.7z M57.6,67.5l0.4,0.2v1.6l-0.4-0.2V67.5z M58.3,67.9  l0.4,0.2v1.6l-0.4-0.2V67.9z M59.1,68.3l0.4,0.2v1.6l-0.4-0.2V68.3z M59.8,68.8l0.4,0.2v1.6l-0.4-0.2V68.8z M62,68.4v-1.6l0.4,0.2  v1.6L62,68.4z M48.2,38.4v-0.1C48.2,38.2,48.2,38.3,48.2,38.4C48.2,38.3,48.2,38.3,48.2,38.4z M47.8,38.6c-0.1,0.1-0.2,0.2-0.4,0.3  v-1.1c0.1,0.1,0.2,0.1,0.4,0.2V38.6z M46,37.6v-0.4c0.1,0,0.2,0.1,0.3,0.1C46.1,37.4,46,37.5,46,37.6z M45.6,39.6  c-0.1,0-0.2-0.1-0.3-0.1c0,0-0.1,0-0.1,0v-2.7c0.1,0,0.2,0.1,0.4,0.1V39.6z M42,37.2c0,0-0.1,0-0.1,0c-0.1,0-0.2,0-0.3,0.1v-1.6  c0.1,0,0.2,0.1,0.4,0.1V37.2z M40.5,36v3.6c-0.2,0.1-0.3,0.2-0.4,0.4v-4.3C40.2,35.8,40.4,36,40.5,36z M39.5,38.4c0,0,0.1,0,0.1,0  c0.1,0,0.2,0,0.3-0.1v3.6c-0.1,0-0.2-0.1-0.3-0.1c0,0-0.1,0-0.1,0V38.4z M39.5,43c0,0,0.1,0,0.1,0c0.1,0,0.2,0,0.3-0.1v3.6  c-0.1,0-0.2-0.1-0.3-0.1c0,0-0.1,0-0.1,0V43z M39.5,47.7C39.5,47.7,39.5,47.7,39.5,47.7L39.5,47.7C39.5,47.7,39.5,47.7,39.5,47.7z   M38.4,48.8c-0.1,0-0.3,0.1-0.4,0.2v-3.8c0.1,0.1,0.2,0.1,0.4,0.2V48.8z M38.4,44.2c-0.1,0-0.3,0.1-0.4,0.2v-3.8  c0.1,0.1,0.2,0.1,0.4,0.2V44.2z M37.6,42c-0.1-0.1-0.2-0.1-0.4-0.2v-3.5c0.1,0,0.3-0.1,0.4-0.2V42z M36.2,53.5c0,0-0.1,0-0.1,0  c-0.1,0-0.2,0-0.3,0.1v-3.6c0.1,0,0.2,0.1,0.3,0.1c0,0,0.1,0,0.1,0V53.5z M36.2,48.9c0,0-0.1,0-0.1,0c-0.1,0-0.2,0-0.3,0.1v-3.6  c0.1,0,0.2,0.1,0.3,0.1c0,0,0.1,0,0.1,0V48.9z M36.2,44.2c0,0-0.1,0-0.1,0c-0.1,0-0.2,0-0.3,0.1v-3.6c0.1,0,0.2,0.1,0.3,0.1  c0,0,0.1,0,0.1,0V44.2z M35.5,42.3c-0.1-0.2-0.2-0.3-0.4-0.4v-3.6c0.2-0.1,0.3-0.2,0.4-0.4V42.3z M34.7,41.9  c-0.2,0.1-0.3,0.2-0.4,0.4V38c0.1,0.2,0.2,0.3,0.4,0.4V41.9z M33.6,36c0,0,0.1,0,0.1,0c0.1,0,0.2,0,0.3-0.1v3.6  c-0.1,0-0.2-0.1-0.3-0.1c0,0-0.1,0-0.1,0V36z M33.6,40.7c0,0,0.1,0,0.1,0c0.1,0,0.2,0,0.3-0.1v3.6c-0.1,0-0.2-0.1-0.3-0.1  c0,0-0.1,0-0.1,0V40.7z M33.6,45.3c0,0,0.1,0,0.1,0c0.1,0,0.2,0,0.3-0.1v3.6c-0.1,0-0.2-0.1-0.3-0.1c0,0-0.1,0-0.1,0V45.3z M33.6,50  c0,0,0.1,0,0.1,0c0.1,0,0.2,0,0.3-0.1v3.6c-0.1,0-0.2-0.1-0.3-0.1c0,0-0.1,0-0.1,0V50z M33.6,54.6c0,0,0.1,0,0.1,0  c0.1,0,0.2,0,0.3-0.1v0.8v2.8c-0.1,0-0.2-0.1-0.3-0.1c0,0-0.1,0-0.1,0v-2.8V54.6z M33.6,59.3c0,0,0.1,0,0.1,0c0.1,0,0.2,0,0.3-0.1  v0.9c-0.1-0.1-0.2-0.2-0.4-0.2V59.3z M37.6,68.7v0.6c-0.1-0.2-0.1-0.5-0.2-0.7L37.6,68.7z M38.7,72.5l0.4,0.2v1.1  c-0.1-0.3-0.3-0.6-0.4-0.8V72.5z M40.2,73.4l0.4,0.2v1.6L40.2,75V73.4z M40.9,73.8l0.4,0.2v1.6l-0.4-0.2V73.8z M41.6,77.4l0.4,0.2  v1.5c-0.1-0.2-0.2-0.3-0.4-0.5V77.4z M42.7,78v1.6l-0.4-0.2v-1.6L42.7,78z M44.5,82.3l0.4,0.2v0.2C44.8,82.6,44.7,82.5,44.5,82.3  L44.5,82.3z M44.5,80.7v-1.6l0.4,0.2v1.6L44.5,80.7z M45.3,79.5l0.4,0.2v1.6l-0.4-0.2V79.5z M46,79.9l0.4,0.2v1.6l0,0L46,81.5V79.9z   M46,83.1l0.4,0.2v0.8c-0.1-0.1-0.2-0.2-0.4-0.4V83.1z M46.7,83.5l0.4,0.2v0.9c-0.1-0.1-0.2-0.2-0.4-0.3V83.5z M47.4,83.9l0.4,0.2  v1.1c-0.1-0.1-0.2-0.2-0.4-0.3V83.9z M48.2,84.4l0.4,0.2v1.3c-0.1-0.1-0.2-0.2-0.4-0.3V84.4z M48.9,84.8l0.4,0.2v1.3  c-0.1-0.1-0.2-0.2-0.4-0.2V84.8z M48.9,83.2v-1.6l0.4,0.2v1.6L48.9,83.2z M49.6,82l0.4,0.2v1.6l-0.4-0.2V82z M50.3,82.4l0.4,0.2v1.6  L50.3,84V82.4z M51.1,82.9l0.4,0.2v1.6l-0.4-0.2V82.9z M51.8,83.3l0.4,0.2v1.6l-0.4-0.2V83.3z M52.5,82.1v-1.6l0.4,0.2v1.6  L52.5,82.1z M52.9,83.9v0.8c-0.1,0.1-0.2,0.2-0.4,0.3v-1.3L52.9,83.9z M53.2,80.9l0.4,0.2v1.6l-0.4-0.2V80.9z M54,81.3l0.4,0.2v1.6  L54,82.9V81.3z M54,79.7v-1.6l0.4,0.2V80L54,79.7z M54.7,73.8v-1.6l0.4,0.2V74L54.7,73.8z M55.4,72.6l0.4,0.2v1.6l-0.4-0.2V72.6z   M56.1,73l0.4,0.2v1.6l-0.4-0.2V73z M56.9,73.5l0.4,0.2v1.6l-0.4-0.2V73.5z M57.6,73.9l0.4,0.2v1.6l-0.4-0.2V73.9z M57.6,72.3v-1.6  l0.4,0.2v1.6L57.6,72.3z M58.3,71.1l0.4,0.2v1.6l-0.4-0.2V71.1z M59.8,71.9l0.4,0.2v1.6l-0.4-0.2V71.9z M60.5,70.8v-1.6l0.4,0.2V71  L60.5,70.8z M61.2,69.6l0.4,0.2v1.6l-0.4-0.2V69.6z M62,70l0.2,0.1c-0.1,0.3-0.1,0.5-0.2,0.8V70z M62.7,67.3L62.7,67.3  c0,0.2,0,0.3,0,0.5V67.3z M60,46.8c-0.1-0.1-0.1-0.2-0.2-0.3l0.3,0.2C60.1,46.7,60,46.7,60,46.8z M44.9,36.7v3.1  c-0.1,0.1-0.1,0.2-0.1,0.3s0,0.2,0.1,0.3V41c-0.1,0.1-0.2,0.2-0.4,0.3v-3.1c0.1-0.1,0.3-0.3,0.3-0.5c0-0.2-0.1-0.4-0.3-0.5v-0.7  C44.7,36.7,44.8,36.7,44.9,36.7z M44.2,37.2c-0.1,0-0.3,0.1-0.4,0.2v-1c0.1,0,0.2,0.1,0.4,0.1V37.2z M43.4,39.7  c-0.1-0.1-0.2-0.1-0.4-0.2v-3.4c0.1,0,0.2,0.1,0.4,0.1V39.7z M39.8,37.3c-0.1,0-0.2-0.1-0.3-0.1c0,0-0.1,0-0.1,0v-2  c0.1,0,0.2,0,0.4,0.1V37.3z M39.1,37.5C39,37.6,39,37.7,39,37.8c0,0.1,0,0.2,0.1,0.3v4C39,42.2,39,42.3,39,42.5c0,0.1,0,0.2,0.1,0.3  v4C39,46.9,39,47,39,47.1c0,0.1,0,0.2,0.1,0.3v0.9c-0.1,0.2-0.2,0.4-0.4,0.7c0,0,0,0,0,0v-3.7c0.1-0.1,0.3-0.3,0.3-0.5  s-0.1-0.4-0.3-0.5v-3.7c0.1-0.1,0.3-0.3,0.3-0.5s-0.1-0.4-0.3-0.5V36c0.1-0.1,0.3-0.3,0.3-0.5c0-0.1,0-0.2-0.1-0.3  c0.1,0,0.1,0,0.2,0V37.5z M37.6,37.4c-0.1-0.1-0.2-0.1-0.4-0.2V35c0.1,0,0.2,0,0.4,0V37.4z M36.9,37.3c-0.2,0.1-0.3,0.3-0.3,0.5  c0,0.2,0.1,0.4,0.3,0.5V42c-0.2,0.1-0.3,0.3-0.3,0.5c0,0.2,0.1,0.4,0.3,0.5v3.7c-0.2,0.1-0.3,0.3-0.3,0.5c0,0.2,0.1,0.4,0.3,0.5v3.7  c-0.2,0.1-0.3,0.3-0.3,0.5c0,0.2,0.1,0.4,0.3,0.5V53c-0.1,0.3-0.2,0.6-0.3,0.9c0-0.1,0-0.1-0.1-0.1v-4c0.1-0.1,0.1-0.2,0.1-0.3  s0-0.2-0.1-0.3v-4c0.1-0.1,0.1-0.2,0.1-0.3s0-0.2-0.1-0.3v-4c0.1-0.1,0.1-0.2,0.1-0.3s0-0.2-0.1-0.3v-4c0.1-0.1,0.1-0.2,0.1-0.3  s0-0.2-0.1-0.3V35c0.1,0,0.2,0,0.4,0V37.3z M35.8,35L35.8,35C35.9,34.9,35.9,34.9,35.8,35C35.9,34.9,35.9,35,35.8,35z M35.5,37.6  c-0.1-0.2-0.2-0.3-0.4-0.4v-2.4c0.1,0,0.2,0,0.4,0V37.6z M34.7,37.3c-0.2,0.1-0.3,0.2-0.4,0.4v-2.7c0.1,0,0.2,0,0.4,0V37.3z M34,35  C34,35,34,34.9,34,35C34,34.9,34,34.9,34,35L34,35z M33.3,35.2c-0.1,0.1-0.1,0.2-0.1,0.3s0,0.2,0.1,0.3v4c-0.1,0.1-0.1,0.2-0.1,0.3  s0,0.2,0.1,0.3v4c-0.1,0.1-0.1,0.2-0.1,0.3s0,0.2,0.1,0.3v4c-0.1,0.1-0.1,0.2-0.1,0.3s0,0.2,0.1,0.3v4c-0.1,0.1-0.1,0.2-0.1,0.3  s0,0.2,0.1,0.3v1v3c-0.1,0.1-0.1,0.2-0.1,0.3s0,0.2,0.1,0.3v0.5c-0.1-0.1-0.2-0.2-0.4-0.3v-2.4c0.1-0.1,0.3-0.3,0.3-0.5  c0-0.2-0.1-0.4-0.3-0.5v-0.6v-3.1c0.1-0.1,0.3-0.3,0.3-0.5c0-0.2-0.1-0.4-0.3-0.5v-3.7c0.1-0.1,0.3-0.3,0.3-0.5  c0-0.2-0.1-0.4-0.3-0.5v-3.7c0.1-0.1,0.3-0.3,0.3-0.5c0-0.2-0.1-0.4-0.3-0.5v-3.7c0.1-0.1,0.3-0.3,0.3-0.5c0-0.2-0.1-0.4-0.3-0.5V35  c0.1,0,0.2,0,0.4,0V35.2z M32.6,37.2c-0.1,0-0.3,0.1-0.4,0.2v-2.3c0.1,0,0.2,0,0.4,0V37.2z M31.1,36v3.7c-0.2,0.1-0.3,0.3-0.3,0.5  s0.1,0.4,0.3,0.5v3.7c-0.2,0.1-0.3,0.3-0.3,0.5s0.1,0.4,0.3,0.5V49c-0.2,0.1-0.3,0.3-0.3,0.5s0.1,0.4,0.3,0.5v3.7  c-0.2,0.1-0.3,0.3-0.3,0.5s0.1,0.4,0.3,0.5v0.8v2.5c-0.1-0.1-0.2-0.2-0.4-0.4v-0.8c0.1-0.1,0.1-0.2,0.1-0.3s0-0.2-0.1-0.3v-0.7v-3.3  c0.1-0.1,0.1-0.2,0.1-0.3c0-0.1,0-0.2-0.1-0.3v-4c0.1-0.1,0.1-0.2,0.1-0.3c0-0.1,0-0.2-0.1-0.3v-4c0.1-0.1,0.1-0.2,0.1-0.3  c0-0.1,0-0.2-0.1-0.3v-4c0.1-0.1,0.1-0.2,0.1-0.3c0-0.1,0-0.2-0.1-0.3v-2.3c0.1,0,0.1,0,0.2,0c0,0.1-0.1,0.2-0.1,0.3  C30.9,35.7,31,35.8,31.1,36z M28.9,36v3.6c-0.2,0.1-0.3,0.2-0.4,0.4v-4.3C28.6,35.8,28.8,36,28.9,36z M30.4,55.8c0,0-0.1,0-0.1,0  c-0.1,0-0.2,0-0.3,0.1v-0.5v-3.1c0.1,0,0.2,0.1,0.3,0.1c0,0,0.1,0,0.1,0v3.1V55.8z M28.9,55.6c-0.1-0.1-0.2-0.3-0.4-0.4v-0.9  c0.1,0.2,0.2,0.3,0.4,0.4v0.7V55.6z M27.8,38.4c0,0,0.1,0,0.1,0c0.1,0,0.2,0,0.3-0.1v3.6c-0.1,0-0.2-0.1-0.3-0.1c0,0-0.1,0-0.1,0  V38.4z M29.7,53.9c-0.1-0.2-0.2-0.3-0.4-0.4V50c0.2-0.1,0.3-0.2,0.4-0.4V53.9z M28.6,45c0.1,0.2,0.2,0.3,0.4,0.4v3.6  c-0.2,0.1-0.3,0.2-0.4,0.4V45z M29.7,49.3c-0.1-0.2-0.2-0.3-0.4-0.4v-3.6c0.2-0.1,0.3-0.2,0.4-0.4V49.3z M28.9,44.2  c-0.2,0.1-0.3,0.2-0.4,0.4v-4.3c0.1,0.2,0.2,0.3,0.4,0.4V44.2z M27.8,43c0,0,0.1,0,0.1,0c0.1,0,0.2,0,0.3-0.1v3.6  c-0.1,0-0.2-0.1-0.3-0.1c0,0-0.1,0-0.1,0V43z M27.8,47.7c0,0,0.1,0,0.1,0c0.1,0,0.2,0,0.3-0.1v3.6c-0.1,0-0.2-0.1-0.3-0.1  c0,0-0.1,0-0.1,0V47.7z M28.6,49.6c0.1,0.2,0.2,0.3,0.4,0.4v3.6c-0.2,0.1-0.3,0.2-0.4,0.4V49.6z M30.4,51.2c0,0-0.1,0-0.1,0  c-0.1,0-0.2,0-0.3,0.1v-3.6c0.1,0,0.2,0.1,0.3,0.1c0,0,0.1,0,0.1,0V51.2z M30.4,46.5c0,0-0.1,0-0.1,0c-0.1,0-0.2,0-0.3,0.1V43  c0.1,0,0.2,0.1,0.3,0.1c0,0,0.1,0,0.1,0V46.5z M29.7,44.6c-0.1-0.2-0.2-0.3-0.4-0.4v-3.6c0.2-0.1,0.3-0.2,0.4-0.4V44.6z M27.5,37.5  c-0.1,0.1-0.1,0.2-0.1,0.3c0,0.1,0,0.2,0.1,0.3v4c-0.1,0.1-0.1,0.2-0.1,0.3c0,0.1,0,0.2,0.1,0.3v4c-0.1,0.1-0.1,0.2-0.1,0.3  c0,0.1,0,0.2,0.1,0.3v4c-0.1,0.1-0.1,0.2-0.1,0.3c0,0.1,0,0.2,0.1,0.3v1.8c-0.1-0.2-0.2-0.4-0.4-0.5v-3.4c0.1-0.1,0.3-0.3,0.3-0.5  c0-0.2-0.1-0.4-0.3-0.5v-3.7c0.1-0.1,0.3-0.3,0.3-0.5s-0.1-0.4-0.3-0.5v-3.7c0.1-0.1,0.3-0.3,0.3-0.5s-0.1-0.4-0.3-0.5V36  c0.1,0,0.2-0.1,0.4-0.1V37.5z M25.7,51.1v-3.4c0.1,0,0.3-0.1,0.4-0.2v3.8c-0.1-0.1-0.2-0.1-0.3-0.1C25.7,51.1,25.7,51.1,25.7,51.1z   M25.7,38.4c0.1,0,0.3-0.1,0.4-0.2V42c-0.1-0.1-0.2-0.1-0.4-0.2V38.4z M26.8,48.8c-0.1,0-0.3,0.1-0.4,0.2v-3.8  c0.1,0.1,0.2,0.1,0.4,0.2V48.8z M26.8,44.2c-0.1,0-0.3,0.1-0.4,0.2v-3.8c0.1,0.1,0.2,0.1,0.4,0.2V44.2z M25.7,43  c0.1,0,0.3-0.1,0.4-0.2v3.8c-0.1-0.1-0.2-0.1-0.4-0.2V43z M26.4,49.8c0.1,0.1,0.2,0.1,0.4,0.2v2.8c-0.1-0.2-0.2-0.3-0.4-0.5V49.8z   M26.8,36.1v3.4c-0.1,0-0.3,0.1-0.4,0.2v-3.5C26.5,36.2,26.6,36.2,26.8,36.1z M25.3,37.3c-0.2,0.1-0.3,0.3-0.3,0.5  c0,0.2,0.1,0.4,0.3,0.5V42c-0.2,0.1-0.3,0.3-0.3,0.5c0,0.2,0.1,0.4,0.3,0.5v3.7c-0.2,0.1-0.3,0.3-0.3,0.5c0,0.2,0.1,0.4,0.3,0.5v2.8  c-0.1-0.2-0.2-0.4-0.4-0.7v0c0.1-0.1,0.1-0.2,0.1-0.3s0-0.2-0.1-0.3v-4C25,45,25,44.9,25,44.8s0-0.2-0.1-0.3v-4  c0.1-0.1,0.1-0.2,0.1-0.3s0-0.2-0.1-0.3v-3.1c0.1,0,0.2-0.1,0.4-0.1V37.3z M24.2,40.6c0.1,0,0.2,0.1,0.3,0.1c0,0,0.1,0,0.1,0v3.5  c0,0-0.1,0-0.1,0c-0.1,0-0.2,0-0.3,0.1V40.6z M23.9,46.9c0-0.2-0.2-0.3-0.3-0.4c0-0.1,0-0.1-0.1-0.2V43c0.2-0.1,0.3-0.2,0.4-0.4  V46.9z M22.4,42.5c-0.1-0.6-0.2-1.2-0.3-1.8c0,0,0,0,0,0c0.1,0,0.2,0,0.3-0.1V42.5z M22.8,44.2c0-0.1,0-0.1,0-0.2v-1.4  c0.1,0.2,0.2,0.3,0.4,0.4v2.2C23,44.9,22.9,44.6,22.8,44.2z M23.9,47.3L23.9,47.3C23.8,47.3,23.8,47.3,23.9,47.3  C23.8,47.3,23.8,47.3,23.9,47.3z M24.2,45.3c0.1,0,0.2,0.1,0.3,0.1c0,0,0.1,0,0.1,0v3.5c0,0,0,0-0.1,0c-0.1-0.2-0.2-0.4-0.3-0.7  V45.3z M23.9,42.3c-0.1-0.2-0.2-0.3-0.4-0.4v-3.6c0.2-0.1,0.3-0.2,0.4-0.4V42.3z M22.8,38c0.1,0.2,0.2,0.3,0.4,0.4v3.6  c-0.2,0.1-0.3,0.2-0.4,0.4V38z M22.4,39.6c-0.1,0-0.2-0.1-0.3-0.1c0,0-0.1,0-0.1,0V38c0.1-0.1,0.2-0.1,0.4-0.2V39.6z M27.8,52.3  c0,0,0.1,0,0.1,0c0.1,0,0.2,0,0.3-0.1v2.5c-0.1-0.1-0.2-0.3-0.4-0.4V52.3z M29.3,55.4v-0.7c0.2-0.1,0.3-0.2,0.4-0.4v1.1v1.1  c-0.1-0.1-0.2-0.2-0.4-0.4V55.4z M30.2,57C30.2,57,30.3,57,30.2,57c0.1,0,0.1,0,0.2,0v0.2C30.3,57.1,30.3,57,30.2,57z M30.4,38.4  v3.5c0,0-0.1,0-0.1,0c-0.1,0-0.2,0-0.3,0.1v-3.6c0.1,0,0.2,0.1,0.3,0.1C30.3,38.4,30.3,38.4,30.4,38.4z M29.7,40  c-0.1-0.2-0.2-0.3-0.4-0.4V36c0.2-0.1,0.3-0.2,0.4-0.4V40z M26,37.4c-0.1-0.1-0.2-0.1-0.4-0.2v-0.7c0.1,0,0.2-0.1,0.4-0.1V37.4z   M24.6,36.9v2.7c0,0-0.1,0-0.1,0c-0.1,0-0.2,0-0.3,0.1V37C24.3,37,24.5,36.9,24.6,36.9z M23.9,37.6c0-0.1-0.1-0.3-0.3-0.3  c0.1,0,0.2-0.1,0.3-0.1V37.6z M21.8,36c0.1,0,0.2,0.1,0.3,0.1c-0.1,0-0.2,0.1-0.3,0.1C21.8,36.1,21.8,36,21.8,36z M40.5,76.8  L40.5,76.8C40.5,76.8,40.5,76.8,40.5,76.8L40.5,76.8z M45.3,82.7l0.4,0.2v0.5c-0.1-0.1-0.2-0.2-0.4-0.4V82.7z M49.6,85.2l0.4,0.2  v1.4c-0.1-0.1-0.2-0.2-0.4-0.2V85.2z M50.7,85.8v0.5c-0.1,0.1-0.2,0.2-0.4,0.2v-1L50.7,85.8z M51.1,86L51.1,86  C51.1,86.1,51.1,86.1,51.1,86L51.1,86z M53.2,84.1l0.2,0.1c-0.1,0.1-0.1,0.1-0.2,0.2V84.1z M54.7,83.1v-1.3l0.4,0.2v0.8  C54.9,82.9,54.8,83,54.7,83.1z M54.7,80.2v-1.6l0.4,0.2v1.6L54.7,80.2z M55.4,79l0.4,0.2v1.6l-0.4-0.2V79z M55.4,77.4v-0.3v-1.3  l0.4,0.2v1.1v0.5L55.4,77.4z M56.1,77.1v-0.9l0.4,0.2v0.7V78l-0.4-0.2V77.1z M56.9,77.1v-0.5l0.4,0.2v0.3v1.3l-0.4-0.2V77.1z   M57.6,77.1L57.6,77.1l0.4,0.1v1.6l-0.4-0.2V77.1z M58.3,74.3l0.4,0.2v1.6l-0.4-0.2V74.3z M59.8,75.1l0.4,0.2v0.2  c-0.1,0.2-0.2,0.5-0.4,0.7V75.1z M61.2,72.8L61.2,72.8c0.1,0.1,0,0.2,0,0.3V72.8z M62.4,51.3c0-0.1-0.1-0.1-0.1-0.2l0.2,0.1  C62.5,51.3,62.4,51.3,62.4,51.3z M54.1,40.1c-0.2-0.2-0.4-0.3-0.6-0.5l0.6,0.3C54.1,40,54.1,40.1,54.1,40.1z M52.9,37.7  C52.9,37.7,52.9,37.7,52.9,37.7L52.9,37.7C52.9,37.7,52.9,37.7,52.9,37.7z M30.4,35.3v2c0,0-0.1,0-0.1,0c-0.1,0-0.2,0-0.3,0.1v-1.9  C30.1,35.3,30.3,35.3,30.4,35.3z M55.4,82.4v-0.2l0.1,0.1C55.5,82.3,55.5,82.3,55.4,82.4z M56.1,81v-1.6l0.4,0.2v1.5  c0,0,0,0-0.1,0.1L56.1,81z M56.9,79.8l0.4,0.2v0.2c-0.1,0.2-0.2,0.3-0.4,0.5V79.8z M58.3,78.7v-1.2l0.4,0.2v0.5  C58.6,78.3,58.4,78.5,58.3,78.7z M65.4,60.5c-0.1,0-0.2-0.1-0.3-0.1c-0.1,0-0.2,0-0.3,0.1l-0.2-0.1c0-0.5-0.1-1.1-0.2-1.6  c0,0,0-0.1,0-0.1l1.9,1.1C66,60.1,65.7,60.3,65.4,60.5z M69.7,57C69.7,57,69.7,57,69.7,57c0.1,0,0.1,0,0.1,0  C69.8,57,69.8,57,69.7,57L69.7,57z M69.8,55.8c-0.3,0-0.6,0.3-0.6,0.6c0,0.1,0.1,0.2,0.1,0.3L64.5,54c0-0.3-0.3-0.5-0.6-0.5  c-0.1,0-0.1,0-0.2,0l-0.6-0.4c-0.1-0.3-0.2-0.6-0.3-0.8c0.3,0,0.6-0.3,0.6-0.6c0,0,0,0,0,0l0.2,0.1l4.8,2.7c0,0,0,0,0,0l2.4,1.4  c-0.1,0.2-0.3,0.3-0.4,0.4c0,0,0,0,0,0C70.3,56.1,70.1,55.8,69.8,55.8z M71.1,54.6c0.2-0.1,0.4-0.3,0.4-0.5c0-0.3-0.3-0.6-0.6-0.6  c-0.3,0-0.6,0.3-0.6,0.6c0,0,0,0.1,0,0.1l-4.8-2.8c-0.1-0.1-0.2-0.2-0.3-0.2l-0.9-0.5l-2.1-1.2c0,0,0,0,0,0c0-0.3-0.3-0.6-0.6-0.6  c-0.1,0-0.2,0-0.3,0.1l-0.1-0.1c-0.2-0.4-0.5-0.8-0.7-1.2c0.3,0,0.5-0.2,0.5-0.5l2.9,1.7c-0.3,0-0.6,0.3-0.6,0.6  c0,0.3,0.3,0.6,0.6,0.6c0.3,0,0.6-0.3,0.6-0.6c0-0.1,0-0.2-0.1-0.3l0.5,0.3l4.2,2.4c0.1,0.2,0.3,0.4,0.5,0.4c0.1,0,0.1,0,0.1,0  l2.6,1.5c-0.3,0.4-0.6,0.7-0.9,1.1L71.1,54.6z M73.7,49.7c0.1-0.1,0.1-0.2,0.1-0.3c0-0.3-0.3-0.6-0.6-0.6c-0.2,0-0.4,0.1-0.5,0.3  L70,47.6c0.2-0.1,0.3-0.3,0.3-0.5c0-0.3-0.3-0.6-0.6-0.6c-0.3,0-0.6,0.3-0.6,0.6L67,45.9l-1-0.5c0.1,0,0.1,0,0.2,0  c0.3,0,0.6-0.3,0.6-0.6c0-0.3-0.3-0.6-0.6-0.6c-0.3,0-0.6,0.3-0.6,0.6c0,0.2,0.1,0.3,0.2,0.4L61,42.4c0-0.3-0.3-0.5-0.6-0.5  c-0.1,0-0.2,0-0.2,0.1l-2.7-1.6c0-0.1,0.1-0.2,0.1-0.2c0-0.3-0.3-0.6-0.6-0.6c-0.2,0-0.4,0.1-0.5,0.2l-2.7-1.5  c0.1-0.1,0.2-0.3,0.2-0.4c0-0.2-0.1-0.4-0.3-0.5c0.2-0.1,0.5-0.2,0.7-0.3l0.9,0.5c-0.1,0.1-0.1,0.2-0.1,0.3c0,0.3,0.3,0.6,0.6,0.6  c0.2,0,0.4-0.1,0.5-0.3l2.7,1.6c-0.2,0.1-0.3,0.3-0.3,0.5c0,0.3,0.3,0.6,0.6,0.6c0.3,0,0.6-0.3,0.6-0.6l3.1,1.8c0,0-0.1,0-0.1,0  c-0.3,0-0.6,0.3-0.6,0.6c0,0.3,0.3,0.6,0.6,0.6c0.3,0,0.6-0.3,0.6-0.6c0-0.2-0.1-0.3-0.2-0.4l4.5,2.6l0.3,0.2c0,0.3,0.3,0.5,0.6,0.5  c0.1,0,0.2,0,0.2-0.1l2.7,1.6c0,0.1,0,0.1,0,0.2c0,0.3,0.3,0.6,0.6,0.6c0.2,0,0.3-0.1,0.5-0.2l2.7,1.5c-0.1,0.1-0.2,0.3-0.2,0.4  c0,0.1,0,0.2,0.1,0.3c-0.1,0.2-0.2,0.4-0.3,0.6L73.7,49.7z M74.9,47.2c0,0,0-0.1,0-0.1c0-0.3-0.3-0.6-0.6-0.6  c-0.2,0-0.3,0.1-0.4,0.2l-2.6-1.5c0.1-0.1,0.2-0.2,0.2-0.4c0-0.3-0.3-0.6-0.6-0.6c-0.3,0-0.5,0.2-0.5,0.4l-1.9-1.1L67.6,43  c0.2-0.1,0.4-0.3,0.4-0.5c0-0.3-0.3-0.6-0.6-0.6c-0.3,0-0.6,0.3-0.6,0.6c0,0,0,0.1,0,0.1l-4.8-2.8c-0.1-0.2-0.3-0.3-0.5-0.3  c0,0,0,0,0,0l-2.9-1.7c0,0,0,0,0-0.1c0-0.3-0.3-0.6-0.6-0.6c-0.1,0-0.2,0-0.3,0.1l-1.7-1c0.5-0.2,1.1-0.4,1.6-0.5c0,0,0.1,0,0.1,0  l2.4,1.4c-0.3,0-0.5,0.3-0.5,0.6c0,0.3,0.3,0.6,0.6,0.6c0.3,0,0.6-0.3,0.6-0.6c0-0.1,0-0.1,0-0.2l4.7,2.7c0.1,0.2,0.3,0.4,0.5,0.4  c0,0,0.1,0,0.1,0l2.8,1.6l0.1,0c0,0,0,0.1,0,0.1c0,0.3,0.3,0.6,0.6,0.6c0.2,0,0.3-0.1,0.4-0.2l2.7,1.5c-0.1,0.1-0.1,0.2-0.1,0.4  c0,0.3,0.3,0.6,0.6,0.6c0.2,0,0.5-0.2,0.5-0.4l2.7,1.6c0,0,0,0,0,0.1c-0.2,0.1-0.3,0.3-0.3,0.5c0,0.1,0,0.1,0,0.2  c-0.1,0.2-0.1,0.3-0.2,0.5L74.9,47.2z M76.9,45.2l-0.8-0.5c0-0.3-0.3-0.5-0.6-0.5c-0.1,0-0.2,0-0.3,0.1l-2.7-1.6  c0-0.1,0.1-0.2,0.1-0.2c0-0.3-0.3-0.6-0.6-0.6c-0.2,0-0.4,0.1-0.5,0.3l-1.8-1l-0.9-0.5c0.1-0.1,0.2-0.3,0.2-0.5  c0-0.3-0.3-0.6-0.6-0.6c-0.3,0-0.5,0.2-0.6,0.5l-2.9-1.7c0.3,0,0.6-0.3,0.6-0.6c0-0.3-0.3-0.6-0.6-0.6c-0.3,0-0.6,0.3-0.6,0.6  c0,0.1,0,0.2,0.1,0.3l-4.7-2.7c0.4-0.1,0.8-0.1,1.2-0.2c-0.1,0.1-0.1,0.2-0.1,0.3c0,0.3,0.3,0.6,0.6,0.6c0.3,0,0.6-0.3,0.6-0.6  c0-0.2-0.1-0.3-0.2-0.4c0,0,0.1,0,0.1,0l1.4,0.8c0.1,0.1,0.2,0.1,0.3,0.2l3,1.8c0,0,0,0,0,0c0,0.3,0.3,0.6,0.6,0.6  c0.1,0,0.2,0,0.3-0.1l2.7,1.6c0,0.1-0.1,0.2-0.1,0.3c0,0.3,0.3,0.6,0.6,0.6c0.2,0,0.4-0.1,0.5-0.3l2.7,1.6c-0.2,0.1-0.3,0.3-0.3,0.5  c0,0.3,0.3,0.6,0.6,0.6c0.3,0,0.6-0.2,0.6-0.6l2.3,1.3C77.2,44.3,77.1,44.7,76.9,45.2z M66.2,34.9c-0.3,0-0.5,0.3-0.5,0.6  c0,0,0,0,0,0l-1.1-0.6c0.2,0,0.3,0,0.5,0C65.5,34.9,65.8,34.9,66.2,34.9z M77.2,42.2c-0.1-0.2-0.3-0.3-0.5-0.3c0,0,0,0,0,0l-2.9-1.7  c0,0,0-0.1,0-0.1c0-0.3-0.3-0.6-0.6-0.6c-0.1,0-0.3,0.1-0.4,0.1l-1.7-1l-1-0.6c0.1-0.1,0.1-0.2,0.1-0.3c0-0.3-0.3-0.6-0.6-0.6  c-0.2,0-0.4,0.1-0.5,0.3L66.5,36c0.2-0.1,0.3-0.3,0.3-0.5c0-0.3-0.2-0.5-0.4-0.6c0.4,0,0.8,0,1.2,0.1l0.5,0.3c0,0.1,0,0.1,0,0.2  c0,0.3,0.3,0.6,0.6,0.6c0.2,0,0.3-0.1,0.4-0.2l2.6,1.5c-0.1,0.1-0.2,0.3-0.2,0.4c0,0.3,0.3,0.6,0.6,0.6c0.3,0,0.5-0.2,0.6-0.4  l2.8,1.6c-0.3,0.1-0.5,0.3-0.5,0.6c0,0.3,0.3,0.6,0.6,0.6c0.3,0,0.6-0.3,0.6-0.6c0-0.1,0-0.1,0-0.2l1.8,1c-0.1,0.5-0.2,1-0.3,1.4  L77.2,42.2z M75,37.7c-0.1-0.3-0.3-0.5-0.6-0.5c-0.1,0-0.1,0-0.2,0l-1.7-1l-1.1-0.6c0,0,0,0,0,0c1.7,0.4,3.4,1,5,1.7  c-0.2,0.1-0.3,0.3-0.3,0.5c0,0.3,0.3,0.6,0.6,0.6c0.3,0,0.6-0.3,0.6-0.6c0,0,0-0.1,0-0.1c0.3,0.1,0.6,0.3,0.9,0.4  c0,0.5,0,0.9-0.1,1.4L75,37.7z M20.2,39.4v15.9v21.8v9.9c-0.1-0.1-0.2-0.2-0.4-0.2v-9.7V55.4V39.3c0.1-0.1,0.2-0.1,0.3-0.2  C20.2,39.2,20.2,39.3,20.2,39.4z M19.5,39.5v15.8v21.8v9.5c-0.1-0.1-0.2-0.2-0.4-0.2v-9.2V55.4V39.8C19.3,39.7,19.4,39.6,19.5,39.5z   M18.8,55.4v21.8v9c-0.1-0.1-0.2-0.2-0.4-0.2v-8.7V55.4V40.3c0.1-0.1,0.2-0.2,0.4-0.3V55.4z M21.3,87.7V77.1V55.4V45.3  c0.1,0.4,0.2,0.8,0.4,1.2v8.9v21.8v10.8C21.6,87.8,21.4,87.8,21.3,87.7z M22,77.1V55.4v-7.9c0.1,0.3,0.2,0.6,0.4,0.9v7v21.8v11.2  c-0.1-0.1-0.2-0.1-0.4-0.2V77.1z M22.8,77.1V55.4v-6.1c0.1,0.3,0.2,0.5,0.4,0.8v5.3v21.8v11.5c-0.1-0.1-0.2-0.1-0.4-0.2V77.1z   M23.5,77.1V55.4v-4.6c0.1,0.2,0.2,0.5,0.4,0.7v3.9v21.8V89c-0.1-0.1-0.2-0.1-0.4-0.2V77.1z M24.2,77.1V55.4V52  c0.1,0.2,0.2,0.4,0.4,0.6v2.7v21.8v12.1c-0.1,0-0.2-0.1-0.4-0.2V77.1z M24.9,77.1V55.4v-2.1c0.1,0.2,0.2,0.4,0.4,0.6v1.6v21.8v12.4  c-0.1,0-0.2-0.1-0.4-0.1V77.1z M25.7,77.1V55.4v-1.1c0.1,0.2,0.2,0.3,0.4,0.5v0.6v21.8v12.7c-0.1,0-0.2-0.1-0.4-0.1V77.1z   M26.4,77.1V55.4v-0.1c0.1,0.2,0.2,0.3,0.4,0.5v21.4V90c-0.1,0-0.2-0.1-0.4-0.1V77.1z M27.1,77.1V56.2c0.1,0.1,0.2,0.3,0.4,0.4v20.5  v13.1c-0.1,0-0.2-0.1-0.4-0.1V77.1z M27.8,77.1V57c0.1,0.1,0.2,0.3,0.4,0.4v19.7v13.3c-0.1,0-0.2-0.1-0.4-0.1V77.1z M28.6,77.1V57.8  c0.1,0.1,0.2,0.3,0.4,0.4v19v13.5c-0.1,0-0.2-0.1-0.4-0.1V77.1z M29.3,77.1V58.5c0.1,0.1,0.2,0.2,0.4,0.3v18.3v13.6  c-0.1,0-0.2,0-0.4-0.1V77.1z M30,77.1V59.2c0.1,0.1,0.2,0.2,0.4,0.3v17.6v13.7c-0.1,0-0.2,0-0.4-0.1V77.1z M30.7,77.1V59.8  c0.1,0.1,0.2,0.2,0.4,0.3v17V91c-0.1,0-0.2,0-0.4-0.1V77.1z M33.6,77.1V62c0.1,0.1,0.2,0.2,0.4,0.2v14.9v14.1c-0.1,0-0.2,0-0.4,0  V77.1z M35.1,62.9C35.1,62.9,35.1,62.9,35.1,62.9L35.1,62.9L35.1,62.9z M38.7,77.2c0.1,0.2,0.2,0.4,0.4,0.7v13c-0.1,0-0.2,0-0.4,0.1  V77.2z M39.5,78.5c0.1,0.2,0.2,0.4,0.4,0.6v11.7c-0.1,0-0.2,0-0.4,0.1V78.5z M40.2,90.7V79.6c0.1,0.2,0.2,0.4,0.4,0.5v10.5  C40.4,90.7,40.3,90.7,40.2,90.7z M40.9,80.7c0.1,0.2,0.2,0.3,0.4,0.5v9.3c-0.1,0-0.2,0.1-0.4,0.1V80.7z M41.6,81.6  c0.1,0.2,0.2,0.3,0.4,0.4v8.2c-0.1,0-0.2,0.1-0.4,0.1V81.6z M42.4,82.5c0.1,0.1,0.2,0.3,0.4,0.4v7.2c-0.1,0-0.2,0.1-0.4,0.1V82.5z   M43.1,83.3c0.1,0.1,0.2,0.3,0.4,0.4v6.2c-0.1,0-0.2,0.1-0.4,0.1V83.3z M43.8,84.1c0.1,0.1,0.2,0.2,0.4,0.4v5.2  c-0.1,0-0.2,0.1-0.4,0.1V84.1z M44.5,84.8c0.1,0.1,0.2,0.2,0.4,0.3v4.3c-0.1,0-0.2,0.1-0.4,0.1V84.8z M45.3,85.5  c0.1,0.1,0.2,0.2,0.4,0.3v3.3c-0.1,0-0.2,0.1-0.4,0.1V85.5z M46,86.1c0.1,0.1,0.2,0.2,0.4,0.3v2.4c-0.1,0.1-0.2,0.1-0.4,0.2V86.1z   M46.7,86.7c0.1,0.1,0.2,0.2,0.4,0.3v1.5c-0.1,0.1-0.2,0.1-0.4,0.2V86.7z M47.4,87.2c0.1,0.1,0.2,0.2,0.4,0.3v0.6  c-0.1,0.1-0.2,0.1-0.4,0.2V87.2z M48.2,87.7c0.1,0,0.1,0.1,0.2,0.1c-0.1,0-0.1,0.1-0.2,0.1V87.7z M51.7,87.8  c0.4-0.3,0.7-0.5,1.1-0.8l6,3.5C56.4,90,54,89.1,51.7,87.8z M53.9,86.1c0.4-0.3,0.7-0.6,1.1-1l10.5,6.1c-1,0-2,0-2.9-0.1L53.9,86.1z   M32.2,77.1V61c0.1,0.1,0.2,0.2,0.4,0.3v15.9v14c-0.1,0-0.2,0-0.4,0V77.1z M35.1,77.1V63l0.1,0c0,1.4,0.1,2.7,0.3,4.1v10v14.1  c-0.1,0-0.2,0-0.4,0V77.1z M37.3,91.1v-14V74c0.1,0.3,0.2,0.6,0.4,0.9v2.2v13.9C37.5,91.1,37.4,91.1,37.3,91.1z M56.1,84.2  c0.3-0.3,0.7-0.7,1-1l13.2,7.6c-0.7,0.1-1.5,0.2-2.2,0.3L56.1,84.2z M58,82.1c0.3-0.4,0.6-0.7,0.9-1.1L74,89.7  c-0.6,0.2-1.2,0.4-1.8,0.5L58,82.1z M59.7,79.8c0.3-0.4,0.5-0.8,0.7-1.2l16.9,9.8c-0.5,0.2-1,0.5-1.6,0.7L59.7,79.8z M61.1,77.5  c0.2-0.4,0.4-0.8,0.6-1.2l18.4,10.6c-0.4,0.3-0.9,0.6-1.4,0.8L61.1,77.5z M62.3,75c0.2-0.4,0.4-0.9,0.5-1.3l19.7,11.4  c-0.4,0.3-0.8,0.6-1.2,0.9L62.3,75z M63.3,72.4c0.1-0.5,0.3-0.9,0.4-1.4l21,12.1c-0.3,0.3-0.7,0.7-1.1,1L63.3,72.4z M64.1,69.7  c0.1-0.5,0.2-1,0.3-1.4l22.3,12.9c-0.3,0.4-0.6,0.7-0.9,1.1L64.1,69.7z M64.6,66.8c0.1-0.5,0.1-1,0.1-1.5l23.6,13.6  c-0.3,0.4-0.5,0.8-0.8,1.1L64.6,66.8z M66.8,61.7c0.4-0.3,0.8-0.6,1.2-0.9L91,74c-0.2,0.4-0.4,0.8-0.6,1.3L66.8,61.7z M69.2,59.9  c0.4-0.3,0.7-0.6,1.1-1L92,71.4c-0.1,0.4-0.3,0.9-0.5,1.3L69.2,59.9z M71.3,57.9c0.3-0.3,0.7-0.7,1-1l20.4,11.8  c-0.1,0.5-0.2,0.9-0.3,1.4L71.3,57.9z M73.2,55.8c0.3-0.4,0.6-0.7,0.8-1.1l19.1,11c0,0.5-0.1,1-0.2,1.5L73.2,55.8z M76.3,51.2  c0.2-0.4,0.4-0.8,0.6-1.2L93,59.3c0.1,0.6,0.1,1.1,0.2,1.7L76.3,51.2z M78.5,46.1c0.1-0.5,0.3-0.9,0.4-1.4l11.9,6.9  c0.3,0.7,0.6,1.4,0.8,2.1L78.5,46.1z"/>
  <circle cx="76.7" cy="33.2" r="0.6"/>
  <circle cx="74.4" cy="33.2" r="0.6"/>
  <circle cx="74.4" cy="28.5" r="0.6"/>
  <circle cx="75.6" cy="30.8" r="0.6"/>
  <circle cx="70.9" cy="30.8" r="0.6"/>
  <circle cx="72.1" cy="33.2" r="0.6"/>
  <circle cx="72.1" cy="28.5" r="0.6"/>
  <circle cx="69.8" cy="28.5" r="0.6"/>
  <circle cx="73.2" cy="30.8" r="0.6"/>
  <circle cx="72.1" cy="23.9" r="0.6"/>
  <circle cx="69.8" cy="23.9" r="0.6"/>
  <circle cx="73.2" cy="26.2" r="0.6"/>
  <circle cx="70.9" cy="26.2" r="0.6"/>
  <circle cx="70.9" cy="21.5" r="0.6"/>
  <circle cx="67.4" cy="51.7" r="0.6"/>
  <circle cx="66.3" cy="54.1" r="0.6"/>
  <circle cx="68.6" cy="30.8" r="0.6"/>
  <circle cx="66.3" cy="30.8" r="0.6"/>
  <circle cx="66.3" cy="26.2" r="0.6"/>
  <circle cx="67.4" cy="28.5" r="0.6"/>
  <circle cx="65.1" cy="28.5" r="0.6"/>
  <circle cx="67.4" cy="23.9" r="0.6"/>
  <circle cx="65.1" cy="23.9" r="0.6"/>
  <circle cx="68.6" cy="26.2" r="0.6"/>
  <circle cx="68.6" cy="16.9" r="0.6"/>
  <circle cx="69.8" cy="19.2" r="0.6"/>
  <circle cx="67.4" cy="19.2" r="0.6"/>
  <circle cx="65.1" cy="19.2" r="0.6"/>
  <circle cx="68.6" cy="21.5" r="0.6"/>
  <circle cx="66.3" cy="21.5" r="0.6"/>
  <circle cx="66.3" cy="16.9" r="0.6"/>
  <circle cx="65.1" cy="47.1" r="0.6"/>
  <circle cx="63.9" cy="40.1" r="0.6"/>
  <circle cx="61.6" cy="30.8" r="0.6"/>
  <circle cx="63.9" cy="26.2" r="0.6"/>
  <circle cx="61.6" cy="26.2" r="0.6"/>
  <circle cx="62.8" cy="28.5" r="0.6"/>
  <circle cx="63.9" cy="30.8" r="0.6"/>
  <circle cx="61.6" cy="21.5" r="0.6"/>
  <circle cx="62.8" cy="23.9" r="0.6"/>
  <circle cx="60.5" cy="23.9" r="0.6"/>
  <circle cx="61.6" cy="16.9" r="0.6"/>
  <circle cx="62.8" cy="19.2" r="0.6"/>
  <circle cx="63.9" cy="21.5" r="0.6"/>
  <circle cx="61.6" cy="12.3" r="0.6"/>
  <circle cx="65.1" cy="14.6" r="0.6"/>
  <circle cx="62.8" cy="14.6" r="0.6"/>
  <circle cx="63.9" cy="16.9" r="0.6"/>
  <circle cx="58.1" cy="33.2" r="0.6"/>
  <circle cx="55.8" cy="33.2" r="0.6"/>
  <circle cx="60.5" cy="28.5" r="0.6"/>
  <circle cx="58.1" cy="28.5" r="0.6"/>
  <circle cx="55.8" cy="28.5" r="0.6"/>
  <circle cx="59.3" cy="30.8" r="0.6"/>
  <circle cx="57" cy="30.8" r="0.6"/>
  <circle cx="58.1" cy="23.9" r="0.6"/>
  <circle cx="55.8" cy="23.9" r="0.6"/>
  <circle cx="59.3" cy="26.2" r="0.6"/>
  <circle cx="57" cy="26.2" r="0.6"/>
  <circle cx="59.3" cy="16.9" r="0.6"/>
  <circle cx="57" cy="16.9" r="0.6"/>
  <circle cx="60.5" cy="19.2" r="0.6"/>
  <circle cx="58.1" cy="19.2" r="0.6"/>
  <circle cx="59.3" cy="21.5" r="0.6"/>
  <circle cx="57" cy="21.5" r="0.6"/>
  <circle cx="59.3" cy="12.3" r="0.6"/>
  <circle cx="57" cy="12.3" r="0.6"/>
  <circle cx="60.5" cy="14.6" r="0.6"/>
  <circle cx="58.1" cy="14.6" r="0.6"/>
  <circle cx="55.8" cy="14.6" r="0.6"/>
  <circle cx="54.7" cy="30.8" r="0.6"/>
  <circle cx="53.5" cy="33.2" r="0.6"/>
  <circle cx="51.2" cy="33.2" r="0.6"/>
  <circle cx="54.7" cy="26.2" r="0.6"/>
  <circle cx="52.3" cy="26.2" r="0.6"/>
  <circle cx="53.5" cy="28.5" r="0.6"/>
  <circle cx="51.2" cy="28.5" r="0.6"/>
  <circle cx="52.3" cy="30.8" r="0.6"/>
  <circle cx="53.5" cy="23.9" r="0.6"/>
  <circle cx="51.2" cy="23.9" r="0.6"/>
  <circle cx="55.8" cy="19.2" r="0.6"/>
  <circle cx="53.5" cy="19.2" r="0.6"/>
  <circle cx="54.7" cy="21.5" r="0.6"/>
  <circle cx="52.3" cy="21.5" r="0.6"/>
  <circle cx="53.5" cy="14.6" r="0.6"/>
  <circle cx="54.7" cy="16.9" r="0.6"/>
  <circle cx="52.3" cy="16.9" r="0.6"/>
  <circle cx="53.5" cy="9.9" r="0.6"/>
  <circle cx="54.7" cy="12.3" r="0.6"/>
  <circle cx="52.3" cy="12.3" r="0.6"/>
  <circle cx="50" cy="35.5" r="0.6"/>
  <circle cx="47.7" cy="30.8" r="0.6"/>
  <circle cx="48.9" cy="33.2" r="0.6"/>
  <circle cx="50" cy="26.2" r="0.6"/>
  <circle cx="47.7" cy="26.2" r="0.6"/>
  <circle cx="48.9" cy="28.5" r="0.6"/>
  <circle cx="46.5" cy="28.5" r="0.6"/>
  <circle cx="50" cy="30.8" r="0.6"/>
  <circle cx="47.7" cy="21.5" r="0.6"/>
  <circle cx="48.9" cy="23.9" r="0.6"/>
  <circle cx="51.2" cy="19.2" r="0.6"/>
  <circle cx="48.9" cy="19.2" r="0.6"/>
  <circle cx="50" cy="21.5" r="0.6"/>
  <circle cx="47.7" cy="12.3" r="0.6"/>
  <circle cx="51.2" cy="14.6" r="0.6"/>
  <circle cx="48.9" cy="14.6" r="0.6"/>
  <circle cx="50" cy="16.9" r="0.6"/>
  <circle cx="47.7" cy="16.9" r="0.6"/>
  <circle cx="51.2" cy="9.9" r="0.6"/>
  <circle cx="48.9" cy="9.9" r="0.6"/>
  <circle cx="50" cy="12.3" r="0.6"/>
  <circle cx="43" cy="30.8" r="0.6"/>
  <circle cx="46.5" cy="33.2" r="0.6"/>
  <circle cx="44.2" cy="33.2" r="0.6"/>
  <circle cx="41.9" cy="33.2" r="0.6"/>
  <circle cx="45.4" cy="26.2" r="0.6"/>
  <circle cx="44.2" cy="28.5" r="0.6"/>
  <circle cx="41.9" cy="28.5" r="0.6"/>
  <circle cx="45.4" cy="30.8" r="0.6"/>
  <circle cx="45.4" cy="21.5" r="0.6"/>
  <circle cx="43" cy="21.5" r="0.6"/>
  <circle cx="46.5" cy="23.9" r="0.6"/>
  <circle cx="44.2" cy="23.9" r="0.6"/>
  <circle cx="43" cy="26.2" r="0.6"/>
  <circle cx="45.4" cy="16.9" r="0.6"/>
  <circle cx="43" cy="16.9" r="0.6"/>
  <circle cx="46.5" cy="19.2" r="0.6"/>
  <circle cx="44.2" cy="19.2" r="0.6"/>
  <circle cx="41.9" cy="19.2" r="0.6"/>
  <circle cx="45.4" cy="12.3" r="0.6"/>
  <circle cx="43" cy="12.3" r="0.6"/>
  <circle cx="46.5" cy="14.6" r="0.6"/>
  <circle cx="44.2" cy="14.6" r="0.6"/>
  <circle cx="46.5" cy="9.9" r="0.6"/>
  <circle cx="40.7" cy="30.8" r="0.6"/>
  <circle cx="38.4" cy="30.8" r="0.6"/>
  <circle cx="39.6" cy="28.5" r="0.6"/>
  <circle cx="37.2" cy="28.5" r="0.6"/>
  <circle cx="41.9" cy="23.9" r="0.6"/>
  <circle cx="39.6" cy="23.9" r="0.6"/>
  <circle cx="40.7" cy="26.2" r="0.6"/>
  <circle cx="38.4" cy="26.2" r="0.6"/>
  <circle cx="39.6" cy="19.2" r="0.6"/>
  <circle cx="40.7" cy="21.5" r="0.6"/>
  <circle cx="38.4" cy="21.5" r="0.6"/>
  <circle cx="40.7" cy="12.3" r="0.6"/>
  <circle cx="38.4" cy="12.3" r="0.6"/>
  <circle cx="41.9" cy="14.6" r="0.6"/>
  <circle cx="39.6" cy="14.6" r="0.6"/>
  <circle cx="40.7" cy="16.9" r="0.6"/>
  <circle cx="38.4" cy="16.9" r="0.6"/>
  <circle cx="33.8" cy="30.8" r="0.6"/>
  <circle cx="33.8" cy="26.2" r="0.6"/>
  <circle cx="34.9" cy="28.5" r="0.6"/>
  <circle cx="36.1" cy="30.8" r="0.6"/>
  <circle cx="37.2" cy="23.9" r="0.6"/>
  <circle cx="34.9" cy="23.9" r="0.6"/>
  <circle cx="36.1" cy="26.2" r="0.6"/>
  <circle cx="33.8" cy="16.9" r="0.6"/>
  <circle cx="37.2" cy="19.2" r="0.6"/>
  <circle cx="34.9" cy="19.2" r="0.6"/>
  <circle cx="36.1" cy="21.5" r="0.6"/>
  <circle cx="33.8" cy="21.5" r="0.6"/>
  <circle cx="37.2" cy="14.6" r="0.6"/>
  <circle cx="34.9" cy="14.6" r="0.6"/>
  <circle cx="36.1" cy="16.9" r="0.6"/>
  <circle cx="27.9" cy="33.2" r="0.6"/>
  <circle cx="31.4" cy="26.2" r="0.6"/>
  <circle cx="29.1" cy="26.2" r="0.6"/>
  <circle cx="32.6" cy="28.5" r="0.6"/>
  <circle cx="30.3" cy="28.5" r="0.6"/>
  <circle cx="31.4" cy="30.8" r="0.6"/>
  <circle cx="29.1" cy="30.8" r="0.6"/>
  <circle cx="31.4" cy="21.5" r="0.6"/>
  <circle cx="29.1" cy="21.5" r="0.6"/>
  <circle cx="32.6" cy="23.9" r="0.6"/>
  <circle cx="30.3" cy="23.9" r="0.6"/>
  <circle cx="31.4" cy="16.9" r="0.6"/>
  <circle cx="32.6" cy="19.2" r="0.6"/>
  <circle cx="30.3" cy="19.2" r="0.6"/>
  <circle cx="24.5" cy="30.8" r="0.6"/>
  <circle cx="25.6" cy="33.2" r="0.6"/>
  <circle cx="26.8" cy="26.2" r="0.6"/>
  <circle cx="27.9" cy="28.5" r="0.6"/>
  <circle cx="25.6" cy="28.5" r="0.6"/>
  <circle cx="26.8" cy="30.8" r="0.6"/>
  <circle cx="27.9" cy="23.9" r="0.6"/>
  <circle cx="23.3" cy="33.2" r="0.6"/>
</svg>