<?xml version="1.0" encoding="utf-8"?>
<svg version="1.1" x="0px" y="0px" viewBox="1.746 3.507 96.791 93.679" enable-background="new 0 0 100 100" xmlns="http://www.w3.org/2000/svg">
  <path d="M 75.3 40.4 C 75.8 38.4 76 36.4 76 34.4 C 76 20 64.2 8.2 49.8 8.2 C 35.4 8.2 23.6 20 23.6 34.4 C 23.6 36.4 23.9 38.5 24.4 40.5 C 13.4 43.9 5.8 54 5.8 65.5 C 5.8 80 17.5 91.8 32 91.8 C 38.8 91.8 45.1 89.2 50 84.6 C 54.9 89.2 61.3 91.8 68 91.8 C 82.5 91.8 94.2 80 94.2 65.6 C 94.2 53.8 86.5 43.6 75.3 40.4 Z M 26.8 41.9 C 27 41.9 27.2 41.8 27.4 41.8 L 26.9 42.3 C 26.9 42.2 26.8 42.1 26.8 41.9 Z M 55.8 61.1 C 55.8 61.1 55.8 61.1 55.8 61.1 L 54.8 60.1 C 54.8 60.1 54.8 60.1 54.8 60.1 L 55.8 61.1 Z M 56.2 65.6 C 56.2 66.4 56.2 67.2 56.1 67.9 L 46.8 77.2 C 46.5 76.7 46.2 76.1 46 75.6 L 56.2 65.4 C 56.2 65.4 56.2 65.5 56.2 65.6 Z M 48.5 48.1 L 40 56.6 C 39.4 56.4 38.9 56.1 38.4 55.8 L 42.8 51.4 L 47.3 46.9 C 47.7 47.3 48.2 47.6 48.6 48 C 48.6 48 48.5 48.1 48.5 48.1 Z M 54.9 52.9 L 59.6 48.2 L 66.5 41.3 C 67 41.3 67.5 41.2 68.1 41.2 C 68.4 41.2 68.7 41.2 69 41.2 L 55.7 54.6 C 55.5 54 55.2 53.5 54.9 52.9 Z M 53.2 50.1 L 60.9 42.4 C 61.9 42.1 63 41.8 64.1 41.7 L 54.2 51.6 C 53.8 51.1 53.5 50.6 53.2 50.1 Z M 51.4 48 C 53.2 46.3 55.2 44.9 57.3 43.9 L 52.2 49 C 52 48.6 51.7 48.3 51.4 48 Z M 44.5 60.1 C 44.8 60.2 45.2 60.2 45.5 60.3 L 44.2 61.6 C 44.2 61.1 44.3 60.6 44.5 60.1 Z M 50.7 60.6 C 50.7 60.6 50.7 60.6 50.7 60.6 L 51.2 61.1 L 51.8 60.5 C 52.7 60.4 53.7 60.3 54.6 60.1 L 44.3 70.5 C 44.2 69.8 44 69.1 44 68.4 L 51.2 61.2 L 50.7 60.6 Z M 56.1 63.3 L 45.3 74.1 C 45.1 73.5 44.9 72.9 44.7 72.3 L 55.7 61.3 C 55.9 61.9 56 62.6 56.1 63.3 Z M 56.9 57.6 C 56.7 57.1 56.6 56.6 56.4 56.1 L 63.1 49.4 L 70.9 41.6 C 71.5 41.7 72.2 41.8 72.8 41.9 C 72.8 42 72.7 42.1 72.7 42.2 L 57.5 57.3 C 57.3 57.4 57.1 57.5 56.9 57.6 Z M 46.1 45.9 L 37 55 C 36.5 54.7 36 54.4 35.5 54 L 44.6 44.9 C 45.2 45.2 45.6 45.6 46.1 45.9 Z M 43.3 44.2 L 34.4 53.1 C 34 52.7 33.5 52.4 33.1 52 L 41.7 43.4 C 42.2 43.6 42.8 43.9 43.3 44.2 Z M 34.3 46.1 L 38.2 42.2 C 38.8 42.4 39.4 42.6 40.1 42.8 L 32 50.9 C 31.6 50.5 31.2 50 30.9 49.6 L 34.3 46.1 Z M 30 48.3 C 29.7 47.8 29.3 47.3 29 46.8 L 34.4 41.4 C 35.1 41.5 35.8 41.6 36.5 41.7 L 30 48.3 Z M 28.3 45.5 C 28 45 27.8 44.4 27.5 43.8 L 28.5 42.8 L 29.9 41.4 C 30.6 41.3 31.3 41.3 32 41.3 C 32.1 41.3 32.3 41.3 32.4 41.3 L 28.3 45.5 Z M 44.4 54.4 C 43.9 55.5 43.5 56.6 43.1 57.7 C 42.6 57.6 42.1 57.4 41.6 57.2 L 44.4 54.4 Z M 43.8 65.6 C 43.8 65.1 43.8 64.5 43.9 64 L 46.7 61.2 L 45.9 60.4 C 45.9 60.4 45.9 60.4 45.9 60.4 L 46.7 61.2 L 47.3 60.6 C 48.1 60.7 48.8 60.7 49.6 60.7 L 43.8 66.5 C 43.8 66.1 43.8 65.9 43.8 65.6 Z M 47.6 78.5 L 55.7 70.4 C 55.5 71.6 55.1 72.7 54.7 73.8 L 48.6 80 C 48.2 79.5 47.9 79 47.6 78.5 Z M 50.4 80.2 L 52.8 77.8 C 52 79.2 51 80.5 49.9 81.7 C 49.7 81.5 49.6 81.3 49.4 81.1 L 50.4 80.2 Z M 61.2 55.7 L 71 45.9 C 68.8 50.1 65.4 53.5 61.2 55.7 Z M 49.8 10.2 C 63.1 10.2 74 21.1 74 34.4 C 74 36.2 73.8 38 73.4 39.9 C 71.6 39.5 69.8 39.3 68.1 39.3 C 61.3 39.3 55 41.8 50.1 46.5 C 45.2 41.9 38.9 39.3 32.1 39.3 C 30.2 39.3 28.3 39.5 26.3 40 C 25.9 38.1 25.6 36.3 25.6 34.4 C 25.6 26.891 29.043 20.146 34.453 15.697 C 38.625 12.266 43.966 10.2 49.8 10.2 Z M 32 89.8 C 18.6 89.8 7.8 78.9 7.8 65.6 C 7.8 55 14.8 45.6 24.9 42.5 C 27.6 50.8 34.2 57.2 42.6 59.7 C 42.1 61.7 41.9 63.7 41.9 65.6 C 41.9 72.2 44.3 78.4 48.7 83.2 C 44.1 87.4 38.2 89.8 32 89.8 Z M 68 89.8 C 61.8 89.8 55.9 87.5 51.4 83.2 C 55.8 78.4 58.2 72.1 58.2 65.6 C 58.2 63.6 58 61.6 57.5 59.6 C 65.7 57.1 72.2 50.6 74.8 42.4 C 85.1 45.4 92.3 54.8 92.3 65.6 C 92.2 78.9 81.4 89.8 68 89.8 Z"/>
</svg>