<svg id="svg" xmlns="http://www.w3.org/2000/svg" xmlns:xlink="http://www.w3.org/1999/xlink" width="400" height="400" viewBox="0, 0, 400,400" version="1.1"><g id="svgg"><path id="path0" d="M187.109 23.165 C 181.953 23.688,174.395 25.053,170.313 26.198 C 166.230 27.344,162.363 28.360,161.719 28.457 C 161.074 28.553,159.141 29.257,157.422 30.021 C 146.914 34.689,142.516 36.954,136.660 40.710 C 133.049 43.027,129.911 44.922,129.687 44.922 C 128.852 44.922,121.490 51.400,114.536 58.254 C 101.626 70.979,88.811 93.654,84.763 110.938 C 83.605 115.879,82.462 120.449,82.223 121.094 C 81.983 121.738,81.727 123.320,81.654 124.609 C 81.580 125.898,81.229 131.486,80.874 137.025 L 80.228 147.097 72.341 150.825 C 48.683 162.007,26.672 186.070,16.281 212.109 C 15.423 214.258,14.186 217.246,13.531 218.750 C 11.359 223.739,11.060 224.600,11.087 225.781 C 11.102 226.426,10.360 230.996,9.439 235.938 C 7.827 244.590,7.092 264.588,8.130 271.569 C 12.547 301.266,24.762 324.941,45.692 344.373 C 54.495 352.546,70.489 363.643,75.781 365.250 C 76.855 365.576,79.492 366.643,81.641 367.621 C 83.789 368.599,86.953 369.805,88.672 370.301 C 90.391 370.797,92.500 371.501,93.359 371.866 C 109.451 378.697,145.459 377.463,166.797 369.348 C 172.383 367.224,178.202 365.016,179.728 364.441 C 182.717 363.315,188.385 359.809,195.427 354.731 L 199.838 351.550 207.412 356.614 C 229.954 371.686,262.375 379.675,285.424 375.837 C 288.364 375.348,292.055 374.925,293.627 374.897 C 295.198 374.870,297.891 374.383,299.609 373.816 C 301.328 373.248,306.250 371.676,310.547 370.322 C 317.775 368.045,322.076 366.383,325.000 364.736 C 325.645 364.373,327.912 363.153,330.039 362.024 C 352.792 349.949,377.450 322.288,384.287 301.172 C 389.074 286.388,390.775 280.305,391.060 276.953 C 391.243 274.805,391.620 271.816,391.898 270.313 C 394.057 258.639,390.605 227.858,385.984 217.578 C 385.211 215.859,384.319 213.574,384.002 212.500 C 383.217 209.842,378.094 199.576,375.529 195.523 C 374.379 193.706,373.438 192.057,373.438 191.860 C 373.438 188.533,343.336 157.813,340.075 157.813 C 339.718 157.813,338.041 156.872,336.350 155.723 C 334.658 154.573,330.614 152.333,327.362 150.744 C 319.703 147.001,319.798 147.159,319.240 137.109 C 318.536 124.397,317.884 118.450,317.103 117.617 C 316.720 117.209,316.406 116.236,316.406 115.454 C 316.406 110.507,307.577 88.580,302.089 79.898 C 300.940 78.081,300.000 76.409,300.000 76.184 C 300.000 75.094,285.763 58.339,281.641 54.577 C 270.566 44.472,256.913 35.740,245.116 31.217 C 242.861 30.352,240.313 29.320,239.453 28.924 C 229.197 24.199,204.126 21.440,187.109 23.165 M212.891 40.179 C 215.039 40.373,218.892 41.080,221.453 41.750 C 224.014 42.420,226.591 42.969,227.179 42.969 C 230.790 42.969,249.316 51.636,257.600 57.201 C 263.445 61.128,279.688 76.068,279.688 77.518 C 279.688 77.935,281.094 79.873,282.813 81.826 C 284.531 83.779,285.938 85.648,285.938 85.979 C 285.938 86.311,287.179 88.459,288.696 90.752 C 290.214 93.045,291.678 95.790,291.949 96.852 C 292.221 97.913,293.050 99.847,293.792 101.149 C 294.534 102.450,295.556 104.922,296.062 106.641 C 296.569 108.359,297.286 110.469,297.656 111.328 C 301.061 119.241,303.999 142.521,301.389 140.908 C 294.407 136.593,260.053 136.965,243.359 141.537 C 238.633 142.832,234.063 144.031,233.203 144.202 C 230.149 144.809,212.790 153.851,206.474 158.124 L 200.058 162.465 195.263 159.162 C 187.746 153.985,178.209 148.817,172.461 146.805 C 170.850 146.241,169.531 145.499,169.531 145.156 C 169.531 144.812,168.916 144.529,168.164 144.525 C 167.412 144.522,164.512 143.807,161.719 142.936 C 145.218 137.792,121.054 136.307,105.864 139.505 L 97.760 141.210 98.074 133.977 C 98.618 121.463,103.091 105.887,109.390 94.569 C 114.949 84.579,115.852 83.151,119.546 78.503 C 126.174 70.163,142.860 55.213,144.531 56.118 C 144.746 56.234,145.981 55.484,147.275 54.452 C 150.451 51.918,163.440 45.751,168.750 44.257 C 186.121 39.368,194.897 38.557,212.891 40.179 M141.132 155.728 C 145.845 156.153,149.855 156.975,151.537 157.860 C 152.195 158.207,154.492 158.891,156.641 159.382 C 165.059 161.303,185.156 171.557,185.156 173.931 C 185.156 174.614,183.717 176.892,181.959 178.993 C 180.200 181.094,178.954 182.813,179.190 182.813 C 179.426 182.813,177.726 185.451,175.412 188.677 C 168.631 198.127,161.262 213.434,158.646 223.499 C 155.917 233.997,155.757 234.199,151.851 232.084 C 134.612 222.750,117.273 205.402,110.020 190.234 C 109.198 188.516,107.683 185.527,106.653 183.594 C 105.623 181.660,104.759 179.619,104.734 179.059 C 104.708 178.498,103.996 176.520,103.150 174.664 C 102.304 172.807,101.398 169.750,101.136 167.871 C 100.874 165.991,100.301 163.708,99.862 162.798 C 98.613 160.205,99.376 158.363,101.979 157.688 C 112.011 155.089,126.179 154.380,141.132 155.728 M294.531 156.795 L 300.391 158.272 300.305 161.132 C 299.638 183.299,272.039 220.126,246.381 233.084 L 243.934 234.320 243.452 231.906 C 243.186 230.578,242.969 228.502,242.969 227.292 C 242.969 226.082,242.659 224.901,242.281 224.667 C 241.424 224.138,239.063 217.035,239.063 214.988 C 239.063 214.154,238.535 213.035,237.891 212.500 C 237.246 211.965,236.719 211.186,236.719 210.769 C 236.719 210.072,231.864 200.083,229.518 195.953 C 228.967 194.983,227.197 192.347,225.586 190.097 C 223.975 187.846,222.649 185.726,222.641 185.385 C 222.632 185.044,221.134 183.286,219.313 181.478 C 216.657 178.842,211.455 171.616,213.625 173.577 C 213.947 173.868,216.375 172.629,219.020 170.822 C 239.445 156.868,271.325 150.946,294.531 156.795 M85.076 173.887 C 93.043 205.010,121.406 238.871,148.287 249.352 C 153.491 251.381,153.526 251.452,153.791 260.539 C 154.126 271.999,157.540 289.971,160.992 298.438 C 166.970 313.102,176.063 328.092,184.336 336.919 C 187.350 340.135,187.500 339.723,182.044 343.237 C 141.672 369.248,88.368 363.314,54.043 328.989 C 48.190 323.136,39.686 311.840,37.881 307.519 C 37.255 306.021,36.429 304.601,36.045 304.364 C 35.662 304.127,34.572 301.905,33.623 299.427 C 32.674 296.949,31.425 294.030,30.847 292.940 C 29.714 290.803,27.902 284.133,26.081 275.391 C 22.322 257.345,26.732 223.481,33.967 214.844 C 34.507 214.199,34.942 213.145,34.934 212.500 C 34.867 207.061,52.465 185.234,64.405 175.947 C 80.107 163.734,82.418 163.504,85.076 173.887 M323.837 167.974 C 326.095 169.266,328.378 170.848,328.910 171.489 C 329.443 172.131,330.225 172.656,330.649 172.656 C 332.122 172.656,341.243 180.483,347.801 187.376 C 373.193 214.057,381.722 251.305,370.771 287.690 C 368.207 296.210,363.037 307.257,359.986 310.737 C 359.324 311.492,358.242 313.164,357.582 314.453 C 356.922 315.742,355.722 317.500,354.914 318.359 C 354.106 319.219,351.762 322.031,349.705 324.609 C 345.671 329.665,343.337 331.891,339.063 334.762 C 337.559 335.771,335.098 337.689,333.594 339.022 C 327.156 344.731,310.550 353.527,304.989 354.175 C 303.731 354.321,302.006 354.808,301.156 355.258 C 291.307 360.459,250.161 360.090,242.578 354.732 C 242.148 354.428,240.215 353.732,238.281 353.186 C 236.348 352.639,233.535 351.557,232.031 350.782 C 230.527 350.007,227.363 348.421,225.000 347.258 C 222.637 346.095,219.977 344.478,219.090 343.666 C 218.203 342.853,217.149 342.176,216.747 342.163 C 213.129 342.040,213.060 339.880,216.544 335.767 C 221.336 330.107,228.379 320.494,230.155 317.188 C 230.963 315.684,231.969 313.973,232.390 313.386 C 232.810 312.799,233.572 311.217,234.082 309.870 C 234.593 308.524,236.462 303.906,238.237 299.609 C 242.434 289.448,245.307 275.748,245.855 263.281 C 246.358 251.862,245.913 252.645,254.559 247.981 C 277.529 235.591,294.705 218.337,306.602 195.703 C 308.183 192.695,309.768 189.707,310.125 189.063 C 310.863 187.730,315.615 172.498,316.219 169.531 C 317.134 165.031,318.283 164.796,323.837 167.974 M181.250 259.474 C 184.902 259.930,188.418 260.485,189.063 260.709 C 192.587 261.934,221.093 260.051,227.841 258.147 C 229.719 257.618,229.739 258.903,228.043 271.094 C 225.284 290.939,216.272 310.806,203.941 324.227 L 200.001 328.516 196.397 324.609 C 183.872 311.031,173.172 287.212,171.481 269.141 C 171.240 266.563,170.879 262.918,170.680 261.042 C 170.321 257.661,170.336 257.636,172.463 258.139 C 173.644 258.418,177.598 259.019,181.250 259.474 " stroke="none" fill="#000000" fill-rule="evenodd"></path></g></svg>