<svg version="1.2" baseProfile="tiny" xmlns="http://www.w3.org/2000/svg"
     x="0px" y="0px" viewBox="0 0 512 512" xml:space="preserve">
  <style type="text/css">
	.st0{fill:#ffd700}
</style>
  <path class="st0" d="M279,493.5c-138.3,0-250.8-108.4-250.8-241.6C28.1,143.7,103.6,48,211.7,19c1.1-0.3,2.3-0.5,3.5-0.5c3.6,0,7.1,1.4,9.7,4
			c2.6,2.5,4.1,5.9,4.1,9.6c0,3.7-1.4,7.3-4,9.9c-39.8,40.1-61.7,92.6-61.7,147.7c0,118.1,100.2,214.2,223.4,214.2
			c20.2,0,40.4-2.7,60-7.9c1.1-0.3,2.3-0.5,3.5-0.5c3.6,0,7.1,1.4,9.8,4l0.1,0.1c5.3,5.3,5.3,14,0,19.4
			C412.3,467,347.9,493.5,279,493.5z M166.6,67C98.3,105.3,56,176.2,56,251.8C56,369.9,156.2,466,279.4,466
			c41.4,0,81.5-10.8,116.2-31.2l-1.1-3.7c-2.4,0.1-4.8,0.1-7.2,0.1c-138.3,0-250.8-108.4-250.8-241.6c0-42.4,11.4-83.8,32.9-119.8
			l3.9-6.5L166.6,67z"/>
  <path class="st0" d="M446.1,257.5c-1.6,0-3.2-0.5-4.5-1.4l-34.6-25l-34.5,24.6c-1.3,0.9-2.9,1.4-4.5,1.4c-0.8,0-1.7-0.1-2.4-0.4
			c-2-0.7-3.6-2.1-4.5-4c-0.9-1.8-1-3.9-0.4-5.8l13-38.7l-34.3-23.6c-2.1-1.4-3.3-3.8-3.3-6.3c0-4.3,3.5-7.7,7.7-7.7h42.7l13.2-39.9
			c0.8-2.3,2.6-4.2,5-5c0.7-0.2,1.5-0.4,2.3-0.4c3.3,0,6.4,2.2,7.4,5.3l13.2,39.9h42.7c3.3,0,6.3,2.2,7.3,5.4
			c1.1,3.2-0.1,6.7-2.9,8.8l-34.3,23.5l13.1,39.2c0.8,2.3,0.4,5-1.1,6.9C450.9,256.3,448.6,257.5,446.1,257.5L446.1,257.5z
			 M406.6,213.9c1.6,0,3.2,0.5,4.5,1.5l19.6,14.1l-7.3-21.9c-1.1-3.3,0.1-6.8,3-8.5l0.1-0.1l18.5-12.8h-23.4c-3.3,0-6.3-2.2-7.3-5.4
			l-7.6-22.9l-7.5,23c-1.1,3.2-4,5.3-7.3,5.3h-23.5l18.6,12.8c2.8,1.9,4,5.5,2.9,8.8l-7.3,21.6l19.6-14
			C403.5,214.4,405,213.9,406.6,213.9z"/>
  <path class="st0" d="M269.2,141.8c-0.8,0-1.6-0.1-2.3-0.3c-2-0.6-3.6-1.9-4.5-3.7c-1-1.8-1.2-3.9-0.5-5.9l6.5-21.4l-17-13.7
			c-2.6-2.1-3.6-5.7-2.4-8.8c1.1-3,4.1-4.9,7.5-4.9h20.2l6.3-19.4c0.8-2.3,2.6-4.2,5-4.9c0.7-0.2,1.5-0.4,2.3-0.4
			c3.3,0,6.4,2.2,7.4,5.3l6.3,19.4h20.4c2.3,0,4.6,1.1,6,2.9c1.3,1.6,1.9,3.6,1.7,5.7c-0.2,2.1-1.2,3.9-2.8,5.2l-17,13.7l6.4,20.7
			c0.7,2.2,0.3,4.8-1.1,6.7c-1.4,2.1-3.8,3.3-6.3,3.3c-1.6,0-3.1-0.5-4.4-1.4l-16.5-11.5l-16.5,12.2
			C272.5,141.3,270.9,141.8,269.2,141.8L269.2,141.8z M288.6,95c-1.3,1.8-3.2,3-5.2,3.3l-4.2,0.6l3.2,2.8c2,1.8,2.9,4.5,2.5,7.2
			l-0.6,3.4l3.2-1.2c0.8-0.3,1.7-0.5,2.7-0.5c0.9,0,1.9,0.2,2.8,0.5l3.2,1.1l-0.6-3.3c-0.5-2.7,0.5-5.4,2.6-7.2l3.4-2.9l-4.4-0.6
			c-2.1-0.3-4.1-1.5-5.4-3.3l-1.6-2.4L288.6,95z"/>
  <path class="st0" d="M360,373.3c-1.8,0-3.4-0.6-4.8-1.7l-16.3-12.9l-16.2,12.6c-1.3,1-3,1.6-4.7,1.6c-0.8,0-1.6-0.1-2.3-0.4
			c-2-0.6-3.6-1.9-4.6-3.8c-1-1.8-1.2-3.9-0.5-5.9l6.4-20.3l-16.6-12.2c-2-1.5-3.2-3.8-3.2-6.3c0-4.3,3.5-7.7,7.7-7.7h20.3l6.4-21.1
			c0.8-2.5,2.7-4.4,5.2-5.2c0.7-0.2,1.5-0.3,2.2-0.3c3.4,0,6.4,2.3,7.4,5.5l6.4,21.1h20.3c3.3,0,6.3,2.2,7.3,5.3
			c1,3.2-0.1,6.7-2.8,8.8l-16.6,12.1l6.5,20.8c0.8,2.4,0.3,5-1.3,7C364.5,372.3,362.4,373.3,360,373.3L360,373.3z M337.3,328.5
			c-1,1.5-2.5,2.6-4.3,3l-3,0.8l1.9,2.4c1.1,1.4,1.7,3.1,1.7,5.1v2.9l2.7-1c0.8-0.3,1.6-0.5,2.5-0.5c0.9,0,1.8,0.2,2.6,0.5l2.8,1
			l-0.1-3c-0.1-1.7,0.5-3.5,1.7-5l1.9-2.4l-2.9-0.8c-1.6-0.4-3.2-1.6-4.2-3.1l-1.7-2.5L337.3,328.5z"/>
</svg>
