<svg xmlns="http://www.w3.org/2000/svg" width="1194.7" height="860" version="1.0" viewBox="0 0 896 645"><path d="m330 1-6 2c-7 2-19 7-24 11-4 3-5 3-7 3h-26c-9 2-20 5-31 11-9 5-18 8-25 8-8 0-13 3-23 16-2 3-6 5-13 8-7 4-10 6-16 13-4 4-9 10-10 13l-3 6h-7c-8 1-19 6-26 11l-10 12-14 15c-8 8-12 15-13 22 0 5 0 6-3 6-7 2-14 6-19 12l-11 13c-9 15-10 17-10 26 0 4 0 4-3 4-5 0-11 4-15 9-3 5-4 11-8 31l-4 16c-5 9-4 22 2 28l3 3-3 3c-4 5-5 10-5 23 0 12 1 18 6 28l2 9c1 6 6 19 9 22l6 11c2 8 10 24 12 28l7 8c7 9 15 14 23 15 6 0 6 0 8 5l1 5c0 2 9 20 13 23l5 9 4 8 4 8a101 101 0 0 0 13 21l6 6 7 6 8 7 8 5c4 4 12 8 14 8l9 6c4 3 10 8 14 9l12 6c7 4 14 5 20 4 3-1 5-1 9 1 8 5 13 6 18 4 3-2 4-2 5 0 1 1-1 3-9 12-11 12-13 14-12 17 1 4 9 11 16 14l11 8c4 5 5 6 10 6s6 0 11-4c15-14 34-23 58-27 12-2 17-4 26-9 14-7 27-20 33-34l4-7 6 1c18 2 42-1 56-6l5-2 5 4a97 97 0 0 0 27 19l6 3c5 2 7 2 15 2l12-1 5-2 2-1h21l7 3 8 2 4 1c2 2 9 2 21 2l15-1 4-2 5-3c2-2 4-2 7-2 14 0 25-2 35-8l11-2 12-2c9-3 23-8 30-13 14-10 30-22 31-25 1-2 1-2 3-1 3 1 10 1 13-1l7-2c6-1 8-1 15-9l10-8 13-2c11-1 11-1 17-4s11-7 17-16l5-8c4-2 12-14 17-26l7-12c5-7 11-19 12-26 0-6 2-13 5-17l3-9 3-10c3-6 5-32 3-35-1-1-1-4 1-7l2-21c1-16 1-17-1-25l-4-12-3-16-1-16c-2-12-9-27-15-33-3-3-3-4-4-9 0-7-4-21-8-27l-8-9a966 966 0 0 1-31-28c-4-2-5-3-7-8-3-7-10-16-14-17l-5-3c-1-4-9-12-13-14l-12-10c-23-20-43-30-61-30-7 0-7 0-14-6-17-13-34-21-58-27-24-7-28-7-64-7-17 0-25-1-40-6-9-2-24-3-35 0-7 2-11 2-15 1l-32-7a199 199 0 0 0-46-8c-18 1-21 2-26 3-4 2-5 2-12 0l-8-2h-27z"/></svg>